<svg width="19" height="22" viewBox="0 0 19 22" fill="none" xmlns="http://www.w3.org/2000/svg">
<path d="M3.63734 16.5C3.63734 17.0042 4.04654 17.4167 4.54668 17.4167H5.45601V20.625C5.45601 21.3858 6.06527 22 6.82002 22C7.57476 22 8.18402 21.3858 8.18402 20.625V17.4167H10.0027V20.625C10.0027 21.3858 10.6119 22 11.3667 22C12.1214 22 12.7307 21.3858 12.7307 20.625V17.4167H13.64C14.1402 17.4167 14.5494 17.0042 14.5494 16.5V7.33333H3.63734V16.5ZM1.364 7.33333C0.609255 7.33333 0 7.9475 0 8.70833V15.125C0 15.8858 0.609255 16.5 1.364 16.5C2.11875 16.5 2.72801 15.8858 2.72801 15.125V8.70833C2.72801 7.9475 2.11875 7.33333 1.364 7.33333ZM16.8227 7.33333C16.068 7.33333 15.4587 7.9475 15.4587 8.70833V15.125C15.4587 15.8858 16.068 16.5 16.8227 16.5C17.5775 16.5 18.1867 15.8858 18.1867 15.125V8.70833C18.1867 7.9475 17.5775 7.33333 16.8227 7.33333ZM12.3033 1.98L13.4854 0.788333C13.6673 0.605 13.6673 0.320833 13.4854 0.1375C13.3036 -0.0458333 13.0217 -0.0458333 12.8398 0.1375L11.494 1.49417C10.7756 1.1275 9.95722 0.916667 9.09335 0.916667C8.22039 0.916667 7.40199 1.1275 6.67452 1.49417L5.31961 0.1375C5.13774 -0.0458333 4.85585 -0.0458333 4.67398 0.1375C4.49212 0.320833 4.49212 0.605 4.67398 0.788333L5.86521 1.98917C4.5194 2.98833 3.63734 4.5925 3.63734 6.41667H14.5494C14.5494 4.5925 13.6673 2.97917 12.3033 1.98ZM7.27468 4.58333H6.36535V3.66667H7.27468V4.58333ZM11.8214 4.58333H10.912V3.66667H11.8214V4.58333Z" fill="#EB6054"/>
</svg>
