<svg width="152" height="50" viewBox="0 0 152 50" fill="none" xmlns="http://www.w3.org/2000/svg">
<path fill-rule="evenodd" clip-rule="evenodd" d="M5 0C2.23858 0 0 2.23858 0 5V45C0 47.7614 2.23858 50 5 50H147C149.761 50 152 47.7614 152 45V5C152 2.23858 149.761 0 147 0H5ZM14.9412 32.5C14.9412 33.1875 15.4971 33.75 16.1765 33.75H17.4118V38.125C17.4118 39.1625 18.2394 40 19.2647 40C20.29 40 21.1176 39.1625 21.1176 38.125V33.75H23.5882V38.125C23.5882 39.1625 24.4159 40 25.4412 40C26.4665 40 27.2941 39.1625 27.2941 38.125V33.75H28.5294C29.2088 33.75 29.7647 33.1875 29.7647 32.5V20H14.9412V32.5ZM11.8529 20C10.8276 20 10 20.8375 10 21.875V30.625C10 31.6625 10.8276 32.5 11.8529 32.5C12.8782 32.5 13.7059 31.6625 13.7059 30.625V21.875C13.7059 20.8375 12.8782 20 11.8529 20ZM32.8529 20C31.8276 20 31 20.8375 31 21.875V30.625C31 31.6625 31.8276 32.5 32.8529 32.5C33.8782 32.5 34.7059 31.6625 34.7059 30.625V21.875C34.7059 20.8375 33.8782 20 32.8529 20ZM26.7135 12.7L28.3194 11.075C28.5665 10.825 28.5665 10.4375 28.3194 10.1875C28.0724 9.9375 27.6894 9.9375 27.4424 10.1875L25.6141 12.0375C24.6382 11.5375 23.5265 11.25 22.3529 11.25C21.1671 11.25 20.0553 11.5375 19.0671 12.0375L17.2265 10.1875C16.9794 9.9375 16.5965 9.9375 16.3494 10.1875C16.1024 10.4375 16.1024 10.825 16.3494 11.075L17.9676 12.7125C16.1394 14.075 14.9412 16.2625 14.9412 18.75H29.7647C29.7647 16.2625 28.5665 14.0625 26.7135 12.7ZM19.8824 16.25H18.6471V15H19.8824V16.25ZM26.0588 16.25H24.8235V15H26.0588V16.25ZM50.658 15.83C50.658 12.988 48.446 11 45.66 11H43V20.66H45.66C48.446 20.66 50.658 18.672 50.658 15.83ZM49.874 15.83C49.874 18.336 48.026 19.974 45.59 19.974H43.756V11.686H45.59C48.012 11.686 49.874 13.338 49.874 15.83ZM58.4673 17.44C58.4673 15.48 56.9973 14.052 55.1353 14.052C53.2873 14.052 51.8173 15.48 51.8173 17.44C51.8173 19.4 53.2873 20.8 55.1353 20.8C56.9973 20.8 58.4673 19.4 58.4673 17.44ZM57.6973 17.412C57.6973 18.91 56.7173 20.142 55.1353 20.142C53.5673 20.142 52.5873 18.91 52.5873 17.412C52.5873 15.9 53.5673 14.682 55.1353 14.682C56.7173 14.682 57.6973 15.9 57.6973 17.412ZM67.9178 14.164H68.6878L66.5178 20.66H65.8878L63.8578 15.2L61.8278 20.66H61.1978L59.0278 14.164H59.7978L61.5478 19.61L63.5778 14.15H64.1378L66.1678 19.61L67.9178 14.164ZM75.068 20.66V16.782C75.068 15.242 74.634 14.052 72.772 14.052C71.834 14.052 70.994 14.598 70.672 15.368V14.164H69.944V20.66H70.672V17.44C70.672 15.9 71.344 14.682 72.744 14.682C74.144 14.682 74.326 15.76 74.326 16.81V20.66H75.068ZM77.1644 11H77.8924V20.66H77.1644V11ZM86.2212 17.44C86.2212 15.48 84.7512 14.052 82.8892 14.052C81.0412 14.052 79.5712 15.48 79.5712 17.44C79.5712 19.4 81.0412 20.8 82.8892 20.8C84.7512 20.8 86.2212 19.4 86.2212 17.44ZM85.4512 17.412C85.4512 18.91 84.4712 20.142 82.8892 20.142C81.3212 20.142 80.3412 18.91 80.3412 17.412C80.3412 15.9 81.3212 14.682 82.8892 14.682C84.4712 14.682 85.4512 15.9 85.4512 17.412ZM92.3068 16.81V20.66H91.5648V19.75C91.3268 20.03 90.6268 20.8 89.3668 20.8C88.1068 20.8 87.1968 19.96 87.1968 18.84C87.1968 17.72 88.0368 16.95 89.7868 16.88L91.5648 16.81V16.46C91.5648 15.27 90.7668 14.682 89.7448 14.682C88.7368 14.682 87.9668 15.13 87.8268 15.242L87.5468 14.71C87.9668 14.43 88.7368 14.052 89.7168 14.052C91.5228 14.052 92.3068 15.088 92.3068 16.81ZM91.5648 18.98V17.37L89.7168 17.482C88.3588 17.552 87.9248 18.14 87.9248 18.84C87.9248 19.54 88.4568 20.17 89.5068 20.17C90.5568 20.17 91.2568 19.47 91.5648 18.98ZM93.7763 17.412C93.7763 19.33 95.0362 20.8 96.9962 20.8C97.9762 20.8 98.8583 20.38 99.4043 19.456V20.66H100.146V11H99.4043V15.382C98.7743 14.43 97.9062 14.052 96.9682 14.052C95.0362 14.052 93.7763 15.48 93.7763 17.412ZM94.5462 17.412C94.5462 15.9 95.4283 14.682 96.9962 14.682C98.5782 14.682 99.4463 15.9 99.4463 17.412C99.4463 18.91 98.5782 20.142 96.9962 20.142C95.4283 20.142 94.5462 18.91 94.5462 17.412ZM107.95 14.052C109.812 14.052 111.282 15.48 111.282 17.44C111.282 19.4 109.812 20.8 107.95 20.8C106.102 20.8 104.632 19.4 104.632 17.44C104.632 15.48 106.102 14.052 107.95 14.052ZM107.95 20.142C109.532 20.142 110.512 18.91 110.512 17.412C110.512 15.9 109.532 14.682 107.95 14.682C106.382 14.682 105.402 15.9 105.402 17.412C105.402 18.91 106.382 20.142 107.95 20.142ZM118.011 20.66V16.782C118.011 15.242 117.577 14.052 115.715 14.052C114.777 14.052 113.937 14.598 113.615 15.368V14.164H112.887V20.66H113.615V17.44C113.615 15.9 114.287 14.682 115.687 14.682C117.087 14.682 117.269 15.76 117.269 16.81V20.66H118.011ZM125.43 19.96L125.5 20.59C125.262 20.73 124.94 20.8 124.52 20.8C123.89 20.8 123.526 20.534 123.288 20.1C123.064 19.666 123.05 19.19 123.05 18.14V14.85H122.07V14.192H123.05V12.12H123.792V14.192H125.43V14.85H123.778V18.574C123.778 19.288 123.862 20.142 124.73 20.142C125.15 20.142 125.43 19.96 125.43 19.96ZM131.958 20.66V16.782C131.958 15.242 131.524 14.052 129.662 14.052C128.724 14.052 127.884 14.598 127.562 15.368V11H126.834V20.66H127.562V17.44C127.562 15.9 128.234 14.682 129.634 14.682C131.034 14.682 131.216 15.76 131.216 16.81V20.66H131.958ZM136.725 14.052C138.433 14.052 139.665 15.34 139.665 17.09C139.665 17.3 139.623 17.58 139.623 17.58H134.345C134.415 19.12 135.283 20.142 136.753 20.142C138.223 20.142 139.035 19.302 139.035 19.302L139.385 19.82C139.385 19.82 138.573 20.8 136.683 20.8C134.793 20.8 133.575 19.4 133.575 17.412C133.575 15.41 135.003 14.052 136.725 14.052ZM134.373 16.95H138.923C138.923 16.11 138.293 14.682 136.683 14.682C135.073 14.682 134.415 16.04 134.373 16.95ZM54.0439 35.8853V32.667H50.161V31.4555H55.4683V36.4154C55.2341 36.6993 53.6536 38.4788 49.8292 38.4788C45.8683 38.4788 43 35.7906 43 31.7205C43 27.745 45.9658 25 49.7902 25C53.0525 25 54.5516 26.5897 55.1213 27.1938L55.1218 27.1943C55.1482 27.2223 55.1726 27.2482 55.1951 27.2717L54.2 28.2372C53.3024 27.2149 51.8975 26.2494 49.7902 26.2494C46.8439 26.2494 44.5024 28.3318 44.5024 31.7205C44.5024 35.1281 46.9219 37.1726 49.9268 37.1726C52.9317 37.1726 54.0439 35.8853 54.0439 35.8853ZM67.0984 33.8408C67.0984 36.5668 64.9911 38.441 62.3179 38.441C59.6448 38.441 57.557 36.5668 57.557 33.8408C57.557 31.1336 59.6448 29.2027 62.3179 29.2027C64.9911 29.2027 67.0984 31.1336 67.0984 33.8408ZM59.0399 33.8029C59.0399 35.696 60.2887 37.2105 62.3179 37.2105C64.3472 37.2105 65.6155 35.696 65.6155 33.8029C65.6155 31.8909 64.3472 30.4143 62.3179 30.4143C60.2887 30.4143 59.0399 31.8909 59.0399 33.8029ZM73.3126 38.441C75.9857 38.441 78.093 36.5668 78.093 33.8408C78.093 31.1336 75.9857 29.2027 73.3126 29.2027C70.6394 29.2027 68.5516 31.1336 68.5516 33.8408C68.5516 36.5668 70.6394 38.441 73.3126 38.441ZM73.3126 37.2105C71.2833 37.2105 70.0345 35.696 70.0345 33.8029C70.0345 31.8909 71.2833 30.4143 73.3126 30.4143C75.3418 30.4143 76.6101 31.8909 76.6101 33.8029C76.6101 35.696 75.3418 37.2105 73.3126 37.2105ZM87.3316 37.0022V36.51H87.2925C86.6291 37.5702 85.5169 38.1949 83.956 38.1949C81.5365 38.1949 79.5462 36.6615 79.5462 33.7082C79.5462 30.9254 81.5365 29.2027 83.9169 29.2027C85.595 29.2027 86.7462 29.9788 87.3121 30.9065H87.3511L87.3316 29.3731H88.7755V36.3586C88.7755 38.3463 88.4828 39.4065 87.8974 40.1826C87.3121 40.9777 86.1999 42 83.8779 42C81.7169 42 80.2435 40.8994 79.9577 40.6859L79.9575 40.6857C79.9389 40.6718 79.9253 40.6617 79.917 40.6559L80.6389 39.6526C81.2438 40.1069 82.5316 40.8073 83.956 40.8073C86.473 40.8073 87.3316 39.2171 87.3316 37.0022ZM81.0292 33.6893C81.0292 35.5445 82.1413 37.0212 84.2096 37.0212C86.2974 37.0212 87.3901 35.5445 87.3901 33.6893C87.3901 31.6637 86.1413 30.3953 84.1706 30.3953C82.1023 30.3953 81.0292 31.853 81.0292 33.6893ZM91.6253 38.2517H93.0692V25.1893H91.6253V38.2517ZM103.091 36.1503L103.716 36.9833C102.877 37.9488 101.55 38.441 99.7547 38.441C97.062 38.441 95.2474 36.6425 95.2474 33.784C95.2474 31.2661 97.023 29.2027 99.7547 29.2027C102.272 29.2027 104.008 30.9633 104.008 33.4053C104.008 33.7272 103.95 34.1437 103.95 34.1437H96.7303C96.7498 35.98 98.0571 37.2673 100.008 37.2673C101.803 37.2673 103.091 36.1503 103.091 36.1503ZM96.7498 33.0835H102.545C102.545 31.8341 101.706 30.3953 99.6962 30.3764C97.862 30.3575 96.8669 31.7016 96.7498 33.0835ZM110.111 38.2517H111.575V32.402H113.35C115.731 32.402 117.975 31.4365 117.975 28.7862C117.975 26.3062 115.926 25.1893 113.604 25.1893H110.111V38.2517ZM113.467 31.1904H111.575V26.4009H113.545C115.243 26.4009 116.472 27.2149 116.472 28.8051C116.472 30.5846 115.087 31.1904 113.467 31.1904ZM121.556 38.2517H120.112V25.1893H121.556V38.2517ZM129.686 38.2517H131.11V33.0457C131.11 30.5468 129.959 29.2027 127.286 29.2027C125.842 29.2027 124.632 29.7327 124.027 30.0735L124.515 31.0768C124.768 30.9065 125.861 30.3764 127.227 30.3764C128.612 30.3764 129.647 31.039 129.647 32.5345V32.9321L127.168 33.0457C124.671 33.1592 123.52 34.2194 123.52 35.7339C123.52 37.3619 124.925 38.441 126.661 38.441C128.398 38.441 129.315 37.4566 129.666 37.0779L129.686 38.2517ZM129.666 33.9543V36.0557C129.237 36.6236 128.203 37.3241 126.954 37.3241C125.783 37.3241 125.022 36.6047 125.022 35.7149C125.022 34.8062 125.588 34.1437 127.286 34.0679L129.666 33.9543ZM135.341 39.4065L135.849 38.2517L132.122 29.3541L133.624 29.3731L136.59 36.6804L139.498 29.3541L141 29.3731L136.532 39.8608C135.829 41.4889 135.205 41.9243 134.229 41.9243C133.41 41.9243 132.805 41.6214 132.805 41.6214L133.098 40.4287C133.098 40.4287 133.605 40.637 134.015 40.637C134.483 40.637 134.815 40.618 135.341 39.4065Z" fill="#443B76"/>
</svg>
