<svg xmlns="http://www.w3.org/2000/svg" width="230" height="75" fill="#423d72"><path d="M43.64 49.274h1.445v-13.84H43.6v11.413l-8.493-11.413H33.54v13.84h1.506v-6.7l-.02-4.874 8.613 11.573zm12.535-1.344l-.642-.883s-1.325 1.184-3.172 1.184c-2.008 0-3.353-1.364-3.373-3.3h7.428s.06-.44.06-.782c0-2.587-1.787-4.453-4.377-4.453-2.8 0-4.638 2.186-4.638 4.854 0 3.03 1.867 4.934 4.638 4.934 1.847 0 3.212-.522 4.076-1.544zm-1.205-4.132h-5.963c.12-1.464 1.144-2.888 3.032-2.868 2.068.02 2.93 1.544 2.93 2.868zm6.622 5.476l2.77-7.44 2.7 7.44h1.466l3.132-9.407h-1.525l-2.37 7.502-2.75-7.522H63.78L61 47.35l-2.4-7.482h-1.526l3.032 9.407h1.466zm25.305 0h1.707l-5.782-13.88h-1.144l-5.762 13.88h1.566l1.546-3.87h6.324l1.546 3.87zM84.83 44.08h-5.28l2.65-6.64 2.63 6.64zm5.353 8.965h1.486V47.65l.02.02c.723 1.264 2.088 1.805 3.474 1.805 2.63 0 4.537-2.126 4.537-4.914s-1.686-4.874-4.578-4.874c-1.666 0-2.9.943-3.433 1.825h-.02v-1.665h-1.486v13.198zm4.658-4.874c-2.108 0-3.232-1.585-3.232-3.6 0-2.046 1.385-3.63 3.273-3.63 2.088 0 3.273 1.585 3.273 3.63 0 2.026-1.225 3.6-3.313 3.6zm7.086 4.874h1.486V47.65l.02.02c.724 1.264 2.088 1.805 3.474 1.805 2.63 0 4.538-2.126 4.538-4.914s-1.687-4.874-4.578-4.874c-1.667 0-2.9.943-3.434 1.825h-.02v-1.665h-1.486v13.198zm4.658-4.874c-2.108 0-3.233-1.585-3.233-3.6 0-2.046 1.385-3.63 3.273-3.63 2.088 0 3.273 1.585 3.273 3.63 0 2.026-1.226 3.6-3.313 3.6zm6.865-1.304l-.783.943c.703 1.003 1.948 1.665 3.494 1.665 1.947 0 3.453-1.063 3.453-2.868 0-2.026-2.088-2.507-3.032-2.828-1.043-.34-2.008-.742-2.008-1.605 0-.882.683-1.344 1.667-1.344a3.7 3.7 0 0 1 2.37.863l.723-.903c-.663-.602-1.566-1.103-3.092-1.103s-3.032.903-3.032 2.628c0 1.986 2.008 2.447 2.7 2.668.723.24 2.308.622 2.308 1.745s-.983 1.565-2.007 1.565c-.904 0-1.847-.4-2.75-1.424zm23.42 2.407h1.526l4.116-13.84h-1.566l-3.332 11.614-3.535-11.614h-1.465L129.2 46.927l-3.252-11.493h-1.566l3.935 13.86h1.525l3.514-11.533 3.513 11.513zm14.887-1.344l-.643-.883s-1.325 1.184-3.172 1.184c-2.008 0-3.353-1.364-3.373-3.3H152s.06-.44.06-.782c0-2.587-1.787-4.453-4.377-4.453-2.8 0-4.638 2.186-4.638 4.854 0 3.03 1.868 4.934 4.638 4.934 1.847 0 3.212-.522 4.076-1.544zm-1.205-4.132h-5.963c.12-1.464 1.145-2.888 3.032-2.868 2.068.02 2.93 1.544 2.93 2.868zm7.785 5.476h6.405V47.93h-4.9V35.434h-1.506v13.84zm12.25.2c2.75 0 4.918-1.986 4.918-4.874 0-2.868-2.168-4.914-4.918-4.914s-4.9 2.046-4.9 4.914c0 2.888 2.148 4.874 4.9 4.874zm0-1.304c-2.088 0-3.374-1.605-3.374-3.6 0-2.026 1.286-3.6 3.374-3.6s3.393 1.565 3.393 3.6c0 2.006-1.305 3.6-3.393 3.6zm9.607 1.103h1.245l3.955-9.407h-1.546l-3 7.482-3.032-7.482h-1.546l3.935 9.407zm14.657-1.344l-.643-.883s-1.325 1.184-3.172 1.184c-2.007 0-3.353-1.364-3.373-3.3h7.428s.06-.44.06-.782c0-2.587-1.787-4.453-4.377-4.453-2.8 0-4.638 2.186-4.638 4.854 0 3.03 1.867 4.934 4.638 4.934 1.847 0 3.213-.522 4.076-1.544zm-1.205-4.132h-5.963c.12-1.464 1.145-2.888 3.032-2.868 2.068.02 2.93 1.544 2.93 2.868zM75.876 67.32c0-1.065-.607-1.806-1.485-2.235l-1.572-.7c-.52-.22-1.102-.533-1.102-1.364s.643-1.247 1.485-1.247 1.46.494 1.88.96l.63-.857c-.236-.26-1.052-1.156-2.45-1.156-1.36 0-2.747.793-2.747 2.4 0 1.052.532 1.767 1.4 2.196.322.17.915.416 1.36.598.433.182 1.386.546 1.386 1.48 0 .948-.742 1.507-1.67 1.507s-1.733-.676-2.166-1.286l-.706.845c.4.494 1.262 1.507 2.76 1.507s2.983-.9 2.983-2.65zm6.636-.845c0-1.728-1.15-2.95-2.785-2.95s-2.983 1.247-2.983 3.196c0 1.962 1.2 3.235 2.946 3.235 1.758 0 2.513-.9 2.587-.974l-.495-.715c-.136.1-.842.715-1.943.715-1.1 0-1.832-.74-1.894-1.962h4.53l.037-.546zm-1.126-.286h-3.43c.037-.74.557-1.767 1.733-1.767 1.188 0 1.684 1.078 1.696 1.767zm8.444.533c0-1.832-1.102-3.196-2.834-3.196-.867 0-1.572.364-2.092 1.1h-.025v-.974h-1.14v8.588h1.188v-3.4l.012.013c.42.7 1.102 1.104 2.03 1.104 1.745 0 2.86-1.403 2.86-3.235zm-1.214-.013c0 1.234-.693 2.183-1.868 2.183s-1.87-.95-1.87-2.183.693-2.17 1.87-2.17 1.868.936 1.868 2.17zm5.308 3.04l-.075-1s-.26.143-.606.143c-.334 0-.496-.117-.607-.312-.136-.26-.148-.6-.148-1.13v-2.793h1.4v-1h-1.4V61.8H91.3v1.845h-.867v1h.867v2.82c0 1.208.074 2.482 1.547 2.482.4 0 .768-.065 1.077-.208zm6.356-3.275c0-1.728-1.15-2.95-2.785-2.95s-2.983 1.247-2.983 3.196c0 1.962 1.2 3.235 2.945 3.235 1.758 0 2.513-.9 2.587-.974l-.495-.715c-.136.1-.842.715-1.943.715-1.1 0-1.832-.74-1.894-1.962h4.53l.037-.546zm-1.127-.286h-3.428c.037-.74.557-1.767 1.733-1.767 1.2 0 1.683 1.078 1.695 1.767zm10.822 3.625v-3.742c0-1.338-.42-2.547-1.992-2.547-.83 0-1.474.442-1.87 1.22-.272-.806-.88-1.22-1.745-1.22-.78 0-1.424.52-1.696 1.1h-.036l.012-.974h-1.2v6.172h1.2v-3.2c0-1.104.47-2.053 1.4-2.053.854 0 1.064.754 1.064 1.663v3.6h1.2v-3.2c0-1.104.47-2.053 1.4-2.053.953 0 1.076.948 1.076 1.663v3.6h1.176zm7.74-3.092c0-1.82-1.115-3.196-2.834-3.196-.93 0-1.635.403-2.056 1.078h-.024V60.85h-1.176v8.965h1.14v-.974h.025c.482.754 1.213 1.117 2.066 1.117 1.745 0 2.86-1.403 2.86-3.235zm-1.214-.013c0 1.234-.693 2.183-1.868 2.183s-1.882-.948-1.882-2.183.706-2.17 1.882-2.17 1.868.936 1.868 2.17zm7.818-.234c0-1.728-1.15-2.95-2.785-2.95s-2.983 1.247-2.983 3.196c0 1.962 1.2 3.235 2.946 3.235 1.757 0 2.513-.9 2.587-.974l-.495-.715c-.136.1-.842.715-1.944.715-1.088 0-1.83-.74-1.893-1.962h4.53l.037-.546zm-1.126-.286h-3.43c.037-.74.557-1.767 1.733-1.767 1.188 0 1.683 1.078 1.696 1.767zm5.586-2.56s-.223-.104-.62-.104c-.63 0-1.163.364-1.448 1.065h-.037l.012-.948H125.5v6.172h1.187v-3.08c0-.897.26-2.08 1.325-2.08.322 0 .532.078.644.13h.05l.074-1.156zm9.223 6.184v-1.04h-4.356l2.2-2.196c.532-.52 1.806-1.637 1.806-3.222s-1.15-2.638-2.858-2.638c-1.697 0-2.563 1.182-2.798 1.728l.63.74c.347-.598 1.016-1.442 2.092-1.442 1.1 0 1.758.727 1.758 1.74 0 1-.73 1.82-1.387 2.482l-3.02 3 .173.844H138zm7.437-4.47c0-2.34-.966-4.625-3.267-4.625s-3.268 2.287-3.268 4.625c0 2.326.966 4.612 3.268 4.612s3.267-2.287 3.267-4.612zm-1.213-.026c0 2.04-.68 3.534-2.054 3.534s-2.055-1.494-2.055-3.534c0-2.053.68-3.534 2.055-3.534s2.054 1.48 2.054 3.534zm5.173 4.495V60.85h-2.835v.922h1.67v8.042h1.164zm8.4-4.624c0-1.52-.3-2.443-.594-2.923-.3-.533-1.04-1.546-2.586-1.546-1.796 0-2.9 1.364-2.9 3.092 0 1.715 1.287 2.754 2.624 2.754 1.35 0 2.03-.715 2.314-1.325 0 1.56-.433 3.716-2.3 3.716-.88 0-1.597-.403-1.943-.74l-.508.832c.223.195 1 .922 2.475.922 2.513 0 3.416-2.508 3.416-4.78zm-1.36-1.533c0 1.013-.606 1.962-1.795 1.962-1.175 0-1.77-.95-1.77-1.962s.595-1.962 1.77-1.962c1.2 0 1.795.948 1.795 1.962zm-46.602-40.444L104.17 9.3h-1.708l-5.648 13.912h2.05l1.427-3.62h5.95l1.427 3.62h2.17zm-4.14-5.247h-4.864l2.432-6.232 2.432 6.232zm15.484.462c0-2.835-1.8-4.945-4.603-4.945-1.407 0-2.553.563-3.397 1.7h-.04v-1.508h-1.85v13.3h1.93v-5.247l.02.02c.683 1.065 1.8 1.7 3.296 1.7 2.834 0 4.643-2.17 4.643-5.006zm-1.97-.02c0 1.9-1.126 3.377-3.035 3.377s-3.035-1.468-3.035-3.377 1.126-3.357 3.035-3.357 3.035 1.447 3.035 3.357zm13.943.02c0-2.835-1.8-4.945-4.603-4.945-1.407 0-2.552.563-3.397 1.7h-.04v-1.508h-1.85v13.3h1.93v-5.247l.02.02c.684 1.065 1.8 1.7 3.297 1.7 2.834 0 4.643-2.17 4.643-5.006zm-1.97-.02c0 1.9-1.125 3.377-3.035 3.377s-3.034-1.468-3.034-3.377 1.125-3.357 3.034-3.357 3.035 1.447 3.035 3.357zm5.985 4.805V9.342h-1.9v13.872h1.9zm11.48-5.166c0-2.674-1.87-4.564-4.522-4.564s-4.843 1.93-4.843 4.945c0 3.036 1.95 5.006 4.783 5.006 2.854 0 4.08-1.407 4.2-1.508l-.803-1.106c-.22.14-1.367 1.106-3.156 1.106-1.77 0-2.975-1.146-3.075-3.036h7.356s.06-.482.06-.844zm-1.828-.442h-5.568c.06-1.146.904-2.734 2.814-2.734 1.93 0 2.734 1.67 2.754 2.734zm-57.172 3.15a9.64 9.64 0 0 1-.925 1.706c-.486.712-.884 1.204-1.2 1.477-.476.45-.985.68-1.53.692-.4 0-.864-.114-1.413-.346s-1.06-.345-1.522-.345c-.486 0-1.007.114-1.565.345s-1.008.353-1.352.365c-.523.023-1.044-.213-1.565-.7-.332-.297-.748-.807-1.246-1.53-.534-.77-.973-1.666-1.317-2.686-.368-1.1-.553-2.168-.553-3.2 0-1.183.25-2.203.748-3.058a4.44 4.44 0 0 1 1.567-1.626 4.13 4.13 0 0 1 2.117-.613c.415 0 .96.132 1.638.4s1.1.392 1.3.392c.142 0 .624-.154 1.44-.462.772-.285 1.424-.403 1.958-.357 1.447.12 2.533.705 3.257 1.76-1.294.805-1.934 1.932-1.922 3.378.012 1.126.4 2.064 1.192 2.808a3.91 3.91 0 0 0 1.191.802l-.303.818zM86.332 7.352c0 .883-.315 1.707-.94 2.47-.755.907-1.67 1.43-2.66 1.348-.012-.106-.02-.217-.02-.334 0-.847.36-1.754.998-2.496.32-.375.723-.688 1.215-.937s.955-.38 1.4-.404c.013.118.018.236.018.353zm110.552-4.055c.428.577 2.15 2.05 2.903 2.493 1.332.775 1.674.912 2.842 1.142 1.13.213 2.464.125 2.6-.183.13-.28-.317-1.238-.924-1.96-.55-.672-.74-.825-1.537-1.238-1.626-.87-3.94-1.256-5.313-.893-.375.092-.72.2-.746.24-.034.038.047.216.174.4zm7.632-2.64c.054.688.583 2.534 1.105 3.9.5 1.265 1.256 2.435 2.054 3.175.75.697 1.764 1.27 2.02 1.14.263-.14.54-1.22.486-1.945-.13-1.948-.725-3.163-2.335-4.76-.887-.9-1.215-1.136-2.088-1.6-.577-.315-1.096-.56-1.168-.557-.08-.006-.1.296-.073.658zm-4.82 9.612c.4.36 2.082.954 3.22 1.14 2.377.375 4.4.03 5.25-.877.358-.4.365-.447.13-.816-.658-1-2.233-1.573-4.207-1.497-1.278.068-2.54.498-3.638 1.265l-.733.493c-.15.1-.153.172-.02.292zm11.735-5.694c-.22 1.494.093 4.042.686 5.702.573 1.643 1.866 3.402 2.616 3.582.22.06.317.01.524-.337 1.016-1.654.728-4.23-.74-6.582-.553-.916-2.234-2.665-2.704-2.85l-.295-.112-.087.596zm-6.746 9.024c.63.676 2.552 1.657 3.907 2.004 1.273.324 2.78.3 3.96-.1l.994-.344c.025-.03-.07-.287-.22-.58-1.023-2.138-4.65-3.074-7.444-1.908-.946.386-1.38.718-1.198.918zm5.868-2.857c.038.053.766.85 1.608 1.752 2.03 2.185 2.57 2.847 3.85 4.717 2.268 3.318 3.977 6.82 4.966 10.187.8 2.758 1.747 8.4 1.635 9.9a19.87 19.87 0 0 0-.035 1.748c.02 2.627-.507 6.247-1.367 9.303-2.567 9.184-9.103 17.586-17.163 22.05-2.046 1.136-4.7 2.24-8.463 3.5-.46.152-.46.152-.404.55.037.207.122.44.188.5.417.378 5.853-1.746 8.995-3.512 7.547-4.254 13.714-11.6 16.75-19.917 2.15-5.915 2.756-13.16 1.582-19.235-.296-1.512-1.04-4.883-1.088-4.926-.028-.026-.444-1.06-.932-2.28a33.9 33.9 0 0 0-3.514-6.762c-1.343-2.03-2.726-3.785-4.342-5.5-.983-1.03-2.625-2.535-2.266-2.072zm-.664 8.074c.9.817 1.312 1.104 2.12 1.5 1.87.902 2.965 1.098 4.658.8l.787-.133-.066-.406a4.38 4.38 0 0 0-1.098-1.997c-.985-.875-2.43-1.372-4.25-1.45-1.095-.043-2.894.28-3.15.566-.084.095.175.382 1 1.13zm7.588-8.503c-.4 1.74-.57 3.63-.457 4.944.14 1.666.75 3.307 1.534 4.12.593.624.485.647 1.396-.428.382-.448.495-.726.688-1.692.392-2.012.027-3.83-1.222-5.946-.605-1.032-1.52-2.157-1.65-2.014-.042.048-.172.5-.3 1.016zm-5.24 12.5c.098.658 1.735 2.437 3.018 3.306a12.76 12.76 0 0 0 1.738.936c.914.36 2.94.6 3.218.394.227-.175-.014-1.327-.435-2.123-.662-1.257-2.412-2.428-4.165-2.8-.667-.138-3.214-.13-3.333.003-.035.038-.047.165-.04.275zm9.894-5.17c-.92 2.14-1.245 3.676-1.148 5.526.044.853.198 1.908.34 2.347.23.76.657 1.357.955 1.35.072-.004.545-.474 1.048-1.037.888-.993.92-1.05 1.2-2.083.494-1.782.313-3.863-.512-6.012-.207-.517-.5-1.137-.677-1.392-.4-.56-.4-.56-1.216 1.3zm-7.406 11.312c1.146 2.577 3.2 4.76 5.267 5.57.766.314 1.64.396 1.818.195.06-.067.07-.522.02-1-.232-2.198-1.607-3.962-3.85-4.907-.868-.373-2.584-.7-3.266-.628-.298.025-.296.06.012.772zm1.038 6.23c.23 1.106 1.1 3.243 1.688 4.158.394.615.875 1.172 1.634 1.878.996.92 1.147 1.022 1.862 1.24l.8.24.115-.57c.234-1.05.173-2.228-.167-3.02l-.413-.997c-.16-.492-2.117-2.317-2.992-2.798-.8-.44-2.473-.997-2.6-.854-.033.038.002.364.075.724zm9.595-9.52c-1.333 2.162-2.12 4.404-2.14 6.08-.017.9.275 2.686.455 2.85.152.138 1.48-.524 2.025-1.016 1.45-1.313 2.372-4.4 2.046-6.837-.117-.867-.598-2.997-.693-3.083-.123-.112-1.135 1.096-1.693 2.008zm-9.764 16.33c.046 1.926.737 4.262 1.717 5.74.45.686 1.706 1.893 2.253 2.164.4.215.682-.072.96-.96.458-1.452.17-3.147-.786-4.706-.582-.942-2.25-2.437-3.26-2.938-.408-.197-.775-.323-.818-.275s-.074.485-.066.976zm-1.7 6.393c-.204 1.284-.04 3.73.33 4.93.163.528.493 1.3.732 1.735.498.883 1.618 2.106 1.858 2.03.258-.077.985-1.37 1.182-2.108.517-1.883-.4-4.6-2.24-6.575-.556-.607-1.5-1.213-1.636-1.05-.034.038-.135.516-.226 1.04zm11.75-12.198c-1.23 1.702-2 3.907-1.986 5.734l.006 1 .688-.155c1.17-.253 1.846-.625 2.74-1.527 1.022-1 1.492-1.86 1.972-3.57a13.05 13.05 0 0 0 .457-4.253c-.047-.734-.1-.913-.28-.858-.462.134-2.66 2.36-3.596 3.637z"/><path d="M211.04 53.822c-.82 1.953-1.048 5.202-.498 6.93.24.77 1.176 2.466 1.407 2.554.47.184 1.795-1.604 2.118-2.868.1-.332.14-1.153.105-1.806-.08-1.524-.664-3.04-1.64-4.233l-.878-1.1c-.252-.332-.27-.312-.615.515zm-4.732 5.908c-1.416 2.812-1.782 5.505-1.04 7.767.192.572.408 1.06.5 1.084.282.05 1.25-.612 1.815-1.242 1.1-1.24 1.6-2.794 1.46-4.742-.042-.817-.2-1.408-.664-2.538-.86-2.1-.832-2.084-1.275-1.57-.206.23-.555.793-.785 1.24zm16.572-11.907c-.48.844-.925 2.186-.884 2.638.034.3.07.323.557.453.632.175 2.016-.142 2.946-.665.385-.22 1.018-.754 1.584-1.33 1.08-1.094 1.813-2.315 2.38-3.927.376-1.093.664-2.854.482-2.88-.392-.08-2.262.974-3.765 2.118-1.26.968-2.7 2.507-3.3 3.594zm-3.542 8.68c-.45.715-.792 1.615-.66 1.735.067.06.46.176.9.272 1.57.335 3.268-.045 4.875-1.094 1.53-1 3.285-3.365 3.893-5.234.24-.75.186-.765-1.633-.287-3.047.797-6.206 2.774-7.365 4.608zm-11.894 14.45c.52.627 1.8 1.314 2.898 1.538.493.1 1.407.135 2.027.075 1.968-.186 4.77-1.552 6.5-3.153l.655-.617-.84-.192c-4.964-1.13-8.633-.636-11.124 1.496l-.475.416.35.437zm6.368-6.41c-.415.886 1.878 1.702 3.912 1.403 1.936-.302 3.796-1.364 5.56-3.186 1.192-1.236 1.7-1.926 1.54-2.182-.12-.212-3.864.04-5.14.353-1.374.327-2.77.9-3.714 1.542-.794.524-1.956 1.65-2.16 2.07zM33.116 3.297c-.428.577-2.148 2.05-2.903 2.493-1.332.775-1.674.912-2.84 1.142-1.13.213-2.464.125-2.6-.183-.13-.28.317-1.238.924-1.96.55-.67.74-.825 1.537-1.238 1.626-.87 3.94-1.256 5.313-.893.375.092.72.2.746.24.034.038-.048.216-.174.4zM25.484.658c-.054.688-.584 2.534-1.106 3.9-.5 1.265-1.256 2.435-2.053 3.175-.75.697-1.765 1.27-2.02 1.14-.263-.14-.54-1.22-.486-1.945.128-1.948.725-3.163 2.335-4.76.887-.9 1.215-1.136 2.1-1.6.576-.315 1.095-.56 1.167-.557.08-.006.1.296.074.658zm4.82 9.612c-.398.36-2.082.954-3.22 1.14-2.377.375-4.4.03-5.248-.877-.358-.4-.366-.447-.13-.816.658-1 2.232-1.573 4.206-1.497 1.28.067 2.54.498 3.638 1.265l.733.493c.15.1.154.172.02.292zM18.568 4.576c.22 1.494-.093 4.042-.685 5.702-.574 1.643-1.866 3.402-2.617 3.582-.22.06-.317.01-.524-.337-1.016-1.654-.728-4.23.74-6.582.554-.916 2.234-2.665 2.705-2.85l.295-.112.086.596zm6.748 9.024c-.63.676-2.552 1.657-3.907 2.004-1.273.324-2.78.3-3.96-.1l-.994-.344c-.026-.03.07-.287.22-.58 1.023-2.138 4.65-3.074 7.443-1.908.947.386 1.38.718 1.2.918zm-5.866-2.857c-.038.053-.767.85-1.6 1.752-2.03 2.185-2.57 2.847-3.85 4.717-2.268 3.318-3.977 6.82-4.965 10.187-.812 2.758-1.747 8.4-1.636 9.9.034.383.048 1.167.035 1.748-.02 2.627.506 6.247 1.367 9.303 2.566 9.184 9.103 17.586 17.163 22.05 2.046 1.136 4.698 2.24 8.462 3.5.462.152.462.152.405.55-.038.207-.122.44-.188.5-.417.378-5.853-1.746-8.995-3.512-7.547-4.254-13.715-11.6-16.75-19.917C6.74 45.6 6.13 38.368 7.306 32.3c.296-1.512 1.04-4.883 1.088-4.926.028-.026.443-1.06.932-2.28a33.9 33.9 0 0 1 3.514-6.762 40.7 40.7 0 0 1 4.343-5.509c.983-1.03 2.625-2.535 2.266-2.072zm.663 8.074c-.9.817-1.313 1.104-2.12 1.5-1.872.902-2.966 1.098-4.658.8l-.788-.133.066-.406c.114-.62.633-1.576 1.098-1.997.985-.875 2.43-1.372 4.25-1.45 1.095-.043 2.894.28 3.15.566.085.095-.174.382-1 1.13zm-7.59-8.503c.388 1.74.57 3.63.456 4.944-.14 1.666-.75 3.307-1.534 4.12-.593.624-.485.647-1.396-.428-.383-.448-.495-.726-.7-1.692-.392-2.012-.026-3.83 1.222-5.946.605-1.032 1.52-2.157 1.65-2.014.042.048.172.5.3 1.016zm5.24 12.5c-.098.658-1.735 2.436-3.018 3.306-.496.328-1.276.742-1.738.936-.913.36-2.94.6-3.218.394-.226-.175.015-1.327.435-2.123.662-1.257 2.412-2.428 4.165-2.8.666-.138 3.213-.13 3.333.003.035.038.046.166.04.275zm-9.893-5.17c.918 2.14 1.245 3.676 1.148 5.526-.044.852-.198 1.908-.34 2.347-.23.76-.658 1.357-.956 1.35-.072-.004-.544-.474-1.048-1.037-.888-.993-.92-1.05-1.2-2.083-.494-1.782-.313-3.863.5-6.012.208-.517.5-1.137.677-1.392.4-.56.4-.56 1.217 1.3zm7.406 11.312c-1.146 2.577-3.2 4.76-5.267 5.57-.766.314-1.638.396-1.817.195-.06-.067-.072-.522-.02-1 .232-2.198 1.606-3.962 3.85-4.907.87-.373 2.584-.7 3.267-.628.297.025.295.06-.013.772zm-1.038 6.23c-.23 1.106-1.1 3.243-1.7 4.158-.393.615-.874 1.172-1.633 1.878-.996.92-1.147 1.022-1.862 1.24l-.798.24-.115-.57c-.234-1.05-.173-2.228.166-3.02l.414-.997c.16-.492 2.117-2.317 3-2.798.8-.44 2.473-.997 2.6-.854.033.038-.002.364-.074.724zm-9.595-9.52c1.333 2.162 2.12 4.404 2.14 6.08.016.9-.275 2.686-.455 2.85-.152.138-1.48-.524-2.025-1.016-1.45-1.313-2.373-4.4-2.047-6.837.117-.867.598-2.997.693-3.083.123-.112 1.136 1.096 1.693 2.008zm9.764 16.33c-.046 1.926-.737 4.262-1.717 5.74-.45.686-1.706 1.893-2.253 2.164-.4.215-.682-.072-.962-.96-.457-1.452-.17-3.147.787-4.706.582-.942 2.25-2.437 3.26-2.938.408-.197.776-.323.818-.275s.074.485.066.976zm1.7 6.393c.204 1.284.04 3.73-.33 4.93a10.7 10.7 0 0 1-.732 1.735c-.498.883-1.618 2.106-1.858 2.03-.258-.077-.985-1.37-1.182-2.108-.517-1.883.4-4.6 2.24-6.575.556-.607 1.5-1.213 1.636-1.05.035.038.136.516.226 1.04zM4.357 36.192c1.23 1.702 2 3.907 1.987 5.734l-.006 1-.688-.155c-1.17-.253-1.847-.625-2.74-1.527-1.022-1-1.493-1.86-1.973-3.57C.55 36.3.4 34.8.482 33.413c.047-.734.1-.913.28-.858.463.134 2.66 2.36 3.596 3.637zm14.603 17.63c.82 1.953 1.048 5.203.498 6.93-.24.77-1.176 2.466-1.407 2.554-.47.184-1.795-1.604-2.118-2.868-.1-.332-.14-1.153-.105-1.806a7.38 7.38 0 0 1 1.639-4.233l.878-1.1c.252-.332.27-.312.615.515zm4.732 5.908c1.416 2.812 1.782 5.505 1.04 7.767-.192.572-.408 1.06-.5 1.084-.282.05-1.25-.612-1.814-1.242-1.1-1.24-1.6-2.794-1.46-4.742.043-.817.2-1.408.665-2.538.86-2.1.83-2.084 1.274-1.57.206.23.555.793.785 1.242zM7.12 47.823c.48.844.925 2.186.883 2.638-.033.3-.07.323-.556.453-.632.176-2.016-.142-2.946-.665-.386-.22-1.018-.754-1.584-1.33-1.08-1.094-1.813-2.315-2.38-3.927-.376-1.093-.664-2.854-.482-2.88.392-.08 2.262.974 3.765 2.118 1.26.968 2.688 2.507 3.3 3.594zm3.542 8.68c.45.715.792 1.615.66 1.735-.066.06-.46.176-.9.27-1.57.335-3.268-.045-4.875-1.094-1.53-1-3.285-3.365-3.892-5.234-.24-.75-.186-.765 1.632-.287 3.048.797 6.206 2.774 7.366 4.608zm11.895 14.45c-.52.627-1.812 1.314-2.898 1.538-.493.1-1.408.135-2.027.075-1.97-.186-4.77-1.552-6.5-3.153l-.655-.617.84-.192c4.964-1.13 8.633-.636 11.124 1.496l.475.416-.348.437zm-6.37-6.41c.415.886-1.877 1.702-3.912 1.403-1.935-.302-3.795-1.364-5.56-3.186-1.2-1.236-1.688-1.926-1.54-2.182.12-.212 3.864.04 5.14.353 1.374.327 2.77.9 3.714 1.542.794.524 1.956 1.65 2.16 2.07z"/></svg>