<svg width="19" height="22" viewBox="0 0 19 22" fill="none" xmlns="http://www.w3.org/2000/svg">
<path d="M18.6153 17.1447C18.2858 17.9133 17.8957 18.6208 17.4438 19.2713C16.8277 20.158 16.3233 20.7719 15.9346 21.1127C15.332 21.6722 14.6864 21.9587 13.995 21.975C13.4987 21.975 12.9002 21.8324 12.2034 21.5432C11.5044 21.2553 10.862 21.1127 10.2746 21.1127C9.65859 21.1127 8.9979 21.2553 8.2912 21.5432C7.58344 21.8324 7.01327 21.9832 6.57734 21.9981C5.91436 22.0266 5.25354 21.7319 4.59392 21.1127C4.17292 20.742 3.64633 20.1064 3.0155 19.2061C2.33867 18.2446 1.78222 17.1297 1.34629 15.8587C0.879425 14.4857 0.645386 13.1563 0.645386 11.8692C0.645386 10.3948 0.960935 9.12321 1.59298 8.0576C2.0897 7.20166 2.75053 6.52647 3.5776 6.03081C4.40467 5.53514 5.29833 5.28256 6.26071 5.2664C6.7873 5.2664 7.47785 5.43085 8.336 5.75405C9.19172 6.07834 9.74117 6.24279 9.98207 6.24279C10.1622 6.24279 10.7726 6.0505 11.8073 5.66714C12.7858 5.31162 13.6117 5.16441 14.2883 5.2224C16.1216 5.37178 17.4989 6.10142 18.4149 7.41595C16.7753 8.41896 15.9642 9.82379 15.9803 11.626C15.9951 13.0297 16.4995 14.1979 17.4908 15.1254C17.9401 15.5558 18.4418 15.8885 19 16.1248C18.8789 16.4793 18.7511 16.8188 18.6153 17.1447ZM14.4107 0.440125C14.4107 1.54038 14.0125 2.56768 13.2189 3.51854C12.2613 4.64892 11.1029 5.30211 9.84676 5.19904C9.83075 5.06705 9.82147 4.92812 9.82147 4.78214C9.82147 3.7259 10.2769 2.59552 11.0857 1.67127C11.4895 1.20331 12.003 0.814209 12.6258 0.503814C13.2472 0.19805 13.835 0.0289566 14.3878 0C14.4039 0.147086 14.4107 0.294182 14.4107 0.440111V0.440125Z" fill="#EB6054"/>
</svg>
