<svg width="180" height="58" viewBox="0 0 180 58" fill="none" xmlns="http://www.w3.org/2000/svg">
<path d="M34.1534 38.1053H35.2847V27.4023H34.122V36.2284L27.4756 27.4023H26.25V38.1053H27.4285V32.9244C27.4285 31.4353 27.4127 29.9307 27.4127 29.1551L34.1534 38.1053Z" fill="#423D72"/>
<path d="M43.9628 37.0661L43.4599 36.3836C43.4599 36.3836 42.4229 37.2988 40.9774 37.2988C39.4061 37.2988 38.3534 36.244 38.3377 34.7394H44.1513C44.1513 34.7394 44.1985 34.3982 44.1985 34.1345C44.1985 32.1335 42.8 30.6909 40.7731 30.6909C38.5734 30.6909 37.1436 32.3816 37.1436 34.4447C37.1436 36.7869 38.6048 38.2605 40.7731 38.2605C42.2187 38.2605 43.2871 37.8572 43.9628 37.0661ZM43.02 33.8707H38.3534C38.4477 32.7384 39.249 31.6371 40.726 31.6526C42.3444 31.6681 43.02 32.847 43.02 33.8707Z" fill="#423D72"/>
<path d="M48.2022 38.1053L50.3706 32.3506L52.4917 38.1053H53.6388L56.0898 30.8304H54.896L53.0417 36.6317L50.8891 30.8149H49.9149L47.7466 36.6162L45.8768 30.8304H44.6826L47.0552 38.1053H48.2022Z" fill="#423D72"/>
<path d="M68.0057 38.1055H69.3415L64.8163 27.3716H63.9208L59.4111 38.1055H60.6365L61.8464 35.1118H66.7958L68.0057 38.1055ZM66.3871 34.088H62.2551L64.3289 28.9537L66.3871 34.088Z" fill="#423D72"/>
<path d="M70.5771 41.0215H71.7399V36.849L71.7554 36.8644C72.3216 37.8417 73.3895 38.2605 74.4741 38.2605C76.5324 38.2605 78.0251 36.6163 78.0251 34.4602C78.0251 32.3041 76.7054 30.6909 74.4425 30.6909C73.1383 30.6909 72.1641 31.42 71.7554 32.1025H71.7399V30.815H70.5771V41.0215ZM74.2224 37.2523C72.5728 37.2523 71.6928 36.0269 71.6928 34.4602C71.6928 32.878 72.7768 31.6526 74.254 31.6526C75.888 31.6526 76.8152 32.878 76.8152 34.4602C76.8152 36.0269 75.8564 37.2523 74.2224 37.2523Z" fill="#423D72"/>
<path d="M79.7686 41.0215H80.9313V36.849L80.9468 36.8644C81.513 37.8417 82.5809 38.2605 83.6655 38.2605C85.7238 38.2605 87.2165 36.6163 87.2165 34.4602C87.2165 32.3041 85.8968 30.6909 83.6339 30.6909C82.3297 30.6909 81.3555 31.42 80.9468 32.1025H80.9313V30.815H79.7686V41.0215ZM83.4138 37.2523C81.7642 37.2523 80.8842 36.0269 80.8842 34.4602C80.8842 32.878 81.9682 31.6526 83.4454 31.6526C85.0795 31.6526 86.0066 32.878 86.0066 34.4602C86.0066 36.0269 85.0478 37.2523 83.4138 37.2523Z" fill="#423D72"/>
<path d="M88.7865 36.244L88.1738 36.973C88.7239 37.7486 89.6981 38.2605 90.908 38.2605C92.4323 38.2605 93.6106 37.4384 93.6106 36.0423C93.6106 34.4757 91.9765 34.1034 91.2379 33.8552C90.4212 33.5916 89.6665 33.2813 89.6665 32.6143C89.6665 31.9318 90.2011 31.5751 90.9707 31.5751C91.6305 31.5751 92.3064 31.8077 92.8249 32.242L93.3905 31.544C92.872 31.0787 92.1651 30.6909 90.9707 30.6909C89.7769 30.6909 88.598 31.3889 88.598 32.7229C88.598 34.2585 90.1694 34.6153 90.704 34.7859C91.2696 34.9721 92.5105 35.2668 92.5105 36.1354C92.5105 37.0041 91.7409 37.3453 90.9396 37.3453C90.2321 37.3453 89.4941 37.0351 88.7865 36.244Z" fill="#423D72"/>
<path d="M107.117 38.1053H108.311L111.532 27.4023H110.306L107.698 36.3834L104.932 27.4023H103.786L101.114 36.2904L98.5692 27.4023H97.3438L100.423 38.1207H101.617L104.367 29.2017L107.117 38.1053Z" fill="#423D72"/>
<path d="M118.766 37.0661L118.263 36.3836C118.263 36.3836 117.226 37.2988 115.781 37.2988C114.209 37.2988 113.156 36.244 113.141 34.7394H118.955C118.955 34.7394 119.002 34.3982 119.002 34.1345C119.002 32.1335 117.603 30.6909 115.576 30.6909C113.376 30.6909 111.946 32.3816 111.946 34.4447C111.946 36.7869 113.408 38.2605 115.576 38.2605C117.022 38.2605 118.09 37.8572 118.766 37.0661ZM117.823 33.8707H113.156C113.25 32.7384 114.052 31.6371 115.529 31.6526C117.147 31.6681 117.823 32.847 117.823 33.8707Z" fill="#423D72"/>
<path d="M123.916 38.1053H128.929V37.066H125.094V27.4023H123.916V38.1053Z" fill="#423D72"/>
<path d="M133.504 38.2605C135.656 38.2605 137.353 36.7249 137.353 34.4912C137.353 32.2731 135.656 30.6909 133.504 30.6909C131.351 30.6909 129.67 32.2731 129.67 34.4912C129.67 36.7249 131.351 38.2605 133.504 38.2605ZM133.504 37.2523C131.87 37.2523 130.864 36.0113 130.864 34.4602C130.864 32.8935 131.87 31.6836 133.504 31.6836C135.138 31.6836 136.159 32.8935 136.159 34.4602C136.159 36.0113 135.138 37.2523 133.504 37.2523Z" fill="#423D72"/>
<path d="M141.022 38.1055H141.996L145.091 30.8306H143.881L141.525 36.6164L139.152 30.8306H137.942L141.022 38.1055Z" fill="#423D72"/>
<path d="M152.492 37.0661L151.989 36.3836C151.989 36.3836 150.952 37.2988 149.507 37.2988C147.936 37.2988 146.883 36.244 146.867 34.7394H152.68C152.68 34.7394 152.728 34.3982 152.728 34.1345C152.728 32.1335 151.329 30.6909 149.303 30.6909C147.103 30.6909 145.673 32.3816 145.673 34.4447C145.673 36.7869 147.134 38.2605 149.303 38.2605C150.748 38.2605 151.817 37.8572 152.492 37.0661ZM151.549 33.8707H146.883C146.977 32.7384 147.778 31.6371 149.255 31.6526C150.874 31.6681 151.549 32.847 151.549 33.8707Z" fill="#423D72"/>
<path d="M59.3815 52.0605C59.3815 51.2366 58.9066 50.6639 58.2193 50.3323L56.9891 49.7998C56.5822 49.629 56.127 49.3878 56.127 48.7447C56.127 48.1017 56.6306 47.7802 57.2892 47.7802C57.9478 47.7802 58.4323 48.162 58.7616 48.5237L59.2556 47.8606C59.0712 47.6596 58.4323 46.9663 57.3375 46.9663C56.272 46.9663 55.1874 47.5793 55.1874 48.8151C55.1874 49.629 55.6038 50.1816 56.2917 50.5131C56.5435 50.6438 57.0082 50.8347 57.3572 50.9753C57.6961 51.116 58.4418 51.3974 58.4418 52.1208C58.4418 52.8542 57.8607 53.2863 57.1341 53.2863C56.4074 53.2863 55.778 52.7638 55.4392 52.2916L54.8867 52.9447C55.2065 53.3265 55.8747 54.1102 57.047 54.1102C58.2193 54.1102 59.3815 53.4069 59.3815 52.0605Z" fill="#423D72"/>
<path d="M64.5744 51.4073C64.5744 50.0709 63.6735 49.1265 62.395 49.1265C61.1165 49.1265 60.0605 50.0911 60.0605 51.5982C60.0605 53.1154 61.0002 54.1 62.3658 54.1C63.7415 54.1 64.3322 53.3967 64.3906 53.3465L64.0029 52.7938C63.8967 52.8642 63.3442 53.3465 62.4821 53.3465C61.6302 53.3465 61.0485 52.7738 61.0002 51.8293H64.5458C64.5458 51.8293 64.5744 51.5881 64.5744 51.4073ZM63.6932 51.1862H61.0097C61.039 50.6135 61.4458 49.8198 62.3658 49.8198C63.2959 49.8198 63.6837 50.6537 63.6932 51.1862Z" fill="#423D72"/>
<path d="M70.3023 51.5982C70.3023 50.1814 69.4402 49.1265 68.0842 49.1265C67.4059 49.1265 66.854 49.4078 66.4471 49.9705H66.4274V49.2169H65.5361V55.8584H66.4662V53.236L66.4758 53.246C66.8051 53.7785 67.3378 54.1 68.0645 54.1C69.4301 54.1 70.3023 53.0149 70.3023 51.5982ZM69.3525 51.5881C69.3525 52.5427 68.8102 53.2761 67.8903 53.2761C66.9697 53.2761 66.4274 52.5427 66.4274 51.5881C66.4274 50.6336 66.9697 49.9102 67.8903 49.9102C68.8102 49.9102 69.3525 50.6336 69.3525 51.5881Z" fill="#423D72"/>
<path d="M73.5052 53.9395L73.4468 53.1657C73.4468 53.1657 73.2439 53.2763 72.9725 53.2763C72.7112 53.2763 72.5847 53.1858 72.4976 53.0352C72.3914 52.8342 72.3819 52.5629 72.3819 52.161V50.0007H73.4856V49.2271H72.3819V47.8003H71.4518V49.2271H70.7734V50.0007H71.4518V52.1811C71.4518 53.1155 71.5096 54.1002 72.6623 54.1002C72.982 54.1002 73.263 54.05 73.5052 53.9395Z" fill="#423D72"/>
<path d="M78.4797 51.4073C78.4797 50.0709 77.5788 49.1265 76.3003 49.1265C75.0218 49.1265 73.9658 50.0911 73.9658 51.5982C73.9658 53.1154 74.9055 54.1 76.2711 54.1C77.6468 54.1 78.2374 53.3967 78.2953 53.3465L77.9081 52.7938C77.8013 52.8642 77.2495 53.3465 76.3874 53.3465C75.5349 53.3465 74.9538 52.7738 74.9055 51.8293H78.4504C78.4504 51.8293 78.4797 51.5881 78.4797 51.4073ZM77.5979 51.1862H74.915C74.9442 50.6135 75.3511 49.8198 76.2711 49.8198C77.2012 49.8198 77.5883 50.6537 77.5979 51.1862Z" fill="#423D72"/>
<path d="M86.0679 53.9895V51.0958C86.0679 50.0609 85.738 49.1265 84.5084 49.1265C83.8593 49.1265 83.3552 49.4681 83.0455 50.0709C82.8325 49.448 82.3577 49.1265 81.6799 49.1265C81.0696 49.1265 80.5655 49.5284 80.3525 49.9705H80.3239L80.3334 49.2169H79.4033V53.9895H80.3334V51.5078C80.3334 50.6537 80.7015 49.9202 81.4377 49.9202C82.1059 49.9202 82.2706 50.503 82.2706 51.2063V53.9895H83.2006V51.5078C83.2006 50.6537 83.5687 49.9202 84.3049 49.9202C85.0507 49.9202 85.1473 50.6537 85.1473 51.2063V53.9895H86.0679Z" fill="#423D72"/>
<path d="M92.1256 51.5982C92.1256 50.1915 91.2533 49.1265 89.9074 49.1265C89.1808 49.1265 88.6283 49.4379 88.299 49.9604H88.2799V47.0566H87.3594V53.9895H88.2507V53.236H88.2704C88.648 53.8187 89.2196 54.1 89.8877 54.1C91.2533 54.1 92.1256 53.0149 92.1256 51.5982ZM91.1758 51.5881C91.1758 52.5427 90.6335 53.2762 89.7135 53.2762C88.793 53.2762 88.2411 52.5427 88.2411 51.5881C88.2411 50.6336 88.793 49.9102 89.7135 49.9102C90.6335 49.9102 91.1758 50.6336 91.1758 51.5881Z" fill="#423D72"/>
<path d="M97.2941 51.4073C97.2941 50.0709 96.3939 49.1265 95.1148 49.1265C93.8363 49.1265 92.7803 50.0911 92.7803 51.5982C92.7803 53.1154 93.7199 54.1 95.0861 54.1C96.4613 54.1 97.0525 53.3967 97.1104 53.3465L96.7232 52.7938C96.6164 52.8642 96.0639 53.3465 95.2019 53.3465C94.3499 53.3465 93.7688 52.7738 93.7199 51.8293H97.2655C97.2655 51.8293 97.2941 51.5881 97.2941 51.4073ZM96.4129 51.1862H93.7301C93.7587 50.6135 94.1656 49.8198 95.0861 49.8198C96.0156 49.8198 96.4034 50.6537 96.4129 51.1862Z" fill="#423D72"/>
<path d="M100.784 49.2068C100.784 49.2068 100.61 49.1265 100.3 49.1265C99.8059 49.1265 99.3895 49.4078 99.167 49.9503H99.1377L99.1473 49.2169H98.2178V53.9895H99.1473V51.6082C99.1473 50.9149 99.3507 50.0006 100.184 50.0006C100.436 50.0006 100.601 50.0609 100.688 50.1011H100.726L100.784 49.2068Z" fill="#423D72"/>
<path d="M108.003 53.9899V53.1861H104.593L106.308 51.488C106.724 51.0861 107.722 50.2221 107.722 48.9962C107.722 47.7704 106.821 46.9565 105.484 46.9565C104.157 46.9565 103.479 47.8709 103.295 48.2929L103.789 48.8656C104.06 48.4034 104.584 47.7503 105.426 47.7503C106.278 47.7503 106.802 48.3129 106.802 49.0967C106.802 49.8704 106.23 50.5034 105.716 51.0158L103.353 53.3368L103.489 53.9899H108.003Z" fill="#423D72"/>
<path d="M113.824 50.5335C113.824 48.7249 113.068 46.9565 111.267 46.9565C109.474 46.9565 108.709 48.7249 108.709 50.5335C108.709 52.3321 109.465 54.1004 111.267 54.1004C113.068 54.1004 113.824 52.3321 113.824 50.5335ZM112.874 50.5134C112.874 52.0909 112.342 53.2464 111.267 53.2464C110.191 53.2464 109.658 52.0909 109.658 50.5134C109.658 48.9259 110.191 47.7805 111.267 47.7805C112.342 47.7805 112.874 48.9259 112.874 50.5134Z" fill="#423D72"/>
<path d="M116.922 53.9895V47.0566H114.704V47.77H116.012V53.9895H116.922Z" fill="#423D72"/>
<path d="M123.495 50.4129C123.495 49.2374 123.253 48.524 123.03 48.1522C122.788 47.7402 122.217 46.9565 121.006 46.9565C119.601 46.9565 118.729 48.0115 118.729 49.3479C118.729 50.6742 119.737 51.478 120.783 51.478C121.839 51.478 122.372 50.9254 122.594 50.4531C122.594 51.6588 122.255 53.3267 120.803 53.3267C120.115 53.3267 119.553 53.0153 119.282 52.754L118.885 53.3971C119.059 53.5478 119.66 54.1105 120.822 54.1105C122.788 54.1105 123.495 52.1713 123.495 50.4129ZM122.43 49.2273C122.43 50.011 121.955 50.7445 121.025 50.7445C120.105 50.7445 119.64 50.011 119.64 49.2273C119.64 48.4436 120.105 47.7101 121.025 47.7101C121.955 47.7101 122.43 48.4436 122.43 49.2273Z" fill="#423D72"/>
<path d="M85.9604 17.9513L81.5247 7.19287H80.1877L75.7676 17.9513H77.3724L78.4892 15.1528H83.1451L84.2619 17.9513H85.9604ZM82.7203 13.8935H78.914L80.8172 9.07403L82.7203 13.8935Z" fill="#423D72"/>
<path d="M94.8377 14.2513C94.8377 12.0592 93.4375 10.4268 91.2354 10.4268C90.1341 10.4268 89.2374 10.8621 88.577 11.7327H88.5454V10.5667H87.0986V20.8431H88.6086V16.7854L88.6241 16.801C89.1587 17.6249 90.0243 18.1224 91.2038 18.1224C93.4219 18.1224 94.8377 16.4434 94.8377 14.2513ZM93.2961 14.2357C93.2961 15.7127 92.4149 16.8476 90.9204 16.8476C89.4265 16.8476 88.5454 15.7127 88.5454 14.2357C88.5454 12.7588 89.4265 11.6394 90.9204 11.6394C92.4149 11.6394 93.2961 12.7588 93.2961 14.2357Z" fill="#423D72"/>
<path d="M104.208 14.2513C104.208 12.0592 102.808 10.4268 100.606 10.4268C99.5042 10.4268 98.6081 10.8621 97.9471 11.7327H97.9161V10.5667H96.4688V20.8431H97.9787V16.7854L97.9942 16.801C98.5294 17.6249 99.3945 18.1224 100.574 18.1224C102.792 18.1224 104.208 16.4434 104.208 14.2513ZM102.666 14.2357C102.666 15.7127 101.786 16.8476 100.291 16.8476C98.7967 16.8476 97.9161 15.7127 97.9161 14.2357C97.9161 12.7588 98.7967 11.6394 100.291 11.6394C101.786 11.6394 102.666 12.7588 102.666 14.2357Z" fill="#423D72"/>
<path d="M107.349 17.9514V7.22412H105.855V17.9514H107.349Z" fill="#423D72"/>
<path d="M116.336 13.9559C116.336 11.8882 114.873 10.4268 112.797 10.4268C110.72 10.4268 109.006 11.9192 109.006 14.2513C109.006 16.5989 110.531 18.1224 112.749 18.1224C114.983 18.1224 115.942 17.0342 116.037 16.9564L115.408 16.1013C115.235 16.2102 114.338 16.9564 112.938 16.9564C111.554 16.9564 110.61 16.0703 110.531 14.6088H116.289C116.289 14.6088 116.336 14.2357 116.336 13.9559ZM114.904 13.6139H110.547C110.595 12.7277 111.255 11.4995 112.749 11.4995C114.259 11.4995 114.889 12.7899 114.904 13.6139Z" fill="#423D72"/>
<path d="M70.1604 16.0502C69.9569 16.527 69.7159 16.966 69.4367 17.3696C69.0567 17.9198 68.7452 18.3007 68.5048 18.5122C68.1325 18.8593 67.734 19.037 67.3068 19.0472C67.0008 19.0472 66.6309 18.9587 66.2008 18.7792C65.7688 18.6006 65.3721 18.5122 65.0094 18.5122C64.6287 18.5122 64.2213 18.6006 63.7845 18.7792C63.3472 18.9587 62.9953 19.0522 62.7262 19.0615C62.3169 19.0792 61.9089 18.8964 61.5014 18.5122C61.2413 18.2821 60.9161 17.8878 60.5265 17.3292C60.1083 16.7326 59.7647 16.0409 59.4956 15.2522C59.2075 14.4004 59.0625 13.5755 59.0625 12.7769C59.0625 11.8621 59.2576 11.0732 59.6478 10.412C59.9544 9.88092 60.3625 9.46199 60.8738 9.15444C61.3844 8.8469 61.9363 8.69022 62.5305 8.68019C62.8557 8.68019 63.2822 8.78221 63.812 8.98275C64.3406 9.18394 64.68 9.28596 64.8286 9.28596C64.9402 9.28596 65.3172 9.16667 65.9562 8.9288C66.5605 8.70826 67.0706 8.61693 67.4882 8.65289C68.6205 8.74553 69.4707 9.1983 70.0369 10.0139C69.0238 10.6362 68.5233 11.5078 68.5328 12.626C68.5424 13.497 68.8538 14.2218 69.4659 14.7973C69.7433 15.0643 70.053 15.2708 70.3978 15.4174C70.3232 15.6373 70.2445 15.8479 70.1604 16.0502ZM67.564 5.68566C67.564 6.36834 67.3176 7.00574 66.8278 7.59572C66.2366 8.29704 65.5212 8.70233 64.7451 8.63841C64.7355 8.55651 64.7296 8.47028 64.7296 8.37971C64.7296 7.72439 65.0112 7.02301 65.5105 6.44953C65.7599 6.1592 66.0767 5.91777 66.4615 5.72518C66.8451 5.53545 67.2084 5.43058 67.5497 5.4126C67.5598 5.50388 67.564 5.59509 67.564 5.68566Z" fill="#423D72"/>
<path d="M154.084 2.55008C154.418 2.99647 155.765 4.13623 156.355 4.47779C157.398 5.0774 157.666 5.18317 158.58 5.36065C159.465 5.52533 160.508 5.45703 160.615 5.21949C160.717 5.003 160.367 4.26224 159.892 3.7031C159.462 3.1838 159.314 3.065 158.689 2.74594C157.417 2.07401 155.605 1.7743 154.532 2.0554C154.238 2.12679 153.967 2.21845 153.948 2.24057C153.921 2.27021 153.985 2.40766 154.084 2.55008Z" fill="#423D72"/>
<path d="M160.056 0.508715C160.099 1.04109 160.513 2.46818 160.921 3.51606C161.313 4.49445 161.904 5.39877 162.528 5.97126C163.115 6.51026 163.909 6.95412 164.109 6.85222C164.315 6.74284 164.532 5.90894 164.489 5.34836C164.388 3.84167 163.922 2.90223 162.662 1.66717C161.968 0.979014 161.711 0.788732 161.027 0.430566C160.576 0.186791 160.17 -0.00288589 160.113 6.54932e-05C160.05 -0.0044877 160.028 0.228982 160.056 0.508715Z" fill="#423D72"/>
<path d="M156.284 7.942C156.596 8.2213 157.913 8.67964 158.804 8.82332C160.664 9.113 162.248 8.84742 162.912 8.14497C163.192 7.83518 163.198 7.79951 163.013 7.51363C162.498 6.73183 161.266 6.29681 159.721 6.35592C158.72 6.40815 157.733 6.74079 156.874 7.33445C156.642 7.48704 156.383 7.66918 156.3 7.71606C156.183 7.78568 156.18 7.84883 156.284 7.942Z" fill="#423D72"/>
<path d="M165.468 3.53856C165.296 4.69393 165.541 6.66441 166.005 7.94811C166.453 9.2187 167.465 10.5793 168.052 10.718C168.225 10.7651 168.3 10.7261 168.463 10.4575C169.258 9.17858 169.032 7.18602 167.883 5.36769C167.45 4.65915 166.135 3.30693 165.767 3.16423L165.536 3.07764L165.468 3.53856Z" fill="#423D72"/>
<path d="M160.187 10.5167C160.681 11.0394 162.185 11.798 163.245 12.0664C164.241 12.3168 165.42 12.2904 166.345 11.9963C166.755 11.8695 167.11 11.7453 167.123 11.7307C167.142 11.7085 167.068 11.5083 166.95 11.2826C166.15 9.62943 163.312 8.90545 161.125 9.80671C160.385 10.1055 160.044 10.3623 160.187 10.5167Z" fill="#423D72"/>
<path d="M164.78 8.30787C164.81 8.34846 165.38 8.96586 166.039 9.66302C167.626 11.3527 168.049 11.8648 169.051 13.3106C170.827 15.8764 172.164 18.5847 172.938 21.1883C173.573 23.3214 174.305 27.6925 174.217 28.8435C174.191 29.14 174.18 29.7459 174.19 30.1953C174.205 32.2271 173.794 35.0262 173.12 37.3894C171.111 44.4917 165.996 50.9891 159.688 54.4404C158.087 55.3186 156.011 56.1723 153.066 57.1556C152.704 57.273 152.704 57.273 152.749 57.5799C152.778 57.7402 152.844 57.9193 152.896 57.9659C153.222 58.2584 157.477 56.6158 159.935 55.2501C165.842 51.9601 170.669 46.2865 173.044 39.8473C174.727 35.2727 175.202 29.6708 174.282 24.9718C174.051 23.8029 173.469 21.196 173.431 21.1626C173.409 21.1427 173.084 20.3438 172.702 19.4003C171.895 17.3819 171.149 15.965 169.952 14.1706C168.9 12.6009 167.818 11.2437 166.553 9.91027C165.784 9.11352 164.499 7.94982 164.78 8.30787Z" fill="#423D72"/>
<path d="M164.26 14.5521C164.964 15.1836 165.287 15.4058 165.918 15.7034C167.383 16.4007 168.239 16.5527 169.564 16.3221L170.18 16.2195L170.128 15.9056C170.039 15.4253 169.632 14.6869 169.269 14.3613C168.498 13.6843 167.368 13.3001 165.943 13.2407C165.087 13.2079 163.679 13.4571 163.478 13.6787C163.412 13.7523 163.614 13.9739 164.26 14.5521Z" fill="#423D72"/>
<path d="M170.199 7.97576C169.895 9.3206 169.753 10.7838 169.842 11.799C169.952 13.0876 170.429 14.3567 171.042 14.9854C171.506 15.4676 171.422 15.486 172.134 14.654C172.434 14.3079 172.522 14.0925 172.673 13.3459C172.98 11.7898 172.694 10.3839 171.717 8.74747C171.244 7.94918 170.526 7.07925 170.426 7.19029C170.393 7.22738 170.291 7.57754 170.199 7.97576Z" fill="#423D72"/>
<path d="M166.098 17.6421C166.174 18.1512 167.456 19.5263 168.46 20.1983C168.848 20.4521 169.459 20.7723 169.82 20.9221C170.535 21.2015 172.121 21.3929 172.338 21.2268C172.515 21.0911 172.327 20.2004 171.998 19.5851C171.48 18.6132 170.11 17.7073 168.738 17.4272C168.216 17.3207 166.223 17.326 166.13 17.4296C166.102 17.4588 166.093 17.5576 166.098 17.6421Z" fill="#423D72"/>
<path d="M173.841 13.6444C173.122 15.2996 172.867 16.4872 172.942 17.9179C172.977 18.5772 173.098 19.3936 173.208 19.7326C173.387 20.3211 173.722 20.7818 173.956 20.7767C174.012 20.7738 174.382 20.4101 174.776 19.9746C175.471 19.2069 175.497 19.1634 175.723 18.364C176.11 16.9863 175.968 15.3763 175.323 13.7151C175.161 13.3155 174.923 12.8358 174.793 12.6385C174.472 12.205 174.472 12.205 173.841 13.6444Z" fill="#423D72"/>
<path d="M168.045 22.3926C168.942 24.3856 170.558 26.0735 172.167 26.6996C172.767 26.9424 173.449 27.0055 173.589 26.8506C173.636 26.7988 173.645 26.4467 173.605 26.0761C173.424 24.3768 172.348 23.0121 170.592 22.281C169.912 21.9927 168.569 21.7396 168.035 21.7954C167.802 21.8146 167.804 21.8424 168.045 22.3926Z" fill="#423D72"/>
<path d="M168.857 27.2101C169.037 28.0656 169.718 29.7178 170.179 30.4253C170.487 30.9012 170.863 31.3319 171.457 31.8777C172.237 32.5896 172.355 32.6678 172.915 32.8355L173.539 33.0209L173.629 32.5799C173.813 31.7684 173.765 30.8569 173.499 30.2447C173.363 29.9351 173.217 29.5772 173.175 29.4739C173.05 29.0935 171.519 27.6824 170.834 27.3104C170.201 26.9703 168.899 26.5394 168.799 26.65C168.773 26.6796 168.8 26.9316 168.857 27.2101Z" fill="#423D72"/>
<path d="M176.367 19.8494C175.324 21.5215 174.709 23.2552 174.692 24.5504C174.679 25.2472 174.907 26.6279 175.048 26.7541C175.167 26.8606 176.207 26.3493 176.633 25.9683C177.767 24.9525 178.489 22.5661 178.235 20.6807C178.143 20.0105 177.766 18.3631 177.692 18.2966C177.596 18.2101 176.803 19.1445 176.367 19.8494Z" fill="#423D72"/>
<path d="M168.725 32.4775C168.761 33.9665 169.302 35.7736 170.069 36.9154C170.422 37.4455 171.404 38.3792 171.833 38.5888C172.152 38.755 172.367 38.5327 172.585 37.8463C172.943 36.7238 172.718 35.4129 171.969 34.2073C171.514 33.4789 170.209 32.3227 169.418 31.9354C169.098 31.7834 168.811 31.6859 168.777 31.7226C168.745 31.759 168.72 32.098 168.725 32.4775Z" fill="#423D72"/>
<path d="M167.395 37.4205C167.235 38.4133 167.363 40.3056 167.652 41.2328C167.78 41.6411 168.038 42.2465 168.225 42.5744C168.615 43.2574 169.492 44.2033 169.68 44.1446C169.881 44.0847 170.45 43.0845 170.604 42.514C171.009 41.0582 170.283 38.9652 168.852 37.4292C168.417 36.9595 167.686 36.4912 167.572 36.6169C167.545 36.6461 167.466 37.0159 167.395 37.4205Z" fill="#423D72"/>
<path d="M176.59 27.9884C175.628 29.3047 175.025 31.0096 175.035 32.4223L175.04 33.1885L175.578 33.069C176.494 32.8733 177.023 32.5856 177.722 31.8881C178.522 31.1081 178.89 30.4489 179.266 29.1282C179.571 28.0645 179.687 26.9122 179.623 25.8392C179.586 25.2715 179.536 25.1333 179.404 25.1755C179.042 25.2794 177.323 27.0007 176.59 27.9884Z" fill="#423D72"/>
<path d="M165.163 41.6225C164.521 43.1329 164.343 45.6457 164.773 46.9809C164.96 47.5761 165.694 48.8879 165.874 48.9557C166.242 49.0984 167.279 47.715 167.532 46.738C167.603 46.4814 167.64 45.8465 167.614 45.3412C167.552 44.163 167.094 42.9913 166.332 42.0676C166.045 41.7309 165.742 41.3529 165.644 41.2244C165.447 40.9677 165.433 40.9827 165.163 41.6225Z" fill="#423D72"/>
<path d="M161.459 46.1902C160.351 48.3649 160.065 50.4474 160.644 52.1964C160.795 52.6388 160.964 53.0167 161.028 53.0344C161.249 53.0722 162.007 52.5613 162.448 52.0741C163.317 51.1148 163.692 49.9135 163.591 48.4068C163.558 47.7753 163.435 47.3179 163.071 46.4439C162.398 44.8123 162.42 44.8322 162.073 45.2302C161.912 45.4072 161.639 45.8431 161.459 46.1902Z" fill="#423D72"/>
<path d="M174.427 36.9833C174.051 37.6357 173.703 38.6737 173.735 39.0233C173.762 39.2471 173.791 39.2735 174.171 39.3733C174.666 39.5091 175.748 39.2632 176.477 38.8593C176.778 38.6889 177.273 38.2764 177.717 37.8313C178.563 36.9853 179.135 36.0414 179.579 34.7943C179.873 33.9492 180.098 32.5871 179.956 32.5662C179.649 32.5051 178.186 33.3196 177.01 34.2039C176.023 34.9521 174.905 36.1428 174.427 36.9833Z" fill="#423D72"/>
<path d="M171.656 43.6961C171.304 44.2491 171.036 44.9452 171.14 45.0381C171.192 45.0847 171.501 45.1744 171.836 45.248C173.066 45.5073 174.394 45.2133 175.652 44.4019C176.848 43.6291 178.222 41.7993 178.698 40.3541C178.886 39.7747 178.843 39.7626 177.421 40.1323C175.035 40.7491 172.564 42.2777 171.656 43.6961Z" fill="#423D72"/>
<path d="M162.348 54.8716C162.755 55.3567 163.765 55.8876 164.616 56.0612C165.002 56.1394 165.717 56.1657 166.202 56.1193C167.743 55.9754 169.935 54.9191 171.298 53.6806L171.81 53.2037L171.152 53.055C167.267 52.1816 164.396 52.5632 162.447 54.2121L162.075 54.5338L162.348 54.8716Z" fill="#423D72"/>
<path d="M167.331 49.9137C167.007 50.5988 168.801 51.2296 170.393 50.999C171.908 50.7653 173.364 49.944 174.745 48.5355C175.678 47.5796 176.067 47.0461 175.95 46.8481C175.857 46.6843 172.926 46.879 171.928 47.1211C170.853 47.3741 169.76 47.8249 169.022 48.3132C168.4 48.7187 167.491 49.5887 167.331 49.9137Z" fill="#423D72"/>
<path d="M25.9164 2.55008C25.5818 2.99647 24.235 4.13623 23.6444 4.47779C22.602 5.07739 22.3345 5.18316 21.4207 5.36064C20.5355 5.52533 19.4927 5.45702 19.3849 5.21949C19.2831 5.00299 19.6332 4.26224 20.1081 3.70309C20.5385 3.1838 20.6863 3.065 21.3109 2.74594C22.5834 2.07401 24.395 1.7743 25.4686 2.0554C25.7619 2.12679 26.0327 2.21845 26.0526 2.24057C26.0795 2.27021 26.0155 2.40766 25.9164 2.55008Z" fill="#423D72"/>
<path d="M19.9442 0.508713C19.9018 1.0411 19.4875 2.46818 19.0788 3.51605C18.6878 4.49445 18.0959 5.39876 17.4719 5.97124C16.8854 6.51024 16.0911 6.9541 15.8917 6.85226C15.6855 6.74288 15.4679 5.90892 15.5115 5.34836C15.6121 3.84167 16.0786 2.90223 17.3384 1.66717C18.0324 0.979012 18.2896 0.78873 18.973 0.430569C19.4241 0.186791 19.8299 -0.00288589 19.8865 6.54934e-05C19.95 -0.0044877 19.9729 0.228981 19.9442 0.508713Z" fill="#423D72"/>
<path d="M23.7166 7.94194C23.4048 8.22124 22.0871 8.67964 21.1958 8.82327C19.3356 9.11294 17.7518 8.84742 17.0887 8.14497C16.8083 7.83518 16.8026 7.79951 16.9876 7.51363C17.5026 6.73177 18.7343 6.29681 20.2794 6.35592C21.2803 6.40809 22.2668 6.74074 23.1264 7.33446C23.3587 7.48698 23.6178 7.66918 23.7005 7.71601C23.8168 7.78568 23.8206 7.84877 23.7166 7.94194Z" fill="#423D72"/>
<path d="M14.5323 3.53856C14.7049 4.69393 14.4596 6.66443 13.9961 7.94813C13.5473 9.21866 12.5355 10.5792 11.9485 10.718C11.776 10.7652 11.7005 10.7262 11.5379 10.4576C10.7428 9.1786 10.9681 7.18598 12.1172 5.36769C12.5504 4.65915 13.8659 3.30693 14.2337 3.16423L14.4646 3.07764L14.5323 3.53856Z" fill="#423D72"/>
<path d="M19.8128 10.5162C19.3186 11.039 17.8152 11.7975 16.755 12.0659C15.759 12.3163 14.58 12.2899 13.655 11.9958C13.2447 11.869 12.8905 11.7448 12.8773 11.7301C12.8572 11.708 12.9314 11.5078 13.0493 11.2821C13.8501 9.62892 16.688 8.90499 18.8745 9.80619C19.6153 10.105 19.9556 10.3617 19.8128 10.5162Z" fill="#423D72"/>
<path d="M15.2204 8.30787C15.1903 8.34846 14.62 8.96592 13.9614 9.66302C12.3738 11.3527 11.9505 11.8649 10.9483 13.3106C9.17332 15.8764 7.83588 18.5847 7.06251 21.1883C6.42714 23.3214 5.69499 27.6926 5.7824 28.8435C5.80912 29.14 5.81962 29.7459 5.80996 30.1953C5.79486 32.2272 6.20598 35.0262 6.88001 37.3894C8.88821 44.4917 14.0039 50.9891 20.3118 54.4404C21.9128 55.3187 23.9887 56.1723 26.9343 57.1556C27.2959 57.2731 27.2959 57.2731 27.2513 57.5799C27.2217 57.7402 27.1559 57.9193 27.1039 57.966C26.7774 58.2584 22.5231 56.6158 20.0643 55.2501C14.1579 51.9601 9.33106 46.2865 6.95566 39.8473C5.27338 35.2728 4.79795 29.6709 5.71731 24.9718C5.94879 23.8029 6.53154 21.196 6.56889 21.1626C6.59114 21.1427 6.91593 20.3438 7.29822 19.4003C8.10434 17.3819 8.85074 15.965 10.0481 14.1706C11.0992 12.6009 12.1816 11.2437 13.4466 9.91027C14.2163 9.11352 15.5012 7.94982 15.2204 8.30787Z" fill="#423D72"/>
<path d="M15.7404 14.5516C15.0354 15.1831 14.713 15.4053 14.082 15.703C12.6173 16.4003 11.7609 16.5522 10.4367 16.3216L9.82031 16.2191L9.87204 15.9051C9.96093 15.4249 10.3677 14.6864 10.7311 14.3608C11.5021 13.6839 12.6323 13.2996 14.0566 13.2402C14.9136 13.2074 16.3215 13.4566 16.5221 13.6783C16.5887 13.7518 16.3859 13.9735 15.7404 14.5516Z" fill="#423D72"/>
<path d="M9.80187 7.97581C10.1057 9.32059 10.2477 10.7838 10.159 11.7991C10.0487 13.0877 9.57201 14.3568 8.95877 14.9855C8.49473 15.4676 8.57891 15.486 7.86622 14.6541C7.56655 14.3079 7.47873 14.0925 7.32732 13.346C7.02067 11.7898 7.30662 10.3839 8.28372 8.74746C8.75718 7.94923 9.4744 7.0793 9.57487 7.19028C9.6078 7.22737 9.7097 7.57753 9.80187 7.97581Z" fill="#423D72"/>
<path d="M13.9018 17.642C13.8254 18.1512 12.5442 19.5263 11.54 20.1983C11.1519 20.4521 10.5413 20.7723 10.1799 20.9221C9.46544 21.2014 7.87874 21.3928 7.66152 21.2268C7.48475 21.091 7.67321 20.2003 8.00235 19.585C8.52014 18.6132 9.89016 17.7073 11.2621 17.4272C11.7835 17.3208 13.7769 17.326 13.8706 17.4295C13.8978 17.4589 13.9066 17.5576 13.9018 17.642Z" fill="#423D72"/>
<path d="M6.15947 13.6444C6.87801 15.2996 7.13371 16.4872 7.058 17.918C7.02328 18.5772 6.90265 19.3936 6.79245 19.7327C6.61312 20.3212 6.27777 20.7818 6.0445 20.7768C5.98795 20.7738 5.61842 20.4101 5.2243 19.9747C4.52945 19.207 4.50368 19.1635 4.27709 18.3641C3.89026 16.9863 4.03183 15.3763 4.67723 13.7151C4.8398 13.3155 5.07736 12.8358 5.20736 12.6385C5.52839 12.205 5.52839 12.205 6.15947 13.6444Z" fill="#423D72"/>
<path d="M11.9546 22.3927C11.0579 24.3857 9.44191 26.0735 7.8323 26.6996C7.2329 26.9424 6.55064 27.0055 6.41044 26.8506C6.3636 26.7989 6.35412 26.4467 6.39487 26.0761C6.57635 24.3768 7.65189 23.0121 9.40821 22.281C10.088 21.9927 11.4304 21.7396 11.9649 21.7954C12.1973 21.8146 12.1959 21.8424 11.9546 22.3927Z" fill="#423D72"/>
<path d="M11.1428 27.2101C10.9634 28.0656 10.2825 29.7178 9.82105 30.4253C9.51327 30.9013 9.13712 31.3319 8.54291 31.8777C7.76328 32.5896 7.64563 32.6678 7.08543 32.8355L6.46067 33.0209L6.37071 32.5799C6.18719 31.7684 6.23522 30.8569 6.50094 30.2447C6.6372 29.9352 6.78361 29.5772 6.82459 29.4739C6.9506 29.0935 8.48122 27.6824 9.16575 27.3104C9.79868 26.9703 11.1009 26.5394 11.201 26.65C11.2272 26.6796 11.1998 26.9316 11.1428 27.2101Z" fill="#423D72"/>
<path d="M3.63355 19.8489C4.67663 21.521 5.29226 23.2548 5.30879 24.5499C5.32167 25.2467 5.09342 26.6274 4.95238 26.7537C4.83366 26.8601 3.79332 26.3488 3.36794 25.9678C2.23352 24.9521 1.51116 22.5656 1.76603 20.6803C1.85772 20.01 2.23441 18.3626 2.30869 18.2961C2.40516 18.2096 3.19762 19.144 3.63355 19.8489Z" fill="#423D72"/>
<path d="M11.2753 32.4775C11.2392 33.9665 10.6986 35.7736 9.93184 36.9154C9.57884 37.4455 8.59636 38.3792 8.1683 38.5888C7.84841 38.7551 7.63423 38.5327 7.4157 37.8463C7.05774 36.7238 7.28236 35.4129 8.03163 34.2073C8.48707 33.4789 9.7923 32.3227 10.5833 31.9354C10.9023 31.7834 11.1902 31.6859 11.2235 31.7226C11.2564 31.759 11.2813 32.098 11.2753 32.4775Z" fill="#423D72"/>
<path d="M12.6049 37.4205C12.7649 38.4134 12.6364 40.3056 12.3473 41.2328C12.2198 41.6411 11.9616 42.2465 11.7744 42.5744C11.3849 43.2574 10.5078 44.2033 10.3202 44.1446C10.1186 44.0847 9.5491 43.0845 9.39524 42.514C8.99093 41.0582 9.71657 38.9652 11.1478 37.4292C11.5828 36.9595 12.314 36.4912 12.4277 36.6169C12.4549 36.6462 12.5342 37.0159 12.6049 37.4205Z" fill="#423D72"/>
<path d="M3.41009 27.9884C4.37276 29.3047 4.97592 31.0096 4.96506 32.4223L4.96023 33.1885L4.42198 33.069C3.5062 32.8733 2.97679 32.5856 2.27859 31.8881C1.47838 31.1081 1.1104 30.4489 0.734185 29.1282C0.429563 28.0646 0.313525 26.9122 0.377242 25.8392C0.41435 25.2715 0.464046 25.1333 0.595774 25.1755C0.958146 25.2794 2.67724 27.0007 3.41009 27.9884Z" fill="#423D72"/>
<path d="M14.8376 41.6225C15.479 43.1329 15.6577 45.6458 15.2271 46.9809C15.0402 47.5761 14.3065 48.8879 14.1262 48.9557C13.7584 49.0984 12.7213 47.715 12.4685 46.7381C12.3972 46.4814 12.3599 45.8466 12.3866 45.3412C12.4486 44.1631 12.9062 42.9913 13.669 42.0676C13.9554 41.7309 14.2584 41.3529 14.3564 41.2243C14.5535 40.9677 14.5671 40.9827 14.8376 41.6225Z" fill="#423D72"/>
<path d="M18.5415 46.1902C19.6497 48.3649 19.9358 50.4474 19.3562 52.1964C19.2058 52.6388 19.0372 53.0167 18.9726 53.0344C18.7515 53.0722 17.9936 52.5613 17.5526 52.0742C16.6842 51.1148 16.3089 49.9135 16.4095 48.4068C16.4428 47.7753 16.566 47.3179 16.93 46.4439C17.6029 44.8123 17.5807 44.8322 17.9272 45.2302C18.0881 45.4072 18.3618 45.8432 18.5415 46.1902Z" fill="#423D72"/>
<path d="M5.57296 36.9833C5.94845 37.6357 6.2968 38.6737 6.26435 39.0233C6.23822 39.2471 6.20881 39.2734 5.82889 39.3733C5.3339 39.509 4.25126 39.2632 3.52317 38.8593C3.22142 38.6888 2.7266 38.2764 2.28345 37.8312C1.43712 36.9852 0.864686 36.0413 0.421356 34.7943C0.126817 33.9492 -0.0985165 32.5871 0.0437714 32.5662C0.350899 32.505 1.81381 33.3196 2.99035 34.2039C3.97617 34.9521 5.09419 36.1428 5.57296 36.9833Z" fill="#423D72"/>
<path d="M8.34449 43.6961C8.69684 44.249 8.96441 44.9452 8.86078 45.0381C8.8087 45.0847 8.50008 45.1743 8.16396 45.2479C6.93432 45.5072 5.60671 45.2133 4.34867 44.4019C3.15226 43.6291 1.778 41.7993 1.30276 40.3541C1.11411 39.7747 1.15719 39.7626 2.57995 40.1323C4.96502 40.749 7.43677 42.2777 8.34449 43.6961Z" fill="#423D72"/>
<path d="M17.6531 54.8716C17.2457 55.3567 16.2353 55.8876 15.3848 56.0612C14.9989 56.1393 14.2833 56.1657 13.7984 56.1193C12.2577 55.9753 10.0653 54.9191 8.70267 53.6806L8.19043 53.2037L8.84841 53.055C12.7334 52.1816 15.6047 52.5632 17.5539 54.2121L17.9256 54.5338L17.6531 54.8716Z" fill="#423D72"/>
<path d="M12.6683 49.9137C12.9928 50.5988 11.199 51.2297 9.60656 50.999C8.09186 50.7653 6.63641 49.944 5.25434 48.5355C4.32227 47.5796 3.93294 47.0461 4.04933 46.8481C4.14276 46.6843 7.07341 46.879 8.07152 47.1211C9.147 47.3741 10.2404 47.8249 10.978 48.3132C11.5997 48.7187 12.5086 49.5887 12.6683 49.9137Z" fill="#423D72"/>
</svg>
