<svg width="152" height="50" viewBox="0 0 152 50" fill="none" xmlns="http://www.w3.org/2000/svg">
<path fill-rule="evenodd" clip-rule="evenodd" d="M5 0C2.23858 0 0 2.23858 0 5V45C0 47.7614 2.23858 50 5 50H147C149.761 50 152 47.7614 152 45V5C152 2.23858 149.761 0 147 0H5ZM32.2963 36.279C32.9231 35.392 33.4641 34.4272 33.9211 33.3791C34.1095 32.9347 34.2867 32.4717 34.4545 31.9884C33.6804 31.6662 32.9847 31.2125 32.3616 30.6255C30.9869 29.3607 30.2874 27.7678 30.2668 25.8536C30.2445 23.3961 31.3693 21.4804 33.6431 20.1127C32.3728 18.3201 30.4627 17.3252 27.9202 17.1215C26.982 17.0424 25.8366 17.2431 24.4796 17.7279C23.0446 18.2507 22.1981 18.5129 21.9483 18.5129C21.6142 18.5129 20.8522 18.2886 19.6655 17.8464C18.4754 17.4057 17.5177 17.1815 16.7875 17.1815C15.4528 17.2035 14.2135 17.5479 13.0665 18.2238C11.9195 18.8997 11.003 19.8204 10.3141 20.9876C9.43761 22.4407 9 24.1748 9 26.1853C9 27.9404 9.32457 29.7533 9.97203 31.6255C10.5766 33.3587 11.3483 34.8791 12.2869 36.1901C13.1618 37.4179 13.8921 38.2845 14.4759 38.7901C15.3907 39.6345 16.3071 40.0363 17.2266 39.9974C17.8311 39.9771 18.6218 39.7715 19.6034 39.3771C20.5834 38.9845 21.4997 38.7901 22.354 38.7901C23.1686 38.7901 24.0595 38.9845 25.0289 39.3771C25.9952 39.7715 26.8253 39.9659 27.5136 39.9659C28.4724 39.9437 29.3677 39.553 30.2034 38.7901C30.7425 38.3253 31.442 37.4882 32.2963 36.279ZM26.4373 14.798C27.5378 13.5014 28.09 12.1005 28.09 10.6002V10.6002C28.09 10.4012 28.0807 10.2006 28.0583 10C27.2916 10.0395 26.4765 10.2701 25.6147 10.687C24.751 11.1103 24.0388 11.6409 23.4788 12.279C22.3572 13.5393 21.7256 15.0808 21.7256 16.5211C21.7256 16.7202 21.7385 16.9096 21.7607 17.0896C23.5027 17.2302 25.1092 16.3394 26.4373 14.798ZM55.0854 38.3682H53.46L51.9876 34.6398H45.964L44.4916 38.3682H43L48.4881 25H49.5781L55.0854 38.3682ZM46.4612 33.3648H51.4904L48.9853 26.9705L46.4612 33.3648ZM58.0044 42H56.5893V29.2886H58.0044V30.892H58.0235C58.5207 30.042 59.7063 29.1341 61.2935 29.1341C64.0471 29.1341 65.6534 31.1432 65.6534 33.8284C65.6534 36.5136 63.8368 38.5614 61.3317 38.5614C60.0123 38.5614 58.7119 38.0398 58.0235 36.8227L58.0044 36.8034V42ZM57.947 33.8284C57.947 35.7795 59.0179 37.3057 61.0258 37.3057C63.0145 37.3057 64.181 35.7795 64.181 33.8284C64.181 31.858 63.0527 30.3318 61.064 30.3318C59.2665 30.3318 57.947 31.858 57.947 33.8284ZM67.7752 42H69.1903V36.8034L69.2094 36.8227C69.8978 38.0398 71.1982 38.5614 72.5176 38.5614C75.0227 38.5614 76.8393 36.5136 76.8393 33.8284C76.8393 31.1432 75.233 29.1341 72.4794 29.1341C70.8922 29.1341 69.7066 30.042 69.2094 30.892H69.1903V29.2886H67.7752V42ZM72.2117 37.3057C70.2038 37.3057 69.1329 35.7795 69.1329 33.8284C69.1329 31.858 70.4524 30.3318 72.2499 30.3318C74.2386 30.3318 75.3669 31.858 75.3669 33.8284C75.3669 35.7795 74.2004 37.3057 72.2117 37.3057ZM81.8146 36.958L82.5603 36.05C83.4209 37.0352 84.3196 37.4216 85.1801 37.4216C86.1554 37.4216 87.0924 36.9966 87.0924 35.9148C87.0924 34.9368 85.8578 34.543 85.1122 34.3051C85.0331 34.2799 84.9594 34.2563 84.8933 34.2341C84.8468 34.2189 84.7938 34.2025 84.7356 34.1845C83.9794 33.9505 82.3309 33.4405 82.3309 31.6648C82.3309 30.0034 83.7651 29.1341 85.2184 29.1341C86.6717 29.1341 87.5322 29.617 88.1632 30.1966L87.4748 31.0659C86.8438 30.525 86.0215 30.2352 85.2184 30.2352C84.2814 30.2352 83.6312 30.6795 83.6312 31.5295C83.6312 32.3602 84.5491 32.7466 85.5434 33.075C85.6202 33.1014 85.7049 33.1289 85.7956 33.1584L85.7961 33.1586C86.7679 33.4743 88.4309 34.0146 88.4309 35.7989C88.4309 37.5375 86.9968 38.5614 85.1419 38.5614C83.6694 38.5614 82.4839 37.9239 81.8146 36.958ZM94.3846 38.2716L94.3081 37.1125C94.3081 37.1125 93.8683 37.325 93.3137 37.325C92.8931 37.325 92.5488 37.2091 92.3959 36.9773C92.109 36.5523 92.109 35.9148 92.109 35.1807V30.525H94.3272V29.3273H92.1282V26.5261H90.694V29.3273H89.3554V30.525H90.694V34.8909C90.694 36.533 90.694 38.5614 92.8357 38.5614C93.4476 38.5614 93.9639 38.4648 94.3846 38.2716ZM104.728 33.867C104.728 36.6489 102.663 38.5614 100.043 38.5614C97.4236 38.5614 95.3775 36.6489 95.3775 33.867C95.3775 31.1045 97.4236 29.1341 100.043 29.1341C102.663 29.1341 104.728 31.1045 104.728 33.867ZM96.8308 33.8284C96.8308 35.7602 98.0546 37.3057 100.043 37.3057C102.032 37.3057 103.275 35.7602 103.275 33.8284C103.275 31.8773 102.032 30.3705 100.043 30.3705C98.0546 30.3705 96.8308 31.8773 96.8308 33.8284ZM106.784 38.3682H108.199V33.6739C108.199 32.3023 108.428 31.7807 108.791 31.2591C108.944 31.0466 109.48 30.467 110.302 30.467C110.57 30.467 110.971 30.5057 111.277 30.6409H111.335L111.43 29.2886C111.43 29.2886 111.067 29.1341 110.474 29.1341C109.48 29.1341 108.619 29.7523 108.199 30.8534V29.308H106.784V38.3682ZM119.816 36.2239L120.427 37.0739C119.605 38.0591 118.305 38.5614 116.546 38.5614C113.907 38.5614 112.128 36.7261 112.128 33.8091C112.128 31.2398 113.868 29.1341 116.546 29.1341C119.012 29.1341 120.714 30.9307 120.714 33.4227C120.714 33.7511 120.657 34.1761 120.657 34.1761H113.582C113.601 36.05 114.882 37.3636 116.794 37.3636C118.553 37.3636 119.816 36.2239 119.816 36.2239ZM113.601 33.0943H119.28C119.28 31.8193 118.458 30.3511 116.488 30.3318C114.691 30.3125 113.715 31.6841 113.601 33.0943ZM45.66 11C48.446 11 50.658 12.988 50.658 15.83C50.658 18.672 48.446 20.66 45.66 20.66H43V11H45.66ZM45.59 19.974C48.026 19.974 49.874 18.336 49.874 15.83C49.874 13.338 48.012 11.686 45.59 11.686H43.756V19.974H45.59ZM55.1353 14.052C56.9973 14.052 58.4673 15.48 58.4673 17.44C58.4673 19.4 56.9973 20.8 55.1353 20.8C53.2873 20.8 51.8173 19.4 51.8173 17.44C51.8173 15.48 53.2873 14.052 55.1353 14.052ZM55.1353 20.142C56.7173 20.142 57.6973 18.91 57.6973 17.412C57.6973 15.9 56.7173 14.682 55.1353 14.682C53.5673 14.682 52.5873 15.9 52.5873 17.412C52.5873 18.91 53.5673 20.142 55.1353 20.142ZM68.6878 14.164H67.9178L66.1678 19.61L64.1378 14.15H63.5778L61.5478 19.61L59.7978 14.164H59.0278L61.1978 20.66H61.8278L63.8578 15.2L65.8878 20.66H66.5178L68.6878 14.164ZM75.068 16.782V20.66H74.326V16.81C74.326 15.76 74.144 14.682 72.744 14.682C71.344 14.682 70.672 15.9 70.672 17.44V20.66H69.944V14.164H70.672V15.368C70.994 14.598 71.834 14.052 72.772 14.052C74.634 14.052 75.068 15.242 75.068 16.782ZM77.8924 11H77.1644V20.66H77.8924V11ZM82.8892 14.052C84.7512 14.052 86.2212 15.48 86.2212 17.44C86.2212 19.4 84.7512 20.8 82.8892 20.8C81.0412 20.8 79.5712 19.4 79.5712 17.44C79.5712 15.48 81.0412 14.052 82.8892 14.052ZM82.8892 20.142C84.4712 20.142 85.4512 18.91 85.4512 17.412C85.4512 15.9 84.4712 14.682 82.8892 14.682C81.3212 14.682 80.3412 15.9 80.3412 17.412C80.3412 18.91 81.3212 20.142 82.8892 20.142ZM92.3068 20.66V16.81C92.3068 15.088 91.5228 14.052 89.7168 14.052C88.7368 14.052 87.9668 14.43 87.5468 14.71L87.8268 15.242C87.9668 15.13 88.7368 14.682 89.7448 14.682C90.7668 14.682 91.5648 15.27 91.5648 16.46V16.81L89.7868 16.88C88.0368 16.95 87.1968 17.72 87.1968 18.84C87.1968 19.96 88.1068 20.8 89.3668 20.8C90.6268 20.8 91.3268 20.03 91.5648 19.75V20.66H92.3068ZM91.5648 17.37V18.98C91.2568 19.47 90.5568 20.17 89.5068 20.17C88.4568 20.17 87.9248 19.54 87.9248 18.84C87.9248 18.14 88.3588 17.552 89.7168 17.482L91.5648 17.37ZM96.9962 20.8C95.0362 20.8 93.7763 19.33 93.7763 17.412C93.7763 15.48 95.0362 14.052 96.9682 14.052C97.9062 14.052 98.7743 14.43 99.4043 15.382V11H100.146V20.66H99.4043V19.456C98.8583 20.38 97.9762 20.8 96.9962 20.8ZM96.9962 14.682C95.4283 14.682 94.5462 15.9 94.5462 17.412C94.5462 18.91 95.4283 20.142 96.9962 20.142C98.5782 20.142 99.4463 18.91 99.4463 17.412C99.4463 15.9 98.5782 14.682 96.9962 14.682ZM111.282 17.44C111.282 15.48 109.812 14.052 107.95 14.052C106.102 14.052 104.632 15.48 104.632 17.44C104.632 19.4 106.102 20.8 107.95 20.8C109.812 20.8 111.282 19.4 111.282 17.44ZM110.512 17.412C110.512 18.91 109.532 20.142 107.95 20.142C106.382 20.142 105.402 18.91 105.402 17.412C105.402 15.9 106.382 14.682 107.95 14.682C109.532 14.682 110.512 15.9 110.512 17.412ZM118.011 16.782V20.66H117.269V16.81C117.269 15.76 117.087 14.682 115.687 14.682C114.287 14.682 113.615 15.9 113.615 17.44V20.66H112.887V14.164H113.615V15.368C113.937 14.598 114.777 14.052 115.715 14.052C117.577 14.052 118.011 15.242 118.011 16.782ZM125.5 20.59L125.43 19.96C125.43 19.96 125.15 20.142 124.73 20.142C123.862 20.142 123.778 19.288 123.778 18.574V14.85H125.43V14.192H123.792V12.12H123.05V14.192H122.07V14.85H123.05V18.14C123.05 19.19 123.064 19.666 123.288 20.1C123.526 20.534 123.89 20.8 124.52 20.8C124.94 20.8 125.262 20.73 125.5 20.59ZM131.958 16.782V20.66H131.216V16.81C131.216 15.76 131.034 14.682 129.634 14.682C128.234 14.682 127.562 15.9 127.562 17.44V20.66H126.834V11H127.562V15.368C127.884 14.598 128.724 14.052 129.662 14.052C131.524 14.052 131.958 15.242 131.958 16.782ZM139.665 17.09C139.665 15.34 138.433 14.052 136.725 14.052C135.003 14.052 133.575 15.41 133.575 17.412C133.575 19.4 134.793 20.8 136.683 20.8C138.573 20.8 139.385 19.82 139.385 19.82L139.035 19.302C139.035 19.302 138.223 20.142 136.753 20.142C135.283 20.142 134.415 19.12 134.345 17.58H139.623C139.623 17.58 139.665 17.3 139.665 17.09ZM138.923 16.95H134.373C134.415 16.04 135.073 14.682 136.683 14.682C138.293 14.682 138.923 16.11 138.923 16.95Z" fill="#EB6054"/>
</svg>
