<svg width="109" height="35" viewBox="0 0 109 35" fill="none" xmlns="http://www.w3.org/2000/svg">
<path d="M109 21.7734C109.005 22.3256 108.561 22.7774 108.009 22.7824L99.0095 22.8644C98.4572 22.8695 98.0054 22.4259 98.0004 21.8736C97.9954 21.3213 98.439 20.8696 98.9913 20.8645L106.991 20.7916L106.918 12.792C106.913 12.2397 107.357 11.7879 107.909 11.7829C108.461 11.7779 108.913 12.2215 108.918 12.7737L109 21.7734ZM0.194058 33.408C27.0499 -3.15359 76.1584 -10.8856 108.701 21.069L107.299 22.496C75.7568 -8.47696 28.0538 -1.14181 1.80594 34.592L0.194058 33.408Z" fill="#443B76"/>
</svg>
