<svg width="129" height="43" viewBox="0 0 129 43" fill="none" xmlns="http://www.w3.org/2000/svg">
<path d="M128.931 33.3999C129.132 32.8855 128.878 32.3055 128.364 32.1045L119.981 28.8283C119.467 28.6273 118.887 28.8813 118.686 29.3957C118.485 29.9101 118.739 30.4901 119.253 30.6911L126.705 33.6033L123.792 41.0544C123.591 41.5688 123.845 42.1488 124.36 42.3498C124.874 42.5508 125.454 42.2968 125.655 41.7824L128.931 33.3999ZM1.37523 5.76149C26.7883 -4.52589 44.2597 8.20188 62.6677 20.9567C71.823 27.3004 81.221 33.648 91.8345 36.8514C102.502 40.0709 114.352 40.1053 128.401 33.9519L127.599 32.1199C113.987 38.0816 102.626 38.0194 92.4123 34.9367C82.1448 31.8377 72.9919 25.6771 63.8068 19.3128C45.5338 6.6515 27.1663 -6.83654 0.624772 3.90762L1.37523 5.76149Z" fill="#443B76"/>
</svg>
