<svg width="51" height="53" viewBox="0 0 51 53" fill="none" xmlns="http://www.w3.org/2000/svg">
<path fill-rule="evenodd" clip-rule="evenodd" d="M48.4918 24.95C48.4918 25.6657 49.0533 26.2459 49.7459 26.2459C50.4385 26.2459 51 25.6657 51 24.95V1.62378C51 1.61665 50.9999 1.60953 50.9998 1.60242C51.0027 1.43059 50.9702 1.25686 50.9004 1.0923C50.7136 0.651816 50.2936 0.358095 49.8202 0.330116C49.7956 0.328633 49.7708 0.327881 49.7459 0.327881C49.7424 0.327881 49.739 0.327895 49.7355 0.327924H27.1916C26.4989 0.327924 25.9375 0.889403 25.9375 1.58202C25.9375 2.27464 26.4989 2.83612 27.1916 2.83612H46.7893L0.352417 50.8743C-0.128968 51.3723 -0.115512 52.1662 0.382473 52.6476C0.880458 53.129 1.67439 53.1155 2.15578 52.6175L48.4918 4.68373V24.95Z" fill="#443B76"/>
</svg>
