<svg width="74" height="76" viewBox="0 0 74 76" fill="none" xmlns="http://www.w3.org/2000/svg">
<path fill-rule="evenodd" clip-rule="evenodd" d="M66.2922 65.5082C60.7536 72.0801 51.9683 76 39.0584 76C26.152 76 16.3683 72.0843 9.81019 65.556C3.25502 59.0307 0 49.9719 0 39.8311C0 29.6752 3.9704 18.5578 11.1377 10.6537C18.3276 2.72465 28.7551 -1.98243 41.5644 0.80978C54.1746 3.55861 62.3281 8.20579 67.3085 14.7951C72.2832 21.3769 74 29.7767 74 39.8311C74 49.9048 71.8098 58.9612 66.2922 65.5082ZM39.0584 75.2585C64.5604 75.2585 73.2525 59.7987 73.2525 39.8311C73.2525 19.8636 66.4233 6.98779 41.4039 1.53396C16.3846 -3.91987 0.747475 19.8636 0.747475 39.8311C0.747475 59.7987 13.5563 75.2585 39.0584 75.2585Z" fill="#423D72"/>
<path fill-rule="evenodd" clip-rule="evenodd" d="M34.7282 37.7646C34.3366 37.804 33.9432 37.8237 33.5497 37.8237C30.4241 37.8237 27.4265 36.5817 25.2164 34.371C23.0063 32.1603 21.7646 29.1618 21.7646 26.0354C21.7646 22.9089 23.0063 19.9105 25.2164 17.6998C27.4265 15.4891 30.4241 14.2471 33.5497 14.2471C33.9432 14.2471 34.3366 14.2668 34.7282 14.3062V17.8427C34.3372 17.7948 33.9434 17.7751 33.5497 17.7836C31.3617 17.7836 29.2635 18.653 27.7164 20.2005C26.1693 21.748 25.3002 23.8469 25.3002 26.0354C25.3002 28.2239 26.1693 30.3228 27.7164 31.8703C29.2635 33.4178 31.3617 34.2872 33.5497 34.2872C33.9434 34.2957 34.3372 34.2759 34.7282 34.2281V37.7646Z" fill="#F8CB95"/>
<path fill-rule="evenodd" clip-rule="evenodd" d="M36.0309 38.1373L35.5019 38.191C35.1 38.2319 34.6963 38.2523 34.2924 38.2523C31.0841 38.2523 28.0085 36.9637 25.7418 34.6719C23.4753 32.3803 22.2031 29.2735 22.2031 26.0353C22.2031 22.7972 23.4753 19.6904 25.7418 17.3988C28.0085 15.107 31.0841 13.8184 34.2924 13.8184C34.6963 13.8184 35.1 13.8388 35.5019 13.8797L36.0309 13.9334V18.6199L35.3703 18.5382C35.017 18.4945 34.661 18.4765 34.3051 18.4842L34.2988 18.4844H34.2924C32.3153 18.4844 30.4179 19.2784 29.018 20.6938C27.6179 22.1094 26.8302 24.0307 26.8302 26.0353C26.8302 28.04 27.6179 29.9612 29.018 31.3769C30.4179 32.7923 32.3153 33.5863 34.2924 33.5863H34.2988L34.3051 33.5865C34.661 33.5942 35.017 33.5762 35.3703 33.5325L36.0309 33.4508V38.1373ZM35.4424 37.6053V34.1168C35.2469 34.141 35.0507 34.1579 34.854 34.1675C34.667 34.1766 34.4797 34.1792 34.2924 34.1751C32.1572 34.1751 30.1095 33.3175 28.5997 31.791C27.09 30.2645 26.2418 28.1941 26.2418 26.0353C26.2418 23.8766 27.09 21.8062 28.5997 20.2797C30.1095 18.7532 32.1572 17.8956 34.2924 17.8956C34.4797 17.8915 34.667 17.8941 34.854 17.9032C35.0507 17.9128 35.2469 17.9297 35.4424 17.9539V14.4654C35.0603 14.4266 34.6764 14.4071 34.2924 14.4071C31.2422 14.4071 28.3169 15.6322 26.1601 17.813C24.0032 19.9937 22.7915 22.9514 22.7915 26.0353C22.7915 29.1193 24.0032 32.077 26.1601 34.2577C28.3169 36.4385 31.2422 37.6636 34.2924 37.6636C34.6764 37.6636 35.0603 37.6441 35.4424 37.6053Z" fill="#423D72"/>
<path fill-rule="evenodd" clip-rule="evenodd" d="M53.0104 37.7646C52.6188 37.804 52.2255 37.8237 51.8319 37.8237C48.7063 37.8237 45.7087 36.5817 43.4986 34.371C41.2885 32.1603 40.0469 29.1618 40.0469 26.0354C40.0469 22.9089 41.2885 19.9105 43.4986 17.6998C45.7087 15.4891 48.7063 14.2471 51.8319 14.2471C52.2255 14.2471 52.6188 14.2668 53.0104 14.3062V17.8427C52.6195 17.7948 52.2256 17.7751 51.8319 17.7836C49.951 17.7834 48.1265 18.4262 46.6608 19.6054C45.1952 20.7846 44.1764 22.4294 43.7733 24.2671H50.6534V27.8036H43.7733C44.1764 29.6414 45.1952 31.2862 46.6608 32.4654C48.1265 33.6446 49.951 34.2874 51.8319 34.2872C52.2256 34.2957 52.6195 34.2759 53.0104 34.2281V37.7646Z" fill="#F8CB95"/>
<path fill-rule="evenodd" clip-rule="evenodd" d="M54.3131 38.1373L53.7841 38.191C53.3822 38.2319 52.9785 38.2523 52.5746 38.2523C49.3663 38.2523 46.2907 36.9637 44.024 34.6719C41.7576 32.3803 40.4854 29.2735 40.4854 26.0353C40.4854 22.7972 41.7576 19.6904 44.024 17.3988C46.2907 15.107 49.3663 13.8184 52.5746 13.8184C52.9785 13.8184 53.3822 13.8388 53.7841 13.8797L54.3131 13.9334V18.6199L53.6525 18.5382C53.2992 18.4945 52.9432 18.4765 52.5874 18.4842L52.581 18.4844L52.5745 18.4844C50.8748 18.4842 49.2252 19.0713 47.8993 20.1496C46.7639 21.073 45.9241 22.3093 45.4769 23.7023H52.0129V28.3684H45.4769C45.9241 29.7614 46.7639 30.9977 47.8993 31.9211C49.2252 32.9994 50.8748 33.5865 52.5745 33.5863H52.581L52.5874 33.5865C52.9432 33.5942 53.2992 33.5762 53.6525 33.5325L54.3131 33.4508V38.1373ZM44.8611 28.3684C44.8038 28.1746 44.7535 27.9782 44.7104 27.7796H51.4245V24.2911H44.7104C44.7535 24.0925 44.8038 23.8961 44.8611 23.7023C45.3268 22.1282 46.2547 20.7284 47.5282 19.6927C48.9585 18.5295 50.739 17.8954 52.5746 17.8956C52.7619 17.8915 52.9492 17.8941 53.1363 17.9032C53.3329 17.9128 53.5292 17.9297 53.7247 17.9539V14.4654C53.3425 14.4266 52.9587 14.4071 52.5746 14.4071C49.5244 14.4071 46.5991 15.6322 44.4423 17.813C42.2855 19.9937 41.0738 22.9514 41.0738 26.0353C41.0738 29.1193 42.2855 32.077 44.4423 34.2577C46.5991 36.4385 49.5244 37.6636 52.5746 37.6636C52.9587 37.6636 53.3425 37.6441 53.7247 37.6053V34.1168C53.5292 34.141 53.3329 34.1579 53.1363 34.1675C52.9492 34.1766 52.7619 34.1792 52.5746 34.1751C50.739 34.1753 48.9585 33.5412 47.5282 32.378C46.2547 31.3423 45.3268 29.9425 44.8611 28.3684Z" fill="#423D72"/>
<path d="M10.6415 47.5C10.6415 46.5949 9.9868 46.1873 9.15103 46.1873H7.84863V50.9545H8.37099V48.8265H8.94209L10.2724 50.9545H10.9201L9.4923 48.7851C10.154 48.6469 10.6415 48.2116 10.6415 47.5ZM8.94906 46.6294C9.55499 46.6294 10.1052 46.8022 10.1052 47.5069C10.1052 48.2531 9.49927 48.3774 8.87941 48.3774H8.37099V46.6294H8.94906Z" fill="#443B76"/>
<path d="M11.4532 50.9545H14.1973V50.5054H11.9756V48.6607H14.0232V48.2116H11.9756V46.6363H14.1486V46.1873H11.4532V50.9545Z" fill="#443B76"/>
<path d="M18.7417 48.9163V50.0909C18.7417 50.0909 18.3447 50.5607 17.2722 50.5607C16.1996 50.5607 15.336 49.8145 15.336 48.5709C15.336 47.3342 16.1717 46.5742 17.2234 46.5742C17.9756 46.5742 18.477 46.9265 18.7974 47.2996L19.1526 46.9473C18.9715 46.7538 18.4422 46.1182 17.2234 46.1182C15.8583 46.1182 14.7997 47.12 14.7997 48.5709C14.7997 50.0563 15.8235 51.0374 17.2373 51.0374C18.6024 51.0374 19.1666 50.388 19.2501 50.2843V48.4742H17.3557V48.9163H18.7417Z" fill="#443B76"/>
<path d="M20.2271 50.9545H20.7495V46.1873H20.2271V50.9545Z" fill="#443B76"/>
<path d="M21.9708 49.8491L21.6156 50.1876C21.8593 50.5538 22.3817 51.0374 23.113 51.0374C24.0463 51.0374 24.7079 50.5123 24.7079 49.6694C24.7079 48.9854 24.2413 48.6538 23.6562 48.4051L23.0015 48.1287C22.6812 47.9974 22.3329 47.8109 22.3329 47.3134C22.3329 46.8436 22.7369 46.5742 23.2523 46.5742C23.7607 46.5742 24.0811 46.8436 24.29 47.0854L24.5965 46.74C24.5129 46.6363 24.0811 46.1251 23.2801 46.1251C22.5419 46.1251 21.8036 46.5465 21.8036 47.348C21.8036 47.9283 22.0752 48.2807 22.6115 48.5087L23.3219 48.8127C23.7677 49.0062 24.1716 49.248 24.1716 49.7454C24.1716 50.2843 23.7537 50.5883 23.1757 50.5883C22.6603 50.5883 22.1797 50.1669 21.9708 49.8491Z" fill="#443B76"/>
<path d="M26.3763 50.9545H26.8987V46.6294H28.2916V46.1873H24.9764V46.6294H26.3763V50.9545Z" fill="#443B76"/>
<path d="M28.9058 50.9545H31.6499V50.5054H29.4282V48.6607H31.4758V48.2116H29.4282V46.6363H31.6012V46.1873H28.9058V50.9545Z" fill="#443B76"/>
<path d="M35.3376 47.5C35.3376 46.5949 34.6829 46.1873 33.8472 46.1873H32.5448V50.9545H33.0671V48.8265H33.6382L34.9685 50.9545H35.6162L34.1884 48.7851C34.8501 48.6469 35.3376 48.2116 35.3376 47.5ZM33.6452 46.6294C34.2511 46.6294 34.8013 46.8022 34.8013 47.5069C34.8013 48.2531 34.1954 48.3774 33.5756 48.3774H33.0671V46.6294H33.6452Z" fill="#443B76"/>
<path d="M36.1494 50.9545H38.8935V50.5054H36.6717V48.6607H38.7194V48.2116H36.6717V46.6363H38.8447V46.1873H36.1494V50.9545Z" fill="#443B76"/>
<path d="M39.7814 50.9545H41.1673C42.5742 50.9545 43.6886 50.0149 43.6886 48.5778C43.6886 47.1062 42.616 46.1873 41.1673 46.1873H39.7814V50.9545ZM41.1534 50.4985H40.3037V46.6433H41.1534C42.3444 46.6433 43.1453 47.3687 43.1453 48.5709C43.1453 49.7385 42.3026 50.4985 41.1534 50.4985Z" fill="#443B76"/>
<path d="M49.8376 50.3189L49.5729 49.9527C49.2386 50.312 48.7372 50.5469 48.0895 50.5469C46.9821 50.5469 46.1672 49.7454 46.1672 48.564C46.1672 47.3825 46.9612 46.5811 48.0895 46.5811C48.7581 46.5811 49.3152 46.9127 49.5311 47.1891L49.7958 46.7814C49.4894 46.4774 48.9391 46.1182 48.0755 46.1182C46.7035 46.1182 45.6309 47.1131 45.6309 48.5778C45.6309 50.0494 46.6269 51.0374 48.0546 51.0374C48.9461 51.0374 49.5172 50.6713 49.8376 50.3189Z" fill="#443B76"/>
<path d="M50.5891 50.9545H52.8108V50.4916H51.1114V46.1873H50.5891V50.9545Z" fill="#443B76"/>
<path d="M56.7871 50.9545H57.3791L55.3733 46.1734H54.9763L52.9774 50.9545H53.5207L54.0569 49.6211H56.2508L56.7871 50.9545ZM56.0698 49.1651H54.238L55.1574 46.8782L56.0698 49.1651Z" fill="#443B76"/>
<path d="M57.9301 49.8491L57.5749 50.1876C57.8187 50.5538 58.3411 51.0374 59.0724 51.0374C60.0056 51.0374 60.6673 50.5123 60.6673 49.6694C60.6673 48.9854 60.2006 48.6538 59.6156 48.4051L58.9609 48.1287C58.6405 47.9974 58.2923 47.8109 58.2923 47.3134C58.2923 46.8436 58.6963 46.5742 59.2117 46.5742C59.7201 46.5742 60.0405 46.8436 60.2494 47.0854L60.5558 46.74C60.4723 46.6363 60.0405 46.1251 59.2395 46.1251C58.5013 46.1251 57.763 46.5465 57.763 47.348C57.763 47.9283 58.0346 48.2807 58.5709 48.5087L59.2813 48.8127C59.727 49.0062 60.131 49.248 60.131 49.7454C60.131 50.2843 59.7131 50.5883 59.135 50.5883C58.6196 50.5883 58.1391 50.1669 57.9301 49.8491Z" fill="#443B76"/>
<path d="M61.5417 49.8491L61.1865 50.1876C61.4303 50.5538 61.9526 51.0374 62.6839 51.0374C63.6172 51.0374 64.2789 50.5123 64.2789 49.6694C64.2789 48.9854 63.8122 48.6538 63.2272 48.4051L62.5725 48.1287C62.2521 47.9974 61.9039 47.8109 61.9039 47.3134C61.9039 46.8436 62.3078 46.5742 62.8232 46.5742C63.3317 46.5742 63.652 46.8436 63.861 47.0854L64.1674 46.74C64.0838 46.6363 63.652 46.1251 62.8511 46.1251C62.1128 46.1251 61.3746 46.5465 61.3746 47.348C61.3746 47.9283 61.6462 48.2807 62.1825 48.5087L62.8929 48.8127C63.3386 49.0062 63.7426 49.248 63.7426 49.7454C63.7426 50.2843 63.3247 50.5883 62.7466 50.5883C62.2312 50.5883 61.7507 50.1669 61.5417 49.8491Z" fill="#443B76"/>
<path d="M66.5043 50.9545H67.0267V46.1873H66.5043V50.9545Z" fill="#443B76"/>
<path d="M12.4667 58.7273L12.8219 54.8029L14.389 58.7894H14.6327L16.2486 54.7476L16.6107 58.7273H17.1331L16.6734 53.96H16.0396L14.5213 57.836L13.003 53.96H12.404L11.9444 58.7273H12.4667Z" fill="#443B76"/>
<path d="M18.0711 58.7273H20.8152V58.2782H18.5934V56.4334H20.6411V55.9843H18.5934V54.4091H20.7664V53.96H18.0711V58.7273Z" fill="#443B76"/>
<path d="M21.7031 58.7273H23.089C24.4959 58.7273 25.6103 57.7876 25.6103 56.3505C25.6103 54.8789 24.5377 53.96 23.089 53.96H21.7031V58.7273ZM23.0751 58.2713H22.2254V54.416H23.0751C24.2661 54.416 25.067 55.1414 25.067 56.3436C25.067 57.5113 24.2243 58.2713 23.0751 58.2713Z" fill="#443B76"/>
<path d="M26.4437 58.7273H26.966V53.96H26.4437V58.7273Z" fill="#443B76"/>
<path d="M32.0109 58.0916L31.7463 57.7254C31.412 58.0847 30.9105 58.3196 30.2628 58.3196C29.1554 58.3196 28.3405 57.5182 28.3405 56.3367C28.3405 55.1553 29.1345 54.3538 30.2628 54.3538C30.9314 54.3538 31.4886 54.6854 31.7045 54.9618L31.9692 54.5542C31.6627 54.2502 31.1125 53.8909 30.2489 53.8909C28.8768 53.8909 27.8043 54.8858 27.8043 56.3505C27.8043 57.8222 28.8002 58.8102 30.228 58.8102C31.1195 58.8102 31.6906 58.444 32.0109 58.0916Z" fill="#443B76"/>
<path d="M36.0698 58.7273H36.6618L34.656 53.9462H34.259L32.2601 58.7273H32.8034L33.3397 57.3938H35.5336L36.0698 58.7273ZM35.3525 56.9378H33.5208L34.4401 54.6509L35.3525 56.9378Z" fill="#443B76"/>
<path d="M37.2514 58.7273H39.4731V58.2643H37.7737V53.96H37.2514V58.7273Z" fill="#443B76"/>
<path d="M41.4885 58.7273H42.8745C44.2814 58.7273 45.3957 57.7876 45.3957 56.3505C45.3957 54.8789 44.3232 53.96 42.8745 53.96H41.4885V58.7273ZM42.8606 58.2713H42.0109V54.416H42.8606C44.0516 54.416 44.8525 55.1414 44.8525 56.3436C44.8525 57.5113 44.0098 58.2713 42.8606 58.2713Z" fill="#443B76"/>
<path d="M46.2292 58.7273H48.9733V58.2782H46.7515V56.4334H48.7991V55.9843H46.7515V54.4091H48.9245V53.96H46.2292V58.7273Z" fill="#443B76"/>
<path d="M51.08 58.7342H51.5257L53.2878 53.96H52.7376L51.3168 57.9327L49.889 53.96H49.3249L51.08 58.7342Z" fill="#443B76"/>
<path d="M53.8672 58.7273H54.3896V53.96H53.8672V58.7273Z" fill="#443B76"/>
<path d="M59.4345 58.0916L59.1698 57.7254C58.8355 58.0847 58.334 58.3196 57.6863 58.3196C56.5789 58.3196 55.7641 57.5182 55.7641 56.3367C55.7641 55.1553 56.558 54.3538 57.6863 54.3538C58.3549 54.3538 58.9121 54.6854 59.128 54.9618L59.3927 54.5542C59.0862 54.2502 58.536 53.8909 57.6724 53.8909C56.3003 53.8909 55.2278 54.8858 55.2278 56.3505C55.2278 57.8222 56.2237 58.8102 57.6515 58.8102C58.543 58.8102 59.1141 58.444 59.4345 58.0916Z" fill="#443B76"/>
<path d="M60.179 58.7273H62.9231V58.2782H60.7013V56.4334H62.749V55.9843H60.7013V54.4091H62.8743V53.96H60.179V58.7273Z" fill="#443B76"/>
</svg>
