<svg width="259" height="601" viewBox="0 0 259 601" fill="none" xmlns="http://www.w3.org/2000/svg">
<path d="M67.3947 340.295C67.3947 340.295 40.0281 573.65 53.9468 587.047C65.0411 597.729 106.198 606.555 117.806 592.912C132.548 575.595 133.868 405.454 133.868 405.454H135.736C135.736 405.454 141.225 570.511 149.495 585.675C159.968 604.867 208.218 604.245 224.245 590.503C234.141 582.012 198.857 340.295 198.857 340.295H67.3947Z" fill="#443B76"/>
<path d="M150.15 176.944C152.498 180.2 153.373 180.83 160.354 182.523C172.682 185.525 143.217 216.284 135.338 216.36C127.641 216.436 95.9208 188.136 106.154 183.196C110.821 180.944 112.189 180.846 114.555 177.698C118.33 172.667 116.316 153.274 116.316 153.274L148.336 152.829C148.336 152.829 146.704 172.211 150.15 176.944Z" fill="#C69C6D"/>
<path d="M117.091 168.688C121.812 170.351 126.821 171.208 131.874 171.218C137.85 171.006 142.958 171.055 148.112 168.259C147.907 163.152 148.183 161.839 148.183 161.839L116.598 161.03C116.598 161.03 116.838 163.119 117.091 168.688Z" fill="#A67C52"/>
<path d="M197.933 357.528C223.853 331.312 215.364 216.359 215.364 216.359C215.364 216.359 160.177 181.215 157.242 180.96L109.013 181.134L52.1827 215.751C52.1827 215.751 38.6797 333.602 67.1887 357.528C91.4002 377.827 175.876 379.83 197.933 357.528Z" fill="#CE544E"/>
<path d="M24.625 242.673C19.3412 261.518 13.2003 308.956 23.8031 311.572C49.1829 317.846 96.6019 262.18 104.234 258.772C112.565 255.059 117.684 208.43 100.529 217.841C85.7232 225.983 44.8384 280.184 44.8384 280.184L56.5802 232.464L53.4334 201.2C53.4334 201.2 34.5233 207.377 24.625 242.673Z" fill="#C69C6D"/>
<path d="M234.421 232.404C244.783 248.687 265.613 293.091 237.749 309.189C228.626 314.476 162.227 263.721 154.835 259.873C149.61 257.159 144.819 217.081 155.281 219.795C163.336 221.885 205.184 263.298 205.184 263.298L197.428 231.031L198.814 197.699C198.814 197.699 214.419 200.983 234.421 232.404Z" fill="#C69C6D"/>
<path d="M147.573 267.287H112.219C111.094 267.287 110.012 266.884 109.2 266.164C108.389 265.444 107.909 264.462 107.862 263.423L105.766 216.669C105.742 216.126 105.836 215.584 106.044 215.075C106.252 214.567 106.569 214.102 106.976 213.71C107.383 213.317 107.871 213.005 108.412 212.792C108.953 212.578 109.535 212.468 110.123 212.468H150.115C150.706 212.468 151.291 212.579 151.834 212.794C152.377 213.01 152.868 213.325 153.275 213.721C153.682 214.117 153.999 214.585 154.204 215.098C154.41 215.61 154.501 216.156 154.471 216.701L151.929 263.455C151.873 264.489 151.39 265.463 150.579 266.176C149.768 266.889 148.692 267.287 147.573 267.287Z" fill="black"/>
<path d="M162.972 243.259C162.702 232.653 162.65 226.59 158.276 225.586C139.26 221.244 128.716 233.771 133.753 246.803C136.97 255.135 154.149 262.163 159.585 259.976C163.366 258.462 163.225 252.882 162.972 243.259Z" fill="#C69C6D"/>
<path d="M96.2853 239.66C97.2422 251.135 97.7413 259.482 102.156 259.678C118.154 260.378 132.966 247.612 127.078 234.254C123.309 225.717 105.127 220.403 99.7902 223.638C96.1268 225.869 95.4164 229.261 96.2853 239.66Z" fill="#C69C6D"/>
<path d="M82.8997 121.5C82.8997 124.008 85.3948 126.043 82.6825 126.043C81.3792 126.043 80.1293 125.564 79.2078 124.712C78.2863 123.86 77.7686 122.705 77.7686 121.5C77.7686 120.295 78.2863 119.14 79.2078 118.288C80.1293 117.436 81.3792 116.957 82.6825 116.957C85.3948 116.957 82.8997 118.992 82.8997 121.5Z" fill="white"/>
<path d="M181.5 131.785C189.246 131.785 195.526 125.98 195.526 118.819C195.526 111.657 189.246 105.852 181.5 105.852C173.754 105.852 167.475 111.657 167.475 118.819C167.475 125.98 173.754 131.785 181.5 131.785Z" fill="#C69C6D"/>
<path d="M81.9249 132.708C89.671 132.708 95.9504 126.903 95.9504 119.742C95.9504 112.58 89.671 106.775 81.9249 106.775C74.1789 106.775 67.8994 112.58 67.8994 119.742C67.8994 126.903 74.1789 132.708 81.9249 132.708Z" fill="#C69C6D"/>
<path d="M78.602 111.763L77.8857 111.974L77.51 112.067C75.2488 112.69 73.3478 114.118 72.2249 116.036C71.102 117.955 70.849 120.207 71.5217 122.298" stroke="#A67C52" stroke-width="2" stroke-linecap="round" stroke-linejoin="round"/>
<path d="M192.279 121.38C192.787 119.824 192.785 118.162 192.272 116.607C191.758 115.052 190.758 113.672 189.397 112.642C188.494 111.958 187.455 111.446 186.338 111.133L185.956 111.041L185.229 110.834" stroke="#A67C52" stroke-width="2" stroke-linecap="round" stroke-linejoin="round"/>
<path d="M188.564 89.6448C188.579 81.8781 186.709 74.2072 183.093 67.1968C179.477 60.1865 174.206 54.0153 167.669 49.1377C161.131 44.2601 153.493 40.8002 145.318 39.0129C137.142 37.2256 128.637 37.1564 120.429 38.8103C112.221 40.4642 104.519 43.7992 97.8891 48.5697C91.2597 53.3401 85.872 59.4245 82.1228 66.3749C78.3737 73.3253 76.3585 80.9646 76.2258 88.7304C76.093 96.4961 77.846 104.19 81.3557 111.247C81.3557 111.28 81.3557 111.317 81.3557 111.35C81.3557 140.035 102.555 168.026 133.577 168.026C164.599 168.026 182.552 141.745 182.552 113.065C182.552 113.033 182.552 113 182.552 112.962C186.507 105.733 188.567 97.7457 188.564 89.6448Z" fill="#C69C6D"/>
<path opacity="0.3" d="M102.314 135.243C107.985 135.243 112.582 130.993 112.582 125.75C112.582 120.507 107.985 116.257 102.314 116.257C96.6431 116.257 92.0459 120.507 92.0459 125.75C92.0459 130.993 96.6431 135.243 102.314 135.243Z" fill="#FB8973"/>
<path opacity="0.3" d="M162.467 135.243C168.138 135.243 172.736 130.993 172.736 125.75C172.736 120.507 168.138 116.257 162.467 116.257C156.796 116.257 152.199 120.507 152.199 125.75C152.199 130.993 156.796 135.243 162.467 135.243Z" fill="#FB8973"/>
<path d="M123.514 137.126C124.829 139.634 128.433 141.469 132.725 141.469C137.017 141.469 140.627 139.656 141.942 137.126" stroke="black" stroke-width="2" stroke-miterlimit="10" stroke-linecap="round"/>
<path d="M133.224 108.137H131.557V117.337H133.224V108.137Z" fill="#A67C52"/>
<path d="M148.97 100.425C151.22 99.5111 153.687 99.1485 156.132 99.3716C158.796 99.5556 161.341 100.46 163.453 101.971" stroke="#212226" stroke-width="2" stroke-linecap="round" stroke-linejoin="round"/>
<path d="M102.391 102.384C104.274 100.94 106.529 99.9693 108.937 99.5666C111.557 99.0896 114.272 99.333 116.745 100.267" stroke="#212226" stroke-width="2" stroke-linecap="round" stroke-linejoin="round"/>
<path d="M158.998 109.934C157.724 110.966 156.12 111.584 154.43 111.692C153.612 111.727 152.798 111.58 152.054 111.264C151.31 110.948 150.66 110.471 150.156 109.874" stroke="#212226" stroke-width="2" stroke-linecap="round" stroke-linejoin="round"/>
<path d="M107.17 108.734C108.403 109.805 109.98 110.475 111.661 110.645C112.478 110.705 113.298 110.584 114.054 110.291C114.81 109.998 115.479 109.543 116.006 108.962" stroke="#212226" stroke-width="2" stroke-linecap="round" stroke-linejoin="round"/>
<path d="M126.743 120.458C126.743 120.458 128.622 122.683 132.726 122.683C136.477 122.683 138.08 120.458 138.08 120.458" fill="#A67C52"/>
<path d="M123.69 50.1155C123.69 50.1155 111.361 97.2006 78.9598 109.017C78.9598 109.017 56.991 112.626 73.13 72.2061C86.8972 37.7133 126.743 37.2085 126.743 37.2085L123.69 50.1155Z" fill="#754C24"/>
<path d="M119.78 37.6209C119.78 37.6209 142.09 32.6057 167.475 48.5848C198.25 67.9398 194.446 111.763 194.446 111.763C194.446 111.763 119.78 82.4806 119.78 37.6209Z" fill="#754C24"/>
<path d="M109.576 29.8863C104.181 22.7869 101.246 11.2152 106.471 5.41297C115.277 -4.35684 147.032 2.2812 150.203 15.4433C152.616 25.4465 138.901 40.8014 125.322 39.7538C116.568 39.0754 111.05 31.8186 109.576 29.8863Z" fill="#754C24"/>
<path d="M167.774 166.843C171.766 169.329 172.958 173.519 173.21 174.393C175.958 184.027 165.878 193.346 164.78 194.361C148.929 208.983 110.181 207.051 99.0261 189.243C93.6308 180.651 94.1122 167.478 100.394 163.733C107.492 159.526 115.124 171.473 133.377 171.38C149.821 171.31 159.255 161.524 167.774 166.843Z" fill="#EB6054"/>
<path d="M100.858 182.627C92.686 181.872 79.7232 181.709 65.5685 186.573C28.3061 199.409 15.2317 236.067 9.36078 252.54C4.81673 265.274 -9.426 305.249 9.74826 319.583C20.2043 327.399 35.8501 324.055 45.0381 322.096C74.2163 315.865 108.743 291.012 103.982 266.191C101.381 252.622 86.4277 235.91 68.3043 237.869C54.3316 239.378 41.9617 251.612 39.6075 267.988" fill="#EB6054"/>
<path d="M158.023 183.88C166.195 183.12 179.158 182.963 193.312 187.821C230.575 200.641 243.661 237.316 249.543 253.789C254.088 266.522 268.33 306.497 249.156 320.837C238.694 328.647 223.054 325.304 213.866 323.344C184.688 317.113 150.161 292.26 154.917 267.439C157.523 253.87 172.477 237.158 190.594 239.118C204.573 240.632 216.943 252.86 219.291 269.236" fill="#EB6054"/>
<path d="M133.16 201.249C133.16 190.616 152.604 184.059 164.352 169.98C176.1 155.9 188.217 132.784 187.836 119.502" stroke="#E6E6E6" stroke-width="2" stroke-miterlimit="10"/>
<path d="M81.314 123.465C81.314 123.465 79.5058 143.645 89.0166 158.962C103.523 182.301 133.541 191.343 135.866 208.316C138.191 225.288 120.349 264.394 128.416 275.13C134.874 283.733 146.68 278.267 146.727 267.287" stroke="#E6E6E6" stroke-width="2" stroke-miterlimit="10"/>
<path d="M77.4629 128.61C83.1283 130.483 86.8915 135.183 86.8974 140.204C86.8974 146.326 81.3318 152.183 74.6156 151.602C68.228 151.059 64.048 144.926 64.4061 139.238C64.7701 133.224 70.0891 129.696 70.8641 129.197" stroke="#FBB03B" stroke-width="3" stroke-miterlimit="10" stroke-linecap="round"/>
<path d="M191.945 127.883C197.61 129.75 201.373 134.45 201.379 139.476C201.379 145.599 195.819 151.455 189.103 150.874C182.71 150.332 178.536 144.204 178.888 138.51C179.252 132.496 184.577 128.974 185.346 128.474" stroke="#FBB03B" stroke-width="3" stroke-miterlimit="10" stroke-linecap="round"/>
<path d="M129.015 28.0952C64.6061 28.0952 54.8018 84.4453 61.8292 120.48L65.1815 120.442C59.6453 88.2935 72.9663 35.314 129.174 35.314C186.121 35.314 204.374 87.1537 196.137 119.644L199.66 120.187C210.603 83.6746 194.294 28.0952 129.015 28.0952Z" fill="#CCCCCC"/>
<path d="M147.25 267.287H146.105C145.103 267.287 144.291 268.038 144.291 268.964V270.821C144.291 271.747 145.103 272.498 146.105 272.498H147.25C148.252 272.498 149.064 271.747 149.064 270.821V268.964C149.064 268.038 148.252 267.287 147.25 267.287Z" fill="#F2F2F2"/>
<path d="M175.442 51.776C164.434 42.6738 148.858 35.5961 132.314 35.5961H126.907C109.788 35.5961 94.8406 43.1949 83.9501 53.095L78.5078 45.1868C91.4237 34.1687 108.625 28.106 126.907 28.106H132.314C150.602 28.106 168.573 33.8322 181.5 44.8449L175.442 51.776Z" fill="#B6B2CC"/>
<path d="M66.7371 102.877C65.6355 103.078 64.6512 103.643 63.9698 104.468C63.2884 105.293 62.9572 106.32 63.0384 107.355L64.7175 128.523C64.802 129.557 65.2918 130.527 66.095 131.25C66.8982 131.974 67.9595 132.402 69.0796 132.453L66.7312 103.04C66.743 102.997 66.7371 102.937 66.7371 102.877Z" fill="#6872E7"/>
<path d="M81.9418 131.878L79.5935 102.189C79.3601 100.711 78.536 99.3671 77.2837 98.4233C76.0314 97.4796 74.442 97.0041 72.8291 97.0906C71.2161 97.1772 69.6969 97.8195 68.5711 98.8909C67.4454 99.9623 66.7949 101.385 66.748 102.878C66.748 102.938 66.748 102.997 66.748 103.062L69.0964 132.475V132.752C69.0904 133.576 69.269 134.393 69.6212 135.15C69.9734 135.908 70.4914 136.589 71.1426 137.152C71.7938 137.716 72.5641 138.148 73.4049 138.422C74.2458 138.697 75.139 138.807 76.0283 138.747C76.9176 138.686 77.7837 138.456 78.5721 138.071C79.3604 137.685 80.0539 137.153 80.6089 136.508C81.1639 135.863 81.5683 135.118 81.7967 134.321C82.0251 133.525 82.0725 132.693 81.936 131.878H81.9418Z" fill="#B6B2CC"/>
<path d="M196.136 103.182C197.235 103.394 198.212 103.971 198.881 104.805C199.551 105.638 199.867 106.669 199.77 107.703L197.815 128.849C197.72 129.883 197.218 130.848 196.404 131.562C195.59 132.276 194.522 132.69 193.4 132.724L196.124 103.339C196.13 103.301 196.13 103.241 196.136 103.182Z" fill="#6872E7"/>
<path d="M180.52 131.992L183.297 102.335C183.545 100.854 184.386 99.5135 185.654 98.5793C186.921 97.6452 188.522 97.1859 190.139 97.2925C191.756 97.3991 193.27 98.0639 194.381 99.1549C195.492 100.246 196.119 101.683 196.137 103.182C196.137 103.241 196.137 103.301 196.137 103.361L193.384 132.746V133.018C193.377 133.841 193.186 134.655 192.823 135.407C192.46 136.159 191.932 136.834 191.273 137.388C190.615 137.943 189.839 138.365 188.995 138.629C188.151 138.893 187.257 138.993 186.369 138.922C185.482 138.851 184.619 138.611 183.837 138.217C183.055 137.823 182.369 137.283 181.823 136.632C181.277 135.982 180.882 135.233 180.664 134.435C180.446 133.636 180.409 132.804 180.556 131.992H180.52Z" fill="#B6B2CC"/>
<path d="M121.494 49.209L150.461 99.4312C150.461 99.4312 114.514 73.5629 121.494 49.209Z" fill="#754C24"/>
<path d="M110.927 88.6844L122.029 52.1182C122.029 52.1182 126.438 79.935 110.927 88.6844Z" fill="#754C24"/>
</svg>
