<svg xmlns="http://www.w3.org/2000/svg" xmlns:xlink="http://www.w3.org/1999/xlink" width="270" height="650" fill="none"><style><![CDATA[.B{fill:#c69c6d}.C{stroke-width:2}.D{stroke-linecap:round}.E{fill:#a67c52}.F{stroke-miterlimit:10}.G{fill:#b6b2cc}.H{stroke-linejoin:round}]]></style><path d="M70.283 367.633S41.744 620.29 56.26 634.794c11.57 11.565 54.5 21.12 66.595 6.35 15.375-18.748 16.75-202.962 16.75-202.962h1.948s5.724 178.71 14.348 195.127c10.923 20.78 61.24 20.106 77.953 5.227 10.32-9.193-26.475-270.902-26.475-270.902H70.283z" fill="#443b76"/><path d="M156.585 190.77c2.45 3.526 3.36 4.207 10.64 6.04 12.857 3.25-17.872 36.552-26.088 36.635-8.027.082-41.106-30.56-30.435-35.906 4.867-2.44 6.294-2.545 8.76-5.953 3.937-5.448 1.837-26.445 1.837-26.445l33.392-.482s-1.702 20.985 1.892 26.1z" class="B"/><path d="M122.11 181.832c4.924 1.8 10.147 2.728 15.416 2.74 6.233-.23 11.56-.176 16.935-3.203-.214-5.53.074-6.952.074-6.952l-32.94-.875s.25 2.262.514 8.29z" class="E"/><path d="M206.415 386.29c27.03-28.384 18.178-152.844 18.178-152.844s-57.55-38.05-60.612-38.327l-50.296.188-59.266 37.48S40.338 360.387 70.068 386.29c25.25 21.978 113.345 24.147 136.347 0z" fill="#ce544e"/><path d="M25.68 261.936c-5.5 20.404-11.914 71.765-.857 74.598 26.467 6.793 75.92-53.477 83.878-57.168 8.688-4.02 14.027-54.505-3.863-44.315-15.44 8.815-58.078 67.498-58.078 67.498l12.245-51.667-3.282-33.85s-19.72 6.688-30.043 44.903zm218.787-11.118c10.806 17.63 32.528 65.706 3.47 83.136-9.514 5.723-78.76-49.23-86.468-53.395-5.45-2.938-10.444-46.33.466-43.393 8.4 2.263 52.04 47.1 52.04 47.1l-8.088-34.936 1.445-36.088s16.273 3.555 37.133 37.575z" class="B"/><path d="M153.897 288.586h-36.87c-1.174 0-2.3-.436-3.148-1.215s-1.346-1.844-1.395-2.97l-2.186-50.62c-.026-.588.073-1.175.3-1.725s.547-1.054.97-1.478a4.56 4.56 0 0 1 1.498-.994 4.69 4.69 0 0 1 1.784-.351h41.706a4.7 4.7 0 0 1 1.793.354 4.54 4.54 0 0 1 1.502 1.003c.425.428.755.936.97 1.5s.3 1.146.28 1.737l-2.65 50.62a4.29 4.29 0 0 1-1.408 2.945c-.845.773-1.968 1.203-3.135 1.203z" fill="#000"/><path d="M169.956 262.57c-.28-11.483-.337-18.047-4.898-19.134-19.83-4.702-30.826 8.862-25.573 22.97 3.355 9.02 21.27 16.63 26.938 14.263 3.943-1.64 3.796-7.68 3.533-18.1zm-69.546-3.895c.998 12.423 1.518 21.46 6.123 21.673 16.683.758 32.13-13.064 26-27.526-3.93-9.244-22.892-14.997-28.457-11.495-3.82 2.415-4.56 6.088-3.655 17.348z" class="B"/><path d="M86.452 130.74c0 2.715 2.602 4.92-.227 4.92-1.36 0-2.663-.518-3.624-1.44s-1.5-2.174-1.5-3.48.54-2.555 1.5-3.478 2.264-1.44 3.624-1.44c2.83 0 .227 2.203.227 4.918z" fill="#fff"/><g class="B"><use xlink:href="#B"/><use xlink:href="#B" x="-103.844" y="0.999"/></g><path d="M81.97 120.2l-.747.23-.392.1c-2.358.675-4.34 2.22-5.512 4.298s-1.435 4.515-.733 6.78m125.934-.996a8.56 8.56 0 0 0-.008-5.168 8.89 8.89 0 0 0-2.998-4.293 9.42 9.42 0 0 0-3.189-1.634l-.398-.1-.76-.223" stroke="#a67c52" class="C D H"/><path d="M196.644 96.252c.016-8.41-1.934-16.714-5.705-24.305s-9.268-14.272-16.086-19.553-14.782-9.027-23.308-10.962a60.97 60.97 0 0 0-25.955-.219c-8.56 1.79-16.593 5.402-23.506 10.567S89.552 63.532 85.642 71.057s-6.01 15.796-6.15 24.204 1.7 16.74 5.35 24.38v.112c0 31.058 22.108 61.363 54.46 61.363s51.074-28.454 51.074-59.506v-.112c4.124-7.826 6.272-16.475 6.27-25.246z" class="B"/><path opacity=".3" d="M106.7 145.62c5.914 0 10.708-4.602 10.708-10.278s-4.794-10.28-10.708-10.28-10.708 4.602-10.708 10.28 4.794 10.278 10.708 10.278zm62.73 0c5.914 0 10.708-4.602 10.708-10.278s-4.794-10.28-10.708-10.28-10.7 4.602-10.7 10.28 4.795 10.278 10.7 10.278z" fill="#fb8973"/><path d="M128.807 147.66c1.372 2.715 5.13 4.7 9.606 4.7s8.24-1.962 9.613-4.7" stroke="#000" class="C D F"/><path d="M138.934 116.273h-1.74v9.96h1.74v-9.96z" class="E"/><path d="M155.354 107.923a15.49 15.49 0 0 1 7.47-1.14c2.777.2 5.432 1.178 7.634 2.815m-63.68.446c1.965-1.564 4.316-2.614 6.827-3.05 2.733-.516 5.564-.253 8.143.758m44.062 10.466c-1.328 1.118-3 1.787-4.763 1.904a5.52 5.52 0 0 1-2.478-.463c-.775-.343-1.454-.86-1.98-1.505m-44.827-1.234a8.29 8.29 0 0 0 4.684 2.07c.852.065 1.707-.066 2.496-.383s1.485-.8 2.035-1.44" stroke="#212226" class="C D H"/><path d="M132.174 129.613s1.96 2.4 6.24 2.4c3.913 0 5.584-2.4 5.584-2.4" class="E"/><g fill="#754c24"><path d="M128.99 53.453s-12.857 50.98-46.647 63.772c0 0-22.9 3.908-6.08-39.855 14.357-37.346 55.9-37.892 55.9-37.892l-3.183 13.975z"/><path d="M124.913 39.925s23.266-5.43 49.74 11.87C206.746 72.75 202.78 120.2 202.78 120.2s-77.866-31.704-77.866-80.274z"/><path d="M114.272 31.55c-5.626-7.687-8.687-20.215-3.238-26.498 9.183-10.578 42.3-3.39 45.606 10.86 2.516 10.83-11.786 27.455-25.947 26.32-9.13-.735-14.884-8.592-16.42-10.684z"/></g><g fill="#eb6054"><path d="M174.964 179.834c4.164 2.692 5.407 7.23 5.67 8.175 2.865 10.43-7.647 20.52-8.792 21.62-16.53 15.83-56.94 13.74-68.572-5.542-5.626-9.303-5.124-23.565 1.427-27.62 7.402-4.554 15.36 8.38 34.396 8.28 17.15-.076 26.988-10.672 35.87-4.913z"/><path d="M105.18 196.924c-8.523-.817-22.04-.993-36.803 4.272-38.86 13.898-52.494 53.6-58.616 71.424-4.74 13.787-19.592 57.068.404 72.588 10.904 8.462 27.22 4.842 36.802 2.72 30.43-6.747 66.435-33.656 61.47-60.53-2.713-14.692-18.306-32.786-37.207-30.664-14.57 1.633-27.47 14.88-29.927 32.6m123.492-91.064c8.522-.823 22.04-.993 36.802 4.266 38.86 13.88 52.506 53.6 58.64 71.425 4.74 13.786 19.592 57.067-.404 72.593-10.9 8.456-27.22 4.836-36.802 2.715-30.43-6.746-66.435-33.655-61.476-60.53 2.72-14.7 18.312-32.785 37.206-30.664 14.578 1.64 27.478 14.88 29.927 32.6"/></g><g stroke="#e6e6e6" class="C F"><path d="M138.866 217.086c0-11.512 20.278-18.61 32.53-33.855s24.888-40.272 24.5-54.652"/><path d="M84.8 132.87s-1.886 21.85 8.033 38.433c15.128 25.27 46.433 35.06 48.857 53.435s-16.182 60.717-7.77 72.34c6.735 9.315 19.047 3.397 19.096-8.49"/></g><path d="M80.783 138.44c5.908 2.028 9.833 7.117 9.84 12.553 0 6.63-5.804 12.97-12.808 12.34-6.66-.588-11.02-7.23-10.647-13.387.38-6.5 5.926-10.33 6.735-10.872m126.267-1.422c5.908 2.022 9.832 7.1 9.838 12.553 0 6.63-5.798 12.97-12.802 12.34-6.667-.588-11.02-7.223-10.653-13.387.38-6.512 5.933-10.325 6.735-10.866" stroke="#fbb03b" stroke-width="3" class="D F"/><path d="M134.544 29.61c-67.17 0-77.394 61.01-70.066 100.026l3.496-.04c-5.774-34.807 8.118-92.17 66.735-92.17 59.388 0 78.423 56.127 69.833 91.305l3.674.587c11.412-39.53-5.596-99.708-73.672-99.708z" fill="#ccc"/><path d="M153.56 288.586h-1.194c-1.045 0-1.892.813-1.892 1.816v2c0 1.003.847 1.816 1.892 1.816h1.194c1.045 0 1.892-.813 1.892-1.816v-2c0-1.003-.847-1.816-1.892-1.816z" fill="#f2f2f2"/><path d="M182.96 55.25c-11.48-9.855-27.722-17.518-44.975-17.518h-5.64c-17.853 0-33.44 8.227-44.798 18.946l-5.675-8.562c13.47-11.93 31.408-18.494 50.474-18.494h5.64c19.07 0 37.812 6.2 51.294 18.123l-6.32 7.504z" class="G"/><path d="M69.597 110.58c-1.15.216-2.175.83-2.886 1.722s-1.056 2.005-.97 3.126l1.75 22.918a4.53 4.53 0 0 0 1.436 2.953c.838.784 1.944 1.247 3.112 1.302l-2.45-31.845c.012-.047.006-.112.006-.176z" fill="#6872e7"/><path d="M85.454 141.978l-2.45-32.145c-.243-1.6-1.103-3.055-2.41-4.077a6.92 6.92 0 0 0-4.646-1.443c-1.682.094-3.266.79-4.44 1.95a6.34 6.34 0 0 0-1.901 4.317v.2l2.45 31.845v.3c-.006.892.18 1.776.547 2.597a6.46 6.46 0 0 0 1.587 2.167 6.79 6.79 0 0 0 2.359 1.375 6.99 6.99 0 0 0 2.736.351 6.94 6.94 0 0 0 2.653-.731c.822-.418 1.545-.994 2.124-1.692s1-1.505 1.24-2.368a6.21 6.21 0 0 0 .145-2.645h.006z" class="G"/><path d="M204.542 110.908c1.146.23 2.165.855 2.863 1.757s1.028 2.018.927 3.138l-2.04 22.895c-.1 1.12-.623 2.164-1.472 2.937s-1.963 1.22-3.132 1.26l2.84-31.816c.006-.04.006-.106.012-.17z" fill="#6872e7"/><path d="M188.256 142.1l2.896-32.1c.258-1.603 1.136-3.055 2.457-4.066s2.992-1.51 4.678-1.393 3.265.835 4.424 2.016 1.812 2.737 1.83 4.36v.194l-2.872 31.816v.293a6.24 6.24 0 0 1-.584 2.587 6.49 6.49 0 0 1-1.616 2.146 6.81 6.81 0 0 1-2.376 1.343c-.88.286-1.813.394-2.738.317s-1.825-.337-2.64-.763-1.53-1.01-2.1-1.716a6.36 6.36 0 0 1-1.208-2.379c-.227-.865-.266-1.766-.113-2.645h-.037z" class="G"/><g fill="#754c24"><path d="M126.7 52.47l30.208 54.376S119.42 78.84 126.7 52.47z"/><path d="M115.68 95.212l11.577-39.59s4.598 30.118-11.577 39.59z"/></g><defs ><path id="B" d="M189.28 141.878c8.078 0 14.626-6.286 14.626-14.04s-6.548-14.04-14.626-14.04-14.627 6.286-14.627 14.04 6.55 14.04 14.627 14.04z"/></defs></svg>