<svg width="39" height="39" viewBox="0 0 39 39" fill="none" xmlns="http://www.w3.org/2000/svg">
<path fill-rule="evenodd" clip-rule="evenodd" d="M0.585786 35.5745C-0.195262 36.3556 -0.195262 37.6219 0.585786 38.403C1.36683 39.184 2.63316 39.184 3.41421 38.403L19.4944 22.3228L35.5745 38.403C36.3556 39.184 37.6219 39.184 38.403 38.403C39.184 37.6219 39.184 36.3556 38.403 35.5745L22.3228 19.4944L38.403 3.41422C39.184 2.63316 39.184 1.36684 38.403 0.585786C37.6219 -0.195262 36.3556 -0.195262 35.5745 0.585786L19.4944 16.6659L3.41421 0.585791C2.63316 -0.195258 1.36683 -0.195258 0.585786 0.585791C-0.195262 1.36684 -0.195262 2.63317 0.585786 3.41422L16.6659 19.4944L0.585786 35.5745Z" fill="white"/>
</svg>
