<svg width="247" height="308" viewBox="0 0 247 308" fill="none" xmlns="http://www.w3.org/2000/svg">
<g filter="url(#filter0_d)">
<path fill-rule="evenodd" clip-rule="evenodd" d="M123.007 282.692C179.153 282.692 224.668 237.195 224.668 181.072C224.668 124.949 179.153 79.4518 123.007 79.4518C66.8615 79.4518 21.3465 124.949 21.3465 181.072C21.3465 237.195 66.8615 282.692 123.007 282.692ZM123.007 283.674C179.695 283.674 225.65 237.737 225.65 181.072C225.65 124.406 179.695 78.47 123.007 78.47C66.3191 78.47 20.3643 124.406 20.3643 181.072C20.3643 237.737 66.3191 283.674 123.007 283.674Z" fill="#443B76"/>
<path d="M155.205 91.5021C151.793 85.3559 141.119 91.3188 130.426 91.5021C116.558 91.7405 97.04 88.2352 97.04 80.4432C97.04 72.6512 120.01 75.7438 127.565 75.7438C135.119 75.7438 152.823 75.2089 152.694 65.7099C152.574 56.9535 135.946 53.1087 125.836 53.2142C113.955 53.3425 101.139 53.7853 97.4584 48.533C93.7777 43.2806 95.9241 36.748 101.782 34.5546C107.641 32.3613 117.25 44.3682 125.836 46.4415C134.422 48.5147 146.801 42.4222 150.462 29.9189C154.123 17.4155 152.377 7.08863 144.186 4.83765C135.994 2.58667 131.503 8.21134 131.503 8.21134C130.512 7.58579 129.611 6.82842 128.827 5.96037C127.412 4.47499 128.166 0.766152 127.047 0.156416C125.928 -0.453319 122.064 0.82575 121.412 2.15983C120.492 4.0303 122.225 7.79416 123.691 10.1139C124.773 11.8377 127.685 13.9236 127.685 13.9236C127.685 13.9236 126.427 18.5081 125.836 21.2954C123.829 30.8037 120.392 32.0882 114.334 31.6655C108.199 31.2374 105.27 26.822 98.3161 29.9189C91.3627 33.0157 86.912 44.3651 93.6924 52.3848C99.5507 59.314 116.812 57.6752 125.836 57.9136C134.471 58.1382 147.202 60.8045 146.87 65.7099C146.606 69.5471 136.829 71.0098 127.565 70.8307C118.301 70.6516 90.6237 67.7271 90.6237 80.4432C90.6237 93.1593 115.578 96.7605 130.13 96.403C141.017 96.1416 148.788 91.5022 150.434 94.3399C152.079 97.1777 137.587 103.238 136.829 104.618C135.793 106.521 135.791 109.91 141.117 108.778C142.957 108.388 158.616 97.6484 155.205 91.5021Z" fill="#EB6054"/>
<path fill-rule="evenodd" clip-rule="evenodd" d="M131.724 9.51029L130.975 9.03792C129.911 8.36658 128.944 7.55419 128.101 6.62325C127.589 6.07995 127.318 5.38997 127.155 4.75527C126.989 4.11196 126.91 3.42414 126.846 2.83438C126.841 2.78766 126.836 2.7417 126.831 2.69648C126.771 2.13576 126.723 1.68994 126.639 1.33714C126.594 1.14731 126.552 1.04911 126.53 1.00432C126.504 0.998644 126.466 0.992153 126.415 0.987163C126.284 0.974487 126.108 0.975632 125.889 0.99839C125.45 1.04397 124.916 1.16787 124.378 1.35395C123.84 1.53992 123.333 1.77537 122.939 2.02434C122.515 2.29192 122.34 2.50135 122.298 2.58742L122.297 2.58971C122.175 2.83845 122.108 3.2261 122.155 3.78223C122.202 4.32955 122.354 4.96648 122.59 5.65302C123.06 7.02628 123.821 8.47767 124.525 9.59339L124.527 9.59586C124.982 10.3209 125.878 11.1908 126.736 11.9225C127.151 12.2773 127.535 12.581 127.815 12.7959C127.955 12.9031 128.068 12.9877 128.146 13.045C128.184 13.0736 128.214 13.0953 128.234 13.1096L128.255 13.1253L128.261 13.1294L128.815 13.5262L128.636 14.181L127.685 13.9236C127.685 13.9236 124.772 11.8377 123.691 10.1139C122.225 7.79416 120.492 4.0303 121.412 2.15983C122.064 0.82575 125.928 -0.453319 127.047 0.156416C127.582 0.44791 127.689 1.4477 127.809 2.57423C127.941 3.80413 128.088 5.1851 128.827 5.96037C129.611 6.82842 130.512 7.58579 131.503 8.21134C131.503 8.21134 135.994 2.58667 144.186 4.83765C152.377 7.08863 154.123 17.4155 150.462 29.9189C146.801 42.4222 134.422 48.5147 125.836 46.4415C122.022 45.5204 118.006 42.6391 114.206 39.9132C109.453 36.5028 105.038 33.3357 101.782 34.5546C95.9241 36.748 93.7777 43.2806 97.4584 48.533C100.95 53.5149 112.66 53.373 123.995 53.2357C124.61 53.2282 125.224 53.2208 125.836 53.2142C135.946 53.1087 152.574 56.9535 152.694 65.7099C152.823 75.2089 135.119 75.7438 127.565 75.7438C126.14 75.7438 124.166 75.6337 121.901 75.5075C112.161 74.9643 97.04 74.1212 97.04 80.4432C97.04 88.2352 116.558 91.7405 130.426 91.5021C134.201 91.4374 137.974 90.6523 141.426 89.934C147.751 88.6177 152.998 87.5258 155.205 91.5021C158.616 97.6484 142.957 108.388 141.117 108.778C135.791 109.91 135.793 106.521 136.829 104.618C137.084 104.154 138.896 103.159 141.124 101.935C145.515 99.5231 151.525 96.2224 150.434 94.3399C149.547 92.8101 146.879 93.4534 142.903 94.4123C139.504 95.232 135.148 96.2825 130.13 96.403C115.578 96.7605 90.6237 93.1593 90.6237 80.4432C90.6237 69.2312 112.14 70.1786 123.581 70.6824C125.116 70.75 126.469 70.8096 127.565 70.8307C136.829 71.0098 146.606 69.5471 146.87 65.7099C147.202 60.8045 134.471 58.1382 125.836 57.9136C124.25 57.8717 122.41 57.8878 120.422 57.9051C111.098 57.9866 98.5213 58.0964 93.6924 52.3848C86.912 44.3652 91.3627 33.0157 98.3161 29.9189C102.729 27.9535 105.521 29.0137 108.54 30.1603C110.279 30.8204 112.092 31.5091 114.334 31.6655C120.392 32.0882 123.829 30.8037 125.836 21.2954C126.427 18.5081 127.685 13.9236 127.685 13.9236L128.636 14.181L128.635 14.1817L128.622 14.2321C128.612 14.266 128.599 14.3162 128.581 14.3812C128.546 14.5112 128.495 14.7003 128.431 14.9359C128.305 15.4074 128.13 16.0649 127.936 16.809C127.549 18.3013 127.091 20.1257 126.8 21.4964C125.785 26.305 124.364 29.296 122.213 30.9747C120.038 32.6714 117.335 32.8564 114.265 32.6422C111.864 32.4747 109.847 31.7081 108.075 31.0351C107.465 30.8031 106.883 30.5822 106.325 30.4008C104.131 29.6873 101.922 29.3859 98.7192 30.8123C95.561 32.2188 92.8786 35.5618 91.8062 39.558C90.7422 43.5229 91.2925 48.0242 94.4468 51.7551C95.7475 53.2934 97.732 54.4125 100.219 55.2063C102.7 55.9983 105.605 56.4421 108.655 56.6822C112.628 56.995 116.695 56.9586 120.33 56.926C122.335 56.908 124.209 56.8912 125.862 56.9349C130.249 57.049 135.684 57.7814 140.009 59.1218C142.165 59.7898 144.115 60.6296 145.524 61.6671C146.924 62.697 147.969 64.0646 147.853 65.7757L147.853 65.7765C147.756 67.19 146.784 68.2373 145.562 68.9871C144.332 69.7423 142.676 70.309 140.811 70.731C137.069 71.5781 132.222 71.9 127.546 71.8096C126.414 71.7878 125.033 71.727 123.476 71.6586C118.526 71.4409 111.806 71.1454 105.722 71.7751C101.726 72.1887 98.1357 72.9928 95.5713 74.4075C93.0558 75.7952 91.6091 77.7107 91.6091 80.4432C91.6091 83.2575 92.9744 85.6118 95.3801 87.5989C97.8055 89.6024 101.241 91.1856 105.208 92.3893C113.135 94.795 122.9 95.6012 130.106 95.4242L130.107 95.4242C135.014 95.3064 139.274 94.2795 142.678 93.459C142.964 93.3901 143.244 93.3226 143.517 93.2573C145.25 92.8436 146.816 92.494 148.063 92.4499C149.298 92.4062 150.593 92.6539 151.288 93.8512C151.727 94.6096 151.551 95.3977 151.219 96.0067C150.895 96.5987 150.358 97.1645 149.757 97.6864C148.542 98.7408 146.791 99.8468 145.03 100.871C143.874 101.543 142.672 102.204 141.583 102.802C141.013 103.115 140.474 103.411 139.99 103.682C139.272 104.084 138.675 104.432 138.239 104.716C138.02 104.858 137.86 104.973 137.752 105.062C137.709 105.097 137.683 105.121 137.668 105.135C137.477 105.501 137.338 105.928 137.293 106.337C137.245 106.769 137.308 107.113 137.446 107.355C137.65 107.715 138.368 108.361 140.911 107.821L140.911 107.82C140.908 107.821 140.99 107.799 141.193 107.703C141.376 107.616 141.613 107.491 141.898 107.328C142.466 107.002 143.191 106.542 144.011 105.975C145.651 104.84 147.635 103.3 149.452 101.588C151.279 99.8673 152.889 98.0199 153.834 96.2755C154.789 94.5123 154.954 93.0786 154.342 91.975C153.655 90.7382 152.628 90.105 151.219 89.8462C149.751 89.5768 147.907 89.7244 145.71 90.0939C144.417 90.3114 143.077 90.5906 141.663 90.8852C140.654 91.0952 139.608 91.313 138.515 91.5219C135.937 92.0146 133.2 92.4338 130.443 92.4811C123.437 92.6015 114.993 91.7786 108.269 89.9276C104.914 89.0038 101.919 87.8061 99.742 86.2946C97.5712 84.7876 96.0546 82.8493 96.0546 80.4432C96.0546 77.863 98.0101 76.353 100.416 75.4996C102.838 74.6402 106.073 74.294 109.44 74.1929C112.826 74.0911 116.44 74.2362 119.66 74.4046C120.464 74.4467 121.241 74.49 121.983 74.5313C124.238 74.657 126.17 74.7647 127.565 74.7647C131.338 74.7647 137.547 74.6284 142.773 73.3387C145.39 72.6931 147.671 71.7788 149.272 70.5178C150.839 69.2842 151.736 67.7404 151.709 65.7232C151.683 63.8742 150.795 62.2309 149.2 60.7679C147.593 59.2943 145.315 58.0514 142.663 57.0546C137.359 55.0616 130.799 54.1416 125.846 54.1932C125.235 54.1998 124.62 54.2073 124.003 54.2148C118.655 54.2798 113.15 54.3467 108.471 53.8652C105.857 53.5962 103.448 53.1519 101.435 52.4173C99.4256 51.6841 97.7283 50.6315 96.6498 49.0924C92.5988 43.3118 94.9809 36.0548 101.435 33.6385C103.273 32.9502 105.28 33.4203 107.217 34.3056C109.171 35.1988 111.259 36.6106 113.359 38.1014C113.838 38.4412 114.318 38.7854 114.798 39.1303C116.455 40.3192 118.125 41.5169 119.806 42.5737C121.974 43.9368 124.077 45.0093 126.068 45.4901C134.096 47.4284 145.989 41.6929 149.516 29.6453C151.321 23.4828 151.76 17.9546 150.807 13.7487C149.863 9.58194 147.585 6.78753 143.923 5.78131C140.104 4.73182 137.191 5.52015 135.232 6.54642C134.245 7.06371 133.494 7.64552 132.993 8.09461C132.743 8.31872 132.557 8.50836 132.436 8.63813C132.376 8.70296 132.332 8.75268 132.305 8.78408C132.298 8.79281 132.292 8.80012 132.287 8.80594C132.283 8.81057 132.28 8.81426 132.278 8.81697L132.275 8.81983L132.275 8.82058L132.274 8.8212L132.274 8.82206L131.724 9.51029Z" fill="#443B76"/>
<path d="M78.5013 234.917C78.5013 256.042 61.3693 273.167 40.236 273.167C19.1027 273.167 1.9707 256.042 1.9707 234.917C1.9707 213.793 19.1027 196.667 40.236 196.667C61.3693 196.667 78.5013 213.793 78.5013 234.917Z" fill="white"/>
<path fill-rule="evenodd" clip-rule="evenodd" d="M40.236 272.182C60.8251 272.182 77.5159 255.498 77.5159 234.917C77.5159 214.337 60.8251 197.652 40.236 197.652C19.6469 197.652 2.95608 214.337 2.95608 234.917C2.95608 255.498 19.6469 272.182 40.236 272.182ZM40.236 273.167C61.3693 273.167 78.5013 256.042 78.5013 234.917C78.5013 213.793 61.3693 196.667 40.236 196.667C19.1027 196.667 1.9707 213.793 1.9707 234.917C1.9707 256.042 19.1027 273.167 40.236 273.167Z" fill="#443B76"/>
<path fill-rule="evenodd" clip-rule="evenodd" d="M41.7143 207.83C50.603 207.83 57.8088 200.554 57.8088 191.578C57.8088 182.603 50.603 175.326 41.7143 175.326C33.4865 175.326 26.7007 181.561 25.7372 189.607C21.8781 190.71 19.0508 194.293 19.0508 198.544C19.0508 203.673 23.1683 207.83 28.2476 207.83C30.4058 207.83 32.3904 207.08 33.9593 205.823C36.2594 207.102 38.9027 207.83 41.7143 207.83Z" fill="#DAF6F5"/>
<path fill-rule="evenodd" clip-rule="evenodd" d="M26.6367 190.384L26.0056 190.564C22.5595 191.549 20.0362 194.75 20.0362 198.544C20.0362 203.123 23.7125 206.835 28.2476 206.835C30.1756 206.835 31.9459 206.166 33.3469 205.043L33.8605 204.632L34.4348 204.951C36.5929 206.152 39.0731 206.835 41.7143 206.835C50.0588 206.835 56.8234 200.005 56.8234 191.578C56.8234 183.152 50.0588 176.321 41.7143 176.321C33.991 176.321 27.6198 182.174 26.7154 189.726L26.6367 190.384ZM57.8088 191.578C57.8088 200.554 50.603 207.83 41.7143 207.83C38.9027 207.83 36.2594 207.102 33.9593 205.823C32.3904 207.08 30.4058 207.83 28.2476 207.83C23.1683 207.83 19.0508 203.673 19.0508 198.544C19.0508 194.293 21.8781 190.71 25.7372 189.607C26.7007 181.561 33.4865 175.326 41.7143 175.326C50.603 175.326 57.8088 182.603 57.8088 191.578Z" fill="#443B76"/>
<path d="M16.7518 209.144C16.7518 211.682 14.8401 213.74 12.4819 213.74C10.1236 213.74 8.21191 211.682 8.21191 209.144C8.21191 206.605 10.1236 204.547 12.4819 204.547C14.8401 204.547 16.7518 206.605 16.7518 209.144Z" fill="#DAF6F5"/>
<path fill-rule="evenodd" clip-rule="evenodd" d="M12.4819 212.719C14.316 212.719 15.8029 211.118 15.8029 209.144C15.8029 207.169 14.316 205.569 12.4819 205.569C10.6477 205.569 9.16079 207.169 9.16079 209.144C9.16079 211.118 10.6477 212.719 12.4819 212.719ZM12.4819 213.74C14.8401 213.74 16.7518 211.682 16.7518 209.144C16.7518 206.605 14.8401 204.547 12.4819 204.547C10.1236 204.547 8.21191 206.605 8.21191 209.144C8.21191 211.682 10.1236 213.74 12.4819 213.74Z" fill="#443B76"/>
<path d="M161.273 80.2757C161.273 101.219 144.141 118.197 123.007 118.197C101.874 118.197 84.7422 101.219 84.7422 80.2757C84.7422 59.3321 101.874 42.354 123.007 42.354C144.141 42.354 161.273 59.3321 161.273 80.2757Z" fill="white"/>
<path fill-rule="evenodd" clip-rule="evenodd" d="M123.007 117.221C143.597 117.221 160.287 100.68 160.287 80.2757C160.287 59.8714 143.597 43.3305 123.007 43.3305C102.418 43.3305 85.7276 59.8714 85.7276 80.2757C85.7276 100.68 102.418 117.221 123.007 117.221ZM123.007 118.197C144.141 118.197 161.273 101.219 161.273 80.2757C161.273 59.3321 144.141 42.354 123.007 42.354C101.874 42.354 84.7422 59.3321 84.7422 80.2757C84.7422 101.219 101.874 118.197 123.007 118.197Z" fill="#443B76"/>
<path d="M244.7 234.917C244.7 256.042 227.569 273.167 206.435 273.167C185.302 273.167 168.17 256.042 168.17 234.917C168.17 213.793 185.302 196.667 206.435 196.667C227.569 196.667 244.7 213.793 244.7 234.917Z" fill="white"/>
<path fill-rule="evenodd" clip-rule="evenodd" d="M206.435 272.182C227.024 272.182 243.715 255.498 243.715 234.917C243.715 214.337 227.024 197.652 206.435 197.652C185.846 197.652 169.155 214.337 169.155 234.917C169.155 255.498 185.846 272.182 206.435 272.182ZM206.435 273.167C227.569 273.167 244.7 256.042 244.7 234.917C244.7 213.793 227.569 196.667 206.435 196.667C185.302 196.667 168.17 213.793 168.17 234.917C168.17 256.042 185.302 273.167 206.435 273.167Z" fill="#443B76"/>
<path d="M192.843 232.818H193.697V224.575H192.819V231.372L187.801 224.575H186.875V232.818H187.765V228.828C187.765 227.681 187.753 226.522 187.753 225.925L192.843 232.818Z" fill="#443B76"/>
<path d="M200.251 232.017L199.871 231.492C199.871 231.492 199.088 232.196 197.996 232.196C196.81 232.196 196.015 231.384 196.003 230.225H200.393C200.393 230.225 200.428 229.963 200.428 229.76C200.428 228.219 199.373 227.108 197.842 227.108C196.181 227.108 195.101 228.41 195.101 229.998C195.101 231.802 196.205 232.937 197.842 232.937C198.934 232.937 199.74 232.626 200.251 232.017ZM199.539 229.556H196.015C196.086 228.684 196.691 227.836 197.806 227.848C199.028 227.86 199.539 228.768 199.539 229.556Z" fill="#443B76"/>
<path d="M206.046 231.719V232.029C206.046 233.427 205.524 234.43 203.993 234.43C203.127 234.43 202.344 233.988 201.976 233.702L201.537 234.335C201.62 234.394 202.546 235.183 203.946 235.183C205.358 235.183 206.034 234.538 206.39 234.036C206.746 233.546 206.924 232.877 206.924 231.623V227.215H206.046L206.058 228.183H206.034C205.69 227.597 204.99 227.108 203.969 227.108C202.522 227.108 201.312 228.195 201.312 229.951C201.312 231.814 202.522 232.782 203.993 232.782C204.942 232.782 205.619 232.388 206.022 231.719H206.046ZM204.147 232.041C202.89 232.041 202.213 231.109 202.213 229.939C202.213 228.78 202.866 227.86 204.124 227.86C205.322 227.86 206.081 228.661 206.081 229.939C206.081 231.109 205.417 232.041 204.147 232.041Z" fill="#443B76"/>
<path d="M211.824 232.818H212.691V229.533C212.691 227.956 211.991 227.108 210.365 227.108C209.487 227.108 208.751 227.442 208.384 227.657L208.68 228.29C208.835 228.183 209.499 227.848 210.33 227.848C211.172 227.848 211.801 228.266 211.801 229.21V229.461L210.294 229.533C208.775 229.604 208.075 230.273 208.075 231.229C208.075 232.256 208.929 232.937 209.985 232.937C211.041 232.937 211.599 232.316 211.813 232.077L211.824 232.818ZM211.813 230.106V231.432C211.552 231.79 210.923 232.232 210.163 232.232C209.452 232.232 208.989 231.778 208.989 231.217C208.989 230.644 209.333 230.225 210.365 230.178L211.813 230.106Z" fill="#443B76"/>
<path d="M216.732 232.758L216.684 232.041C216.684 232.041 216.411 232.173 216.067 232.173C215.806 232.173 215.593 232.101 215.498 231.958C215.32 231.695 215.32 231.301 215.32 230.847V227.968H216.696V227.227H215.332V225.495H214.442V227.227H213.611V227.968H214.442V230.667C214.442 231.683 214.442 232.937 215.771 232.937C216.15 232.937 216.471 232.877 216.732 232.758Z" fill="#443B76"/>
<path d="M218.854 225.292C218.854 224.946 218.593 224.683 218.237 224.683C217.87 224.683 217.609 224.946 217.609 225.292C217.609 225.638 217.87 225.901 218.237 225.901C218.593 225.901 218.843 225.638 218.854 225.292ZM217.798 232.818H218.676V227.215H217.798V232.818Z" fill="#443B76"/>
<path d="M221.923 232.818H222.659L224.996 227.215H224.082L222.303 231.671L220.511 227.215H219.598L221.923 232.818Z" fill="#443B76"/>
<path d="M230.584 232.017L230.205 231.492C230.205 231.492 229.422 232.196 228.33 232.196C227.144 232.196 226.349 231.384 226.337 230.225H230.727C230.727 230.225 230.762 229.963 230.762 229.76C230.762 228.219 229.706 227.108 228.176 227.108C226.515 227.108 225.435 228.41 225.435 229.998C225.435 231.802 226.538 232.937 228.176 232.937C229.267 232.937 230.074 232.626 230.584 232.017ZM229.872 229.556H226.349C226.42 228.684 227.025 227.836 228.14 227.848C229.362 227.86 229.872 228.768 229.872 229.556Z" fill="#443B76"/>
<path d="M191.057 248.608L190.677 248.083C190.677 248.083 189.894 248.787 188.802 248.787C187.616 248.787 186.821 247.975 186.809 246.816H191.199C191.199 246.816 191.234 246.554 191.234 246.35C191.234 244.81 190.179 243.699 188.648 243.699C186.987 243.699 185.907 245.001 185.907 246.589C185.907 248.393 187.011 249.528 188.648 249.528C189.74 249.528 190.546 249.217 191.057 248.608ZM190.345 246.147H186.821C186.892 245.275 187.497 244.427 188.612 244.439C189.834 244.451 190.345 245.359 190.345 246.147Z" fill="#443B76"/>
<path d="M196.675 244.905C196.473 244.212 195.975 243.699 194.884 243.699C194.207 243.699 193.626 244.129 193.353 244.702H193.317L193.329 243.806H192.451V249.409H193.329V246.458C193.329 245.359 193.851 244.463 194.765 244.463C195.762 244.463 195.939 245.395 195.939 246.076V249.409H196.817V246.458C196.817 245.359 197.328 244.463 198.241 244.463C199.238 244.463 199.416 245.395 199.416 246.076V249.409H200.294V246.028C200.294 244.857 199.985 243.699 198.36 243.699C197.577 243.699 196.912 244.212 196.675 244.905Z" fill="#443B76"/>
<path d="M204.398 249.528C206.023 249.528 207.305 248.345 207.305 246.625C207.305 244.917 206.023 243.699 204.398 243.699C202.772 243.699 201.503 244.917 201.503 246.625C201.503 248.345 202.772 249.528 204.398 249.528ZM204.398 248.752C203.164 248.752 202.405 247.796 202.405 246.601C202.405 245.395 203.164 244.463 204.398 244.463C205.632 244.463 206.403 245.395 206.403 246.601C206.403 247.796 205.632 248.752 204.398 248.752Z" fill="#443B76"/>
<path d="M211.071 249.349L211.024 248.632C211.024 248.632 210.751 248.763 210.407 248.763C210.146 248.763 209.932 248.692 209.838 248.548C209.66 248.286 209.66 247.891 209.66 247.438V244.559H211.036V243.818H209.671V242.086H208.782V243.818H207.951V244.559H208.782V247.258C208.782 248.274 208.782 249.528 210.11 249.528C210.49 249.528 210.81 249.468 211.071 249.349Z" fill="#443B76"/>
<path d="M213.194 241.883C213.194 241.536 212.933 241.274 212.577 241.274C212.21 241.274 211.949 241.536 211.949 241.883C211.949 242.229 212.21 242.492 212.577 242.492C212.933 242.492 213.182 242.229 213.194 241.883ZM212.138 249.409H213.016V243.806H212.138V249.409Z" fill="#443B76"/>
<path d="M217.236 249.528C218.861 249.528 220.143 248.345 220.143 246.625C220.143 244.917 218.861 243.699 217.236 243.699C215.61 243.699 214.341 244.917 214.341 246.625C214.341 248.345 215.61 249.528 217.236 249.528ZM217.236 248.752C216.002 248.752 215.243 247.796 215.243 246.601C215.243 245.395 216.002 244.463 217.236 244.463C218.47 244.463 219.241 245.395 219.241 246.601C219.241 247.796 218.47 248.752 217.236 248.752Z" fill="#443B76"/>
<path d="M224.064 243.699C223.269 243.699 222.581 244.117 222.331 244.714H222.296V243.806H221.418V249.409H222.296V246.255C222.296 245.287 222.794 244.463 223.791 244.463C224.823 244.463 225.155 245.036 225.155 246.076V249.409H226.033V246.016C226.033 244.678 225.654 243.699 224.064 243.699Z" fill="#443B76"/>
<path d="M227.592 247.975L227.129 248.537C227.544 249.134 228.28 249.528 229.194 249.528C230.345 249.528 231.234 248.895 231.234 247.82C231.234 246.613 230 246.327 229.443 246.135C228.826 245.932 228.256 245.693 228.256 245.18C228.256 244.654 228.66 244.379 229.241 244.379C229.739 244.379 230.25 244.559 230.641 244.893L231.068 244.356C230.677 243.997 230.143 243.699 229.241 243.699C228.339 243.699 227.45 244.236 227.45 245.263C227.45 246.446 228.636 246.721 229.039 246.852C229.467 246.996 230.404 247.223 230.404 247.891C230.404 248.56 229.822 248.823 229.217 248.823C228.683 248.823 228.126 248.584 227.592 247.975Z" fill="#443B76"/>
<path d="M102.998 181.065H104.048L108.197 169.745H106.901L103.556 179.165L100.194 169.745H98.8652L102.998 181.065Z" fill="#443B76"/>
<path d="M110.939 170.728C110.939 170.253 110.578 169.892 110.086 169.892C109.577 169.892 109.217 170.253 109.217 170.728C109.217 171.203 109.577 171.563 110.086 171.563C110.578 171.563 110.922 171.203 110.939 170.728ZM109.479 181.049H110.693V173.365H109.479V181.049Z" fill="#443B76"/>
<path d="M119.46 180.001L118.936 179.116C118.936 179.116 118.165 180.132 116.574 180.132C114.95 180.132 113.77 178.952 113.77 177.199C113.77 175.43 114.967 174.316 116.459 174.316C117.656 174.316 118.329 174.725 118.837 175.2L119.378 174.25C118.854 173.775 118.116 173.218 116.41 173.218C114.376 173.218 112.523 174.791 112.523 177.215C112.523 179.755 114.278 181.229 116.344 181.229C118.28 181.229 119.1 180.41 119.46 180.001Z" fill="#443B76"/>
<path d="M122.341 170.728C122.341 170.253 121.981 169.892 121.489 169.892C120.98 169.892 120.619 170.253 120.619 170.728C120.619 171.203 120.98 171.563 121.489 171.563C121.981 171.563 122.325 171.203 122.341 170.728ZM120.882 181.049H122.095V173.365H120.882V181.049Z" fill="#443B76"/>
<path d="M127.928 181.213C130.174 181.213 131.946 179.591 131.946 177.232C131.946 174.889 130.174 173.218 127.928 173.218C125.681 173.218 123.926 174.889 123.926 177.232C123.926 179.591 125.681 181.213 127.928 181.213ZM127.928 180.148C126.222 180.148 125.172 178.837 125.172 177.199C125.172 175.544 126.222 174.266 127.928 174.266C129.633 174.266 130.699 175.544 130.699 177.199C130.699 178.837 129.633 180.148 127.928 180.148Z" fill="#443B76"/>
<path d="M138.759 173.349V177.609C138.759 178.952 138.087 180.132 136.709 180.132C135.282 180.132 134.823 179.345 134.823 177.92V173.349H133.593V178.002C133.593 179.837 134.134 181.18 136.332 181.18C137.431 181.18 138.415 180.639 138.759 179.82L138.776 181.049H139.956V173.349H138.759Z" fill="#443B76"/>
<path d="M142.114 179.083L141.474 179.853C142.048 180.672 143.065 181.213 144.328 181.213C145.918 181.213 147.148 180.345 147.148 178.87C147.148 177.215 145.443 176.822 144.672 176.56C143.819 176.282 143.032 175.954 143.032 175.249C143.032 174.529 143.59 174.152 144.393 174.152C145.082 174.152 145.787 174.397 146.328 174.856L146.919 174.119C146.378 173.627 145.64 173.218 144.393 173.218C143.147 173.218 141.917 173.955 141.917 175.364C141.917 176.986 143.557 177.363 144.115 177.543C144.705 177.74 146 178.051 146 178.968C146 179.886 145.197 180.246 144.361 180.246C143.623 180.246 142.852 179.919 142.114 179.083Z" fill="#443B76"/>
<path d="M113.238 198.022L112.714 197.137C112.714 197.137 111.943 198.153 110.352 198.153C108.729 198.153 107.548 196.974 107.548 195.221C107.548 193.451 108.745 192.337 110.237 192.337C111.434 192.337 112.107 192.747 112.615 193.222L113.156 192.272C112.632 191.796 111.894 191.239 110.188 191.239C108.155 191.239 106.301 192.812 106.301 195.237C106.301 197.776 108.056 199.251 110.122 199.251C112.058 199.251 112.878 198.432 113.238 198.022Z" fill="#443B76"/>
<path d="M116.611 199.071L116.185 200.07C115.742 201.118 115.463 201.135 115.07 201.135C114.726 201.135 114.299 200.955 114.299 200.955L114.053 201.987C114.053 201.987 114.562 202.249 115.25 202.249C116.07 202.249 116.595 201.872 117.185 200.463L120.941 191.387L119.678 191.37L117.235 197.711L114.742 191.387L113.479 191.37L116.611 199.071Z" fill="#443B76"/>
<path d="M128.421 198.022L127.896 197.137C127.896 197.137 127.125 198.153 125.535 198.153C123.911 198.153 122.73 196.974 122.73 195.221C122.73 193.451 123.927 192.337 125.42 192.337C126.617 192.337 127.289 192.747 127.798 193.222L128.339 192.272C127.814 191.796 127.076 191.239 125.371 191.239C123.337 191.239 121.484 192.812 121.484 195.237C121.484 197.776 123.239 199.251 125.305 199.251C127.24 199.251 128.06 198.432 128.421 198.022Z" fill="#443B76"/>
<path d="M129.842 199.071H131.056V187.766H129.842V199.071Z" fill="#443B76"/>
<path d="M140.004 197.973L139.479 197.252C139.479 197.252 138.397 198.219 136.888 198.219C135.248 198.219 134.149 197.105 134.133 195.515H140.201C140.201 195.515 140.25 195.155 140.25 194.876C140.25 192.763 138.79 191.239 136.675 191.239C134.379 191.239 132.887 193.025 132.887 195.204C132.887 197.678 134.412 199.234 136.675 199.234C138.184 199.234 139.299 198.808 140.004 197.973ZM139.02 194.598H134.149C134.248 193.402 135.084 192.239 136.626 192.255C138.315 192.272 139.02 193.517 139.02 194.598Z" fill="#443B76"/>
<path d="M24.5274 231.749H25.3734V223.59H24.5039V230.318L19.5339 223.59H18.6174V231.749H19.4986V227.8C19.4986 226.664 19.4869 225.517 19.4869 224.926L24.5274 231.749Z" fill="#443B76"/>
<path d="M31.863 230.957L31.487 230.436C31.487 230.436 30.7115 231.134 29.6306 231.134C28.4556 231.134 27.6684 230.33 27.6566 229.183H32.004C32.004 229.183 32.0392 228.923 32.0392 228.722C32.0392 227.197 30.9935 226.097 29.4778 226.097C27.8329 226.097 26.7637 227.386 26.7637 228.958C26.7637 230.744 27.8564 231.867 29.4778 231.867C30.5588 231.867 31.3577 231.56 31.863 230.957ZM31.158 228.521H27.6684C27.7389 227.658 28.3381 226.818 29.4426 226.83C30.6528 226.842 31.158 227.74 31.158 228.521Z" fill="#443B76"/>
<path d="M37.6018 230.661V230.968C37.6018 232.352 37.0849 233.345 35.5692 233.345C34.7115 233.345 33.936 232.908 33.5718 232.624L33.137 233.251C33.2193 233.31 34.1357 234.09 35.5222 234.09C36.9204 234.09 37.5901 233.452 37.9426 232.955C38.2951 232.47 38.4713 231.808 38.4713 230.566V226.203H37.6018L37.6136 227.161H37.5901C37.2494 226.582 36.5561 226.097 35.5457 226.097C34.1122 226.097 32.9138 227.173 32.9138 228.911C32.9138 230.756 34.1122 231.713 35.5692 231.713C36.5091 231.713 37.1789 231.323 37.5783 230.661H37.6018ZM35.7219 230.98C34.4765 230.98 33.8068 230.058 33.8068 228.899C33.8068 227.752 34.453 226.842 35.6984 226.842C36.8851 226.842 37.6371 227.634 37.6371 228.899C37.6371 230.058 36.9791 230.98 35.7219 230.98Z" fill="#443B76"/>
<path d="M43.3245 231.749H44.1822V228.497C44.1822 226.936 43.489 226.097 41.8793 226.097C41.0098 226.097 40.2814 226.428 39.9171 226.641L40.2109 227.267C40.3636 227.161 41.0216 226.83 41.844 226.83C42.6783 226.83 43.301 227.244 43.301 228.178V228.426L41.8088 228.497C40.3049 228.568 39.6116 229.23 39.6116 230.176C39.6116 231.193 40.4576 231.867 41.5033 231.867C42.549 231.867 43.1012 231.252 43.3127 231.016L43.3245 231.749ZM43.3127 229.065V230.377C43.0542 230.732 42.4315 231.17 41.6796 231.17C40.9746 231.17 40.5164 230.72 40.5164 230.164C40.5164 229.597 40.8571 229.183 41.8793 229.136L43.3127 229.065Z" fill="#443B76"/>
<path d="M48.1839 231.69L48.1369 230.98C48.1369 230.98 47.8667 231.11 47.5259 231.11C47.2674 231.11 47.056 231.039 46.962 230.898C46.7857 230.637 46.7857 230.247 46.7857 229.798V226.948H48.1487V226.215H46.7975V224.501H45.9163V226.215H45.0938V226.948H45.9163V229.621C45.9163 230.626 45.9163 231.867 47.2322 231.867C47.6082 231.867 47.9254 231.808 48.1839 231.69Z" fill="#443B76"/>
<path d="M50.2861 224.3C50.2861 223.957 50.0277 223.697 49.6752 223.697C49.3109 223.697 49.0524 223.957 49.0524 224.3C49.0524 224.642 49.3109 224.903 49.6752 224.903C50.0277 224.903 50.2744 224.642 50.2861 224.3ZM49.2404 231.749H50.1099V226.203H49.2404V231.749Z" fill="#443B76"/>
<path d="M53.3249 231.749H54.0534L56.3681 226.203H55.4633L53.7009 230.614L51.9268 226.203H51.022L53.3249 231.749Z" fill="#443B76"/>
<path d="M61.9022 230.957L61.5262 230.436C61.5262 230.436 60.7507 231.134 59.6698 231.134C58.4948 231.134 57.7076 230.33 57.6958 229.183H62.0431C62.0431 229.183 62.0784 228.923 62.0784 228.722C62.0784 227.197 61.0327 226.097 59.517 226.097C57.8721 226.097 56.8029 227.386 56.8029 228.958C56.8029 230.744 57.8956 231.867 59.517 231.867C60.598 231.867 61.3969 231.56 61.9022 230.957ZM61.1972 228.521H57.7076C57.7781 227.658 58.3773 226.818 59.4818 226.83C60.692 226.842 61.1972 227.74 61.1972 228.521Z" fill="#443B76"/>
<path d="M21.4837 248.112L21.4367 247.403C21.4367 247.403 21.1664 247.533 20.8257 247.533C20.5672 247.533 20.3557 247.462 20.2617 247.32C20.0855 247.06 20.0855 246.67 20.0855 246.221V243.371H21.4484V242.638H20.0972V240.923H19.216V242.638H18.3936V243.371H19.216V246.043C19.216 247.048 19.216 248.29 20.532 248.29C20.9079 248.29 21.2252 248.231 21.4837 248.112Z" fill="#443B76"/>
<path d="M25.1603 242.52C24.3731 242.52 23.6917 242.933 23.4449 243.525H23.4097V240.013H22.5402V248.172H23.4097V245.05C23.4097 244.092 23.9031 243.276 24.8901 243.276C25.9123 243.276 26.2413 243.844 26.2413 244.873V248.172H27.1108V244.813C27.1108 243.489 26.7348 242.52 25.1603 242.52Z" fill="#443B76"/>
<path d="M31.2369 248.29C32.8466 248.29 34.1156 247.119 34.1156 245.417C34.1156 243.726 32.8466 242.52 31.2369 242.52C29.6272 242.52 28.3701 243.726 28.3701 245.417C28.3701 247.119 29.6272 248.29 31.2369 248.29ZM31.2369 247.521C30.015 247.521 29.263 246.575 29.263 245.393C29.263 244.199 30.015 243.276 31.2369 243.276C32.4589 243.276 33.2226 244.199 33.2226 245.393C33.2226 246.575 32.4589 247.521 31.2369 247.521Z" fill="#443B76"/>
<path d="M38.9972 242.614V245.688C38.9972 246.658 38.5155 247.509 37.5285 247.509C36.5063 247.509 36.1773 246.942 36.1773 245.913V242.614H35.2961V245.972C35.2961 247.297 35.6838 248.266 37.2583 248.266C38.0455 248.266 38.7504 247.876 38.9972 247.285L39.0089 248.172H39.8549V242.614H38.9972Z" fill="#443B76"/>
<path d="M45.7714 247.084V247.391C45.7714 248.775 45.2544 249.768 43.7387 249.768C42.881 249.768 42.1056 249.33 41.7413 249.047L41.3066 249.673C41.3888 249.732 42.3053 250.513 43.6917 250.513C45.0899 250.513 45.7597 249.874 46.1121 249.378C46.4646 248.893 46.6409 248.231 46.6409 246.989V242.626H45.7714L45.7832 243.584H45.7597C45.4189 243.004 44.7257 242.52 43.7152 242.52C42.2818 242.52 41.0834 243.596 41.0834 245.334C41.0834 247.178 42.2818 248.136 43.7387 248.136C44.6787 248.136 45.3484 247.746 45.7479 247.084H45.7714ZM43.8915 247.403C42.646 247.403 41.9763 246.481 41.9763 245.322C41.9763 244.175 42.6225 243.265 43.868 243.265C45.0547 243.265 45.8067 244.057 45.8067 245.322C45.8067 246.481 45.1487 247.403 43.8915 247.403Z" fill="#443B76"/>
<path d="M50.9771 242.52C50.1898 242.52 49.5084 242.933 49.2616 243.525H49.2264V240.013H48.3569V248.172H49.2264V245.05C49.2264 244.092 49.7199 243.276 50.7068 243.276C51.729 243.276 52.058 243.844 52.058 244.873V248.172H52.9275V244.813C52.9275 243.489 52.5515 242.52 50.9771 242.52Z" fill="#443B76"/>
<path d="M57.0419 248.112L56.9949 247.403C56.9949 247.403 56.7247 247.533 56.3839 247.533C56.1254 247.533 55.914 247.462 55.82 247.32C55.6437 247.06 55.6437 246.67 55.6437 246.221V243.371H57.0067V242.638H55.6555V240.923H54.7743V242.638H53.9518V243.371H54.7743V246.043C54.7743 247.048 54.7743 248.29 56.0902 248.29C56.4662 248.29 56.7834 248.231 57.0419 248.112Z" fill="#443B76"/>
<path d="M57.9692 246.753L57.511 247.308C57.9222 247.9 58.6507 248.29 59.5554 248.29C60.6951 248.29 61.5763 247.663 61.5763 246.599C61.5763 245.405 60.3543 245.121 59.8021 244.932C59.1911 244.731 58.6272 244.494 58.6272 243.986C58.6272 243.466 59.0267 243.194 59.6024 243.194C60.0959 243.194 60.6011 243.371 60.9888 243.702L61.4118 243.17C61.0241 242.815 60.4953 242.52 59.6024 242.52C58.7094 242.52 57.8282 243.052 57.8282 244.069C57.8282 245.239 59.0032 245.511 59.4026 245.641C59.8256 245.783 60.7538 246.008 60.7538 246.67C60.7538 247.332 60.1781 247.592 59.5789 247.592C59.0502 247.592 58.4979 247.356 57.9692 246.753Z" fill="#443B76"/>
<path d="M24.1536 285.861L23.8092 285.267C23.8092 285.267 23.3032 285.949 22.259 285.949C21.1933 285.949 20.4183 285.157 20.4183 283.981C20.4183 282.793 21.2041 282.046 22.1837 282.046C22.9695 282.046 23.4109 282.321 23.7446 282.639L24.0998 282.002C23.7553 281.683 23.2709 281.309 22.1514 281.309C20.8166 281.309 19.6002 282.365 19.6002 283.992C19.6002 285.696 20.752 286.685 22.1083 286.685C23.3786 286.685 23.9168 286.136 24.1536 285.861Z" fill="#6872E7"/>
<path d="M27.3042 286.674C28.779 286.674 29.9415 285.586 29.9415 284.003C29.9415 282.431 28.779 281.309 27.3042 281.309C25.8295 281.309 24.6776 282.431 24.6776 284.003C24.6776 285.586 25.8295 286.674 27.3042 286.674ZM27.3042 285.96C26.1847 285.96 25.4958 285.08 25.4958 283.981C25.4958 282.87 26.1847 282.013 27.3042 282.013C28.4237 282.013 29.1234 282.87 29.1234 283.981C29.1234 285.08 28.4237 285.96 27.3042 285.96Z" fill="#6872E7"/>
<path d="M35.0384 285.553V285.839C35.0384 287.125 34.5647 288.049 33.1761 288.049C32.3902 288.049 31.6798 287.642 31.3461 287.378L30.9478 287.961C31.0231 288.016 31.8628 288.741 33.133 288.741C34.414 288.741 35.0276 288.148 35.3505 287.686C35.6735 287.235 35.8349 286.619 35.8349 285.465V281.408H35.0384L35.0491 282.299H35.0276C34.7154 281.76 34.0803 281.309 33.1545 281.309C31.8413 281.309 30.7433 282.31 30.7433 283.926C30.7433 285.641 31.8413 286.531 33.1761 286.531C34.0372 286.531 34.6508 286.169 35.0168 285.553H35.0384ZM33.316 285.85C32.175 285.85 31.5614 284.992 31.5614 283.915C31.5614 282.848 32.1534 282.002 33.2945 282.002C34.3817 282.002 35.0706 282.738 35.0706 283.915C35.0706 284.992 34.4678 285.85 33.316 285.85Z" fill="#6872E7"/>
<path d="M39.7538 281.309C39.0326 281.309 38.4083 281.694 38.1822 282.244H38.1499V281.408H37.3533V286.564H38.1499V283.662C38.1499 282.771 38.602 282.013 39.5063 282.013C40.4428 282.013 40.7442 282.54 40.7442 283.497V286.564H41.5408V283.442C41.5408 282.211 41.1963 281.309 39.7538 281.309Z" fill="#6872E7"/>
<path d="M44.0314 279.638C44.0314 279.319 43.7945 279.077 43.4716 279.077C43.1379 279.077 42.9011 279.319 42.9011 279.638C42.9011 279.957 43.1379 280.199 43.4716 280.199C43.7945 280.199 44.0206 279.957 44.0314 279.638ZM43.0733 286.564H43.8699V281.408H43.0733V286.564Z" fill="#6872E7"/>
<path d="M47.6874 286.51L47.6443 285.85C47.6443 285.85 47.3967 285.971 47.0846 285.971C46.8477 285.971 46.654 285.905 46.5679 285.773C46.4064 285.531 46.4064 285.168 46.4064 284.75V282.101H47.6551V281.419H46.4172V279.825H45.6098V281.419H44.8563V282.101H45.6098V284.585C45.6098 285.52 45.6098 286.674 46.8155 286.674C47.1599 286.674 47.4506 286.619 47.6874 286.51Z" fill="#6872E7"/>
<path d="M49.6134 279.638C49.6134 279.319 49.3766 279.077 49.0537 279.077C48.72 279.077 48.4831 279.319 48.4831 279.638C48.4831 279.957 48.72 280.199 49.0537 280.199C49.3766 280.199 49.6027 279.957 49.6134 279.638ZM48.6554 286.564H49.452V281.408H48.6554V286.564Z" fill="#6872E7"/>
<path d="M52.3975 286.564H53.0649L55.1855 281.408H54.3567L52.742 285.509L51.1165 281.408H50.2876L52.3975 286.564Z" fill="#6872E7"/>
<path d="M60.2558 285.828L59.9113 285.344C59.9113 285.344 59.2008 285.993 58.2105 285.993C57.134 285.993 56.4128 285.245 56.402 284.179H60.3849C60.3849 284.179 60.4172 283.937 60.4172 283.75C60.4172 282.332 59.4592 281.309 58.0706 281.309C56.5635 281.309 55.5839 282.507 55.5839 283.97C55.5839 285.63 56.585 286.674 58.0706 286.674C59.0609 286.674 59.7929 286.389 60.2558 285.828ZM59.6099 283.563H56.4128C56.4774 282.76 57.0264 281.98 58.0383 281.991C59.147 282.002 59.6099 282.837 59.6099 283.563Z" fill="#6872E7"/>
<path d="M18.2686 303.221L18.2255 302.562C18.2255 302.562 17.978 302.683 17.6658 302.683C17.429 302.683 17.2352 302.617 17.1491 302.485C16.9876 302.243 16.9876 301.88 16.9876 301.462V298.812H18.2363V298.131H16.9984V296.537H16.191V298.131H15.4375V298.812H16.191V301.297C16.191 302.232 16.191 303.386 17.3967 303.386C17.7411 303.386 18.0318 303.331 18.2686 303.221Z" fill="#6872E7"/>
<path d="M23.4994 302.54L23.1549 302.056C23.1549 302.056 22.4444 302.705 21.4541 302.705C20.3776 302.705 19.6564 301.957 19.6456 300.89H23.6285C23.6285 300.89 23.6608 300.649 23.6608 300.462C23.6608 299.043 22.7028 298.021 21.3142 298.021C19.8071 298.021 18.8275 299.219 18.8275 300.682C18.8275 302.342 19.8286 303.386 21.3142 303.386C22.3045 303.386 23.0365 303.1 23.4994 302.54ZM22.8535 300.275H19.6564C19.721 299.472 20.27 298.692 21.2819 298.703C22.3906 298.714 22.8535 299.549 22.8535 300.275Z" fill="#6872E7"/>
<path d="M29.0156 302.573L28.6711 301.979C28.6711 301.979 28.1652 302.661 27.121 302.661C26.0553 302.661 25.2802 301.869 25.2802 300.693C25.2802 299.505 26.0661 298.757 27.0457 298.757C27.8315 298.757 28.2728 299.032 28.6065 299.351L28.9618 298.714C28.6173 298.395 28.1329 298.021 27.0134 298.021C25.6785 298.021 24.4621 299.076 24.4621 300.704C24.4621 302.408 25.614 303.397 26.9703 303.397C28.2405 303.397 28.7788 302.847 29.0156 302.573Z" fill="#6872E7"/>
<path d="M32.3492 298.021C31.6279 298.021 31.0036 298.406 30.7775 298.955H30.7452V295.69H29.9487V303.276H30.7452V300.374C30.7452 299.483 31.1974 298.725 32.1016 298.725C33.0381 298.725 33.3395 299.252 33.3395 300.209V303.276H34.1361V300.154C34.1361 298.922 33.7916 298.021 32.3492 298.021Z" fill="#6872E7"/>
<path d="M38.0456 298.021C37.3244 298.021 36.7 298.406 36.474 298.955H36.4417V298.12H35.6451V303.276H36.4417V300.374C36.4417 299.483 36.8938 298.725 37.798 298.725C38.7345 298.725 39.0359 299.252 39.0359 300.209V303.276H39.8325V300.154C39.8325 298.922 39.4881 298.021 38.0456 298.021Z" fill="#6872E7"/>
<path d="M42.3231 296.35C42.3231 296.031 42.0863 295.789 41.7633 295.789C41.4296 295.789 41.1928 296.031 41.1928 296.35C41.1928 296.669 41.4296 296.91 41.7633 296.91C42.0863 296.91 42.3123 296.669 42.3231 296.35ZM41.3651 303.276H42.1616V298.12H41.3651V303.276Z" fill="#6872E7"/>
<path d="M47.6692 305.343H48.455V298.12H47.6692L47.6799 299.021H47.6692C47.2386 298.351 46.5927 298.021 45.8284 298.021C44.3106 298.021 43.3633 299.175 43.3633 300.704C43.3633 302.254 44.2353 303.386 45.8284 303.386C46.5927 303.386 47.2278 303.067 47.6692 302.397V305.343ZM45.9361 302.683C44.8273 302.683 44.1814 301.814 44.1814 300.704C44.1814 299.593 44.8058 298.714 45.9361 298.714C47.0556 298.714 47.6799 299.582 47.6799 300.704C47.6799 301.803 47.0556 302.683 45.9361 302.683Z" fill="#6872E7"/>
<path d="M53.2889 298.109V300.967C53.2889 301.869 52.8476 302.661 51.9433 302.661C51.0068 302.661 50.7054 302.133 50.7054 301.176V298.109H49.898V301.231C49.898 302.463 50.2533 303.364 51.6957 303.364C52.417 303.364 53.0629 303.001 53.2889 302.452L53.2997 303.276H54.0747V298.109H53.2889Z" fill="#6872E7"/>
<path d="M59.8721 302.54L59.5276 302.056C59.5276 302.056 58.8171 302.705 57.8268 302.705C56.7503 302.705 56.0291 301.957 56.0183 300.89H60.0013C60.0013 300.89 60.0335 300.649 60.0335 300.462C60.0335 299.043 59.0755 298.021 57.6869 298.021C56.1798 298.021 55.2002 299.219 55.2002 300.682C55.2002 302.342 56.2013 303.386 57.6869 303.386C58.6772 303.386 59.4092 303.1 59.8721 302.54ZM59.2262 300.275H56.0291C56.0937 299.472 56.6427 298.692 57.6546 298.703C58.7633 298.714 59.2262 299.549 59.2262 300.275Z" fill="#6872E7"/>
<path d="M61.0729 301.957L60.6531 302.474C61.0299 303.023 61.6973 303.386 62.5261 303.386C63.5703 303.386 64.3777 302.804 64.3777 301.814C64.3777 300.704 63.2581 300.44 62.7522 300.264C62.1924 300.077 61.6757 299.857 61.6757 299.384C61.6757 298.9 62.0417 298.648 62.5692 298.648C63.0213 298.648 63.4842 298.812 63.8394 299.12L64.227 298.626C63.8717 298.296 63.3873 298.021 62.5692 298.021C61.7511 298.021 60.9437 298.516 60.9437 299.461C60.9437 300.55 62.0202 300.802 62.3862 300.923C62.7737 301.055 63.6241 301.264 63.6241 301.88C63.6241 302.496 63.0967 302.738 62.5477 302.738C62.0633 302.738 61.5573 302.518 61.0729 301.957Z" fill="#6872E7"/>
<path d="M180.323 286.635H181.121V285.748H181.143C181.542 286.438 182.306 286.744 183.071 286.744C184.522 286.744 185.564 285.572 185.564 284.05C185.564 282.527 184.644 281.399 183.049 281.399C182.129 281.399 181.442 281.914 181.154 282.396H181.143V279.077H180.323V286.635ZM182.894 286.033C181.741 286.033 181.11 285.167 181.11 284.061C181.11 282.944 181.874 282.078 182.916 282.078C184.068 282.078 184.722 282.944 184.722 284.061C184.722 285.167 184.046 286.033 182.894 286.033Z" fill="#6872E7"/>
<path d="M191.203 285.901L190.848 285.419C190.848 285.419 190.117 286.065 189.097 286.065C187.99 286.065 187.247 285.321 187.236 284.258H191.336C191.336 284.258 191.369 284.017 191.369 283.831C191.369 282.418 190.383 281.399 188.953 281.399C187.402 281.399 186.394 282.593 186.394 284.05C186.394 285.704 187.424 286.744 188.953 286.744C189.973 286.744 190.726 286.46 191.203 285.901ZM190.538 283.645H187.247C187.314 282.845 187.879 282.067 188.92 282.078C190.061 282.089 190.538 282.922 190.538 283.645Z" fill="#6872E7"/>
<path d="M195.031 281.399C194.289 281.399 193.646 281.783 193.414 282.33H193.38V279.077H192.56V286.635H193.38V283.743C193.38 282.856 193.846 282.1 194.776 282.1C195.74 282.1 196.05 282.626 196.05 283.579V286.635H196.87V283.524C196.87 282.297 196.516 281.399 195.031 281.399Z" fill="#6872E7"/>
<path d="M201.437 286.635H202.246V283.623C202.246 282.177 201.592 281.399 200.074 281.399C199.254 281.399 198.567 281.706 198.224 281.903L198.501 282.484C198.645 282.385 199.266 282.078 200.041 282.078C200.828 282.078 201.415 282.462 201.415 283.327V283.557L200.008 283.623C198.59 283.689 197.936 284.302 197.936 285.178C197.936 286.12 198.734 286.744 199.72 286.744C200.706 286.744 201.227 286.175 201.426 285.956L201.437 286.635ZM201.426 284.149V285.364C201.182 285.693 200.595 286.098 199.886 286.098C199.221 286.098 198.789 285.682 198.789 285.167C198.789 284.641 199.11 284.258 200.074 284.214L201.426 284.149Z" fill="#6872E7"/>
<path d="M204.96 286.635H205.647L207.829 281.498H206.976L205.314 285.583L203.641 281.498H202.788L204.96 286.635Z" fill="#6872E7"/>
<path d="M209.679 279.734C209.679 279.417 209.435 279.176 209.103 279.176C208.759 279.176 208.515 279.417 208.515 279.734C208.515 280.052 208.759 280.293 209.103 280.293C209.435 280.293 209.668 280.052 209.679 279.734ZM208.693 286.635H209.513V281.498H208.693V286.635Z" fill="#6872E7"/>
<path d="M213.453 286.744C214.971 286.744 216.167 285.66 216.167 284.083C216.167 282.516 214.971 281.399 213.453 281.399C211.935 281.399 210.749 282.516 210.749 284.083C210.749 285.66 211.935 286.744 213.453 286.744ZM213.453 286.033C212.301 286.033 211.591 285.156 211.591 284.061C211.591 282.955 212.301 282.1 213.453 282.1C214.605 282.1 215.325 282.955 215.325 284.061C215.325 285.156 214.605 286.033 213.453 286.033Z" fill="#6872E7"/>
<path d="M220.771 281.487V284.335C220.771 285.233 220.316 286.022 219.386 286.022C218.422 286.022 218.112 285.496 218.112 284.543V281.487H217.281V284.598C217.281 285.824 217.646 286.723 219.131 286.723C219.873 286.723 220.538 286.361 220.771 285.813L220.782 286.635H221.579V281.487H220.771Z" fill="#6872E7"/>
<path d="M223.103 286.635H223.923V283.973C223.923 283.196 224.056 282.9 224.267 282.604C224.355 282.484 224.666 282.155 225.142 282.155C225.297 282.155 225.53 282.177 225.707 282.254C225.718 282.254 225.74 282.254 225.74 282.254L225.796 281.487C225.796 281.487 225.585 281.399 225.242 281.399C224.666 281.399 224.167 281.75 223.923 282.374V281.498H223.103V286.635Z" fill="#6872E7"/>
<path d="M229.417 286.635H230.226V283.623C230.226 282.177 229.572 281.399 228.054 281.399C227.234 281.399 226.547 281.706 226.204 281.903L226.481 282.484C226.625 282.385 227.245 282.078 228.021 282.078C228.808 282.078 229.395 282.462 229.395 283.327V283.557L227.988 283.623C226.57 283.689 225.916 284.302 225.916 285.178C225.916 286.12 226.714 286.744 227.7 286.744C228.686 286.744 229.207 286.175 229.406 285.956L229.417 286.635ZM229.406 284.149V285.364C229.162 285.693 228.575 286.098 227.866 286.098C227.201 286.098 226.769 285.682 226.769 285.167C226.769 284.641 227.09 284.258 228.054 284.214L229.406 284.149Z" fill="#6872E7"/>
<path d="M231.728 286.635H232.548V279.077H231.728V286.635Z" fill="#6872E7"/>
<path d="M184.082 303.229L184.038 302.572C184.038 302.572 183.783 302.693 183.462 302.693C183.218 302.693 183.019 302.627 182.93 302.495C182.764 302.254 182.764 301.893 182.764 301.477V298.837H184.049V298.158H182.775V296.57H181.944V298.158H181.168V298.837H181.944V301.312C181.944 302.243 181.944 303.394 183.185 303.394C183.539 303.394 183.839 303.339 184.082 303.229Z" fill="#6872E7"/>
<path d="M189.466 302.55L189.111 302.068C189.111 302.068 188.38 302.714 187.361 302.714C186.253 302.714 185.511 301.97 185.5 300.907H189.599C189.599 300.907 189.632 300.666 189.632 300.48C189.632 299.067 188.646 298.048 187.217 298.048C185.666 298.048 184.658 299.242 184.658 300.699C184.658 302.353 185.688 303.394 187.217 303.394C188.236 303.394 188.99 303.109 189.466 302.55ZM188.801 300.294H185.511C185.577 299.494 186.142 298.716 187.184 298.727C188.325 298.738 188.801 299.571 188.801 300.294Z" fill="#6872E7"/>
<path d="M195.144 302.583L194.789 301.992C194.789 301.992 194.268 302.671 193.194 302.671C192.097 302.671 191.299 301.882 191.299 300.71C191.299 299.527 192.108 298.782 193.116 298.782C193.925 298.782 194.379 299.056 194.723 299.374L195.088 298.738C194.734 298.421 194.235 298.048 193.083 298.048C191.709 298.048 190.457 299.1 190.457 300.721C190.457 302.419 191.642 303.405 193.038 303.405C194.346 303.405 194.9 302.857 195.144 302.583Z" fill="#6872E7"/>
<path d="M198.575 298.048C197.832 298.048 197.19 298.432 196.957 298.979H196.924V295.726H196.104V303.284H196.924V300.392C196.924 299.505 197.389 298.749 198.32 298.749C199.284 298.749 199.594 299.275 199.594 300.228V303.284H200.414V300.173C200.414 298.947 200.059 298.048 198.575 298.048Z" fill="#6872E7"/>
<path d="M204.438 298.048C203.695 298.048 203.053 298.432 202.82 298.979H202.787V298.147H201.967V303.284H202.787V300.392C202.787 299.505 203.252 298.749 204.183 298.749C205.147 298.749 205.457 299.275 205.457 300.228V303.284H206.277V300.173C206.277 298.947 205.922 298.048 204.438 298.048Z" fill="#6872E7"/>
<path d="M208.84 296.383C208.84 296.066 208.597 295.825 208.264 295.825C207.921 295.825 207.677 296.066 207.677 296.383C207.677 296.701 207.921 296.942 208.264 296.942C208.597 296.942 208.829 296.701 208.84 296.383ZM207.854 303.284H208.674V298.147H207.854V303.284Z" fill="#6872E7"/>
<path d="M214.343 305.343H215.152V298.147H214.343L214.354 299.045H214.343C213.9 298.377 213.235 298.048 212.448 298.048C210.886 298.048 209.911 299.198 209.911 300.721C209.911 302.265 210.808 303.394 212.448 303.394C213.235 303.394 213.888 303.076 214.343 302.408V305.343ZM212.559 302.693C211.418 302.693 210.753 301.827 210.753 300.721C210.753 299.615 211.396 298.738 212.559 298.738C213.711 298.738 214.354 299.604 214.354 300.721C214.354 301.816 213.711 302.693 212.559 302.693Z" fill="#6872E7"/>
<path d="M220.127 298.136V300.984C220.127 301.882 219.673 302.671 218.742 302.671C217.778 302.671 217.468 302.145 217.468 301.192V298.136H216.637V301.247C216.637 302.473 217.002 303.372 218.487 303.372C219.229 303.372 219.894 303.01 220.127 302.463L220.138 303.284H220.936V298.136H220.127Z" fill="#6872E7"/>
<path d="M226.903 302.55L226.548 302.068C226.548 302.068 225.817 302.714 224.797 302.714C223.689 302.714 222.947 301.97 222.936 300.907H227.035C227.035 300.907 227.069 300.666 227.069 300.48C227.069 299.067 226.083 298.048 224.653 298.048C223.102 298.048 222.094 299.242 222.094 300.699C222.094 302.353 223.124 303.394 224.653 303.394C225.673 303.394 226.426 303.109 226.903 302.55ZM226.238 300.294H222.947C223.014 299.494 223.579 298.716 224.62 298.727C225.761 298.738 226.238 299.571 226.238 300.294Z" fill="#6872E7"/>
<path d="M228.138 301.97L227.706 302.484C228.094 303.032 228.781 303.394 229.634 303.394C230.709 303.394 231.54 302.813 231.54 301.827C231.54 300.721 230.388 300.458 229.867 300.283C229.291 300.097 228.759 299.878 228.759 299.407C228.759 298.925 229.136 298.673 229.679 298.673C230.144 298.673 230.62 298.837 230.986 299.144L231.385 298.651C231.019 298.322 230.521 298.048 229.679 298.048C228.836 298.048 228.006 298.541 228.006 299.483C228.006 300.568 229.113 300.82 229.49 300.94C229.889 301.071 230.764 301.28 230.764 301.893C230.764 302.506 230.221 302.747 229.656 302.747C229.158 302.747 228.637 302.528 228.138 301.97Z" fill="#6872E7"/>
<path d="M116.255 73.9124H117.134V65.7715H116.255V73.9124Z" fill="#443B76"/>
<path d="M123.328 73.523C123.844 73.2045 124.278 72.5556 124.278 71.6235C124.278 70.5144 123.609 69.7947 122.402 69.5942C123.141 69.37 123.727 68.6739 123.727 67.8126C123.727 66.267 122.601 65.7715 121.136 65.7715H119.014V73.9124H121.406C122.085 73.9124 122.718 73.9006 123.328 73.523ZM123.375 71.6235C123.375 72.9921 122.367 73.1573 121.265 73.1573H119.893V70.0543H121.218C122.472 70.0543 123.375 70.4908 123.375 71.6235ZM122.824 67.8952C122.824 69.0396 121.886 69.3346 120.925 69.3346H119.893V66.5148H121.089C122.097 66.5148 122.824 66.8569 122.824 67.8952Z" fill="#443B76"/>
<path d="M125.692 72.0246L125.095 72.6028C125.505 73.2281 126.384 74.054 127.615 74.054C129.186 74.054 130.3 73.1573 130.3 71.7179C130.3 70.5498 129.514 69.9835 128.529 69.5588L127.427 69.0868C126.888 68.8627 126.302 68.5441 126.302 67.6946C126.302 66.8923 126.982 66.4322 127.849 66.4322C128.705 66.4322 129.245 66.8923 129.596 67.3053L130.112 66.7153C129.971 66.5384 129.245 65.6653 127.896 65.6653C126.654 65.6653 125.411 66.385 125.411 67.7536C125.411 68.7447 125.868 69.3464 126.771 69.7357L127.967 70.2549C128.717 70.5852 129.397 70.9982 129.397 71.8477C129.397 72.7679 128.694 73.2871 127.721 73.2871C126.853 73.2871 126.044 72.5674 125.692 72.0246Z" fill="#443B76"/>
<path d="M98.6662 88.8833L98.209 89.4378C98.6193 90.0278 99.3461 90.4171 100.249 90.4171C101.386 90.4171 102.265 89.7918 102.265 88.7299C102.265 87.5383 101.046 87.2551 100.495 87.0664C99.8854 86.8658 99.3227 86.6298 99.3227 86.1225C99.3227 85.6033 99.7212 85.332 100.296 85.332C100.788 85.332 101.292 85.509 101.679 85.8393L102.101 85.3084C101.714 84.9544 101.187 84.6595 100.296 84.6595C99.4047 84.6595 98.5255 85.1904 98.5255 86.2051C98.5255 87.3731 99.6978 87.6445 100.096 87.7743C100.518 87.9158 101.445 88.14 101.445 88.8007C101.445 89.4614 100.87 89.721 100.272 89.721C99.7447 89.721 99.1937 89.485 98.6662 88.8833Z" fill="#443B76"/>
<path d="M104.792 90.2991L104.488 91.0188C104.171 91.7739 103.972 91.7857 103.69 91.7857C103.444 91.7857 103.139 91.656 103.139 91.656L102.964 92.3993C102.964 92.3993 103.327 92.588 103.819 92.588C104.405 92.588 104.781 92.3167 105.203 91.302L107.887 84.7657L106.985 84.7539L105.238 89.3199L103.456 84.7657L102.553 84.7539L104.792 90.2991Z" fill="#443B76"/>
<path d="M112.87 85.8511C112.671 85.1668 112.178 84.6595 111.1 84.6595C110.431 84.6595 109.857 85.0842 109.587 85.6505H109.552L109.564 84.7657H108.696V90.2991H109.564V87.3849C109.564 86.2995 110.08 85.4146 110.982 85.4146C111.967 85.4146 112.143 86.3349 112.143 87.0074V90.2991H113.011V87.3849C113.011 86.2995 113.515 85.4146 114.417 85.4146C115.402 85.4146 115.578 86.3349 115.578 87.0074V90.2991H116.445V86.9602C116.445 85.8039 116.141 84.6595 114.534 84.6595C113.761 84.6595 113.104 85.1668 112.87 85.8511Z" fill="#443B76"/>
<path d="M118.085 92.5172H118.953V89.3435L118.965 89.3553C119.387 90.0986 120.184 90.4171 120.993 90.4171C122.528 90.4171 123.642 89.1665 123.642 87.5265C123.642 85.8865 122.657 84.6595 120.969 84.6595C119.996 84.6595 119.269 85.214 118.965 85.7331H118.953V84.7539H118.085V92.5172ZM120.805 89.6502C119.574 89.6502 118.918 88.7181 118.918 87.5265C118.918 86.3231 119.727 85.391 120.829 85.391C122.048 85.391 122.739 86.3231 122.739 87.5265C122.739 88.7181 122.024 89.6502 120.805 89.6502Z" fill="#443B76"/>
<path d="M127.346 90.2401L127.299 89.5322C127.299 89.5322 127.03 89.662 126.69 89.662C126.432 89.662 126.221 89.5912 126.127 89.4496C125.951 89.1901 125.951 88.8007 125.951 88.3524V85.509H127.311V84.7775H125.963V83.0667H125.084V84.7775H124.263V85.509H125.084V88.1754C125.084 89.1783 125.084 90.4171 126.396 90.4171C126.772 90.4171 127.088 90.3581 127.346 90.2401Z" fill="#443B76"/>
<path d="M130.815 90.4171C132.421 90.4171 133.687 89.2491 133.687 87.5501C133.687 85.8629 132.421 84.6595 130.815 84.6595C129.209 84.6595 127.955 85.8629 127.955 87.5501C127.955 89.2491 129.209 90.4171 130.815 90.4171ZM130.815 89.6502C129.596 89.6502 128.846 88.7063 128.846 87.5265C128.846 86.3349 129.596 85.4146 130.815 85.4146C132.034 85.4146 132.796 86.3349 132.796 87.5265C132.796 88.7063 132.034 89.6502 130.815 89.6502Z" fill="#443B76"/>
<path d="M139.121 85.8511C138.921 85.1668 138.429 84.6595 137.35 84.6595C136.682 84.6595 136.108 85.0842 135.838 85.6505H135.803L135.815 84.7657H134.947V90.2991H135.815V87.3849C135.815 86.2995 136.33 85.4146 137.233 85.4146C138.218 85.4146 138.394 86.3349 138.394 87.0074V90.2991H139.261V87.3849C139.261 86.2995 139.765 85.4146 140.668 85.4146C141.653 85.4146 141.829 86.3349 141.829 87.0074V90.2991H142.696V86.9602C142.696 85.8039 142.391 84.6595 140.785 84.6595C140.012 84.6595 139.355 85.1668 139.121 85.8511Z" fill="#443B76"/>
<path d="M144.207 88.8833L143.75 89.4378C144.16 90.0278 144.887 90.4171 145.79 90.4171C146.927 90.4171 147.806 89.7918 147.806 88.7299C147.806 87.5383 146.587 87.2551 146.036 87.0664C145.426 86.8658 144.864 86.6298 144.864 86.1225C144.864 85.6033 145.262 85.332 145.837 85.332C146.329 85.332 146.833 85.509 147.22 85.8393L147.642 85.3084C147.255 84.9544 146.728 84.6595 145.837 84.6595C144.946 84.6595 144.066 85.1904 144.066 86.2051C144.066 87.3731 145.239 87.6445 145.637 87.7743C146.059 87.9158 146.985 88.14 146.985 88.8007C146.985 89.4614 146.411 89.721 145.813 89.721C145.286 89.721 144.735 89.485 144.207 88.8833Z" fill="#443B76"/>
<path d="M198.717 186.843L207.635 153.657H220.647L211.729 176.509H222.694L201.787 211.442L207.635 186.843H198.717Z" fill="#F5A622"/>
<path fill-rule="evenodd" clip-rule="evenodd" d="M207.171 152.672H221.175L212.323 175.621H223.351L202.164 211.442L201.267 211.081L206.93 186.978H198.06L207.171 152.672ZM207.923 153.65L199.331 186H208.164L202.95 208.191L221.636 176.6H210.897L219.749 153.65H207.923Z" fill="#443B76"/>
</g>
<defs>
<filter id="filter0_d" x="0" y="0" width="247" height="308" filterUnits="userSpaceOnUse" color-interpolation-filters="sRGB">
<feFlood flood-opacity="0" result="BackgroundImageFix"/>
<feColorMatrix in="SourceAlpha" type="matrix" values="0 0 0 0 0 0 0 0 0 0 0 0 0 0 0 0 0 0 127 0"/>
<feOffset dy="2"/>
<feColorMatrix type="matrix" values="0 0 0 0 0 0 0 0 0 0 0 0 0 0 0 0 0 0 0.05 0"/>
<feBlend mode="normal" in2="BackgroundImageFix" result="effect1_dropShadow"/>
<feBlend mode="normal" in="SourceGraphic" in2="effect1_dropShadow" result="shape"/>
</filter>
</defs>
</svg>
