<svg width="224" height="475" viewBox="0 0 224 475" fill="none" xmlns="http://www.w3.org/2000/svg">
<path d="M123.587 237.188C171.906 237.188 211.077 198.064 211.077 149.803C211.077 101.541 171.906 62.4178 123.587 62.4178" stroke="#F6C383" stroke-dasharray="5 4"/>
<path d="M113.738 235.315C65.4191 235.315 26.2486 196.192 26.2486 147.93C26.2486 117.803 41.5131 91.2366 64.7386 75.5257" stroke="#F6C383" stroke-dasharray="5 4"/>
<path fill-rule="evenodd" clip-rule="evenodd" d="M111.296 0C148.762 0 176.765 28.3937 175.543 62.5324C174.993 72.6124 168.884 78.3228 158.926 81.5507C155.335 89.0714 147.727 94.5687 139.208 94.5687C137.422 94.5687 135.459 94.4872 133.413 94.3079C133.893 98.192 139.242 101.477 137.843 103.455C136.897 104.793 135.021 105.47 132.215 105.486L131.94 105.486L118.116 90.9225C114.909 89.6157 112.143 87.9047 110.285 85.7078C105.704 85.7064 100.984 85.6862 96.1621 85.6862C83.7299 85.6862 77.3724 78.8886 77.0899 65.2935C59.8438 65.2935 51.2207 57.9314 51.2207 43.2073C51.2207 20.2054 73.8294 0 111.296 0Z" fill="#FFD2D2"/>
<path d="M193.652 427.596C184.487 410.949 155.809 427.099 127.082 427.596C89.8234 428.241 37.3869 418.747 37.3869 397.643C37.3869 376.538 99.099 384.914 119.395 384.914C139.69 384.914 187.255 383.466 186.907 357.738C186.584 334.021 141.911 323.608 114.75 323.893C82.8311 324.241 48.3999 325.44 38.5112 311.214C28.6224 296.988 34.3889 279.295 50.128 273.354C65.867 267.414 91.6828 299.934 114.75 305.549C137.816 311.165 171.075 294.663 180.911 260.798C190.747 226.933 186.056 198.963 164.048 192.866C142.041 186.769 129.976 202.004 129.976 202.004C127.312 200.309 124.892 198.258 122.785 195.907C118.985 191.884 121.009 181.839 118.004 180.187C114.998 178.536 104.615 182 102.864 185.613C100.393 190.679 105.05 200.874 108.987 207.157C111.893 211.826 119.717 217.475 119.717 217.475C119.717 217.475 116.339 229.892 114.75 237.442C109.359 263.195 100.124 266.674 83.8495 265.529C67.366 264.369 59.4964 252.41 40.8154 260.798C22.1344 269.186 10.1772 299.926 28.3932 321.647C44.1322 340.415 90.5065 335.976 114.75 336.622C137.95 337.23 172.153 344.451 171.259 357.738C170.551 368.131 144.284 372.092 119.395 371.607C94.5056 371.122 20.149 363.201 20.149 397.643C20.149 432.084 87.1904 441.838 126.287 440.869C155.536 440.162 176.414 427.596 180.835 435.282C185.255 442.968 146.32 459.383 144.284 463.121C141.502 468.274 141.496 477.454 155.804 474.387C160.747 473.332 202.817 444.243 193.652 427.596Z" fill="url(#paint0_linear)"/>
<path d="M56.163 266.377C55.8953 268.158 54.1704 270.269 50.474 270.269C46.7775 270.269 44.3164 268.96 44.3164 266.839C44.3164 264.718 47.313 262.155 51.0094 262.155C54.7059 262.155 56.4307 264.596 56.163 266.377Z" fill="#B6ABF2"/>
<path d="M166.677 368.495C166.888 367.125 168.25 365.501 171.168 365.501C174.086 365.501 176.029 366.509 176.029 368.14C176.029 369.772 173.664 371.743 170.745 371.743C167.827 371.743 166.465 369.866 166.677 368.495Z" fill="#F6C383"/>
<path d="M182.373 357.994C182.811 359.013 182.577 360.692 180.597 361.927C178.617 363.163 176.871 363.302 176.179 362.195C175.486 361.089 176.254 358.749 178.234 357.514C180.214 356.278 181.935 356.975 182.373 357.994Z" fill="#F6C383"/>
<path d="M188.032 177.626C188.797 182.51 193.729 188.297 204.299 188.297C214.868 188.297 223.496 182.398 223.496 172.409C223.496 162.42 213.337 166.051 202.768 166.051C192.198 166.051 187.266 172.743 188.032 177.626Z" fill="#D5CDFF"/>
<path d="M200.732 176.584C201.189 179.522 204.133 183.006 210.443 183.006C216.753 183.006 221.904 179.455 221.904 173.444C221.904 167.432 215.839 169.617 209.529 169.617C203.219 169.617 200.275 173.645 200.732 176.584Z" fill="#B6ABF2"/>
<ellipse rx="1.5914" ry="1.5895" transform="matrix(-1 0 0 1 217.13 170.819)" fill="black"/>
<ellipse rx="1.5914" ry="1.5895" transform="matrix(-1 0 0 1 211.826 169.759)" fill="black"/>
<ellipse rx="2.96841" ry="2.96486" transform="matrix(-1 0 0 1 163.73 246.811)" fill="#E01212"/>
<ellipse rx="2.30877" ry="2.306" transform="matrix(-1 0 0 1 160.431 229.68)" fill="#E01212"/>
<ellipse rx="2.96841" ry="2.96486" transform="matrix(-1 0 0 1 134.045 236.269)" fill="#E01212"/>
<ellipse rx="15.8315" ry="15.8126" transform="matrix(-1 0 0 1 149.547 241.21)" fill="#F58967"/>
<ellipse rx="3.62806" ry="3.62372" transform="matrix(-1 0 0 1 142.621 227.704)" fill="#E01212"/>
<path d="M136.251 244.014C136.251 247.884 140.695 253.19 144.57 253.19C148.445 253.19 151.586 250.052 151.586 246.182C151.586 242.312 143.822 235.155 139.947 235.155C136.072 235.155 136.251 240.144 136.251 244.014Z" fill="#F6A976"/>
<ellipse rx="2.96841" ry="2.96486" transform="matrix(-1 0 0 1 153.476 255.076)" fill="#E01212"/>
<ellipse rx="2.96841" ry="2.96486" transform="matrix(-1 0 0 1 162.111 250.765)" fill="#E01212"/>
<ellipse rx="2.30877" ry="2.306" transform="matrix(-1 0 0 1 142.021 255.496)" fill="#E01212"/>
<ellipse rx="1.64912" ry="1.64715" transform="matrix(-1 0 0 1 161.091 238.246)" fill="black"/>
<ellipse rx="1.64912" ry="1.64715" transform="matrix(-1 0 0 1 155.814 238.246)" fill="black"/>
<ellipse rx="2.96841" ry="2.96486" transform="matrix(-1 0 0 1 145.919 246.451)" fill="#E01212"/>
<ellipse rx="2.96841" ry="2.96486" transform="matrix(-1 0 0 1 136.025 244.834)" fill="#E01212"/>
<ellipse rx="2.96841" ry="2.96486" transform="matrix(-1 0 0 1 153.834 227.045)" fill="#E01212"/>
<ellipse rx="1.97894" ry="1.97657" transform="matrix(-1 0 0 1 146.009 235.76)" fill="#E01212"/>
<path d="M0.120338 135.608C1.31399 143.839 11.1253 154.374 23.0981 155.178C35.5791 156.017 52.9395 150.788 52.9395 137.742C52.9395 124.695 39.579 116.097 23.0981 116.097C6.61724 116.097 -1.07331 127.377 0.120338 135.608Z" fill="#F6C383"/>
<path d="M10.8691 137.687C11.7091 143.491 17.1209 150.369 28.7186 150.369C40.3163 150.369 48.0381 146.101 48.0381 139.192C48.0381 132.282 38.6363 123.931 27.0386 123.931C15.441 123.931 10.0291 131.884 10.8691 137.687Z" fill="#FFA74D"/>
<ellipse rx="1.96072" ry="2.44797" transform="matrix(-1 0 0 1 17.6467 132.254)" fill="black"/>
<ellipse rx="1.96072" ry="2.44797" transform="matrix(-1 0 0 1 9.80393 131.275)" fill="black"/>
<defs>
<linearGradient id="paint0_linear" x1="107.152" y1="184.609" x2="107.152" y2="367.641" gradientUnits="userSpaceOnUse">
<stop stop-color="#EB6054"/>
<stop offset="1" stop-color="#F58967"/>
</linearGradient>
</defs>
</svg>
