<svg width="131" height="32" viewBox="0 0 131 32" fill="none" xmlns="http://www.w3.org/2000/svg">
<path fill-rule="evenodd" clip-rule="evenodd" d="M24.9211 23.3791C24.4641 24.4272 23.9231 25.392 23.2963 26.279C22.442 27.4882 21.7425 28.3253 21.2034 28.7901C20.3677 29.553 19.4724 29.9437 18.5136 29.9659C17.8253 29.9659 16.9952 29.7715 16.0289 29.3771C15.0595 28.9845 14.1686 28.7901 13.354 28.7901C12.4997 28.7901 11.5834 28.9845 10.6034 29.3771C9.62184 29.7715 8.83112 29.9771 8.22656 29.9974C7.30713 30.0363 6.39069 29.6345 5.47592 28.7901C4.89206 28.2845 4.16178 27.4179 3.28693 26.1901C2.34829 24.8791 1.57659 23.3587 0.972033 21.6255C0.324571 19.7533 0 17.9404 0 16.1853C0 14.1748 0.437611 12.4407 1.31414 10.9876C2.00301 9.82045 2.91946 8.89973 4.06646 8.22383C5.21346 7.54792 6.4528 7.20349 7.78746 7.18145C8.51774 7.18145 9.47541 7.4057 10.6655 7.84643C11.8522 8.28864 12.6142 8.51289 12.9483 8.51289C13.1981 8.51289 14.0446 8.25068 15.4796 7.72792C16.8366 7.24312 17.982 7.04238 18.9202 7.12145C21.4627 7.32515 23.3728 8.32012 24.6431 10.1127C22.3693 11.4804 21.2445 13.3961 21.2668 15.8536C21.2874 17.7678 21.9869 19.3607 23.3616 20.6255C23.9847 21.2125 24.6804 21.6662 25.4545 21.9884C25.2867 22.4717 25.1095 22.9347 24.9211 23.3791ZM19.09 0.600171C19.09 2.10051 18.5378 3.50138 17.4373 4.79801C16.1092 6.33944 14.5027 7.23015 12.7607 7.0896C12.7385 6.90961 12.7256 6.72017 12.7256 6.5211C12.7256 5.08078 13.3572 3.53934 14.4788 2.27901C15.0388 1.64088 15.751 1.11028 16.6147 0.687019C17.4765 0.270069 18.2916 0.0394863 19.0583 0C19.0807 0.200572 19.09 0.401157 19.09 0.600151V0.600171ZM44.46 28.3682H46.0854L40.5781 15H39.4881L34 28.3682H35.4916L36.964 24.6398H42.9876L44.46 28.3682ZM42.4904 23.3648H37.4612L39.9853 16.9705L42.4904 23.3648ZM47.5893 32H49.0044V26.8034L49.0235 26.8227C49.7119 28.0398 51.0123 28.5614 52.3317 28.5614C54.8368 28.5614 56.6534 26.5136 56.6534 23.8284C56.6534 21.1432 55.0471 19.1341 52.2935 19.1341C50.7063 19.1341 49.5207 20.042 49.0235 20.892H49.0044V19.2886H47.5893V32ZM52.0258 27.3057C50.0179 27.3057 48.947 25.7795 48.947 23.8284C48.947 21.858 50.2665 20.3318 52.064 20.3318C54.0527 20.3318 55.181 21.858 55.181 23.8284C55.181 25.7795 54.0145 27.3057 52.0258 27.3057ZM60.1903 32H58.7752V19.2886H60.1903V20.892H60.2094C60.7066 20.042 61.8922 19.1341 63.4794 19.1341C66.233 19.1341 67.8393 21.1432 67.8393 23.8284C67.8393 26.5136 66.0227 28.5614 63.5176 28.5614C62.1982 28.5614 60.8978 28.0398 60.2094 26.8227L60.1903 26.8034V32ZM60.1329 23.8284C60.1329 25.7795 61.2038 27.3057 63.2117 27.3057C65.2004 27.3057 66.3669 25.7795 66.3669 23.8284C66.3669 21.858 65.2386 20.3318 63.2499 20.3318C61.4524 20.3318 60.1329 21.858 60.1329 23.8284ZM73.5603 26.05L72.8146 26.958C73.4839 27.9239 74.6694 28.5614 76.1419 28.5614C77.9968 28.5614 79.4309 27.5375 79.4309 25.7989C79.4309 24.0146 77.7679 23.4743 76.7961 23.1586C76.7052 23.129 76.6203 23.1014 76.5434 23.075C75.5491 22.7466 74.6312 22.3602 74.6312 21.5295C74.6312 20.6795 75.2814 20.2352 76.2184 20.2352C77.0215 20.2352 77.8438 20.525 78.4748 21.0659L79.1632 20.1966C78.5322 19.617 77.6717 19.1341 76.2184 19.1341C74.7651 19.1341 73.3309 20.0034 73.3309 21.6648C73.3309 23.4405 74.9794 23.9505 75.7356 24.1845C75.7938 24.2025 75.8468 24.2189 75.8933 24.2341C75.9594 24.2563 76.0331 24.2799 76.1122 24.3051C76.8578 24.543 78.0924 24.9368 78.0924 25.9148C78.0924 26.9966 77.1554 27.4216 76.1801 27.4216C75.3196 27.4216 74.4209 27.0352 73.5603 26.05ZM85.3081 27.1125L85.3846 28.2716C84.9639 28.4648 84.4476 28.5614 83.8357 28.5614C81.694 28.5614 81.694 26.533 81.694 24.8909V20.525H80.3554V19.3273H81.694V16.5261H83.1282V19.3273H85.3272V20.525H83.109V25.1807C83.109 25.9148 83.109 26.5523 83.3959 26.9773C83.5488 27.2091 83.8931 27.325 84.3137 27.325C84.8683 27.325 85.3081 27.1125 85.3081 27.1125ZM91.0434 28.5614C93.6631 28.5614 95.7284 26.6489 95.7284 23.867C95.7284 21.1045 93.6631 19.1341 91.0434 19.1341C88.4236 19.1341 86.3775 21.1045 86.3775 23.867C86.3775 26.6489 88.4236 28.5614 91.0434 28.5614ZM91.0434 27.3057C89.0546 27.3057 87.8308 25.7602 87.8308 23.8284C87.8308 21.8773 89.0546 20.3705 91.0434 20.3705C93.0321 20.3705 94.275 21.8773 94.275 23.8284C94.275 25.7602 93.0321 27.3057 91.0434 27.3057ZM99.1986 28.3682H97.7836V19.308H99.1986V20.8534C99.6193 19.7523 100.48 19.1341 101.474 19.1341C102.067 19.1341 102.43 19.2886 102.43 19.2886L102.335 20.6409H102.277C101.971 20.5057 101.57 20.467 101.302 20.467C100.48 20.467 99.9444 21.0466 99.7914 21.2591C99.4281 21.7807 99.1986 22.3023 99.1986 23.6739V28.3682ZM111.427 27.0739L110.816 26.2239C110.816 26.2239 109.553 27.3636 107.794 27.3636C105.882 27.3636 104.601 26.05 104.582 24.1761H111.657C111.657 24.1761 111.714 23.7511 111.714 23.4227C111.714 20.9307 110.012 19.1341 107.546 19.1341C104.868 19.1341 103.128 21.2398 103.128 23.8091C103.128 26.7261 104.907 28.5614 107.546 28.5614C109.305 28.5614 110.605 28.0591 111.427 27.0739ZM110.28 23.0943H104.601C104.715 21.6841 105.691 20.3125 107.488 20.3318C109.458 20.3511 110.28 21.8193 110.28 23.0943ZM41.658 5.83C41.658 2.988 39.446 1 36.66 1H34V10.66H36.66C39.446 10.66 41.658 8.672 41.658 5.83ZM40.874 5.83C40.874 8.336 39.026 9.974 36.59 9.974H34.756V1.686H36.59C39.012 1.686 40.874 3.338 40.874 5.83ZM49.4673 7.44C49.4673 5.48 47.9973 4.052 46.1353 4.052C44.2873 4.052 42.8173 5.48 42.8173 7.44C42.8173 9.4 44.2873 10.8 46.1353 10.8C47.9973 10.8 49.4673 9.4 49.4673 7.44ZM48.6973 7.412C48.6973 8.91 47.7173 10.142 46.1353 10.142C44.5673 10.142 43.5873 8.91 43.5873 7.412C43.5873 5.9 44.5673 4.682 46.1353 4.682C47.7173 4.682 48.6973 5.9 48.6973 7.412ZM58.9178 4.164H59.6878L57.5178 10.66H56.8878L54.8578 5.2L52.8278 10.66H52.1978L50.0278 4.164H50.7978L52.5478 9.61L54.5778 4.15H55.1378L57.1678 9.61L58.9178 4.164ZM66.068 10.66V6.782C66.068 5.242 65.634 4.052 63.772 4.052C62.834 4.052 61.994 4.598 61.672 5.368V4.164H60.944V10.66H61.672V7.44C61.672 5.9 62.344 4.682 63.744 4.682C65.144 4.682 65.326 5.76 65.326 6.81V10.66H66.068ZM68.1644 1H68.8924V10.66H68.1644V1ZM77.2212 7.44C77.2212 5.48 75.7512 4.052 73.8892 4.052C72.0412 4.052 70.5712 5.48 70.5712 7.44C70.5712 9.4 72.0412 10.8 73.8892 10.8C75.7512 10.8 77.2212 9.4 77.2212 7.44ZM76.4512 7.412C76.4512 8.91 75.4712 10.142 73.8892 10.142C72.3212 10.142 71.3412 8.91 71.3412 7.412C71.3412 5.9 72.3212 4.682 73.8892 4.682C75.4712 4.682 76.4512 5.9 76.4512 7.412ZM83.3068 6.81V10.66H82.5648V9.75C82.3268 10.03 81.6268 10.8 80.3668 10.8C79.1068 10.8 78.1968 9.96 78.1968 8.84C78.1968 7.72 79.0368 6.95 80.7868 6.88L82.5648 6.81V6.46C82.5648 5.27 81.7668 4.682 80.7448 4.682C79.7368 4.682 78.9668 5.13 78.8268 5.242L78.5468 4.71C78.9668 4.43 79.7368 4.052 80.7168 4.052C82.5228 4.052 83.3068 5.088 83.3068 6.81ZM82.5648 8.98V7.37L80.7168 7.482C79.3588 7.552 78.9248 8.14 78.9248 8.84C78.9248 9.54 79.4568 10.17 80.5068 10.17C81.5568 10.17 82.2568 9.47 82.5648 8.98ZM84.7763 7.412C84.7763 9.33 86.0362 10.8 87.9962 10.8C88.9762 10.8 89.8583 10.38 90.4043 9.456V10.66H91.1463V1H90.4043V5.382C89.7743 4.43 88.9062 4.052 87.9682 4.052C86.0362 4.052 84.7763 5.48 84.7763 7.412ZM85.5462 7.412C85.5462 5.9 86.4283 4.682 87.9962 4.682C89.5782 4.682 90.4463 5.9 90.4463 7.412C90.4463 8.91 89.5782 10.142 87.9962 10.142C86.4283 10.142 85.5462 8.91 85.5462 7.412ZM98.9497 4.052C100.812 4.052 102.282 5.48 102.282 7.44C102.282 9.4 100.812 10.8 98.9497 10.8C97.1017 10.8 95.6317 9.4 95.6317 7.44C95.6317 5.48 97.1017 4.052 98.9497 4.052ZM98.9497 10.142C100.532 10.142 101.512 8.91 101.512 7.412C101.512 5.9 100.532 4.682 98.9497 4.682C97.3817 4.682 96.4017 5.9 96.4017 7.412C96.4017 8.91 97.3817 10.142 98.9497 10.142ZM109.011 10.66V6.782C109.011 5.242 108.577 4.052 106.715 4.052C105.777 4.052 104.937 4.598 104.615 5.368V4.164H103.887V10.66H104.615V7.44C104.615 5.9 105.287 4.682 106.687 4.682C108.087 4.682 108.269 5.76 108.269 6.81V10.66H109.011ZM116.43 9.96L116.5 10.59C116.262 10.73 115.94 10.8 115.52 10.8C114.89 10.8 114.526 10.534 114.288 10.1C114.064 9.666 114.05 9.19 114.05 8.14V4.85H113.07V4.192H114.05V2.12H114.792V4.192H116.43V4.85H114.778V8.574C114.778 9.288 114.862 10.142 115.73 10.142C116.15 10.142 116.43 9.96 116.43 9.96ZM122.958 10.66V6.782C122.958 5.242 122.524 4.052 120.662 4.052C119.724 4.052 118.884 4.598 118.562 5.368V1H117.834V10.66H118.562V7.44C118.562 5.9 119.234 4.682 120.634 4.682C122.034 4.682 122.216 5.76 122.216 6.81V10.66H122.958ZM127.725 4.052C129.433 4.052 130.665 5.34 130.665 7.09C130.665 7.3 130.623 7.58 130.623 7.58H125.345C125.415 9.12 126.283 10.142 127.753 10.142C129.223 10.142 130.035 9.302 130.035 9.302L130.385 9.82C130.385 9.82 129.573 10.8 127.683 10.8C125.793 10.8 124.575 9.4 124.575 7.412C124.575 5.41 126.003 4.052 127.725 4.052ZM125.373 6.95H129.923C129.923 6.11 129.293 4.682 127.683 4.682C126.073 4.682 125.415 6.04 125.373 6.95Z" fill="white"/>
</svg>
