<svg width="131" height="32" viewBox="0 0 131 32" fill="none" xmlns="http://www.w3.org/2000/svg">
<path fill-rule="evenodd" clip-rule="evenodd" d="M6.17647 23.75C5.49706 23.75 4.94118 23.1875 4.94118 22.5V10H19.7647V22.5C19.7647 23.1875 19.2088 23.75 18.5294 23.75H17.2941V28.125C17.2941 29.1625 16.4665 30 15.4412 30C14.4159 30 13.5882 29.1625 13.5882 28.125V23.75H11.1176V28.125C11.1176 29.1625 10.29 30 9.2647 30C8.23941 30 7.41176 29.1625 7.41176 28.125V23.75H6.17647ZM0 11.875C0 10.8375 0.827647 10 1.85294 10C2.87823 10 3.70588 10.8375 3.70588 11.875V20.625C3.70588 21.6625 2.87823 22.5 1.85294 22.5C0.827647 22.5 0 21.6625 0 20.625V11.875ZM21 11.875C21 10.8375 21.8276 10 22.8529 10C23.8782 10 24.7059 10.8375 24.7059 11.875V20.625C24.7059 21.6625 23.8782 22.5 22.8529 22.5C21.8276 22.5 21 21.6625 21 20.625V11.875ZM18.3194 1.075L16.7135 2.7C18.5665 4.0625 19.7647 6.2625 19.7647 8.75H4.94118C4.94118 6.2625 6.13941 4.075 7.96765 2.7125L6.34941 1.075C6.10235 0.825 6.10235 0.4375 6.34941 0.1875C6.59647 -0.0625 6.97941 -0.0625 7.22647 0.1875L9.06706 2.0375C10.0553 1.5375 11.1671 1.25 12.3529 1.25C13.5265 1.25 14.6382 1.5375 15.6141 2.0375L17.4424 0.1875C17.6894 -0.0625 18.0724 -0.0625 18.3194 0.1875C18.5665 0.4375 18.5665 0.825 18.3194 1.075ZM8.64706 6.25H9.88235V5H8.64706V6.25ZM14.8235 6.25H16.0588V5H14.8235V6.25ZM35.66 1C38.446 1 40.658 2.988 40.658 5.83C40.658 8.672 38.446 10.66 35.66 10.66H33V1H35.66ZM35.59 9.974C38.026 9.974 39.874 8.336 39.874 5.83C39.874 3.338 38.012 1.686 35.59 1.686H33.756V9.974H35.59ZM45.1353 4.052C46.9973 4.052 48.4673 5.48 48.4673 7.44C48.4673 9.4 46.9973 10.8 45.1353 10.8C43.2873 10.8 41.8173 9.4 41.8173 7.44C41.8173 5.48 43.2873 4.052 45.1353 4.052ZM45.1353 10.142C46.7173 10.142 47.6973 8.91 47.6973 7.412C47.6973 5.9 46.7173 4.682 45.1353 4.682C43.5673 4.682 42.5873 5.9 42.5873 7.412C42.5873 8.91 43.5673 10.142 45.1353 10.142ZM58.6878 4.164H57.9178L56.1678 9.61L54.1378 4.15H53.5778L51.5478 9.61L49.7978 4.164H49.0278L51.1978 10.66H51.8278L53.8578 5.2L55.8878 10.66H56.5178L58.6878 4.164ZM65.068 6.782V10.66H64.326V6.81C64.326 5.76 64.144 4.682 62.744 4.682C61.344 4.682 60.672 5.9 60.672 7.44V10.66H59.944V4.164H60.672V5.368C60.994 4.598 61.834 4.052 62.772 4.052C64.634 4.052 65.068 5.242 65.068 6.782ZM67.8924 1H67.1644V10.66H67.8924V1ZM72.8892 4.052C74.7512 4.052 76.2212 5.48 76.2212 7.44C76.2212 9.4 74.7512 10.8 72.8892 10.8C71.0412 10.8 69.5712 9.4 69.5712 7.44C69.5712 5.48 71.0412 4.052 72.8892 4.052ZM72.8892 10.142C74.4712 10.142 75.4512 8.91 75.4512 7.412C75.4512 5.9 74.4712 4.682 72.8892 4.682C71.3212 4.682 70.3412 5.9 70.3412 7.412C70.3412 8.91 71.3212 10.142 72.8892 10.142ZM82.3068 10.66V6.81C82.3068 5.088 81.5228 4.052 79.7168 4.052C78.7368 4.052 77.9668 4.43 77.5468 4.71L77.8268 5.242C77.9668 5.13 78.7368 4.682 79.7448 4.682C80.7668 4.682 81.5648 5.27 81.5648 6.46V6.81L79.7868 6.88C78.0368 6.95 77.1968 7.72 77.1968 8.84C77.1968 9.96 78.1068 10.8 79.3668 10.8C80.6268 10.8 81.3268 10.03 81.5648 9.75V10.66H82.3068ZM81.5648 7.37V8.98C81.2568 9.47 80.5568 10.17 79.5068 10.17C78.4568 10.17 77.9248 9.54 77.9248 8.84C77.9248 8.14 78.3588 7.552 79.7168 7.482L81.5648 7.37ZM86.9962 10.8C85.0362 10.8 83.7763 9.33 83.7763 7.412C83.7763 5.48 85.0362 4.052 86.9682 4.052C87.9062 4.052 88.7743 4.43 89.4043 5.382V1H90.1463V10.66H89.4043V9.456C88.8583 10.38 87.9762 10.8 86.9962 10.8ZM86.9962 4.682C85.4283 4.682 84.5462 5.9 84.5462 7.412C84.5462 8.91 85.4283 10.142 86.9962 10.142C88.5782 10.142 89.4463 8.91 89.4463 7.412C89.4463 5.9 88.5782 4.682 86.9962 4.682ZM101.282 7.44C101.282 5.48 99.8117 4.052 97.9497 4.052C96.1017 4.052 94.6317 5.48 94.6317 7.44C94.6317 9.4 96.1017 10.8 97.9497 10.8C99.8117 10.8 101.282 9.4 101.282 7.44ZM100.512 7.412C100.512 8.91 99.5317 10.142 97.9497 10.142C96.3817 10.142 95.4017 8.91 95.4017 7.412C95.4017 5.9 96.3817 4.682 97.9497 4.682C99.5317 4.682 100.512 5.9 100.512 7.412ZM108.011 6.782V10.66H107.269V6.81C107.269 5.76 107.087 4.682 105.687 4.682C104.287 4.682 103.615 5.9 103.615 7.44V10.66H102.887V4.164H103.615V5.368C103.937 4.598 104.777 4.052 105.715 4.052C107.577 4.052 108.011 5.242 108.011 6.782ZM115.5 10.59L115.43 9.96C115.43 9.96 115.15 10.142 114.73 10.142C113.862 10.142 113.778 9.288 113.778 8.574V4.85H115.43V4.192H113.792V2.12H113.05V4.192H112.07V4.85H113.05V8.14C113.05 9.19 113.064 9.666 113.288 10.1C113.526 10.534 113.89 10.8 114.52 10.8C114.94 10.8 115.262 10.73 115.5 10.59ZM121.958 6.782V10.66H121.216V6.81C121.216 5.76 121.034 4.682 119.634 4.682C118.234 4.682 117.562 5.9 117.562 7.44V10.66H116.834V1H117.562V5.368C117.884 4.598 118.724 4.052 119.662 4.052C121.524 4.052 121.958 5.242 121.958 6.782ZM129.665 7.09C129.665 5.34 128.433 4.052 126.725 4.052C125.003 4.052 123.575 5.41 123.575 7.412C123.575 9.4 124.793 10.8 126.683 10.8C128.573 10.8 129.385 9.82 129.385 9.82L129.035 9.302C129.035 9.302 128.223 10.142 126.753 10.142C125.283 10.142 124.415 9.12 124.345 7.58H129.623C129.623 7.58 129.665 7.3 129.665 7.09ZM128.923 6.95H124.373C124.415 6.04 125.073 4.682 126.683 4.682C128.293 4.682 128.923 6.11 128.923 6.95ZM44.0439 22.667V25.8853C44.0439 25.8853 42.9317 27.1726 39.9268 27.1726C36.9219 27.1726 34.5024 25.1281 34.5024 21.7205C34.5024 18.3318 36.8439 16.2494 39.7902 16.2494C41.8975 16.2494 43.3024 17.2149 44.2 18.2372L45.1951 17.2717C45.1724 17.2481 45.1479 17.222 45.1213 17.1938C44.5516 16.5897 43.0525 15 39.7902 15C35.9658 15 33 17.745 33 21.7205C33 25.7906 35.8683 28.4788 39.8292 28.4788C43.6536 28.4788 45.2341 26.6993 45.4683 26.4154V21.4555H40.161V22.667H44.0439ZM52.3179 28.441C54.9911 28.441 57.0984 26.5668 57.0984 23.8408C57.0984 21.1336 54.9911 19.2027 52.3179 19.2027C49.6448 19.2027 47.557 21.1336 47.557 23.8408C47.557 26.5668 49.6448 28.441 52.3179 28.441ZM52.3179 27.2105C50.2887 27.2105 49.0399 25.696 49.0399 23.8029C49.0399 21.8909 50.2887 20.4143 52.3179 20.4143C54.3472 20.4143 55.6155 21.8909 55.6155 23.8029C55.6155 25.696 54.3472 27.2105 52.3179 27.2105ZM68.093 23.8408C68.093 26.5668 65.9857 28.441 63.3126 28.441C60.6394 28.441 58.5516 26.5668 58.5516 23.8408C58.5516 21.1336 60.6394 19.2027 63.3126 19.2027C65.9857 19.2027 68.093 21.1336 68.093 23.8408ZM60.0345 23.8029C60.0345 25.696 61.2833 27.2105 63.3126 27.2105C65.3418 27.2105 66.6101 25.696 66.6101 23.8029C66.6101 21.8909 65.3418 20.4143 63.3126 20.4143C61.2833 20.4143 60.0345 21.8909 60.0345 23.8029ZM77.3316 26.51V27.0022C77.3316 29.2171 76.473 30.8073 73.956 30.8073C72.5316 30.8073 71.2438 30.1069 70.6389 29.6526L69.917 30.6559C69.9254 30.6617 69.939 30.6719 69.9577 30.6859C70.2435 30.8994 71.7169 32 73.8779 32C76.1999 32 77.3121 30.9777 77.8974 30.1826C78.4828 29.4065 78.7755 28.3463 78.7755 26.3586V19.3731H77.3316L77.3511 20.9065H77.3121C76.7462 19.9788 75.595 19.2027 73.9169 19.2027C71.5365 19.2027 69.5462 20.9254 69.5462 23.7082C69.5462 26.6615 71.5365 28.1949 73.956 28.1949C75.5169 28.1949 76.6291 27.5702 77.2925 26.51H77.3316ZM74.2096 27.0212C72.1413 27.0212 71.0292 25.5445 71.0292 23.6893C71.0292 21.853 72.1023 20.3953 74.1706 20.3953C76.1413 20.3953 77.3901 21.6637 77.3901 23.6893C77.3901 25.5445 76.2974 27.0212 74.2096 27.0212ZM83.0692 28.2517H81.6253V15.1893H83.0692V28.2517ZM93.7157 26.9833L93.0913 26.1503C93.0913 26.1503 91.8035 27.2673 90.0084 27.2673C88.0571 27.2673 86.7498 25.98 86.7303 24.1437H93.9498C93.9498 24.1437 94.0083 23.7272 94.0083 23.4053C94.0083 20.9633 92.2718 19.2027 89.7547 19.2027C87.023 19.2027 85.2474 21.2661 85.2474 23.784C85.2474 26.6425 87.062 28.441 89.7547 28.441C91.5498 28.441 92.8766 27.9488 93.7157 26.9833ZM92.5449 23.0835H86.7498C86.8669 21.7016 87.862 20.3575 89.6962 20.3764C91.7059 20.3953 92.5449 21.8341 92.5449 23.0835ZM101.575 28.2517H100.111V15.1893H103.604C105.926 15.1893 107.975 16.3062 107.975 18.7862C107.975 21.4365 105.731 22.402 103.35 22.402H101.575V28.2517ZM101.575 21.1904H103.467C105.087 21.1904 106.472 20.5846 106.472 18.8051C106.472 17.2149 105.243 16.4009 103.545 16.4009H101.575V21.1904ZM110.112 28.2517H111.556V15.1893H110.112V28.2517ZM121.11 28.2517H119.686L119.666 27.078C119.315 27.4566 118.398 28.441 116.661 28.441C114.925 28.441 113.52 27.3619 113.52 25.7339C113.52 24.2194 114.671 23.1592 117.168 23.0457L119.647 22.9321V22.5345C119.647 21.039 118.612 20.3764 117.227 20.3764C115.861 20.3764 114.768 20.9065 114.515 21.0768L114.027 20.0735C114.632 19.7327 115.842 19.2027 117.286 19.2027C119.959 19.2027 121.11 20.5468 121.11 23.0457V28.2517ZM119.666 26.0557V23.9543L117.286 24.0679C115.588 24.1437 115.022 24.8062 115.022 25.7149C115.022 26.6047 115.783 27.3241 116.954 27.3241C118.203 27.3241 119.237 26.6236 119.666 26.0557ZM125.849 28.2517L125.341 29.4065C124.815 30.618 124.483 30.637 124.015 30.637C123.605 30.637 123.098 30.4287 123.098 30.4287L122.805 31.6214C122.805 31.6214 123.41 31.9243 124.229 31.9243C125.205 31.9243 125.829 31.4889 126.532 29.8608L131 19.3731L129.498 19.3541L126.59 26.6804L123.624 19.3731L122.122 19.3541L125.849 28.2517Z" fill="white"/>
</svg>
