<svg width="139" height="75" viewBox="0 0 139 75" fill="none" xmlns="http://www.w3.org/2000/svg">
<circle r="6.5476" transform="matrix(-1 0 0 1 72.0237 50.1984)" fill="#E01212"/>
<circle r="5.09257" transform="matrix(-1 0 0 1 64.7482 12.3675)" fill="#E01212"/>
<circle r="6.5476" transform="matrix(-1 0 0 1 6.54811 26.918)" fill="#E01212"/>
<circle r="34.9205" transform="matrix(-1 0 0 1 40.7406 37.8303)" fill="#F58967"/>
<circle r="8.00262" transform="matrix(-1 0 0 1 25.4632 8.00262)" fill="#E01212"/>
<path d="M11.4132 44.0219C11.4132 52.5692 21.2149 64.2857 29.7621 64.2857C38.3094 64.2857 45.2383 57.3568 45.2383 48.8095C45.2383 40.2623 28.1126 24.4568 19.5654 24.4568C11.0182 24.4568 11.4132 35.4747 11.4132 44.0219Z" fill="#F6A976"/>
<circle r="6.5476" transform="matrix(-1 0 0 1 49.4055 68.4523)" fill="#E01212"/>
<circle r="6.5476" transform="matrix(-1 0 0 1 68.4524 58.9293)" fill="#E01212"/>
<circle r="5.09257" transform="matrix(-1 0 0 1 24.1398 69.3782)" fill="#E01212"/>
<circle r="3.63755" transform="matrix(-1 0 0 1 66.2033 31.2829)" fill="black"/>
<circle r="3.63755" transform="matrix(-1 0 0 1 54.5636 31.2829)" fill="black"/>
<circle r="6.5476" transform="matrix(-1 0 0 1 32.7376 49.4043)" fill="#E01212"/>
<circle r="6.5476" transform="matrix(-1 0 0 1 10.9124 45.8331)" fill="#E01212"/>
<circle r="6.5476" transform="matrix(-1 0 0 1 50.1985 6.5476)" fill="#E01212"/>
<circle r="4.36506" transform="matrix(-1 0 0 1 32.9377 25.7937)" fill="#E01212"/>
<circle cx="95.4547" cy="45.4543" r="3.89609" fill="#423B76"/>
<circle cx="99.7842" cy="22.944" r="3.0303" fill="#423B76"/>
<circle cx="134.416" cy="31.6017" r="3.89609" fill="#423B76"/>
<circle cx="114.069" cy="38.095" r="20.7792" fill="#B6ABF2"/>
<circle cx="123.16" cy="20.3461" r="4.76189" fill="#423B76"/>
<circle cx="119.696" cy="35.065" r="3.89609" fill="#423B76"/>
<circle cx="102.38" cy="52.3807" r="3.89609" fill="#423B76"/>
<circle cx="115.368" cy="56.7101" r="3.0303" fill="#423B76"/>
<circle cx="98.9184" cy="34.1992" r="2.1645" fill="black"/>
<circle cx="105.844" cy="34.1992" r="2.1645" fill="black"/>
<circle cx="124.026" cy="53.2467" r="3.89609" fill="#423B76"/>
<circle cx="131.819" cy="42.857" r="3.89609" fill="#423B76"/>
<circle cx="108.441" cy="19.4803" r="3.89609" fill="#423B76"/>
<circle cx="112.338" cy="45.8874" r="2.5974" fill="#423B76"/>
</svg>
