<svg width="138" height="75" viewBox="0 0 138 75" fill="none" xmlns="http://www.w3.org/2000/svg">
<path d="M0.184647 29.2855C2.01711 40.9896 13.8235 54.8613 39.1246 54.8613C64.4258 54.8613 85.0811 40.7214 85.0811 16.7805C85.0811 -7.16043 60.7608 1.54219 35.4597 1.54219C10.1586 1.54219 -1.64783 17.5813 0.184647 29.2855Z" fill="#D5CDFF"/>
<path d="M30.5861 26.7856C31.6801 33.8294 38.7287 42.1776 53.8338 42.1776C68.939 42.1776 81.2705 33.6679 81.2705 19.2598C81.2705 4.85173 66.751 10.0891 51.6458 10.0891C36.5407 10.0891 29.4921 19.7417 30.5861 26.7856Z" fill="#B6ABF2"/>
<ellipse rx="3.05703" ry="3.73637" transform="matrix(-1 0 0 1 68.9527 18.0026)" fill="black"/>
<ellipse rx="3.05703" ry="3.73637" transform="matrix(-1 0 0 1 60.8014 18.0026)" fill="black"/>
<path d="M81.6492 53.4483C82.9227 62.2402 93.39 73.4934 106.163 74.3526C119.479 75.2483 138 69.6633 138 55.7277C138 41.7921 123.746 32.6084 106.163 32.6084C88.5805 32.6084 80.3757 44.6565 81.6492 53.4483Z" fill="#F6C383"/>
<path d="M93.1162 55.6691C94.0124 61.868 99.7861 69.2149 112.159 69.2149C124.532 69.2149 132.771 64.6568 132.771 57.2762C132.771 49.8957 122.74 40.9753 110.367 40.9753C97.9938 40.9753 92.2201 49.4702 93.1162 55.6691Z" fill="#FFA74D"/>
<ellipse rx="2.09182" ry="2.61478" transform="matrix(-1 0 0 1 100.347 49.8656)" fill="black"/>
<ellipse rx="2.09182" ry="2.61478" transform="matrix(-1 0 0 1 91.9795 48.8197)" fill="black"/>
</svg>
