<svg width="228" height="76" viewBox="0 0 228 76" fill="none" xmlns="http://www.w3.org/2000/svg">
<path d="M2 25.2039C44.8068 -11.866 97.5278 64.632 129.587 65.2922C161.645 65.9525 182.215 27.0904 208.714 27.6564" stroke="#219653" stroke-width="3" stroke-linecap="round"/>
<path d="M225.941 45.8637C181.549 84.8027 127.077 4.44329 93.7833 3.77522C60.4896 3.10714 39.3111 43.8595 11.8438 43.2868" stroke="#219653" stroke-width="3" stroke-linecap="round"/>
<path fill-rule="evenodd" clip-rule="evenodd" d="M171.429 61.5775C182.747 61.5775 191.974 52.5438 191.974 41.4626C191.974 30.3813 182.747 21.3477 171.429 21.3477C160.111 21.3477 150.884 30.3813 150.884 41.4626C150.884 52.5438 160.111 61.5775 171.429 61.5775Z" fill="#6FCF97"/>
<path fill-rule="evenodd" clip-rule="evenodd" d="M173.767 37.9701C174.628 37.9701 175.243 37.2474 175.243 36.5247C175.243 35.6815 174.505 35.0792 173.767 35.0792C172.905 35.0792 172.29 35.8019 172.29 36.5247C172.29 37.3679 172.905 37.9701 173.767 37.9701Z" fill="#333333"/>
<path fill-rule="evenodd" clip-rule="evenodd" d="M178.441 36.6444C179.302 36.6444 179.918 35.9219 179.918 35.1994C179.918 34.3564 179.179 33.7543 178.441 33.7543C177.58 33.7543 176.965 34.4768 176.965 35.1994C176.842 36.0423 177.58 36.6444 178.441 36.6444Z" fill="#333333"/>
<path d="M173.397 40.4991C174.505 41.7036 176.104 42.6672 178.318 42.065C180.533 41.3423 181.517 39.6559 181.517 38.0901" fill="white"/>
<path fill-rule="evenodd" clip-rule="evenodd" d="M48.3849 40.2301C59.8123 40.2301 68.9299 31.1964 68.9299 20.115C68.9299 9.0337 59.6907 0 48.3849 0C37.079 0 27.8398 9.0337 27.8398 20.115C27.8398 31.1964 36.9574 40.2301 48.3849 40.2301Z" fill="#6FCF97"/>
<path fill-rule="evenodd" clip-rule="evenodd" d="M38.2952 15.658C39.1461 15.658 39.754 14.9354 39.754 14.0924C39.754 13.2494 39.0246 12.6472 38.1736 12.6472C37.3227 12.6472 36.7148 13.3698 36.7148 14.2128C36.7148 15.0558 37.4442 15.658 38.2952 15.658Z" fill="#333333"/>
<path fill-rule="evenodd" clip-rule="evenodd" d="M43.0364 14.3336C43.8874 14.3336 44.4952 13.6107 44.4952 12.7674C44.4952 11.9241 43.7658 11.3218 42.9148 11.3218C42.0639 11.3218 41.4561 12.0446 41.4561 12.8879C41.4561 13.6107 42.1854 14.3336 43.0364 14.3336Z" fill="#333333"/>
<path d="M37.4443 18.7897C38.7816 20.235 40.6051 21.4393 43.1581 20.5963C45.8326 19.7532 46.9267 17.7058 46.9267 15.8993" fill="white"/>
<path fill-rule="evenodd" clip-rule="evenodd" d="M104.984 75.3919C116.412 75.3919 125.529 66.3583 125.529 55.277C125.529 44.1957 116.29 35.1621 104.984 35.1621C93.5571 35.1621 84.4395 44.1957 84.4395 55.277C84.4395 66.3583 93.6786 75.3919 104.984 75.3919Z" fill="#6FCF97"/>
<path fill-rule="evenodd" clip-rule="evenodd" d="M102.158 62.5377C102.896 62.5377 103.512 61.9098 103.512 61.0308C103.512 60.1518 102.896 59.6495 102.035 59.6495C101.297 59.6495 100.682 60.2774 100.682 61.1564C100.805 61.9098 101.42 62.5377 102.158 62.5377Z" fill="#333333"/>
<path fill-rule="evenodd" clip-rule="evenodd" d="M106.588 61.1558C107.326 61.1558 107.941 60.528 107.941 59.649C107.941 58.8956 107.326 58.2677 106.465 58.2677C105.604 58.2677 105.111 58.8956 105.111 59.7746C105.111 60.528 105.85 61.1558 106.588 61.1558Z" fill="#333333"/>
<path d="M100.682 65.6765C102.035 67.1834 103.881 68.4391 106.465 67.5601C109.172 66.6811 110.279 64.5462 110.279 62.6626" fill="white"/>
</svg>
