<svg width="54" height="91" viewBox="0 0 54 91" fill="none" xmlns="http://www.w3.org/2000/svg">
<path d="M1.29446 83.7456C1.15397 84.1353 1.35596 84.5651 1.74562 84.7055L8.09551 86.995C8.48517 87.1354 8.91494 86.9335 9.05543 86.5438C9.19592 86.1541 8.99393 85.7244 8.60427 85.5839L2.95992 83.5488L4.99496 77.9045C5.13545 77.5148 4.93345 77.0851 4.54379 76.9446C4.15413 76.8041 3.72436 77.0061 3.58387 77.3957L1.29446 83.7456ZM31.2021 44.5772L30.4521 44.5772L31.2021 44.5772ZM1.62018 8.59595C1.26301 8.80571 1.14352 9.2653 1.35328 9.62247L4.77163 15.4429C4.9814 15.8001 5.44099 15.9196 5.79816 15.7098C6.15533 15.5 6.27482 15.0404 6.06506 14.6833L3.02653 9.50956L8.20024 6.47103C8.55741 6.26126 8.67691 5.80167 8.46714 5.4445C8.25737 5.08733 7.79778 4.96783 7.44061 5.1776L1.62018 8.59595ZM2 84C2.31902 84.6788 2.31909 84.6787 2.31917 84.6787C2.31921 84.6787 2.31929 84.6786 2.31936 84.6786C2.31951 84.6785 2.31968 84.6785 2.31989 84.6784C2.3203 84.6782 2.32084 84.6779 2.3215 84.6776C2.32281 84.677 2.32461 84.6761 2.3269 84.675C2.33147 84.6729 2.33798 84.6698 2.3464 84.6658C2.36323 84.6577 2.38767 84.646 2.41947 84.6306C2.48308 84.5997 2.57613 84.5541 2.69655 84.4938C2.93738 84.3732 3.28778 84.1937 3.73119 83.9558C4.61789 83.4801 5.8773 82.7706 7.37686 81.831L6.58042 80.5599C5.11284 81.4795 3.88293 82.1722 3.02209 82.634C2.59174 82.8649 2.25381 83.0379 2.02477 83.1527C1.91025 83.21 1.82297 83.2528 1.76498 83.2809C1.73599 83.295 1.71432 83.3054 1.70023 83.3121C1.69319 83.3154 1.68804 83.3179 1.68482 83.3194C1.68321 83.3202 1.68208 83.3207 1.68144 83.321C1.68112 83.3212 1.68092 83.3213 1.68084 83.3213C1.68081 83.3213 1.6808 83.3213 1.68082 83.3213C1.68083 83.3213 1.68087 83.3213 1.68088 83.3213C1.68092 83.3213 1.68098 83.3212 2 84ZM12.1568 78.5563C14.919 76.4929 17.9481 73.9117 20.7878 70.8247L19.6839 69.8092C16.9201 72.8137 13.9642 75.3338 11.2591 77.3546L12.1568 78.5563ZM24.4785 66.3322C26.6951 63.2843 28.6231 59.8599 29.9657 56.0673L28.5517 55.5668C27.2651 59.2013 25.4117 62.4987 23.2654 65.45L24.4785 66.3322ZM31.4507 50.414C31.776 48.5408 31.9521 46.5948 31.9521 44.5772L30.4521 44.5772C30.4521 46.507 30.2837 48.3672 29.9728 50.1574L31.4507 50.414ZM31.9521 44.5772C31.9521 42.6237 31.81 40.7657 31.5447 38.9994L30.0614 39.2221C30.3153 40.9132 30.4521 42.6967 30.4521 44.5772L31.9521 44.5772ZM30.2647 33.5509C29.0309 29.7573 27.2042 26.4888 25.0661 23.6873L23.8737 24.5973C25.9193 27.2777 27.6617 30.3972 28.8383 34.0148L30.2647 33.5509ZM21.3446 19.5192C18.4332 16.7081 15.2868 14.5386 12.4079 12.9001L11.6659 14.2038C14.4613 15.7947 17.5005 17.8925 20.3027 20.5982L21.3446 19.5192ZM7.43197 10.4173C5.88339 9.74676 4.5793 9.27342 3.65953 8.96696C3.19955 8.81371 2.83539 8.70209 2.58451 8.62833C2.45906 8.59145 2.36191 8.56404 2.29522 8.54561C2.26188 8.53639 2.23615 8.52942 2.21831 8.52464C2.20939 8.52225 2.20244 8.5204 2.1975 8.5191C2.19503 8.51845 2.19306 8.51793 2.19159 8.51755C2.19086 8.51735 2.19026 8.5172 2.18978 8.51707C2.18954 8.51701 2.18933 8.51695 2.18915 8.51691C2.18907 8.51688 2.18896 8.51685 2.18891 8.51685C2.18881 8.51682 2.18872 8.51679 2 9.24266C1.81127 9.96853 1.81119 9.96851 1.81113 9.96849C1.81111 9.96848 1.81105 9.96847 1.81103 9.96847C1.81098 9.96845 1.81096 9.96844 1.81098 9.96845C1.81101 9.96846 1.81116 9.9685 1.81144 9.96857C1.812 9.96872 1.81306 9.96899 1.81462 9.96941C1.81774 9.97023 1.82286 9.97159 1.82993 9.97349C1.84408 9.97728 1.86606 9.98323 1.89561 9.99139C1.9547 10.0077 2.04403 10.0329 2.16145 10.0674C2.3963 10.1365 2.74338 10.2428 3.18538 10.3901C4.06957 10.6847 5.33245 11.1428 6.83591 11.7938L7.43197 10.4173ZM0.588914 83.4912C0.307934 84.2706 0.71192 85.1301 1.49124 85.4111L14.191 89.9899C14.9703 90.2709 15.8299 89.8669 16.1109 89.0876C16.3918 88.3083 15.9879 87.4487 15.2085 87.1677L3.91985 83.0977L7.98992 71.809C8.2709 71.0297 7.86691 70.1701 7.08759 69.8891C6.30827 69.6082 5.44872 70.0121 5.16774 70.7915L0.588914 83.4912ZM31.2021 44.5772L29.7021 44.5772L31.2021 44.5772ZM1.24036 7.94923C0.526023 8.36877 0.287034 9.28795 0.706568 10.0023L7.54326 21.6432C7.9628 22.3575 8.88198 22.5965 9.59632 22.1769C10.3107 21.7574 10.5497 20.8382 10.1301 20.1239L4.05306 9.77646L14.4005 3.69939C15.1148 3.27986 15.3538 2.36067 14.9343 1.64633C14.5148 0.931991 13.5956 0.693 12.8812 1.11254L1.24036 7.94923ZM2 84C2.63804 85.3575 2.63817 85.3575 2.63832 85.3574C2.63837 85.3574 2.63852 85.3573 2.63864 85.3573C2.63886 85.3571 2.63912 85.357 2.63941 85.3569C2.63999 85.3566 2.6407 85.3563 2.64152 85.3559C2.64317 85.3551 2.64531 85.3541 2.64794 85.3529C2.65319 85.3504 2.66038 85.347 2.66948 85.3426C2.68768 85.3339 2.71351 85.3215 2.74672 85.3054C2.81313 85.2732 2.90907 85.2262 3.03244 85.1644C3.27917 85.0408 3.6358 84.8581 4.08574 84.6167C4.98537 84.1341 6.25953 83.4162 7.77508 82.4666L6.18221 79.9244C4.73061 80.8339 3.51545 81.5182 2.66754 81.9731C2.24372 82.2005 1.91203 82.3703 1.68888 82.4821C1.57731 82.538 1.49291 82.5793 1.43773 82.6061C1.41014 82.6194 1.38986 82.6292 1.37715 82.6352C1.37079 82.6383 1.36632 82.6404 1.36378 82.6416C1.36251 82.6422 1.36172 82.6426 1.36141 82.6427C1.36126 82.6428 1.36123 82.6428 1.36132 82.6428C1.36137 82.6427 1.36144 82.6427 1.36155 82.6427C1.3616 82.6426 1.3617 82.6426 1.36173 82.6426C1.36184 82.6425 1.36196 82.6425 2 84ZM12.6056 79.1572C15.3964 77.0725 18.4621 74.4608 21.3398 71.3324L19.1319 69.3014C16.4061 72.2646 13.4869 74.7543 10.8102 76.7537L12.6056 79.1572ZM25.0851 66.7733C27.3368 63.6771 29.3022 60.1892 30.6727 56.3176L27.8447 55.3165C26.586 58.872 24.77 62.1058 22.6588 65.0089L25.0851 66.7733ZM32.1896 50.5423C32.5221 48.6276 32.7021 46.6387 32.7021 44.5772L29.7021 44.5772C29.7021 46.4632 29.5375 48.2804 29.2339 50.029L32.1896 50.5423ZM32.7021 44.5772C32.7021 42.5872 32.5573 40.6919 32.2864 38.888L29.3197 39.3335C29.568 40.987 29.7021 42.7332 29.7021 44.5772L32.7021 44.5772ZM30.978 33.3189C29.7155 29.4373 27.8466 26.0943 25.6623 23.2323L23.2775 25.0523C25.2769 27.6722 26.9771 30.7172 28.125 34.2468L30.978 33.3189ZM21.8656 18.9796C18.8996 16.1159 15.6995 13.9105 12.7788 12.2483L11.2949 14.8556C14.0486 16.4228 17.0341 18.4848 19.7818 21.1378L21.8656 18.9796ZM7.73 9.72909C6.15886 9.04874 4.83416 8.5678 3.8966 8.25542C3.42763 8.09917 3.05494 7.98489 2.79604 7.90878C2.66658 7.87073 2.56551 7.84219 2.49503 7.82271C2.45979 7.81297 2.43219 7.80549 2.4125 7.80022C2.40266 7.79758 2.39479 7.79549 2.38894 7.79395C2.38601 7.79317 2.38359 7.79253 2.38167 7.79203C2.38071 7.79178 2.37988 7.79156 2.37918 7.79137C2.37883 7.79128 2.37851 7.7912 2.37822 7.79113C2.37807 7.79109 2.37788 7.79104 2.37781 7.79102C2.37762 7.79097 2.37745 7.79092 2 9.24266C1.62255 10.6944 1.62239 10.6944 1.62223 10.6943C1.62219 10.6943 1.62205 10.6943 1.62197 10.6942C1.62181 10.6942 1.62168 10.6942 1.62158 10.6941C1.62138 10.6941 1.62131 10.6941 1.62136 10.6941C1.62147 10.6941 1.62208 10.6943 1.62318 10.6946C1.6254 10.6952 1.62959 10.6963 1.63574 10.6979C1.64804 10.7012 1.66815 10.7066 1.6958 10.7143C1.75109 10.7296 1.83652 10.7537 1.94992 10.787C2.17676 10.8537 2.5153 10.9573 2.9483 11.1016C3.81471 11.3903 5.05698 11.8408 6.53788 12.4821L7.73 9.72909Z" fill="url(#paint0_linear)"/>
<path d="M52.4453 63.8999C52.4453 63.8999 31 53.8206 31 34.9488C31 14.5758 52.4453 8.99998 52.4453 8.99998" stroke="url(#paint1_linear)" stroke-width="1.5" stroke-dasharray="10 5"/>
<defs>
<linearGradient id="paint0_linear" x1="16.601" y1="-28.136" x2="-34.0712" y2="-8.34218" gradientUnits="userSpaceOnUse">
<stop stop-color="#EB5F55"/>
<stop offset="1" stop-color="#F2C15F"/>
</linearGradient>
<linearGradient id="paint1_linear" x1="41.7227" y1="-18.45" x2="78.9351" y2="-3.91388" gradientUnits="userSpaceOnUse">
<stop stop-color="#EB5F55"/>
<stop offset="1" stop-color="#F2C15F"/>
</linearGradient>
</defs>
</svg>
