<svg width="360" height="266" viewBox="0 0 360 266" fill="none" xmlns="http://www.w3.org/2000/svg">
<path d="M98.8775 260V259.314H94.2855V255.212H98.5275V254.526H94.2855V251.026H98.7795V250.34H93.5295V260H98.8775ZM106.755 250.97L106.825 250.34C106.825 250.34 106.615 250.2 105.915 250.2C105.215 250.2 104.753 250.62 104.543 250.942C104.333 251.25 104.165 251.74 104.165 252.65V253.532H101.533V252.58C101.533 251.67 101.645 250.83 102.695 250.83C103.045 250.83 103.395 250.97 103.395 250.97L103.465 250.34C103.465 250.34 103.255 250.2 102.555 250.2C101.855 250.2 101.393 250.62 101.183 250.942C100.973 251.25 100.805 251.74 100.805 252.65V253.532H99.8246V254.19H100.805V260H101.533V254.19H104.165V260H104.893V254.19H106.545V253.532H104.893V252.58C104.893 251.67 105.005 250.83 106.055 250.83C106.293 250.83 106.517 250.872 106.755 250.97ZM112.894 256.43C112.894 254.68 111.662 253.392 109.954 253.392C108.232 253.392 106.804 254.75 106.804 256.752C106.804 258.74 108.022 260.14 109.912 260.14C111.802 260.14 112.614 259.16 112.614 259.16L112.264 258.642C112.264 258.642 111.452 259.482 109.982 259.482C108.512 259.482 107.644 258.46 107.574 256.92H112.852C112.852 256.92 112.894 256.64 112.894 256.43ZM112.152 256.29H107.602C107.644 255.38 108.302 254.022 109.912 254.022C111.522 254.022 112.152 255.45 112.152 256.29ZM119.847 259.02L119.427 258.53C119.427 258.53 118.727 259.482 117.257 259.482C115.787 259.482 114.779 258.32 114.779 256.71C114.779 255.1 115.927 254.05 117.229 254.05C118.517 254.05 119.077 254.68 119.357 255.002L119.819 254.512C119.679 254.33 118.979 253.392 117.257 253.392C115.549 253.392 114.009 254.75 114.009 256.752C114.009 258.74 115.437 260.14 117.187 260.14C118.937 260.14 119.609 259.3 119.847 259.02ZM123.735 259.93L123.665 259.3C123.665 259.3 123.385 259.482 122.965 259.482C122.097 259.482 122.013 258.628 122.013 257.914V254.19H123.665V253.532H122.027V251.46H121.285V253.532H120.305V254.19H121.285V257.48C121.285 258.53 121.299 259.006 121.523 259.44C121.761 259.874 122.125 260.14 122.755 260.14C123.175 260.14 123.497 260.07 123.735 259.93ZM126.035 251.194C126.035 250.858 125.769 250.592 125.433 250.592C125.097 250.592 124.831 250.858 124.831 251.194C124.831 251.53 125.097 251.796 125.433 251.796C125.769 251.796 126.035 251.53 126.035 251.194ZM125.797 260V253.504H125.069V260H125.797ZM133.006 253.504H132.236L129.996 258.95L127.756 253.504H126.986L129.716 260H130.276L133.006 253.504ZM139.691 256.43C139.691 254.68 138.459 253.392 136.751 253.392C135.029 253.392 133.601 254.75 133.601 256.752C133.601 258.74 134.819 260.14 136.709 260.14C138.599 260.14 139.411 259.16 139.411 259.16L139.061 258.642C139.061 258.642 138.249 259.482 136.779 259.482C135.309 259.482 134.441 258.46 134.371 256.92H139.649C139.649 256.92 139.691 256.64 139.691 256.43ZM138.949 256.29H134.399C134.441 255.38 135.099 254.022 136.709 254.022C138.319 254.022 138.949 255.45 138.949 256.29ZM146.351 260V256.122C146.351 254.582 145.917 253.392 144.055 253.392C143.117 253.392 142.277 253.938 141.955 254.708V253.504H141.227V260H141.955V256.78C141.955 255.24 142.627 254.022 144.027 254.022C145.427 254.022 145.609 255.1 145.609 256.15V260H146.351ZM153.978 256.43C153.978 254.68 152.746 253.392 151.038 253.392C149.316 253.392 147.888 254.75 147.888 256.752C147.888 258.74 149.106 260.14 150.996 260.14C152.886 260.14 153.698 259.16 153.698 259.16L153.348 258.642C153.348 258.642 152.536 259.482 151.066 259.482C149.596 259.482 148.728 258.46 148.658 256.92H153.936C153.936 256.92 153.978 256.64 153.978 256.43ZM153.236 256.29H148.686C148.728 255.38 149.386 254.022 150.996 254.022C152.606 254.022 153.236 255.45 153.236 256.29ZM159.463 258.222C159.463 256.99 158.245 256.57 157.433 256.29C156.635 256.01 155.935 255.716 155.935 255.044C155.935 254.372 156.453 254.008 157.181 254.008C157.909 254.008 158.357 254.26 158.805 254.75L159.253 254.302C158.749 253.728 158.161 253.392 157.209 253.392C156.257 253.392 155.235 253.952 155.235 255.128C155.235 256.304 156.453 256.724 157.013 256.92C157.573 257.116 158.735 257.41 158.735 258.25C158.735 259.09 158.021 259.482 157.209 259.482C156.397 259.482 155.753 259.076 155.333 258.46L154.815 258.88C155.221 259.552 155.977 260.14 157.181 260.14C158.385 260.14 159.463 259.44 159.463 258.222ZM164.781 258.222C164.781 256.99 163.563 256.57 162.751 256.29C161.953 256.01 161.253 255.716 161.253 255.044C161.253 254.372 161.771 254.008 162.499 254.008C163.227 254.008 163.675 254.26 164.123 254.75L164.571 254.302C164.067 253.728 163.479 253.392 162.527 253.392C161.575 253.392 160.553 253.952 160.553 255.128C160.553 256.304 161.771 256.724 162.331 256.92C162.891 257.116 164.053 257.41 164.053 258.25C164.053 259.09 163.339 259.482 162.527 259.482C161.715 259.482 161.071 259.076 160.651 258.46L160.133 258.88C160.539 259.552 161.295 260.14 162.499 260.14C163.703 260.14 164.781 259.44 164.781 258.222ZM175.251 256.78C175.251 254.82 173.781 253.392 171.919 253.392C170.071 253.392 168.601 254.82 168.601 256.78C168.601 258.74 170.071 260.14 171.919 260.14C173.781 260.14 175.251 258.74 175.251 256.78ZM174.481 256.752C174.481 258.25 173.501 259.482 171.919 259.482C170.351 259.482 169.371 258.25 169.371 256.752C169.371 255.24 170.351 254.022 171.919 254.022C173.501 254.022 174.481 255.24 174.481 256.752ZM179.656 250.97L179.726 250.34C179.726 250.34 179.516 250.2 178.816 250.2C178.116 250.2 177.654 250.62 177.444 250.942C177.234 251.25 177.066 251.74 177.066 252.65V253.532H176.086V254.19H177.066V260H177.794V254.19H179.446V253.532H177.794V252.58C177.794 251.67 177.906 250.83 178.956 250.83C179.194 250.83 179.418 250.872 179.656 250.97ZM183.918 260V250.34H183.162V260H183.918ZM192.313 257.27C192.313 255.94 191.403 255.1 190.045 254.876C190.913 254.624 191.571 253.742 191.571 252.762C191.571 251.782 191.221 251.25 190.661 250.83C190.101 250.41 189.373 250.34 188.421 250.34H186.293V260H188.883C190.003 260 190.703 259.86 191.291 259.37C191.893 258.88 192.313 258.25 192.313 257.27ZM191.501 257.312C191.501 258.04 191.221 258.53 190.661 258.922C190.101 259.3 189.331 259.314 188.631 259.314H187.049V255.324H188.631C189.331 255.324 190.101 255.352 190.661 255.73C191.221 256.122 191.501 256.57 191.501 257.312ZM190.801 252.79C190.801 253.63 190.409 254.036 190.031 254.302C189.667 254.568 189.121 254.652 188.351 254.652H187.049V251.026H188.491C189.709 251.026 190.801 251.334 190.801 252.79ZM199.369 257.48C199.369 256.01 198.193 255.366 197.969 255.24C197.745 255.114 196.667 254.666 195.981 254.372C195.295 254.078 194.539 253.644 194.539 252.552C194.539 251.46 195.435 250.872 196.555 250.872C197.675 250.872 198.235 251.46 198.599 251.922L199.131 251.46C199.047 251.32 198.235 250.2 196.611 250.2C194.987 250.2 193.769 251.18 193.769 252.58C193.769 253.98 194.791 254.61 195.169 254.82C195.561 255.03 196.191 255.296 196.751 255.52C197.311 255.744 198.599 256.22 198.599 257.48C198.599 258.74 197.591 259.51 196.345 259.51C195.099 259.51 194.259 258.656 193.909 258.012L193.321 258.432C193.531 258.824 194.399 260.168 196.275 260.168C198.151 260.168 199.369 258.95 199.369 257.48ZM209.444 251.026V250.34H202.948V251.026H205.818V260H206.574V251.026H209.444ZM213.021 254.204L213.091 253.49C213.091 253.49 212.811 253.392 212.391 253.392C211.691 253.392 210.977 253.84 210.739 254.722V253.504H210.011V260H210.739V256.5C210.739 255.506 211.075 254.092 212.321 254.092C212.671 254.092 212.867 254.148 213.021 254.204ZM219.74 256.43C219.74 254.68 218.508 253.392 216.8 253.392C215.078 253.392 213.65 254.75 213.65 256.752C213.65 258.74 214.868 260.14 216.758 260.14C218.648 260.14 219.46 259.16 219.46 259.16L219.11 258.642C219.11 258.642 218.298 259.482 216.828 259.482C215.358 259.482 214.49 258.46 214.42 256.92H219.698C219.698 256.92 219.74 256.64 219.74 256.43ZM218.998 256.29H214.448C214.49 255.38 215.148 254.022 216.758 254.022C218.368 254.022 218.998 255.45 218.998 256.29ZM225.893 260V256.15C225.893 254.428 225.109 253.392 223.303 253.392C222.323 253.392 221.553 253.77 221.133 254.05L221.413 254.582C221.553 254.47 222.323 254.022 223.331 254.022C224.353 254.022 225.151 254.61 225.151 255.8V256.15L223.373 256.22C221.623 256.29 220.783 257.06 220.783 258.18C220.783 259.3 221.693 260.14 222.953 260.14C224.213 260.14 224.913 259.37 225.151 259.09V260H225.893ZM225.151 256.71V258.32C224.843 258.81 224.143 259.51 223.093 259.51C222.043 259.51 221.511 258.88 221.511 258.18C221.511 257.48 221.945 256.892 223.303 256.822L225.151 256.71ZM230.512 259.93L230.442 259.3C230.442 259.3 230.162 259.482 229.742 259.482C228.874 259.482 228.79 258.628 228.79 257.914V254.19H230.442V253.532H228.804V251.46H228.062V253.532H227.082V254.19H228.062V257.48C228.062 258.53 228.076 259.006 228.3 259.44C228.538 259.874 228.902 260.14 229.532 260.14C229.952 260.14 230.274 260.07 230.512 259.93ZM240.624 260V256.052C240.624 254.75 240.246 253.392 238.454 253.392C237.586 253.392 236.816 253.91 236.396 254.75C236.116 253.91 235.486 253.392 234.464 253.392C233.596 253.392 232.77 253.994 232.504 254.708V253.504H231.776V260H232.504V256.612C232.504 255.24 233.176 254.022 234.436 254.022C235.556 254.022 235.836 254.96 235.836 256.052V260H236.564V256.612C236.564 255.24 237.236 254.022 238.496 254.022C239.756 254.022 239.896 255.24 239.896 256.052V260H240.624ZM248.259 256.43C248.259 254.68 247.027 253.392 245.319 253.392C243.597 253.392 242.169 254.75 242.169 256.752C242.169 258.74 243.387 260.14 245.277 260.14C247.167 260.14 247.979 259.16 247.979 259.16L247.629 258.642C247.629 258.642 246.817 259.482 245.347 259.482C243.877 259.482 243.009 258.46 242.939 256.92H248.217C248.217 256.92 248.259 256.64 248.259 256.43ZM247.517 256.29H242.967C243.009 255.38 243.667 254.022 245.277 254.022C246.887 254.022 247.517 255.45 247.517 256.29ZM254.92 260V256.122C254.92 254.582 254.486 253.392 252.624 253.392C251.686 253.392 250.846 253.938 250.524 254.708V253.504H249.796V260H250.524V256.78C250.524 255.24 251.196 254.022 252.596 254.022C253.996 254.022 254.178 255.1 254.178 256.15V260H254.92ZM259.606 259.93L259.536 259.3C259.536 259.3 259.256 259.482 258.836 259.482C257.968 259.482 257.884 258.628 257.884 257.914V254.19H259.536V253.532H257.898V251.46H257.156V253.532H256.176V254.19H257.156V257.48C257.156 258.53 257.17 259.006 257.394 259.44C257.632 259.874 257.996 260.14 258.626 260.14C259.046 260.14 259.368 260.07 259.606 259.93ZM264.818 258.222C264.818 256.99 263.6 256.57 262.788 256.29C261.99 256.01 261.29 255.716 261.29 255.044C261.29 254.372 261.808 254.008 262.536 254.008C263.264 254.008 263.712 254.26 264.16 254.75L264.608 254.302C264.104 253.728 263.516 253.392 262.564 253.392C261.612 253.392 260.59 253.952 260.59 255.128C260.59 256.304 261.808 256.724 262.368 256.92C262.928 257.116 264.09 257.41 264.09 258.25C264.09 259.09 263.376 259.482 262.564 259.482C261.752 259.482 261.108 259.076 260.688 258.46L260.17 258.88C260.576 259.552 261.332 260.14 262.536 260.14C263.74 260.14 264.818 259.44 264.818 258.222Z" fill="#6872E7"/>
<g filter="url(#filter0_d)">
<rect width="360" height="31" rx="15.5" fill="#F2F2F2"/>
<rect x="0.5" y="0.5" width="359" height="30" rx="15" stroke="#443B76"/>
</g>
<g filter="url(#filter1_d)">
<rect y="50" width="360" height="32" rx="16" fill="#F0F0F0"/>
<rect x="0.5" y="50.5" width="359" height="31" rx="15.5" stroke="#443B76"/>
</g>
<g filter="url(#filter2_d)">
<rect y="101" width="360" height="31" rx="15.5" fill="#F0F0F0"/>
<rect x="0.5" y="101.5" width="359" height="30" rx="15" stroke="#443B76"/>
</g>
<g filter="url(#filter3_d)">
<rect y="151" width="360" height="32" rx="16" fill="#F0F0F0"/>
<rect x="0.5" y="151.5" width="359" height="31" rx="15.5" stroke="#443B76"/>
</g>
<g filter="url(#filter4_d)">
<rect y="202" width="360" height="31" rx="15.5" fill="#F0F0F0"/>
<rect x="0.5" y="202.5" width="359" height="30" rx="15" stroke="#443B76"/>
</g>
<path d="M333.56 218.76V218.06H332.076V211.27H331.39L326.35 218.2V218.76H331.334V221H332.076V218.76H333.56ZM331.334 218.06H327.19L331.334 212.39V218.06ZM341.254 216.184C341.254 213.692 340.204 211.2 337.754 211.2C335.318 211.2 334.254 213.692 334.254 216.184C334.254 218.662 335.304 221.154 337.754 221.154C340.204 221.154 341.254 218.662 341.254 216.184ZM340.442 216.156C340.442 218.676 339.504 220.454 337.754 220.454C336.004 220.454 335.052 218.676 335.052 216.156C335.052 213.636 336.004 211.858 337.754 211.858C339.504 211.858 340.442 213.636 340.442 216.156ZM346.568 213.51C346.568 212.222 345.658 211.312 344.426 211.312C343.208 211.312 342.298 212.222 342.298 213.51C342.298 214.812 343.208 215.722 344.426 215.722C345.658 215.722 346.568 214.812 346.568 213.51ZM349.956 211.452L349.438 211.13L343.488 221L344.006 221.322L349.956 211.452ZM351.146 218.942C351.146 217.64 350.236 216.73 349.018 216.73C347.786 216.73 346.876 217.64 346.876 218.942C346.876 220.23 347.786 221.14 349.018 221.14C350.236 221.14 351.146 220.23 351.146 218.942ZM345.896 213.51C345.896 214.462 345.308 215.12 344.426 215.12C343.558 215.12 342.956 214.462 342.956 213.51C342.956 212.572 343.558 211.9 344.426 211.9C345.308 211.9 345.896 212.572 345.896 213.51ZM350.488 218.942C350.488 219.88 349.886 220.552 349.018 220.552C348.136 220.552 347.548 219.88 347.548 218.942C347.548 217.99 348.136 217.332 349.018 217.332C349.886 217.332 350.488 217.99 350.488 218.942Z" fill="black" fill-opacity="0.5"/>
<path d="M313.56 168.76V168.06H312.076V161.27H311.39L306.35 168.2V168.76H311.334V171H312.076V168.76H313.56ZM311.334 168.06H307.19L311.334 162.39V168.06ZM321.254 166.184C321.254 163.692 320.204 161.2 317.754 161.2C315.318 161.2 314.254 163.692 314.254 166.184C314.254 168.662 315.304 171.154 317.754 171.154C320.204 171.154 321.254 168.662 321.254 166.184ZM320.442 166.156C320.442 168.676 319.504 170.454 317.754 170.454C316.004 170.454 315.052 168.676 315.052 166.156C315.052 163.636 316.004 161.858 317.754 161.858C319.504 161.858 320.442 163.636 320.442 166.156ZM325.028 167.458V166.758H321.962V167.458H325.028ZM332.248 167.99C332.248 165.96 330.638 164.84 329.028 164.84C328.538 164.84 328.006 164.91 327.586 165.12L328.258 162.012H332.038V161.34H327.698L326.788 165.75L327.278 166.03C327.628 165.68 328.328 165.512 328.958 165.512C330.218 165.512 331.478 166.31 331.478 167.99C331.478 169.67 330.218 170.482 328.958 170.482C327.698 170.482 326.858 169.81 326.508 169.11L325.948 169.53C326.228 170.09 327.138 171.168 328.888 171.168C330.638 171.168 332.248 170.02 332.248 167.99ZM340.572 166.184C340.572 163.692 339.522 161.2 337.072 161.2C334.636 161.2 333.572 163.692 333.572 166.184C333.572 168.662 334.622 171.154 337.072 171.154C339.522 171.154 340.572 168.662 340.572 166.184ZM339.76 166.156C339.76 168.676 338.822 170.454 337.072 170.454C335.322 170.454 334.37 168.676 334.37 166.156C334.37 163.636 335.322 161.858 337.072 161.858C338.822 161.858 339.76 163.636 339.76 166.156ZM345.886 163.51C345.886 162.222 344.976 161.312 343.744 161.312C342.526 161.312 341.616 162.222 341.616 163.51C341.616 164.812 342.526 165.722 343.744 165.722C344.976 165.722 345.886 164.812 345.886 163.51ZM349.274 161.452L348.756 161.13L342.806 171L343.324 171.322L349.274 161.452ZM350.464 168.942C350.464 167.64 349.554 166.73 348.336 166.73C347.104 166.73 346.194 167.64 346.194 168.942C346.194 170.23 347.104 171.14 348.336 171.14C349.554 171.14 350.464 170.23 350.464 168.942ZM345.214 163.51C345.214 164.462 344.626 165.12 343.744 165.12C342.876 165.12 342.274 164.462 342.274 163.51C342.274 162.572 342.876 161.9 343.744 161.9C344.626 161.9 345.214 162.572 345.214 163.51ZM349.806 168.942C349.806 169.88 349.204 170.552 348.336 170.552C347.454 170.552 346.866 169.88 346.866 168.942C346.866 167.99 347.454 167.332 348.336 167.332C349.204 167.332 349.806 167.99 349.806 168.942Z" fill="black" fill-opacity="0.5"/>
<path d="M312.93 117.99C312.93 115.96 311.32 114.84 309.71 114.84C309.22 114.84 308.688 114.91 308.268 115.12L308.94 112.012H312.72V111.34H308.38L307.47 115.75L307.96 116.03C308.31 115.68 309.01 115.512 309.64 115.512C310.9 115.512 312.16 116.31 312.16 117.99C312.16 119.67 310.9 120.482 309.64 120.482C308.38 120.482 307.54 119.81 307.19 119.11L306.63 119.53C306.91 120.09 307.82 121.168 309.57 121.168C311.32 121.168 312.93 120.02 312.93 117.99ZM321.254 116.184C321.254 113.692 320.204 111.2 317.754 111.2C315.318 111.2 314.254 113.692 314.254 116.184C314.254 118.662 315.304 121.154 317.754 121.154C320.204 121.154 321.254 118.662 321.254 116.184ZM320.442 116.156C320.442 118.676 319.504 120.454 317.754 120.454C316.004 120.454 315.052 118.676 315.052 116.156C315.052 113.636 316.004 111.858 317.754 111.858C319.504 111.858 320.442 113.636 320.442 116.156ZM325.028 117.458V116.758H321.962V117.458H325.028ZM332.528 117.92C332.528 116.1 331.086 114.938 329.546 114.938C328.006 114.938 327.208 115.82 326.816 116.73C326.816 114.798 327.222 111.83 329.728 111.83C330.708 111.83 331.338 112.25 331.856 112.74L332.276 112.222C332.276 112.222 331.478 111.2 329.756 111.2C326.942 111.2 326.088 114.028 326.088 116.38C326.088 118.606 326.676 121.168 329.448 121.168C331.338 121.168 332.528 119.74 332.528 117.92ZM331.758 118.046C331.758 119.306 331.016 120.496 329.448 120.496C327.866 120.496 327.096 119.306 327.096 118.046C327.096 116.786 327.866 115.596 329.448 115.596C331.016 115.596 331.758 116.786 331.758 118.046ZM340.572 116.184C340.572 113.692 339.522 111.2 337.072 111.2C334.636 111.2 333.572 113.692 333.572 116.184C333.572 118.662 334.622 121.154 337.072 121.154C339.522 121.154 340.572 118.662 340.572 116.184ZM339.76 116.156C339.76 118.676 338.822 120.454 337.072 120.454C335.322 120.454 334.37 118.676 334.37 116.156C334.37 113.636 335.322 111.858 337.072 111.858C338.822 111.858 339.76 113.636 339.76 116.156ZM345.886 113.51C345.886 112.222 344.976 111.312 343.744 111.312C342.526 111.312 341.616 112.222 341.616 113.51C341.616 114.812 342.526 115.722 343.744 115.722C344.976 115.722 345.886 114.812 345.886 113.51ZM349.274 111.452L348.756 111.13L342.806 121L343.324 121.322L349.274 111.452ZM350.464 118.942C350.464 117.64 349.554 116.73 348.336 116.73C347.104 116.73 346.194 117.64 346.194 118.942C346.194 120.23 347.104 121.14 348.336 121.14C349.554 121.14 350.464 120.23 350.464 118.942ZM345.214 113.51C345.214 114.462 344.626 115.12 343.744 115.12C342.876 115.12 342.274 114.462 342.274 113.51C342.274 112.572 342.876 111.9 343.744 111.9C344.626 111.9 345.214 112.572 345.214 113.51ZM349.806 118.942C349.806 119.88 349.204 120.552 348.336 120.552C347.454 120.552 346.866 119.88 346.866 118.942C346.866 117.99 347.454 117.332 348.336 117.332C349.204 117.332 349.806 117.99 349.806 118.942Z" fill="black" fill-opacity="0.5"/>
<path d="M313.21 67.92C313.21 66.1 311.768 64.938 310.228 64.938C308.688 64.938 307.89 65.82 307.498 66.73C307.498 64.798 307.904 61.83 310.41 61.83C311.39 61.83 312.02 62.25 312.538 62.74L312.958 62.222C312.958 62.222 312.16 61.2 310.438 61.2C307.624 61.2 306.77 64.028 306.77 66.38C306.77 68.606 307.358 71.168 310.13 71.168C312.02 71.168 313.21 69.74 313.21 67.92ZM312.44 68.046C312.44 69.306 311.698 70.496 310.13 70.496C308.548 70.496 307.778 69.306 307.778 68.046C307.778 66.786 308.548 65.596 310.13 65.596C311.698 65.596 312.44 66.786 312.44 68.046ZM321.254 66.184C321.254 63.692 320.204 61.2 317.754 61.2C315.318 61.2 314.254 63.692 314.254 66.184C314.254 68.662 315.304 71.154 317.754 71.154C320.204 71.154 321.254 68.662 321.254 66.184ZM320.442 66.156C320.442 68.676 319.504 70.454 317.754 70.454C316.004 70.454 315.052 68.676 315.052 66.156C315.052 63.636 316.004 61.858 317.754 61.858C319.504 61.858 320.442 63.636 320.442 66.156ZM325.028 67.458V66.758H321.962V67.458H325.028ZM332.318 68.382C332.318 67.122 331.548 66.24 330.456 65.89V65.862C331.058 65.61 331.996 65.12 331.996 63.622C331.996 62.11 330.708 61.2 329.238 61.2C327.768 61.2 326.466 62.11 326.466 63.622C326.466 65.12 327.418 65.61 328.006 65.862V65.89C326.928 66.24 326.158 67.122 326.158 68.382C326.158 70.132 327.418 71.154 329.238 71.154C331.058 71.154 332.318 70.132 332.318 68.382ZM331.226 63.706C331.226 64.896 330.358 65.54 329.238 65.54C328.118 65.54 327.236 64.896 327.236 63.706C327.236 62.516 328.118 61.872 329.238 61.872C330.358 61.872 331.226 62.516 331.226 63.706ZM331.548 68.34C331.548 69.67 330.498 70.496 329.238 70.496C327.978 70.496 326.928 69.67 326.928 68.34C326.928 67.01 327.908 66.212 329.238 66.212C330.568 66.212 331.548 67.01 331.548 68.34ZM340.572 66.184C340.572 63.692 339.522 61.2 337.072 61.2C334.636 61.2 333.572 63.692 333.572 66.184C333.572 68.662 334.622 71.154 337.072 71.154C339.522 71.154 340.572 68.662 340.572 66.184ZM339.76 66.156C339.76 68.676 338.822 70.454 337.072 70.454C335.322 70.454 334.37 68.676 334.37 66.156C334.37 63.636 335.322 61.858 337.072 61.858C338.822 61.858 339.76 63.636 339.76 66.156ZM345.886 63.51C345.886 62.222 344.976 61.312 343.744 61.312C342.526 61.312 341.616 62.222 341.616 63.51C341.616 64.812 342.526 65.722 343.744 65.722C344.976 65.722 345.886 64.812 345.886 63.51ZM349.274 61.452L348.756 61.13L342.806 71L343.324 71.322L349.274 61.452ZM350.464 68.942C350.464 67.64 349.554 66.73 348.336 66.73C347.104 66.73 346.194 67.64 346.194 68.942C346.194 70.23 347.104 71.14 348.336 71.14C349.554 71.14 350.464 70.23 350.464 68.942ZM345.214 63.51C345.214 64.462 344.626 65.12 343.744 65.12C342.876 65.12 342.274 64.462 342.274 63.51C342.274 62.572 342.876 61.9 343.744 61.9C344.626 61.9 345.214 62.572 345.214 63.51ZM349.806 68.942C349.806 69.88 349.204 70.552 348.336 70.552C347.454 70.552 346.866 69.88 346.866 68.942C346.866 67.99 347.454 67.332 348.336 67.332C349.204 67.332 349.806 67.99 349.806 68.942Z" fill="black" fill-opacity="0.5"/>
<path d="M313.21 17.92C313.21 16.1 311.768 14.938 310.228 14.938C308.688 14.938 307.89 15.82 307.498 16.73C307.498 14.798 307.904 11.83 310.41 11.83C311.39 11.83 312.02 12.25 312.538 12.74L312.958 12.222C312.958 12.222 312.16 11.2 310.438 11.2C307.624 11.2 306.77 14.028 306.77 16.38C306.77 18.606 307.358 21.168 310.13 21.168C312.02 21.168 313.21 19.74 313.21 17.92ZM312.44 18.046C312.44 19.306 311.698 20.496 310.13 20.496C308.548 20.496 307.778 19.306 307.778 18.046C307.778 16.786 308.548 15.596 310.13 15.596C311.698 15.596 312.44 16.786 312.44 18.046ZM321.254 16.184C321.254 13.692 320.204 11.2 317.754 11.2C315.318 11.2 314.254 13.692 314.254 16.184C314.254 18.662 315.304 21.154 317.754 21.154C320.204 21.154 321.254 18.662 321.254 16.184ZM320.442 16.156C320.442 18.676 319.504 20.454 317.754 20.454C316.004 20.454 315.052 18.676 315.052 16.156C315.052 13.636 316.004 11.858 317.754 11.858C319.504 11.858 320.442 13.636 320.442 16.156ZM325.028 17.458V16.758H321.962V17.458H325.028ZM332.318 18.382C332.318 17.122 331.548 16.24 330.456 15.89V15.862C331.058 15.61 331.996 15.12 331.996 13.622C331.996 12.11 330.708 11.2 329.238 11.2C327.768 11.2 326.466 12.11 326.466 13.622C326.466 15.12 327.418 15.61 328.006 15.862V15.89C326.928 16.24 326.158 17.122 326.158 18.382C326.158 20.132 327.418 21.154 329.238 21.154C331.058 21.154 332.318 20.132 332.318 18.382ZM331.226 13.706C331.226 14.896 330.358 15.54 329.238 15.54C328.118 15.54 327.236 14.896 327.236 13.706C327.236 12.516 328.118 11.872 329.238 11.872C330.358 11.872 331.226 12.516 331.226 13.706ZM331.548 18.34C331.548 19.67 330.498 20.496 329.238 20.496C327.978 20.496 326.928 19.67 326.928 18.34C326.928 17.01 327.908 16.212 329.238 16.212C330.568 16.212 331.548 17.01 331.548 18.34ZM340.572 16.184C340.572 13.692 339.522 11.2 337.072 11.2C334.636 11.2 333.572 13.692 333.572 16.184C333.572 18.662 334.622 21.154 337.072 21.154C339.522 21.154 340.572 18.662 340.572 16.184ZM339.76 16.156C339.76 18.676 338.822 20.454 337.072 20.454C335.322 20.454 334.37 18.676 334.37 16.156C334.37 13.636 335.322 11.858 337.072 11.858C338.822 11.858 339.76 13.636 339.76 16.156ZM345.886 13.51C345.886 12.222 344.976 11.312 343.744 11.312C342.526 11.312 341.616 12.222 341.616 13.51C341.616 14.812 342.526 15.722 343.744 15.722C344.976 15.722 345.886 14.812 345.886 13.51ZM349.274 11.452L348.756 11.13L342.806 21L343.324 21.322L349.274 11.452ZM350.464 18.942C350.464 17.64 349.554 16.73 348.336 16.73C347.104 16.73 346.194 17.64 346.194 18.942C346.194 20.23 347.104 21.14 348.336 21.14C349.554 21.14 350.464 20.23 350.464 18.942ZM345.214 13.51C345.214 14.462 344.626 15.12 343.744 15.12C342.876 15.12 342.274 14.462 342.274 13.51C342.274 12.572 342.876 11.9 343.744 11.9C344.626 11.9 345.214 12.572 345.214 13.51ZM349.806 18.942C349.806 19.88 349.204 20.552 348.336 20.552C347.454 20.552 346.866 19.88 346.866 18.942C346.866 17.99 347.454 17.332 348.336 17.332C349.204 17.332 349.806 17.99 349.806 18.942Z" fill="black" fill-opacity="0.5"/>
<rect x="0.5" y="0.5" width="294" height="30" rx="15" fill="#6872E7" stroke="#443B76"/>
<rect x="0.5" y="50.5" width="294" height="31" rx="15.5" fill="#6872E7" stroke="#443B76"/>
<rect x="0.5" y="101.5" width="208" height="30" rx="15" fill="#FDEBD7" stroke="#443B76"/>
<rect x="0.5" y="151.5" width="171" height="31" rx="15.5" fill="#FDEBD7" stroke="#443B76"/>
<rect x="0.5" y="202.5" width="131" height="30" rx="15" fill="#FDEBD7" stroke="#443B76"/>
<path d="M29.4333 19.67L28.9433 19.18C28.2433 19.95 27.1933 20.454 25.8633 20.454C23.4833 20.454 21.8033 18.676 21.8033 16.156C21.8033 13.636 23.4833 11.886 25.8633 11.886C27.2633 11.886 28.3833 12.53 28.8733 13.16L29.3633 12.6C28.6633 11.9 27.5433 11.2 25.8633 11.2C23.1333 11.2 20.9913 13.244 20.9913 16.184C20.9913 19.124 23.0633 21.168 25.8633 21.168C27.6133 21.168 28.7333 20.44 29.4333 19.67ZM37.0606 18.27C37.0606 16.94 36.1506 16.1 34.7926 15.876C35.6606 15.624 36.3186 14.742 36.3186 13.762C36.3186 12.782 35.9686 12.25 35.4086 11.83C34.8486 11.41 34.1206 11.34 33.1686 11.34H31.0406V21H33.6306C34.7506 21 35.4506 20.86 36.0386 20.37C36.6406 19.88 37.0606 19.25 37.0606 18.27ZM36.2486 18.312C36.2486 19.04 35.9686 19.53 35.4086 19.922C34.8486 20.3 34.0786 20.314 33.3786 20.314H31.7966V16.324H33.3786C34.0786 16.324 34.8486 16.352 35.4086 16.73C35.9686 17.122 36.2486 17.57 36.2486 18.312ZM35.5486 13.79C35.5486 14.63 35.1566 15.036 34.7786 15.302C34.4146 15.568 33.8686 15.652 33.0986 15.652H31.7966V12.026H33.2386C34.4566 12.026 35.5486 12.334 35.5486 13.79ZM43.9241 12.026V11.34H37.4281V12.026H40.2981V21H41.0541V12.026H43.9241Z" fill="white"/>
<path d="M29.0833 71V61.34H28.3273V65.484H22.3493V61.34H21.5933V71H22.3493V66.17H28.3273V71H29.0833ZM36.3644 64.504H35.5944L33.3544 70.16L31.1144 64.504H30.3444L32.9624 70.902L32.5844 71.98C32.2764 72.862 32.0104 73.002 31.6184 73.002C31.2264 73.002 30.9744 72.862 30.9744 72.862L30.8344 73.562C30.8344 73.562 31.1704 73.73 31.6184 73.73C32.0664 73.73 32.6264 73.59 33.0744 72.512L36.3644 64.504ZM43.8484 67.78C43.8484 65.862 42.6304 64.392 40.6284 64.392C39.6484 64.392 38.7524 64.84 38.2064 65.764V64.504H37.4784V73.66H38.2064V69.782C38.8364 70.762 39.7184 71.14 40.6564 71.14C42.5884 71.14 43.8484 69.712 43.8484 67.78ZM43.0784 67.78C43.0784 69.292 42.1964 70.482 40.6284 70.482C39.0464 70.482 38.1784 69.264 38.1784 67.78C38.1784 66.254 39.0464 65.022 40.6284 65.022C42.1964 65.022 43.0784 66.282 43.0784 67.78ZM50.5851 71V67.122C50.5851 65.582 50.1511 64.392 48.2891 64.392C47.3511 64.392 46.5111 64.938 46.1891 65.708V64.504H45.4611V71H46.1891V67.78C46.1891 66.24 46.8611 65.022 48.2611 65.022C49.6611 65.022 49.8431 66.1 49.8431 67.15V71H50.5851ZM58.7715 67.78C58.7715 65.82 57.3015 64.392 55.4395 64.392C53.5915 64.392 52.1215 65.82 52.1215 67.78C52.1215 69.74 53.5915 71.14 55.4395 71.14C57.3015 71.14 58.7715 69.74 58.7715 67.78ZM58.0015 67.752C58.0015 69.25 57.0215 70.482 55.4395 70.482C53.8715 70.482 52.8915 69.25 52.8915 67.752C52.8915 66.24 53.8715 65.022 55.4395 65.022C57.0215 65.022 58.0015 66.24 58.0015 67.752ZM63.0371 70.93L62.9671 70.3C62.9671 70.3 62.6871 70.482 62.2671 70.482C61.3991 70.482 61.3151 69.628 61.3151 68.914V65.19H62.9671V64.532H61.3291V62.46H60.5871V64.532H59.6071V65.19H60.5871V68.48C60.5871 69.53 60.6011 70.006 60.8251 70.44C61.0631 70.874 61.4271 71.14 62.0571 71.14C62.4771 71.14 62.7991 71.07 63.0371 70.93ZM69.495 71V67.122C69.495 65.582 69.061 64.392 67.199 64.392C66.261 64.392 65.421 64.938 65.099 65.708V61.34H64.371V71H65.099V67.78C65.099 66.24 65.771 65.022 67.171 65.022C68.571 65.022 68.753 66.1 68.753 67.15V71H69.495ZM77.2018 67.43C77.2018 65.68 75.9698 64.392 74.2618 64.392C72.5398 64.392 71.1118 65.75 71.1118 67.752C71.1118 69.74 72.3298 71.14 74.2198 71.14C76.1098 71.14 76.9218 70.16 76.9218 70.16L76.5718 69.642C76.5718 69.642 75.7598 70.482 74.2898 70.482C72.8198 70.482 71.9518 69.46 71.8818 67.92H77.1598C77.1598 67.92 77.2018 67.64 77.2018 67.43ZM76.4598 67.29H71.9098C71.9518 66.38 72.6098 65.022 74.2198 65.022C75.8298 65.022 76.4598 66.45 76.4598 67.29ZM81.7485 65.204L81.8185 64.49C81.8185 64.49 81.5385 64.392 81.1185 64.392C80.4185 64.392 79.7045 64.84 79.4665 65.722V64.504H78.7385V71H79.4665V67.5C79.4665 66.506 79.8025 65.092 81.0485 65.092C81.3985 65.092 81.5945 65.148 81.7485 65.204ZM87.1423 71V67.15C87.1423 65.428 86.3583 64.392 84.5523 64.392C83.5723 64.392 82.8023 64.77 82.3823 65.05L82.6623 65.582C82.8023 65.47 83.5723 65.022 84.5803 65.022C85.6023 65.022 86.4003 65.61 86.4003 66.8V67.15L84.6223 67.22C82.8723 67.29 82.0323 68.06 82.0323 69.18C82.0323 70.3 82.9423 71.14 84.2023 71.14C85.4623 71.14 86.1623 70.37 86.4003 70.09V71H87.1423ZM86.4003 67.71V69.32C86.0923 69.81 85.3923 70.51 84.3423 70.51C83.2923 70.51 82.7603 69.88 82.7603 69.18C82.7603 68.48 83.1943 67.892 84.5523 67.822L86.4003 67.71ZM95.5418 67.78C95.5418 65.862 94.3238 64.392 92.3218 64.392C91.3418 64.392 90.4458 64.84 89.8998 65.764V64.504H89.1718V73.66H89.8998V69.782C90.5298 70.762 91.4118 71.14 92.3498 71.14C94.2818 71.14 95.5418 69.712 95.5418 67.78ZM94.7718 67.78C94.7718 69.292 93.8898 70.482 92.3218 70.482C90.7398 70.482 89.8718 69.264 89.8718 67.78C89.8718 66.254 90.7398 65.022 92.3218 65.022C93.8898 65.022 94.7718 66.282 94.7718 67.78ZM101.839 64.504H101.069L98.829 70.16L96.589 64.504H95.819L98.437 70.902L98.059 71.98C97.751 72.862 97.485 73.002 97.093 73.002C96.701 73.002 96.449 72.862 96.449 72.862L96.309 73.562C96.309 73.562 96.645 73.73 97.093 73.73C97.541 73.73 98.101 73.59 98.549 72.512L101.839 64.504Z" fill="white"/>
<path d="M29.4753 121V111.34H28.7193V119.67L22.3493 111.34H21.5933V121H22.3493V112.53L28.7893 121H29.4753ZM36.7189 121V114.504H35.9909V117.99C35.9909 119.25 35.4309 120.51 33.9889 120.51C32.5609 120.51 32.3789 119.46 32.3789 118.48V114.504H31.6509V118.368C31.6509 119.964 32.0989 121.14 33.8909 121.14C34.8009 121.14 35.5709 120.72 35.9909 119.95V121H36.7189ZM41.4766 120.93L41.4066 120.3C41.4066 120.3 41.1266 120.482 40.7066 120.482C39.8386 120.482 39.7546 119.628 39.7546 118.914V115.19H41.4066V114.532H39.7686V112.46H39.0266V114.532H38.0466V115.19H39.0266V118.48C39.0266 119.53 39.0406 120.006 39.2646 120.44C39.5026 120.874 39.8666 121.14 40.4966 121.14C40.9166 121.14 41.2386 121.07 41.4766 120.93ZM45.7504 115.204L45.8204 114.49C45.8204 114.49 45.5404 114.392 45.1204 114.392C44.4204 114.392 43.7064 114.84 43.4684 115.722V114.504H42.7404V121H43.4684V117.5C43.4684 116.506 43.8044 115.092 45.0504 115.092C45.4004 115.092 45.5964 115.148 45.7504 115.204ZM47.9737 112.194C47.9737 111.858 47.7077 111.592 47.3717 111.592C47.0357 111.592 46.7697 111.858 46.7697 112.194C46.7697 112.53 47.0357 112.796 47.3717 112.796C47.7077 112.796 47.9737 112.53 47.9737 112.194ZM47.7357 121V114.504H47.0077V121H47.7357ZM52.5645 120.93L52.4945 120.3C52.4945 120.3 52.2145 120.482 51.7945 120.482C50.9265 120.482 50.8425 119.628 50.8425 118.914V115.19H52.4945V114.532H50.8565V112.46H50.1145V114.532H49.1345V115.19H50.1145V118.48C50.1145 119.53 50.1285 120.006 50.3525 120.44C50.5905 120.874 50.9545 121.14 51.5845 121.14C52.0045 121.14 52.3265 121.07 52.5645 120.93ZM54.8643 112.194C54.8643 111.858 54.5983 111.592 54.2623 111.592C53.9263 111.592 53.6603 111.858 53.6603 112.194C53.6603 112.53 53.9263 112.796 54.2623 112.796C54.5983 112.796 54.8643 112.53 54.8643 112.194ZM54.6263 121V114.504H53.8983V121H54.6263ZM62.9551 117.78C62.9551 115.82 61.4851 114.392 59.6231 114.392C57.7751 114.392 56.3051 115.82 56.3051 117.78C56.3051 119.74 57.7751 121.14 59.6231 121.14C61.4851 121.14 62.9551 119.74 62.9551 117.78ZM62.1851 117.752C62.1851 119.25 61.2051 120.482 59.6231 120.482C58.0551 120.482 57.0751 119.25 57.0751 117.752C57.0751 116.24 58.0551 115.022 59.6231 115.022C61.2051 115.022 62.1851 116.24 62.1851 117.752ZM69.6847 121V117.122C69.6847 115.582 69.2507 114.392 67.3887 114.392C66.4507 114.392 65.6107 114.938 65.2887 115.708V114.504H64.5607V121H65.2887V117.78C65.2887 116.24 65.9607 115.022 67.3607 115.022C68.7607 115.022 68.9427 116.1 68.9427 117.15V121H69.6847Z" fill="#443B76"/>
<path d="M31.4633 171L30.4833 161.34H29.6013L26.2693 169.586L22.9513 161.34H22.0833L21.1033 171H21.8593L22.6573 162.6L26.2413 171.168H26.3113L29.8813 162.614L30.7073 171H31.4633ZM38.8111 167.43C38.8111 165.68 37.5791 164.392 35.8711 164.392C34.1491 164.392 32.7211 165.75 32.7211 167.752C32.7211 169.74 33.9391 171.14 35.8291 171.14C37.7191 171.14 38.5311 170.16 38.5311 170.16L38.1811 169.642C38.1811 169.642 37.3691 170.482 35.8991 170.482C34.4291 170.482 33.5611 169.46 33.4911 167.92H38.7691C38.7691 167.92 38.8111 167.64 38.8111 167.43ZM38.0691 167.29H33.5191C33.5611 166.38 34.2191 165.022 35.8291 165.022C37.4391 165.022 38.0691 166.45 38.0691 167.29ZM39.9262 167.752C39.9262 169.67 41.1862 171.14 43.1462 171.14C44.1262 171.14 45.0082 170.72 45.5542 169.796V171H46.2962V161.34H45.5542V165.722C44.9242 164.77 44.0562 164.392 43.1182 164.392C41.1862 164.392 39.9262 165.82 39.9262 167.752ZM40.6962 167.752C40.6962 166.24 41.5782 165.022 43.1462 165.022C44.7282 165.022 45.5962 166.24 45.5962 167.752C45.5962 169.25 44.7282 170.482 43.1462 170.482C41.5782 170.482 40.6962 169.25 40.6962 167.752ZM49.5049 162.194C49.5049 161.858 49.2389 161.592 48.9029 161.592C48.5669 161.592 48.3009 161.858 48.3009 162.194C48.3009 162.53 48.5669 162.796 48.9029 162.796C49.2389 162.796 49.5049 162.53 49.5049 162.194ZM49.2669 171V164.504H48.5389V171H49.2669ZM56.7837 170.02L56.3637 169.53C56.3637 169.53 55.6637 170.482 54.1937 170.482C52.7237 170.482 51.7157 169.32 51.7157 167.71C51.7157 166.1 52.8637 165.05 54.1657 165.05C55.4537 165.05 56.0137 165.68 56.2937 166.002L56.7557 165.512C56.6157 165.33 55.9157 164.392 54.1937 164.392C52.4857 164.392 50.9457 165.75 50.9457 167.752C50.9457 169.74 52.3737 171.14 54.1237 171.14C55.8737 171.14 56.5457 170.3 56.7837 170.02ZM62.7654 171V167.15C62.7654 165.428 61.9814 164.392 60.1754 164.392C59.1954 164.392 58.4254 164.77 58.0054 165.05L58.2854 165.582C58.4254 165.47 59.1954 165.022 60.2034 165.022C61.2254 165.022 62.0234 165.61 62.0234 166.8V167.15L60.2454 167.22C58.4954 167.29 57.6554 168.06 57.6554 169.18C57.6554 170.3 58.5654 171.14 59.8254 171.14C61.0854 171.14 61.7854 170.37 62.0234 170.09V171H62.7654ZM62.0234 167.71V169.32C61.7154 169.81 61.0154 170.51 59.9654 170.51C58.9154 170.51 58.3834 169.88 58.3834 169.18C58.3834 168.48 58.8174 167.892 60.1754 167.822L62.0234 167.71ZM67.3848 170.93L67.3148 170.3C67.3148 170.3 67.0348 170.482 66.6148 170.482C65.7468 170.482 65.6628 169.628 65.6628 168.914V165.19H67.3148V164.532H65.6768V162.46H64.9348V164.532H63.9548V165.19H64.9348V168.48C64.9348 169.53 64.9488 170.006 65.1728 170.44C65.4108 170.874 65.7748 171.14 66.4048 171.14C66.8248 171.14 67.1468 171.07 67.3848 170.93ZM69.6846 162.194C69.6846 161.858 69.4186 161.592 69.0826 161.592C68.7466 161.592 68.4806 161.858 68.4806 162.194C68.4806 162.53 68.7466 162.796 69.0826 162.796C69.4186 162.796 69.6846 162.53 69.6846 162.194ZM69.4466 171V164.504H68.7186V171H69.4466ZM77.7754 167.78C77.7754 165.82 76.3054 164.392 74.4434 164.392C72.5954 164.392 71.1254 165.82 71.1254 167.78C71.1254 169.74 72.5954 171.14 74.4434 171.14C76.3054 171.14 77.7754 169.74 77.7754 167.78ZM77.0054 167.752C77.0054 169.25 76.0254 170.482 74.4434 170.482C72.8754 170.482 71.8954 169.25 71.8954 167.752C71.8954 166.24 72.8754 165.022 74.4434 165.022C76.0254 165.022 77.0054 166.24 77.0054 167.752ZM84.5051 171V167.122C84.5051 165.582 84.0711 164.392 82.2091 164.392C81.2711 164.392 80.4311 164.938 80.1091 165.708V164.504H79.3811V171H80.1091V167.78C80.1091 166.24 80.7811 165.022 82.1811 165.022C83.5811 165.022 83.7631 166.1 83.7631 167.15V171H84.5051Z" fill="#443B76"/>
<path d="M26.9133 213.916C26.9133 213.076 26.5913 212.502 26.0313 212.012C25.4713 211.522 24.7153 211.34 23.8053 211.34H21.5933V221H22.3493V216.492H23.8053C24.7153 216.492 25.4713 216.31 26.0313 215.82C26.5913 215.33 26.9133 214.756 26.9133 213.916ZM26.1153 213.916C26.1153 215.288 25.0513 215.806 23.8333 215.806H22.3493V212.026H23.8333C25.0513 212.026 26.1153 212.544 26.1153 213.916ZM33.0017 221V217.15C33.0017 215.428 32.2177 214.392 30.4117 214.392C29.4317 214.392 28.6617 214.77 28.2417 215.05L28.5217 215.582C28.6617 215.47 29.4317 215.022 30.4397 215.022C31.4617 215.022 32.2597 215.61 32.2597 216.8V217.15L30.4817 217.22C28.7317 217.29 27.8917 218.06 27.8917 219.18C27.8917 220.3 28.8017 221.14 30.0617 221.14C31.3217 221.14 32.0217 220.37 32.2597 220.09V221H33.0017ZM32.2597 217.71V219.32C31.9517 219.81 31.2517 220.51 30.2017 220.51C29.1517 220.51 28.6197 219.88 28.6197 219.18C28.6197 218.48 29.0537 217.892 30.4117 217.822L32.2597 217.71ZM37.6211 220.93L37.5511 220.3C37.5511 220.3 37.2711 220.482 36.8511 220.482C35.9831 220.482 35.8991 219.628 35.8991 218.914V215.19H37.5511V214.532H35.9131V212.46H35.1711V214.532H34.1911V215.19H35.1711V218.48C35.1711 219.53 35.1851 220.006 35.4091 220.44C35.6471 220.874 36.0111 221.14 36.6411 221.14C37.0611 221.14 37.3831 221.07 37.6211 220.93ZM39.921 212.194C39.921 211.858 39.655 211.592 39.319 211.592C38.983 211.592 38.717 211.858 38.717 212.194C38.717 212.53 38.983 212.796 39.319 212.796C39.655 212.796 39.921 212.53 39.921 212.194ZM39.683 221V214.504H38.955V221H39.683ZM47.4518 217.43C47.4518 215.68 46.2198 214.392 44.5118 214.392C42.7898 214.392 41.3618 215.75 41.3618 217.752C41.3618 219.74 42.5798 221.14 44.4698 221.14C46.3598 221.14 47.1718 220.16 47.1718 220.16L46.8218 219.642C46.8218 219.642 46.0098 220.482 44.5398 220.482C43.0698 220.482 42.2018 219.46 42.1318 217.92H47.4098C47.4098 217.92 47.4518 217.64 47.4518 217.43ZM46.7098 217.29H42.1598C42.2018 216.38 42.8598 215.022 44.4698 215.022C46.0798 215.022 46.7098 216.45 46.7098 217.29ZM54.1125 221V217.122C54.1125 215.582 53.6785 214.392 51.8165 214.392C50.8785 214.392 50.0385 214.938 49.7165 215.708V214.504H48.9885V221H49.7165V217.78C49.7165 216.24 50.3885 215.022 51.7885 215.022C53.1885 215.022 53.3705 216.1 53.3705 217.15V221H54.1125ZM58.7989 220.93L58.7289 220.3C58.7289 220.3 58.4489 220.482 58.0289 220.482C57.1609 220.482 57.0769 219.628 57.0769 218.914V215.19H58.7289V214.532H57.0909V212.46H56.3489V214.532H55.3689V215.19H56.3489V218.48C56.3489 219.53 56.3629 220.006 56.5869 220.44C56.8249 220.874 57.1889 221.14 57.8189 221.14C58.2389 221.14 58.5609 221.07 58.7989 220.93ZM68.4654 217.43C68.4654 215.68 67.2334 214.392 65.5254 214.392C63.8034 214.392 62.3754 215.75 62.3754 217.752C62.3754 219.74 63.5934 221.14 65.4834 221.14C67.3734 221.14 68.1854 220.16 68.1854 220.16L67.8354 219.642C67.8354 219.642 67.0234 220.482 65.5534 220.482C64.0834 220.482 63.2154 219.46 63.1454 217.92H68.4234C68.4234 217.92 68.4654 217.64 68.4654 217.43ZM67.7234 217.29H63.1734C63.2154 216.38 63.8734 215.022 65.4834 215.022C67.0934 215.022 67.7234 216.45 67.7234 217.29ZM69.5805 217.752C69.5805 219.67 70.8405 221.14 72.8005 221.14C73.7805 221.14 74.6625 220.72 75.2085 219.796V221H75.9505V211.34H75.2085V215.722C74.5785 214.77 73.7105 214.392 72.7725 214.392C70.8405 214.392 69.5805 215.82 69.5805 217.752ZM70.3505 217.752C70.3505 216.24 71.2325 215.022 72.8005 215.022C74.3825 215.022 75.2505 216.24 75.2505 217.752C75.2505 219.25 74.3825 220.482 72.8005 220.482C71.2325 220.482 70.3505 219.25 70.3505 217.752ZM83.1212 221V214.504H82.3932V217.99C82.3932 219.25 81.8332 220.51 80.3912 220.51C78.9632 220.51 78.7812 219.46 78.7812 218.48V214.504H78.0532V218.368C78.0532 219.964 78.5012 221.14 80.2932 221.14C81.2032 221.14 81.9732 220.72 82.3932 219.95V221H83.1212ZM90.5669 220.02L90.1469 219.53C90.1469 219.53 89.4469 220.482 87.9769 220.482C86.5069 220.482 85.4989 219.32 85.4989 217.71C85.4989 216.1 86.6469 215.05 87.9489 215.05C89.2369 215.05 89.7969 215.68 90.0769 216.002L90.5389 215.512C90.3989 215.33 89.6989 214.392 87.9769 214.392C86.2689 214.392 84.7289 215.75 84.7289 217.752C84.7289 219.74 86.1569 221.14 87.9069 221.14C89.6569 221.14 90.3289 220.3 90.5669 220.02ZM96.5486 221V217.15C96.5486 215.428 95.7646 214.392 93.9586 214.392C92.9786 214.392 92.2086 214.77 91.7886 215.05L92.0686 215.582C92.2086 215.47 92.9786 215.022 93.9866 215.022C95.0086 215.022 95.8066 215.61 95.8066 216.8V217.15L94.0286 217.22C92.2786 217.29 91.4386 218.06 91.4386 219.18C91.4386 220.3 92.3486 221.14 93.6086 221.14C94.8686 221.14 95.5686 220.37 95.8066 220.09V221H96.5486ZM95.8066 217.71V219.32C95.4986 219.81 94.7986 220.51 93.7486 220.51C92.6986 220.51 92.1666 219.88 92.1666 219.18C92.1666 218.48 92.6006 217.892 93.9586 217.822L95.8066 217.71ZM101.168 220.93L101.098 220.3C101.098 220.3 100.818 220.482 100.398 220.482C99.53 220.482 99.446 219.628 99.446 218.914V215.19H101.098V214.532H99.46V212.46H98.718V214.532H97.738V215.19H98.718V218.48C98.718 219.53 98.732 220.006 98.956 220.44C99.194 220.874 99.558 221.14 100.188 221.14C100.608 221.14 100.93 221.07 101.168 220.93ZM103.468 212.194C103.468 211.858 103.202 211.592 102.866 211.592C102.53 211.592 102.264 211.858 102.264 212.194C102.264 212.53 102.53 212.796 102.866 212.796C103.202 212.796 103.468 212.53 103.468 212.194ZM103.23 221V214.504H102.502V221H103.23ZM111.559 217.78C111.559 215.82 110.089 214.392 108.227 214.392C106.379 214.392 104.909 215.82 104.909 217.78C104.909 219.74 106.379 221.14 108.227 221.14C110.089 221.14 111.559 219.74 111.559 217.78ZM110.789 217.752C110.789 219.25 109.809 220.482 108.227 220.482C106.659 220.482 105.679 219.25 105.679 217.752C105.679 216.24 106.659 215.022 108.227 215.022C109.809 215.022 110.789 216.24 110.789 217.752ZM118.288 221V217.122C118.288 215.582 117.854 214.392 115.992 214.392C115.054 214.392 114.214 214.938 113.892 215.708V214.504H113.164V221H113.892V217.78C113.892 216.24 114.564 215.022 115.964 215.022C117.364 215.022 117.546 216.1 117.546 217.15V221H118.288Z" fill="#443B76"/>
<defs>
<filter id="filter0_d" x="0" y="0" width="360" height="33" filterUnits="userSpaceOnUse" color-interpolation-filters="sRGB">
<feFlood flood-opacity="0" result="BackgroundImageFix"/>
<feColorMatrix in="SourceAlpha" type="matrix" values="0 0 0 0 0 0 0 0 0 0 0 0 0 0 0 0 0 0 127 0"/>
<feOffset dy="2"/>
<feColorMatrix type="matrix" values="0 0 0 0 0 0 0 0 0 0 0 0 0 0 0 0 0 0 0.05 0"/>
<feBlend mode="normal" in2="BackgroundImageFix" result="effect1_dropShadow"/>
<feBlend mode="normal" in="SourceGraphic" in2="effect1_dropShadow" result="shape"/>
</filter>
<filter id="filter1_d" x="0" y="50" width="360" height="34" filterUnits="userSpaceOnUse" color-interpolation-filters="sRGB">
<feFlood flood-opacity="0" result="BackgroundImageFix"/>
<feColorMatrix in="SourceAlpha" type="matrix" values="0 0 0 0 0 0 0 0 0 0 0 0 0 0 0 0 0 0 127 0"/>
<feOffset dy="2"/>
<feColorMatrix type="matrix" values="0 0 0 0 0 0 0 0 0 0 0 0 0 0 0 0 0 0 0.05 0"/>
<feBlend mode="normal" in2="BackgroundImageFix" result="effect1_dropShadow"/>
<feBlend mode="normal" in="SourceGraphic" in2="effect1_dropShadow" result="shape"/>
</filter>
<filter id="filter2_d" x="0" y="101" width="360" height="33" filterUnits="userSpaceOnUse" color-interpolation-filters="sRGB">
<feFlood flood-opacity="0" result="BackgroundImageFix"/>
<feColorMatrix in="SourceAlpha" type="matrix" values="0 0 0 0 0 0 0 0 0 0 0 0 0 0 0 0 0 0 127 0"/>
<feOffset dy="2"/>
<feColorMatrix type="matrix" values="0 0 0 0 0 0 0 0 0 0 0 0 0 0 0 0 0 0 0.05 0"/>
<feBlend mode="normal" in2="BackgroundImageFix" result="effect1_dropShadow"/>
<feBlend mode="normal" in="SourceGraphic" in2="effect1_dropShadow" result="shape"/>
</filter>
<filter id="filter3_d" x="0" y="151" width="360" height="34" filterUnits="userSpaceOnUse" color-interpolation-filters="sRGB">
<feFlood flood-opacity="0" result="BackgroundImageFix"/>
<feColorMatrix in="SourceAlpha" type="matrix" values="0 0 0 0 0 0 0 0 0 0 0 0 0 0 0 0 0 0 127 0"/>
<feOffset dy="2"/>
<feColorMatrix type="matrix" values="0 0 0 0 0 0 0 0 0 0 0 0 0 0 0 0 0 0 0.05 0"/>
<feBlend mode="normal" in2="BackgroundImageFix" result="effect1_dropShadow"/>
<feBlend mode="normal" in="SourceGraphic" in2="effect1_dropShadow" result="shape"/>
</filter>
<filter id="filter4_d" x="0" y="202" width="360" height="33" filterUnits="userSpaceOnUse" color-interpolation-filters="sRGB">
<feFlood flood-opacity="0" result="BackgroundImageFix"/>
<feColorMatrix in="SourceAlpha" type="matrix" values="0 0 0 0 0 0 0 0 0 0 0 0 0 0 0 0 0 0 127 0"/>
<feOffset dy="2"/>
<feColorMatrix type="matrix" values="0 0 0 0 0 0 0 0 0 0 0 0 0 0 0 0 0 0 0.05 0"/>
<feBlend mode="normal" in2="BackgroundImageFix" result="effect1_dropShadow"/>
<feBlend mode="normal" in="SourceGraphic" in2="effect1_dropShadow" result="shape"/>
</filter>
</defs>
</svg>
