<svg width="889" height="408" viewBox="0 0 889 408" fill="none" xmlns="http://www.w3.org/2000/svg">
<circle cx="260.5" cy="222.5" r="150.5" fill="white"/>
<circle cx="367.5" cy="104.5" r="69.5" fill="white"/>
<circle cx="379.5" cy="233.5" r="150.5" fill="white"/>
<circle cx="608.5" cy="218.5" r="150.5" fill="white"/>
<circle cx="73" cy="105" r="73" transform="rotate(-180 73 105)" fill="white"/>
<circle cx="561.5" cy="136.5" r="136.5" fill="white"/>
<circle cx="734.5" cy="253.5" r="154.5" fill="white"/>
<path d="M107.027 124.984C106.864 125.88 106.622 126.761 106.304 127.615C102.361 137.943 87.0364 141.64 69.7006 138.614C50.9848 135.351 37.1187 125.063 39.2085 113.116C40.3125 106.774 44.7549 102.59 51.1819 100.367L51.0899 100.88C49.6836 108.958 59.8038 115.668 73.3018 117.984C78.0699 118.884 82.9517 119.008 87.7593 118.352C94.4097 117.313 99.1544 114.3 100.022 109.366V109.235C105.292 113.695 108.039 119.142 107.027 124.984Z" fill="#FDEBD7"/>
<path d="M99.9961 109.116C98.2744 119.01 89.1662 120.957 77.7448 119.642C76.115 119.471 74.6167 119.247 73.0001 118.971C59.4758 116.602 49.0795 111.3 50.959 100.551C51.2572 98.8769 51.9363 97.2942 52.9437 95.9253C53.9511 94.5563 55.2598 93.4379 56.7683 92.6565L57.0049 92.5381C61.9073 90.0514 65.1405 89.1567 68.9126 87.4595C72.0389 85.9982 74.8788 83.9886 77.2979 81.5257C79.8621 78.4363 81.7676 74.8542 82.8969 71C88.5616 74.4866 90.5988 82.7361 89.3896 89.9462C88.9703 93.0408 87.7566 95.9737 85.8672 98.4588C83.6752 101.021 80.5741 102.63 77.219 102.945C75.5236 103.116 73.7887 103.524 73.7098 105.143C73.7098 106.458 75.7864 106.59 77.403 106.458C80.3154 106.217 83.0914 105.119 85.3809 103.301C88.0232 101.232 90.0502 98.4792 91.2428 95.3406C97.4595 98.7746 100.956 103.669 99.9961 109.116Z" fill="#FDEBD7"/>
<path d="M497.477 96.7782C502.104 90.1997 516.219 127.289 544.503 134.315C580.318 143.236 613.518 122.356 613.518 122.356L622.718 120.908C622.718 120.908 594.921 175.313 547.802 161.261C495.992 145.815 492.956 103.186 497.477 96.7782Z" fill="#FDEBD7"/>
<path d="M617.908 128.921C621.115 124.211 618.184 116.145 618.184 116.145L613.216 115.146C613.216 115.146 611.796 123.487 608.787 124.987L617.908 128.921Z" fill="#FDEBD7"/>
<path d="M498.752 127.724C501.591 120.224 524.526 152.551 553.664 152.288C590.557 151.972 617.487 123.343 617.487 123.343L626.096 119.606C626.096 119.606 612.782 179.3 563.706 177.497C509.582 175.55 495.966 135.052 498.752 127.724Z" fill="#FDEBD7"/>
<path d="M623.389 128.618C624.47 125.673 625.383 122.668 626.123 119.619L618.237 116.106C618.237 116.106 616.16 124.803 613.623 127.066L623.389 128.618Z" fill="#FDEBD7"/>
<path d="M258.038 166C298.574 166 328.869 196.682 327.495 233.577C326.904 244.48 320.298 250.649 309.525 254.141C307.631 258.24 304.631 261.729 300.864 264.215C297.096 266.701 292.71 268.084 288.2 268.209C286.264 268.209 284.136 268.121 281.919 267.928C282.451 272.115 288.23 275.665 286.722 277.811C285.688 279.29 283.663 279.985 280.634 280H280.338L265.427 264.26C262.193 263.089 259.288 261.156 256.959 258.623H241.679C228.231 258.623 221.334 251.276 220.99 236.581C202.33 236.581 193 228.627 193 212.718C193.059 187.835 217.517 166 258.038 166Z" fill="#FDEBD7"/>
<path d="M670.069 321.472C658.887 309.086 666.223 273.644 674.123 272.243C682.024 270.841 700.144 287.976 712.621 297.767C725.098 307.559 743.866 310.467 755.027 309.965C766.187 309.463 801.341 297.182 815.636 256.363C829.932 215.544 805.96 194.497 788.989 190.605C779.346 188.16 769.173 188.894 759.98 192.697C757.134 190.903 754.553 188.72 752.31 186.212C748.255 182.027 750.408 171.294 747.21 169.474C744.012 167.654 732.956 171.399 731.075 175.227C728.442 180.604 733.416 191.421 737.617 198.095C740.71 203.054 749.049 209.037 749.049 209.037C749.049 209.037 745.434 222.218 743.741 230.231C738.014 257.555 721.399 262.284 710.824 260.045C682.839 254.103 681.062 253.057 670.027 257.953C658.992 262.849 652.847 274.691 649.399 290.277C646.361 304.203 648.306 318.754 654.896 331.389C662.315 344.946 681.355 333.983 670.069 321.472Z" fill="#FDEBD7"/>
</svg>
