<svg width="140" height="119" viewBox="0 0 140 119" fill="none" xmlns="http://www.w3.org/2000/svg">
<path d="M139.306 78.6843C136.881 95.4261 116.948 116.855 92.6247 118.491C67.2688 120.197 32 109.561 32 83.0247C32 56.488 59.1426 39 92.6247 39C126.107 39 141.731 61.9425 139.306 78.6843Z" fill="#F5A622"/>
<path d="M120.511 84.9805C118.805 96.7848 107.81 110.775 84.2488 110.775C60.6874 110.775 45 102.095 45 88.0409C45 73.9865 64.1003 57 87.6618 57C111.223 57 122.218 73.1762 120.511 84.9805Z" fill="#F8CB95"/>
<ellipse cx="52.3332" cy="86.0876" rx="3.98334" ry="4.97917" fill="#333333"/>
<ellipse cx="40.9833" cy="83.9792" rx="3.98334" ry="4.97917" fill="#333333"/>
<path d="M65.85 24.4083C64.3619 34.7056 52.13 47.8857 37.2034 48.892C21.6433 49.941 0 43.3997 0 27.078C0 10.7562 16.6565 0 37.2034 0C57.7503 0 67.3381 14.1111 65.85 24.4083Z" fill="#D0EFE2"/>
<path d="M44.9114 25.5691C44.032 31.7154 38.3664 39 26.2251 39C14.0838 39 6 34.4806 6 27.1626C6 19.8446 15.8425 11 27.9838 11C40.1252 11 45.7907 19.4228 44.9114 25.5691Z" fill="#DAF6F5"/>
<ellipse cx="7.5" cy="29.5" rx="2.5" ry="3.5" fill="black"/>
<ellipse cx="15.5" cy="28.5" rx="2.5" ry="3.5" fill="black"/>
</svg>
