<svg width="96" height="92" viewBox="0 0 96 92" fill="none" xmlns="http://www.w3.org/2000/svg">
<circle cx="7.96224" cy="61.0438" r="7.96224" fill="#E01212"/>
<circle r="6.19286" transform="matrix(1 -1.67765e-06 -1.67765e-06 1 16.8093 15.04)" fill="#E01212"/>
<circle r="7.96224" transform="matrix(1 -2.67354e-06 -2.67353e-06 1 87.5845 32.7337)" fill="#E01212"/>
<circle cx="46.0041" cy="46.0039" r="42.4653" fill="#F58967"/>
<circle r="9.73163" transform="matrix(1 -1.06759e-06 -1.06759e-06 1 64.5822 9.73162)" fill="#E01212"/>
<ellipse cx="36.5469" cy="40.5" rx="29" ry="28.5" fill="#F6A976"/>
<circle cx="35.4679" cy="83.2415" r="7.96224" fill="#E01212"/>
<circle cx="12.3053" cy="71.6605" r="7.96224" fill="#E01212"/>
<circle r="6.19286" transform="matrix(1 1.75976e-06 1.75976e-06 1 66.1909 84.3682)" fill="#E01212"/>
<circle cx="10.4235" cy="46.4235" r="4.42347" fill="black"/>
<circle cx="23.4235" cy="46.4235" r="4.42347" fill="black"/>
<circle r="7.96224" transform="matrix(1 -1.3687e-06 -1.3687e-06 1 55.7359 60.0789)" fill="#E01212"/>
<circle cx="82.2769" cy="55.7357" r="7.96224" fill="#E01212"/>
<circle cx="34.5033" cy="7.96224" r="7.96224" fill="#E01212"/>
<circle r="5.30816" transform="matrix(1 -2.05305e-06 -2.05305e-06 1 55.4944 31.3667)" fill="#E01212"/>
</svg>
