<svg width="50" height="46" viewBox="0 0 50 46" fill="none" xmlns="http://www.w3.org/2000/svg">
<path d="M49.9761 21.7398C49.9761 21.6692 49.9761 21.6221 49.9761 21.5515C49.9761 18.7749 47.7437 16.5394 44.9353 16.4453C44.9113 16.4453 44.8632 16.4453 44.8392 16.4453C44.8152 16.4453 44.7912 16.4453 44.7672 16.4453C44.7432 16.4453 44.7432 16.4453 44.7192 16.4453C44.6712 16.4453 44.5992 16.4453 44.5512 16.4453C44.5272 16.4453 44.5032 16.4453 44.4792 16.4453C42.4149 16.563 40.3265 17.8336 38.5982 18.9866C36.4859 20.3985 34.6136 22.1868 32.3572 23.3163C28.5166 25.2459 23.8839 25.1047 19.6832 24.1164C18.459 23.834 17.2348 23.4575 15.9866 23.3163C12.242 22.8692 8.23338 24.4929 6.09704 27.5519C3.96069 30.6109 3.50462 34.7759 6.67313 38.1643C16.0106 48.1414 31.9492 48.5885 42.1268 39.435C47.3596 34.7288 49.8801 28.399 50.0001 21.9515C49.9761 21.8574 49.9761 21.8104 49.9761 21.7398Z" fill="#EB6054"/>
<path d="M31.9487 10.2097C32.7168 11.4333 34.3491 12.1157 35.7653 11.7392C36.3654 11.5745 36.9175 11.2451 37.3496 10.8215C38.5017 9.6685 38.7418 7.7625 37.9497 6.37418C37.1335 4.96232 34.8532 3.85637 33.3169 4.82114C31.5406 5.92709 30.7965 8.42136 31.9487 10.2097Z" fill="#EB6054"/>
<path d="M0 21.669C0 17.0805 3.21652 14.3274 6.8891 13.4803C10.5857 12.6332 14.6423 14.0921 17.0907 16.9158C17.9069 17.857 18.555 18.9159 19.2511 19.9513C21.6755 23.4809 24.964 26.6341 29.1407 27.7635C31.6131 28.4224 34.2055 28.3283 36.7259 28.7048C39.2463 29.0813 42.2948 29.646 43.735 31.7167C44.6952 33.105 45.0552 36.517 43.0869 38.423C38.5262 43.0821 32.1171 46 25.012 46C11.2098 46.0235 0 35.2228 0 21.669Z" fill="url(#paint0_linear)"/>
<path d="M34.9256 43.9999C31.8771 45.2941 28.5166 46 24.988 46C11.1858 46 0 35.0346 0 21.5043C0 14.1862 3.26452 7.62112 8.44935 3.12673C9.9616 1.92665 11.3298 1.07954 12.9381 0.514798C14.5463 -0.049943 16.3466 -0.214659 17.9309 0.350082C19.5391 0.914823 20.8833 2.32668 21.0514 3.97384C21.2434 5.90337 19.9232 7.62112 18.819 9.22122C17.7148 10.8213 16.7307 12.892 17.5948 14.6333C18.0989 15.6216 19.1071 16.2805 20.1632 16.7276C21.2194 17.1511 22.3236 17.4335 23.3317 17.9276C25.5161 18.9865 27.1243 21.1514 27.4604 23.5045C27.6044 24.4928 27.5564 25.4811 27.6524 26.4694C27.8925 28.8695 29.1167 31.1755 30.965 32.7756C32.2132 33.858 33.7494 34.611 34.9496 35.7405C36.1258 36.8465 36.9659 38.3524 37.0379 39.929C37.1099 41.5291 36.3178 43.1763 34.9016 43.9528L34.9256 43.9999Z" fill="url(#paint1_linear)"/>
<defs>
<linearGradient id="paint0_linear" x1="0.000768123" y1="29.6302" x2="44.5311" y2="29.6302" gradientUnits="userSpaceOnUse">
<stop stop-color="#F6C383"/>
<stop offset="0.1591" stop-color="#F6BC80"/>
<stop offset="0.3901" stop-color="#F6A976"/>
<stop offset="0.6647" stop-color="#F58967"/>
<stop offset="0.9536" stop-color="#F46053"/>
</linearGradient>
<linearGradient id="paint1_linear" x1="0.000768123" y1="23.0274" x2="37.0425" y2="23.0274" gradientUnits="userSpaceOnUse">
<stop stop-color="#F6C383"/>
<stop offset="0.1591" stop-color="#F6BC80"/>
<stop offset="0.3901" stop-color="#F6A976"/>
<stop offset="0.6647" stop-color="#F58967"/>
<stop offset="0.9536" stop-color="#F46053"/>
</linearGradient>
</defs>
</svg>
