<svg width="282" height="473" viewBox="0 0 282 473" fill="none" xmlns="http://www.w3.org/2000/svg">
<path d="M279.251 397.053C264.568 370.383 218.622 396.258 172.599 397.053C112.906 398.088 28.8977 382.877 28.8977 349.066C28.8977 315.254 127.767 328.673 160.283 328.673C192.798 328.673 269.002 326.352 268.445 285.133C267.927 247.137 196.357 230.454 152.841 230.911C101.704 231.468 46.5417 233.389 30.6988 210.598C14.8559 187.807 24.0946 159.46 49.3102 149.942C74.5257 140.425 115.885 192.526 152.841 201.522C189.796 210.519 243.081 184.082 258.839 129.826C274.597 75.5709 267.081 30.7595 231.822 20.9919C196.564 11.2243 177.235 35.6313 177.235 35.6313C172.967 32.9168 169.091 29.6304 165.715 25.8637C159.626 19.4182 162.869 3.32455 158.054 0.678734C153.239 -1.96708 136.604 3.58316 133.799 9.37212C129.839 17.4886 137.301 33.821 143.608 43.887C148.264 51.3669 160.8 60.4184 160.8 60.4184C160.8 60.4184 155.388 80.3117 152.841 92.4069C144.205 133.666 129.409 139.24 103.336 137.406C76.9273 135.548 64.3195 116.388 34.3905 129.826C4.46151 143.264 -14.6952 192.513 14.4888 227.312C39.7043 257.38 114.001 250.269 152.841 251.303C190.01 252.278 244.808 263.848 243.375 285.133C242.241 301.784 200.157 308.131 160.283 307.354C120.408 306.577 1.28075 293.887 1.28075 349.066C1.28075 404.244 108.688 419.871 171.326 418.319C218.185 417.185 251.634 397.053 258.716 409.367C265.798 421.681 203.421 447.98 200.157 453.968C195.7 462.224 195.692 476.932 218.614 472.018C226.533 470.327 293.935 423.723 279.251 397.053Z" fill="url(#paint0_linear)"/>
<path d="M58.9795 138.764C58.5506 141.618 55.7872 145 49.8651 145C43.943 145 40 142.902 40 139.504C40 136.106 44.8008 132 50.7229 132C56.645 132 59.4084 135.911 58.9795 138.764Z" fill="#B6ABF2"/>
<path d="M236.034 302.369C236.373 300.173 238.554 297.572 243.23 297.572C247.905 297.572 251.018 299.186 251.018 301.799C251.018 304.413 247.228 307.572 242.553 307.572C237.877 307.572 235.695 304.564 236.034 302.369Z" fill="#F6C383"/>
<path d="M261.182 285.545C261.884 287.177 261.508 289.866 258.336 291.846C255.164 293.825 252.367 294.048 251.257 292.275C250.148 290.502 251.379 286.754 254.551 284.775C257.723 282.795 260.48 283.912 261.182 285.545Z" fill="#F6C383"/>
<ellipse rx="4.75571" ry="4.75002" transform="matrix(-1 0 0 1 231.313 107.417)" fill="#E01212"/>
<ellipse rx="3.69888" ry="3.69446" transform="matrix(-1 0 0 1 226.029 79.9718)" fill="#E01212"/>
<ellipse rx="4.75571" ry="4.75002" transform="matrix(-1 0 0 1 183.756 90.5279)" fill="#E01212"/>
<ellipse rx="25.3638" ry="25.3334" transform="matrix(-1 0 0 1 208.592 98.4443)" fill="#F58967"/>
<ellipse rx="5.81253" ry="5.80558" transform="matrix(-1 0 0 1 197.495 76.8056)" fill="#E01212"/>
<path d="M187.29 102.936C187.29 109.137 194.409 117.636 200.617 117.636C206.825 117.636 211.858 112.61 211.858 106.409C211.858 100.208 199.419 88.7422 193.211 88.7422C187.003 88.7422 187.29 96.7352 187.29 102.936Z" fill="#F6A976"/>
<ellipse rx="4.75571" ry="4.75002" transform="matrix(-1 0 0 1 214.885 120.659)" fill="#E01212"/>
<ellipse rx="4.75571" ry="4.75002" transform="matrix(-1 0 0 1 228.719 113.751)" fill="#E01212"/>
<ellipse rx="3.69888" ry="3.69446" transform="matrix(-1 0 0 1 196.534 121.331)" fill="#E01212"/>
<ellipse rx="2.64206" ry="2.6389" transform="matrix(-1 0 0 1 227.086 93.6946)" fill="black"/>
<ellipse rx="2.64206" ry="2.6389" transform="matrix(-1 0 0 1 218.631 93.6946)" fill="black"/>
<ellipse rx="4.75571" ry="4.75002" transform="matrix(-1 0 0 1 202.779 106.841)" fill="#E01212"/>
<ellipse rx="4.75571" ry="4.75002" transform="matrix(-1 0 0 1 186.926 104.25)" fill="#E01212"/>
<ellipse rx="4.75571" ry="4.75002" transform="matrix(-1 0 0 1 215.46 75.75)" fill="#E01212"/>
<ellipse rx="3.17047" ry="3.16668" transform="matrix(-1 0 0 1 202.923 89.7126)" fill="#E01212"/>
<defs>
<linearGradient id="paint0_linear" x1="140.668" y1="7.76389" x2="140.668" y2="301" gradientUnits="userSpaceOnUse">
<stop stop-color="#EB6054"/>
<stop offset="1" stop-color="#F58967"/>
</linearGradient>
</defs>
</svg>
