<svg width="120" height="102" viewBox="0 0 120 102" fill="none" xmlns="http://www.w3.org/2000/svg">
<path d="M78.1045 100.387L65.1405 86.7015L64.9776 86.5295L64.7549 86.4489C62.0299 85.4628 59.5823 83.8337 57.6196 81.6995L57.3225 81.3764H56.8835H43.2935C37.4932 81.3764 33.2729 79.7961 30.4523 76.791C27.6171 73.7703 26.043 69.1485 25.8928 62.7489L25.8699 61.7724H24.8931C16.714 61.7724 10.7662 60.0257 6.87204 56.7058C3.00864 53.4121 1.00023 48.4252 1 41.5512C1.05149 20.202 22.0953 1 57.843 1C93.3755 1 119.811 27.8618 118.617 60.0556C118.364 64.6922 116.842 68.2582 114.284 71.0407C111.708 73.8431 108.018 75.9178 103.325 77.4385L102.909 77.5734L102.726 77.9705C101.12 81.4478 98.5754 84.407 95.3802 86.515C92.1888 88.6205 88.4744 89.7934 84.6543 89.9022C82.966 89.9018 81.1071 89.8241 79.1688 89.656L77.9341 89.5488L78.0903 90.7783C78.2341 91.9098 78.7239 92.9463 79.2883 93.8555C79.8089 94.694 80.4333 95.4852 80.9798 96.1778C81.0247 96.2347 81.069 96.2909 81.1127 96.3463C81.7179 97.1147 82.174 97.7162 82.418 98.2215C82.6511 98.7041 82.565 98.825 82.5376 98.8635L82.5357 98.8662L82.5343 98.8681C81.9188 99.7484 80.6031 100.349 78.1045 100.387Z" fill="#6872E7" stroke="#443B76" stroke-width="2"/>
</svg>
