<svg width="1040" height="525" viewBox="0 0 1040 525" fill="none" xmlns="http://www.w3.org/2000/svg">
<circle r="9.12299" transform="matrix(-1 0 0 1 284.353 114.943)" fill="#E01212"/>
<circle r="7.09566" transform="matrix(-1 0 0 1 274.216 62.2319)" fill="#E01212"/>
<circle r="9.12299" transform="matrix(-1 0 0 1 193.123 82.5058)" fill="#E01212"/>
<circle r="48.656" transform="matrix(-1 0 0 1 240.766 97.7102)" fill="#F58967"/>
<circle r="11.1503" transform="matrix(-1 0 0 1 219.479 56.1503)" fill="#E01212"/>
<path d="M199.903 106.337C199.903 118.246 213.56 134.571 225.469 134.571C237.378 134.571 247.032 124.917 247.032 113.008C247.032 101.099 223.171 79.0762 211.262 79.0762C199.352 79.0762 199.903 94.4278 199.903 106.337Z" fill="#F6A976"/>
<circle r="9.12299" transform="matrix(-1 0 0 1 252.838 140.377)" fill="#E01212"/>
<circle r="9.12299" transform="matrix(-1 0 0 1 279.377 127.108)" fill="#E01212"/>
<circle r="7.09566" transform="matrix(-1 0 0 1 217.635 141.667)" fill="#E01212"/>
<circle r="5.06833" transform="matrix(-1 0 0 1 276.243 88.5879)" fill="black"/>
<circle r="5.06833" transform="matrix(-1 0 0 1 260.025 88.5879)" fill="black"/>
<circle r="9.12299" transform="matrix(-1 0 0 1 229.614 113.837)" fill="#E01212"/>
<circle r="9.12299" transform="matrix(-1 0 0 1 199.205 108.861)" fill="#E01212"/>
<circle r="9.12299" transform="matrix(-1 0 0 1 253.943 54.123)" fill="#E01212"/>
<circle r="6.082" transform="matrix(-1 0 0 1 229.893 80.9394)" fill="#E01212"/>
<circle cx="128" cy="75" r="75" transform="rotate(-180 128 75)" fill="white"/>
<path fill-rule="evenodd" clip-rule="evenodd" d="M801.248 107.58C786.875 47.5913 732.895 3 668.5 3C627.159 3 590.11 21.3783 565.079 50.4105C543.252 43.6442 520.051 40 496 40C367.318 40 263 144.318 263 273C263 286.258 264.107 299.258 266.235 311.912C245.929 260.987 196.167 225 138 225C61.7847 225 0 286.785 0 363C0 439.215 61.7847 501 138 501C214.215 501 276 439.215 276 363C276 357.721 275.704 352.512 275.127 347.387C306.168 439.593 393.329 506 496 506C566.569 506 629.811 474.628 672.539 425.069C709.083 474.184 767.576 506 833.5 506C944.233 506 1034 416.233 1034 305.5C1034 194.767 944.233 105 833.5 105C822.521 105 811.748 105.882 801.248 107.58Z" fill="white"/>
<path d="M326.194 223H350.944V219.7H330.594L350.644 191.05V188.5H326.744V191.8H345.844L326.194 220.05V223ZM375.735 219.65L374.135 217.45C374.135 217.45 370.835 220.4 366.235 220.4C361.235 220.4 357.885 217 357.835 212.15H376.335C376.335 212.15 376.485 211.05 376.485 210.2C376.485 203.75 372.035 199.1 365.585 199.1C358.585 199.1 354.035 204.55 354.035 211.2C354.035 218.75 358.685 223.5 365.585 223.5C370.185 223.5 373.585 222.2 375.735 219.65ZM372.735 209.35H357.885C358.185 205.7 360.735 202.15 365.435 202.2C370.585 202.25 372.735 206.05 372.735 209.35ZM399.412 204.15C398.562 201.25 396.462 199.1 391.862 199.1C389.012 199.1 386.562 200.9 385.412 203.3H385.262L385.312 199.55H381.612V223H385.312V210.65C385.312 206.05 387.512 202.3 391.362 202.3C395.562 202.3 396.312 206.2 396.312 209.05V223H400.012V210.65C400.012 206.05 402.162 202.3 406.012 202.3C410.212 202.3 410.962 206.2 410.962 209.05V223H414.662V208.85C414.662 203.95 413.362 199.1 406.512 199.1C403.212 199.1 400.412 201.25 399.412 204.15ZM441.457 219.65L439.857 217.45C439.857 217.45 436.557 220.4 431.957 220.4C426.957 220.4 423.607 217 423.557 212.15H442.057C442.057 212.15 442.207 211.05 442.207 210.2C442.207 203.75 437.757 199.1 431.307 199.1C424.307 199.1 419.757 204.55 419.757 211.2C419.757 218.75 424.407 223.5 431.307 223.5C435.907 223.5 439.307 222.2 441.457 219.65ZM438.457 209.35H423.607C423.907 205.7 426.457 202.15 431.157 202.2C436.307 202.25 438.457 206.05 438.457 209.35ZM465.979 223H469.579V188.5H465.879V203.55H465.779C464.079 200.75 460.929 199.1 457.329 199.1C450.429 199.1 445.929 204.35 445.929 211.3C445.929 218.35 449.979 223.5 457.129 223.5C461.079 223.5 464.229 221.75 465.929 218.95H465.979V223ZM457.879 220.3C452.729 220.3 449.729 216.2 449.729 211.15C449.729 206.05 452.729 202.25 457.879 202.25C463.079 202.25 465.979 206.1 465.979 211.2C465.979 216.25 463.079 220.3 457.879 220.3ZM483.076 223L481.776 226.05C480.426 229.25 479.576 229.3 478.376 229.3C477.326 229.3 476.026 228.75 476.026 228.75L475.276 231.9C475.276 231.9 476.826 232.7 478.926 232.7C481.426 232.7 483.026 231.55 484.826 227.25L496.276 199.55L492.426 199.5L484.976 218.85L477.376 199.55L473.526 199.5L483.076 223ZM525.088 199.5V212.5C525.088 216.6 523.038 220.2 518.838 220.2C514.488 220.2 513.088 217.8 513.088 213.45V199.5H509.338V213.7C509.338 219.3 510.988 223.4 517.688 223.4C521.038 223.4 524.038 221.75 525.088 219.25L525.138 223H528.738V199.5H525.088ZM535.316 217L533.366 219.35C535.116 221.85 538.216 223.5 542.066 223.5C546.916 223.5 550.666 220.85 550.666 216.35C550.666 211.3 545.466 210.1 543.116 209.3C540.516 208.45 538.116 207.45 538.116 205.3C538.116 203.1 539.816 201.95 542.266 201.95C544.366 201.95 546.516 202.7 548.166 204.1L549.966 201.85C548.316 200.35 546.066 199.1 542.266 199.1C538.466 199.1 534.716 201.35 534.716 205.65C534.716 210.6 539.716 211.75 541.416 212.3C543.216 212.9 547.166 213.85 547.166 216.65C547.166 219.45 544.716 220.55 542.166 220.55C539.916 220.55 537.566 219.55 535.316 217ZM575.783 219.65L574.183 217.45C574.183 217.45 570.883 220.4 566.283 220.4C561.283 220.4 557.933 217 557.883 212.15H576.383C576.383 212.15 576.533 211.05 576.533 210.2C576.533 203.75 572.083 199.1 565.633 199.1C558.633 199.1 554.083 204.55 554.083 211.2C554.083 218.75 558.733 223.5 565.633 223.5C570.233 223.5 573.633 222.2 575.783 219.65ZM572.783 209.35H557.933C558.233 205.7 560.783 202.15 565.483 202.2C570.633 202.25 572.783 206.05 572.783 209.35ZM581.361 217L579.411 219.35C581.161 221.85 584.261 223.5 588.111 223.5C592.961 223.5 596.711 220.85 596.711 216.35C596.711 211.3 591.511 210.1 589.161 209.3C586.561 208.45 584.161 207.45 584.161 205.3C584.161 203.1 585.861 201.95 588.311 201.95C590.411 201.95 592.561 202.7 594.211 204.1L596.011 201.85C594.361 200.35 592.111 199.1 588.311 199.1C584.511 199.1 580.761 201.35 580.761 205.65C580.761 210.6 585.761 211.75 587.461 212.3C589.261 212.9 593.211 213.85 593.211 216.65C593.211 219.45 590.761 220.55 588.211 220.55C585.961 220.55 583.611 219.55 581.361 217ZM631.239 219.8L629.639 217.1C629.639 217.1 627.289 220.2 622.439 220.2C617.489 220.2 613.889 216.6 613.889 211.25C613.889 205.85 617.539 202.45 622.089 202.45C625.739 202.45 627.789 203.7 629.339 205.15L630.989 202.25C629.389 200.8 627.139 199.1 621.939 199.1C615.739 199.1 610.089 203.9 610.089 211.3C610.089 219.05 615.439 223.55 621.739 223.55C627.639 223.55 630.139 221.05 631.239 219.8ZM645.873 223.5C652.723 223.5 658.123 218.55 658.123 211.35C658.123 204.2 652.723 199.1 645.873 199.1C639.023 199.1 633.673 204.2 633.673 211.35C633.673 218.55 639.023 223.5 645.873 223.5ZM645.873 220.25C640.673 220.25 637.473 216.25 637.473 211.25C637.473 206.2 640.673 202.3 645.873 202.3C651.073 202.3 654.323 206.2 654.323 211.25C654.323 216.25 651.073 220.25 645.873 220.25ZM681.797 218.4V219.7C681.797 225.55 679.597 229.75 673.147 229.75C669.497 229.75 666.197 227.9 664.647 226.7L662.797 229.35C663.147 229.6 667.047 232.9 672.947 232.9C678.897 232.9 681.747 230.2 683.247 228.1C684.747 226.05 685.497 223.25 685.497 218V199.55H681.797L681.847 203.6H681.747C680.297 201.15 677.347 199.1 673.047 199.1C666.947 199.1 661.847 203.65 661.847 211C661.847 218.8 666.947 222.85 673.147 222.85C677.147 222.85 679.997 221.2 681.697 218.4H681.797ZM673.797 219.75C668.497 219.75 665.647 215.85 665.647 210.95C665.647 206.1 668.397 202.25 673.697 202.25C678.747 202.25 681.947 205.6 681.947 210.95C681.947 215.85 679.147 219.75 673.797 219.75ZM703.7 199.1C700.35 199.1 697.45 200.85 696.4 203.35H696.25V199.55H692.55V223H696.25V209.8C696.25 205.75 698.35 202.3 702.55 202.3C706.9 202.3 708.3 204.7 708.3 209.05V223H712V208.8C712 203.2 710.4 199.1 703.7 199.1ZM723.568 191.5C723.568 190.05 722.468 188.95 720.968 188.95C719.418 188.95 718.318 190.05 718.318 191.5C718.318 192.95 719.418 194.05 720.968 194.05C722.468 194.05 723.518 192.95 723.568 191.5ZM719.118 223H722.818V199.55H719.118V223ZM740.55 222.75L740.35 219.75C740.35 219.75 739.2 220.3 737.75 220.3C736.65 220.3 735.75 220 735.35 219.4C734.6 218.3 734.6 216.65 734.6 214.75V202.7H740.4V199.6H734.65V192.35H730.9V199.6H727.4V202.7H730.9V214C730.9 218.25 730.9 223.5 736.5 223.5C738.1 223.5 739.45 223.25 740.55 222.75ZM749.496 191.5C749.496 190.05 748.396 188.95 746.896 188.95C745.346 188.95 744.246 190.05 744.246 191.5C744.246 192.95 745.346 194.05 746.896 194.05C748.396 194.05 749.446 192.95 749.496 191.5ZM745.046 223H748.746V199.55H745.046V223ZM762.428 223H765.528L775.378 199.55H771.528L764.028 218.2L756.478 199.55H752.628L762.428 223ZM798.928 219.65L797.328 217.45C797.328 217.45 794.028 220.4 789.428 220.4C784.428 220.4 781.078 217 781.028 212.15H799.528C799.528 212.15 799.678 211.05 799.678 210.2C799.678 203.75 795.228 199.1 788.778 199.1C781.778 199.1 777.228 204.55 777.228 211.2C777.228 218.75 781.878 223.5 788.778 223.5C793.378 223.5 796.778 222.2 798.928 219.65ZM795.928 209.35H781.078C781.378 205.7 783.928 202.15 788.628 202.2C793.778 202.25 795.928 206.05 795.928 209.35ZM283.791 278H287.391V273.95H287.491C289.291 277.1 292.741 278.5 296.191 278.5C302.741 278.5 307.441 273.15 307.441 266.2C307.441 259.25 303.291 254.1 296.091 254.1C291.941 254.1 288.841 256.45 287.541 258.65H287.491V243.5H283.791V278ZM295.391 275.25C290.191 275.25 287.341 271.3 287.341 266.25C287.341 261.15 290.791 257.2 295.491 257.2C300.691 257.2 303.641 261.15 303.641 266.25C303.641 271.3 300.591 275.25 295.391 275.25ZM332.888 274.65L331.288 272.45C331.288 272.45 327.988 275.4 323.388 275.4C318.388 275.4 315.038 272 314.988 267.15H333.488C333.488 267.15 333.638 266.05 333.638 265.2C333.638 258.75 329.188 254.1 322.738 254.1C315.738 254.1 311.188 259.55 311.188 266.2C311.188 273.75 315.838 278.5 322.738 278.5C327.338 278.5 330.738 277.2 332.888 274.65ZM329.888 264.35H315.038C315.338 260.7 317.888 257.15 322.588 257.2C327.738 257.25 329.888 261.05 329.888 264.35ZM350.166 254.1C346.816 254.1 343.916 255.85 342.866 258.35H342.716V243.5H339.016V278H342.716V264.8C342.716 260.75 344.816 257.3 349.016 257.3C353.366 257.3 354.766 259.7 354.766 264.05V278H358.466V263.8C358.466 258.2 356.866 254.1 350.166 254.1ZM379.075 278H382.725V264.25C382.725 257.65 379.775 254.1 372.925 254.1C369.225 254.1 366.125 255.5 364.575 256.4L365.825 259.05C366.475 258.6 369.275 257.2 372.775 257.2C376.325 257.2 378.975 258.95 378.975 262.9V263.95L372.625 264.25C366.225 264.55 363.275 267.35 363.275 271.35C363.275 275.65 366.875 278.5 371.325 278.5C375.775 278.5 378.125 275.9 379.025 274.9L379.075 278ZM379.025 266.65V272.2C377.925 273.7 375.275 275.55 372.075 275.55C369.075 275.55 367.125 273.65 367.125 271.3C367.125 268.9 368.575 267.15 372.925 266.95L379.025 266.65ZM394.971 278H398.071L407.921 254.55H404.071L396.571 273.2L389.021 254.55H385.171L394.971 278ZM416.268 246.5C416.268 245.05 415.168 243.95 413.668 243.95C412.118 243.95 411.018 245.05 411.018 246.5C411.018 247.95 412.118 249.05 413.668 249.05C415.168 249.05 416.218 247.95 416.268 246.5ZM411.818 278H415.518V254.55H411.818V278ZM433.3 278.5C440.15 278.5 445.55 273.55 445.55 266.35C445.55 259.2 440.15 254.1 433.3 254.1C426.45 254.1 421.1 259.2 421.1 266.35C421.1 273.55 426.45 278.5 433.3 278.5ZM433.3 275.25C428.1 275.25 424.9 271.25 424.9 266.25C424.9 261.2 428.1 257.3 433.3 257.3C438.5 257.3 441.75 261.2 441.75 266.25C441.75 271.25 438.5 275.25 433.3 275.25ZM466.324 254.5V267.5C466.324 271.6 464.274 275.2 460.074 275.2C455.724 275.2 454.324 272.8 454.324 268.45V254.5H450.574V268.7C450.574 274.3 452.224 278.4 458.924 278.4C462.274 278.4 465.274 276.75 466.324 274.25L466.374 278H469.974V254.5H466.324ZM476.852 278H480.552V265.85C480.552 262.3 481.152 260.95 482.102 259.6C482.502 259.05 483.902 257.55 486.052 257.55C486.752 257.55 487.802 257.65 488.602 258C488.652 258 488.752 258 488.752 258L489.002 254.5C489.002 254.5 488.052 254.1 486.502 254.1C483.902 254.1 481.652 255.7 480.552 258.55V254.55H476.852V278ZM505.344 278H508.994V264.25C508.994 257.65 506.044 254.1 499.194 254.1C495.494 254.1 492.394 255.5 490.844 256.4L492.094 259.05C492.744 258.6 495.544 257.2 499.044 257.2C502.594 257.2 505.244 258.95 505.244 262.9V263.95L498.894 264.25C492.494 264.55 489.544 267.35 489.544 271.35C489.544 275.65 493.144 278.5 497.594 278.5C502.044 278.5 504.394 275.9 505.294 274.9L505.344 278ZM505.294 266.65V272.2C504.194 273.7 501.544 275.55 498.344 275.55C495.344 275.55 493.394 273.65 493.394 271.3C493.394 268.9 494.844 267.15 499.194 266.95L505.294 266.65ZM515.773 278H519.473V243.5H515.773V278ZM547.166 277.75L546.966 274.75C546.966 274.75 545.816 275.3 544.366 275.3C543.266 275.3 542.366 275 541.966 274.4C541.216 273.3 541.216 271.65 541.216 269.75V257.7H547.016V254.6H541.266V247.35H537.516V254.6H534.016V257.7H537.516V269C537.516 273.25 537.516 278.5 543.116 278.5C544.716 278.5 546.066 278.25 547.166 277.75ZM562.812 254.1C559.462 254.1 556.562 255.85 555.512 258.35H555.362V243.5H551.662V278H555.362V264.8C555.362 260.75 557.462 257.3 561.662 257.3C566.012 257.3 567.412 259.7 567.412 264.05V278H571.112V263.8C571.112 258.2 569.512 254.1 562.812 254.1ZM598.171 274.65L596.571 272.45C596.571 272.45 593.271 275.4 588.671 275.4C583.671 275.4 580.321 272 580.271 267.15H598.771C598.771 267.15 598.921 266.05 598.921 265.2C598.921 258.75 594.471 254.1 588.021 254.1C581.021 254.1 576.471 259.55 576.471 266.2C576.471 273.75 581.121 278.5 588.021 278.5C592.621 278.5 596.021 277.2 598.171 274.65ZM595.171 264.35H580.321C580.621 260.7 583.171 257.15 587.871 257.2C593.021 257.25 595.171 261.05 595.171 264.35ZM604.049 278H607.749V265.85C607.749 262.3 608.349 260.95 609.299 259.6C609.699 259.05 611.099 257.55 613.249 257.55C613.949 257.55 614.999 257.65 615.799 258C615.849 258 615.949 258 615.949 258L616.199 254.5C616.199 254.5 615.249 254.1 613.699 254.1C611.099 254.1 608.849 255.7 607.749 258.55V254.55H604.049V278ZM632.541 278H636.191V264.25C636.191 257.65 633.241 254.1 626.391 254.1C622.691 254.1 619.591 255.5 618.041 256.4L619.291 259.05C619.941 258.6 622.741 257.2 626.241 257.2C629.791 257.2 632.441 258.95 632.441 262.9V263.95L626.091 264.25C619.691 264.55 616.741 267.35 616.741 271.35C616.741 275.65 620.341 278.5 624.791 278.5C629.241 278.5 631.591 275.9 632.491 274.9L632.541 278ZM632.491 266.65V272.2C631.391 273.7 628.741 275.55 625.541 275.55C622.541 275.55 620.591 273.65 620.591 271.3C620.591 268.9 622.041 267.15 626.391 266.95L632.491 266.65ZM642.971 287.4H646.671V273.95L646.721 274C648.521 277.15 651.921 278.5 655.371 278.5C661.921 278.5 666.671 273.2 666.671 266.25C666.671 259.3 662.471 254.1 655.271 254.1C651.121 254.1 648.021 256.45 646.721 258.65H646.671V254.5H642.971V287.4ZM654.571 275.25C649.321 275.25 646.521 271.3 646.521 266.25C646.521 261.15 649.971 257.2 654.671 257.2C659.871 257.2 662.821 261.15 662.821 266.25C662.821 271.3 659.771 275.25 654.571 275.25ZM676.899 278L675.599 281.05C674.249 284.25 673.399 284.3 672.199 284.3C671.149 284.3 669.849 283.75 669.849 283.75L669.099 286.9C669.099 286.9 670.649 287.7 672.749 287.7C675.249 287.7 676.849 286.55 678.649 282.25L690.099 254.55L686.249 254.5L678.799 273.85L671.199 254.55L667.349 254.5L676.899 278ZM714.012 277.75L713.812 274.75C713.812 274.75 712.662 275.3 711.212 275.3C710.112 275.3 709.212 275 708.812 274.4C708.062 273.3 708.062 271.65 708.062 269.75V257.7H713.862V254.6H708.112V247.35H704.362V254.6H700.862V257.7H704.362V269C704.362 273.25 704.362 278.5 709.962 278.5C711.562 278.5 712.912 278.25 714.012 277.75ZM728.808 278.5C735.658 278.5 741.058 273.55 741.058 266.35C741.058 259.2 735.658 254.1 728.808 254.1C721.958 254.1 716.608 259.2 716.608 266.35C716.608 273.55 721.958 278.5 728.808 278.5ZM728.808 275.25C723.608 275.25 720.408 271.25 720.408 266.25C720.408 261.2 723.608 257.3 728.808 257.3C734.008 257.3 737.258 261.2 737.258 266.25C737.258 271.25 734.008 275.25 728.808 275.25ZM767.793 254.1C764.443 254.1 761.543 255.85 760.493 258.35H760.343V243.5H756.643V278H760.343V264.8C760.343 260.75 762.443 257.3 766.643 257.3C770.993 257.3 772.393 259.7 772.393 264.05V278H776.093V263.8C776.093 258.2 774.493 254.1 767.793 254.1ZM803.152 274.65L801.552 272.45C801.552 272.45 798.252 275.4 793.652 275.4C788.652 275.4 785.302 272 785.252 267.15H803.752C803.752 267.15 803.902 266.05 803.902 265.2C803.902 258.75 799.452 254.1 793.002 254.1C786.002 254.1 781.452 259.55 781.452 266.2C781.452 273.75 786.102 278.5 793.002 278.5C797.602 278.5 801.002 277.2 803.152 274.65ZM800.152 264.35H785.302C785.602 260.7 788.152 257.15 792.852 257.2C798.002 257.25 800.152 261.05 800.152 264.35ZM809.279 278H812.979V243.5H809.279V278ZM820.461 287.4H824.161V273.95L824.211 274C826.011 277.15 829.411 278.5 832.861 278.5C839.411 278.5 844.161 273.2 844.161 266.25C844.161 259.3 839.961 254.1 832.761 254.1C828.611 254.1 825.511 256.45 824.211 258.65H824.161V254.5H820.461V287.4ZM832.061 275.25C826.811 275.25 824.011 271.3 824.011 266.25C824.011 261.15 827.461 257.2 832.161 257.2C837.361 257.2 840.311 261.15 840.311 266.25C840.311 271.3 837.261 275.25 832.061 275.25ZM349.605 333H353.305V320.85C353.305 317.3 353.905 315.95 354.855 314.6C355.255 314.05 356.655 312.55 358.805 312.55C359.505 312.55 360.555 312.65 361.355 313C361.405 313 361.505 313 361.505 313L361.755 309.5C361.755 309.5 360.805 309.1 359.255 309.1C356.655 309.1 354.405 310.7 353.305 313.55V309.55H349.605V333ZM385.28 329.65L383.68 327.45C383.68 327.45 380.38 330.4 375.78 330.4C370.78 330.4 367.43 327 367.38 322.15H385.88C385.88 322.15 386.03 321.05 386.03 320.2C386.03 313.75 381.58 309.1 375.13 309.1C368.13 309.1 363.58 314.55 363.58 321.2C363.58 328.75 368.23 333.5 375.13 333.5C379.73 333.5 383.13 332.2 385.28 329.65ZM382.28 319.35H367.43C367.73 315.7 370.28 312.15 374.98 312.2C380.13 312.25 382.28 316.05 382.28 319.35ZM409.802 333H413.402V298.5H409.702V313.55H409.602C407.902 310.75 404.752 309.1 401.152 309.1C394.252 309.1 389.752 314.35 389.752 321.3C389.752 328.35 393.802 333.5 400.952 333.5C404.902 333.5 408.052 331.75 409.752 328.95H409.802V333ZM401.702 330.3C396.552 330.3 393.552 326.2 393.552 321.15C393.552 316.05 396.552 312.25 401.702 312.25C406.902 312.25 409.802 316.1 409.802 321.2C409.802 326.25 406.902 330.3 401.702 330.3ZM436.099 309.5V322.5C436.099 326.6 434.049 330.2 429.849 330.2C425.499 330.2 424.099 327.8 424.099 323.45V309.5H420.349V323.7C420.349 329.3 421.999 333.4 428.699 333.4C432.049 333.4 435.049 331.75 436.099 329.25L436.149 333H439.749V309.5H436.099ZM466.127 329.8L464.527 327.1C464.527 327.1 462.177 330.2 457.327 330.2C452.377 330.2 448.777 326.6 448.777 321.25C448.777 315.85 452.427 312.45 456.977 312.45C460.627 312.45 462.677 313.7 464.227 315.15L465.877 312.25C464.277 310.8 462.027 309.1 456.827 309.1C450.627 309.1 444.977 313.9 444.977 321.3C444.977 329.05 450.327 333.55 456.627 333.55C462.527 333.55 465.027 331.05 466.127 329.8ZM490.261 329.65L488.661 327.45C488.661 327.45 485.361 330.4 480.761 330.4C475.761 330.4 472.411 327 472.361 322.15H490.861C490.861 322.15 491.011 321.05 491.011 320.2C491.011 313.75 486.561 309.1 480.111 309.1C473.111 309.1 468.561 314.55 468.561 321.2C468.561 328.75 473.211 333.5 480.111 333.5C484.711 333.5 488.111 332.2 490.261 329.65ZM487.261 319.35H472.411C472.711 315.7 475.261 312.15 479.961 312.2C485.111 312.25 487.261 316.05 487.261 319.35ZM512.3 333L511 336.05C509.65 339.25 508.8 339.3 507.6 339.3C506.55 339.3 505.25 338.75 505.25 338.75L504.5 341.9C504.5 341.9 506.05 342.7 508.15 342.7C510.65 342.7 512.25 341.55 514.05 337.25L525.5 309.55L521.65 309.5L514.2 328.85L506.6 309.55L502.75 309.5L512.3 333ZM539.355 333.5C546.205 333.5 551.605 328.55 551.605 321.35C551.605 314.2 546.205 309.1 539.355 309.1C532.505 309.1 527.155 314.2 527.155 321.35C527.155 328.55 532.505 333.5 539.355 333.5ZM539.355 330.25C534.155 330.25 530.955 326.25 530.955 321.25C530.955 316.2 534.155 312.3 539.355 312.3C544.555 312.3 547.805 316.2 547.805 321.25C547.805 326.25 544.555 330.25 539.355 330.25ZM572.379 309.5V322.5C572.379 326.6 570.329 330.2 566.129 330.2C561.779 330.2 560.379 327.8 560.379 323.45V309.5H556.629V323.7C556.629 329.3 558.279 333.4 564.979 333.4C568.329 333.4 571.329 331.75 572.379 329.25L572.429 333H576.029V309.5H572.379ZM582.906 333H586.606V320.85C586.606 317.3 587.206 315.95 588.156 314.6C588.556 314.05 589.956 312.55 592.106 312.55C592.806 312.55 593.856 312.65 594.656 313C594.706 313 594.806 313 594.806 313L595.056 309.5C595.056 309.5 594.106 309.1 592.556 309.1C589.956 309.1 587.706 310.7 586.606 313.55V309.55H582.906V333ZM609.536 333H613.236V312.7H619.036V309.6H613.236V306.6C613.236 303.6 613.686 300.95 617.136 300.95C618.386 300.95 619.736 301.35 619.736 301.35L620.086 298.45C619.886 298.35 618.586 298 616.636 298C611.186 298 609.536 302 609.536 306.85V309.6H606.136V312.7H609.536V333ZM621.836 333H625.536V298.5H621.836V333ZM646.409 333H650.059V319.25C650.059 312.65 647.109 309.1 640.259 309.1C636.559 309.1 633.459 310.5 631.909 311.4L633.159 314.05C633.809 313.6 636.609 312.2 640.109 312.2C643.659 312.2 646.309 313.95 646.309 317.9V318.95L639.959 319.25C633.559 319.55 630.609 322.35 630.609 326.35C630.609 330.65 634.209 333.5 638.659 333.5C643.109 333.5 645.459 330.9 646.359 329.9L646.409 333ZM646.359 321.65V327.2C645.259 328.7 642.609 330.55 639.409 330.55C636.409 330.55 634.459 328.65 634.459 326.3C634.459 323.9 635.909 322.15 640.259 321.95L646.359 321.65ZM656.588 333H660.288V320.85C660.288 317.3 660.888 315.95 661.838 314.6C662.238 314.05 663.638 312.55 665.788 312.55C666.488 312.55 667.538 312.65 668.338 313C668.388 313 668.488 313 668.488 313L668.738 309.5C668.738 309.5 667.788 309.1 666.238 309.1C663.638 309.1 661.388 310.7 660.288 313.55V309.55H656.588V333ZM692.263 329.65L690.663 327.45C690.663 327.45 687.363 330.4 682.763 330.4C677.763 330.4 674.413 327 674.363 322.15H692.863C692.863 322.15 693.013 321.05 693.013 320.2C693.013 313.75 688.563 309.1 682.113 309.1C675.113 309.1 670.563 314.55 670.563 321.2C670.563 328.75 675.213 333.5 682.113 333.5C686.713 333.5 690.113 332.2 692.263 329.65ZM689.263 319.35H674.413C674.713 315.7 677.263 312.15 681.963 312.2C687.113 312.25 689.263 316.05 689.263 319.35ZM723.502 309.5V322.5C723.502 326.6 721.452 330.2 717.252 330.2C712.902 330.2 711.502 327.8 711.502 323.45V309.5H707.752V323.7C707.752 329.3 709.402 333.4 716.102 333.4C719.452 333.4 722.452 331.75 723.502 329.25L723.552 333H727.152V309.5H723.502ZM734.279 342.4H737.979V328.95L738.029 329C739.829 332.15 743.229 333.5 746.679 333.5C753.229 333.5 757.979 328.2 757.979 321.25C757.979 314.3 753.779 309.1 746.579 309.1C742.429 309.1 739.329 311.45 738.029 313.65H737.979V309.5H734.279V342.4ZM745.879 330.25C740.629 330.25 737.829 326.3 737.829 321.25C737.829 316.15 741.279 312.2 745.979 312.2C751.179 312.2 754.129 316.15 754.129 321.25C754.129 326.3 751.079 330.25 745.879 330.25ZM762.977 327L761.027 329.35C762.777 331.85 765.877 333.5 769.727 333.5C774.577 333.5 778.327 330.85 778.327 326.35C778.327 321.3 773.127 320.1 770.777 319.3C768.177 318.45 765.777 317.45 765.777 315.3C765.777 313.1 767.477 311.95 769.927 311.95C772.027 311.95 774.177 312.7 775.827 314.1L777.627 311.85C775.977 310.35 773.727 309.1 769.927 309.1C766.127 309.1 762.377 311.35 762.377 315.65C762.377 320.6 767.377 321.75 769.077 322.3C770.877 322.9 774.827 323.85 774.827 326.65C774.827 329.45 772.377 330.55 769.827 330.55C767.577 330.55 765.227 329.55 762.977 327Z" fill="#443B76"/>
<path fill-rule="evenodd" clip-rule="evenodd" d="M981.5 525C949.272 525 923 498.728 923 466.5C923 434.272 949.272 408 981.5 408C1013.73 408 1040 434.272 1040 466.5C1040 498.728 1013.73 525 981.5 525Z" fill="#6FCF97"/>
<path fill-rule="evenodd" clip-rule="evenodd" d="M974.842 456.343C972.39 456.343 970.639 454.241 970.639 452.14C970.639 449.688 972.741 447.936 974.842 447.936C977.294 447.936 979.046 450.038 979.046 452.14C979.046 454.592 977.294 456.343 974.842 456.343Z" fill="#333333"/>
<path fill-rule="evenodd" clip-rule="evenodd" d="M961.532 452.487C959.08 452.487 957.328 450.385 957.328 448.284C957.328 445.832 959.43 444.08 961.532 444.08C963.984 444.08 965.736 446.182 965.736 448.284C966.086 450.736 963.984 452.487 961.532 452.487Z" fill="#333333"/>
<path d="M975.893 463.699C972.74 467.202 968.186 470.004 961.881 468.253C955.576 466.151 952.773 461.247 952.773 456.693" fill="white"/>
<path d="M516.815 117L515.54 118.225C516.415 119.55 518.29 121.3 520.915 121.3C524.265 121.3 526.64 119.4 526.64 116.35C526.64 113.875 524.965 112.675 522.865 111.775L520.515 110.775C519.365 110.3 518.115 109.625 518.115 107.825C518.115 106.125 519.565 105.15 521.415 105.15C523.24 105.15 524.39 106.125 525.14 107L526.24 105.75C525.94 105.375 524.39 103.525 521.515 103.525C518.865 103.525 516.215 105.05 516.215 107.95C516.215 110.05 517.19 111.325 519.115 112.15L521.665 113.25C523.265 113.95 524.715 114.825 524.715 116.625C524.715 118.575 523.215 119.675 521.14 119.675C519.29 119.675 517.565 118.15 516.815 117ZM543.748 118.7L542.798 117.375C541.598 118.675 539.798 119.525 537.473 119.525C533.498 119.525 530.573 116.625 530.573 112.35C530.573 108.075 533.423 105.175 537.473 105.175C539.873 105.175 541.873 106.375 542.648 107.375L543.598 105.9C542.498 104.8 540.523 103.5 537.423 103.5C532.498 103.5 528.648 107.1 528.648 112.4C528.648 117.725 532.223 121.3 537.348 121.3C540.548 121.3 542.598 119.975 543.748 118.7ZM546.421 121H548.296V103.75H546.421V121ZM552.305 121H562.155V119.375H554.18V112.7H561.53V111.075H554.18V105.375H561.98V103.75H552.305V121ZM577.917 121H579.717V103.75H577.867V117.975L567.292 103.75H565.342V121H567.217V112.65C567.217 110.25 567.192 107.825 567.192 106.575L577.917 121ZM597.85 118.7L596.9 117.375C595.7 118.675 593.9 119.525 591.575 119.525C587.6 119.525 584.675 116.625 584.675 112.35C584.675 108.075 587.525 105.175 591.575 105.175C593.975 105.175 595.975 106.375 596.75 107.375L597.7 105.9C596.6 104.8 594.625 103.5 591.525 103.5C586.6 103.5 582.75 107.1 582.75 112.4C582.75 117.725 586.325 121.3 591.45 121.3C594.65 121.3 596.7 119.975 597.85 118.7ZM600.522 121H610.372V119.375H602.397V112.7H609.747V111.075H602.397V105.375H610.197V103.75H600.522V121Z" fill="#443B76"/>
<path d="M905.144 173.398C906.574 183.269 918.326 195.904 932.668 196.869C947.618 197.874 968.413 191.604 968.413 175.958C968.413 160.311 952.409 150 932.668 150C912.926 150 903.714 163.527 905.144 173.398Z" fill="#F6C383"/>
<path d="M918.019 175.892C919.025 182.852 925.507 191.1 939.399 191.1C953.292 191.1 962.541 185.983 962.541 177.696C962.541 169.409 951.279 159.394 937.387 159.394C923.495 159.394 917.012 168.932 918.019 175.892Z" fill="#FFA74D"/>
<ellipse rx="2.34862" ry="2.93578" transform="matrix(-1 0 0 1 926.137 169.376)" fill="black"/>
<ellipse rx="2.34862" ry="2.93578" transform="matrix(-1 0 0 1 916.743 168.201)" fill="black"/>
<path d="M114.207 258.881C116.265 272.022 129.521 287.596 157.928 287.596C186.335 287.596 209.526 271.721 209.526 244.841C209.526 217.961 182.22 227.732 153.813 227.732C125.406 227.732 112.15 245.74 114.207 258.881Z" fill="#D5CDFF"/>
<path d="M148.341 256.074C149.569 263.982 157.483 273.355 174.443 273.355C191.402 273.355 205.248 263.801 205.248 247.624C205.248 231.447 188.946 237.328 171.986 237.328C155.027 237.328 147.113 248.165 148.341 256.074Z" fill="#B6ABF2"/>
<ellipse rx="3.43232" ry="4.19506" transform="matrix(-1 0 0 1 191.418 246.213)" fill="black"/>
<ellipse rx="3.43232" ry="4.19506" transform="matrix(-1 0 0 1 182.265 246.213)" fill="black"/>
</svg>
