<svg width="388" height="235" viewBox="0 0 388 235" fill="none" xmlns="http://www.w3.org/2000/svg">
<circle cx="221.834" cy="62.1506" r="60.8142" fill="white"/>
<circle cx="-8.94849" cy="167.295" r="67.0515" fill="white"/>
<circle cx="128.273" cy="119.178" r="85.318" fill="white"/>
<circle r="4.06452" transform="matrix(-1 0 0 1 50.6865 51.21)" fill="#E01212"/>
<circle r="3.16129" transform="matrix(-1 0 0 1 46.1698 27.7262)" fill="#E01212"/>
<circle r="4.06452" transform="matrix(-1 0 0 1 10.0409 36.7589)" fill="#E01212"/>
<circle r="21.6774" transform="matrix(-1 0 0 1 31.2669 43.5324)" fill="#F58967"/>
<circle r="4.96775" transform="matrix(-1 0 0 1 21.7832 25.0166)" fill="#E01212"/>
<path d="M13.0622 47.3758C13.0622 52.6817 19.1467 59.9549 24.4525 59.9549C29.7583 59.9549 34.0596 55.6536 34.0596 50.3478C34.0596 45.042 23.4286 35.2305 18.1227 35.2305C12.8169 35.2305 13.0622 42.07 13.0622 47.3758Z" fill="#F6A976"/>
<circle r="4.06452" transform="matrix(-1 0 0 1 36.6454 62.5416)" fill="#E01212"/>
<circle r="4.06452" transform="matrix(-1 0 0 1 48.4697 56.63)" fill="#E01212"/>
<circle r="3.16129" transform="matrix(-1 0 0 1 20.9618 63.1164)" fill="#E01212"/>
<circle r="2.25807" transform="matrix(-1 0 0 1 47.073 39.468)" fill="black"/>
<circle r="2.25807" transform="matrix(-1 0 0 1 39.8474 39.468)" fill="black"/>
<circle r="4.06452" transform="matrix(-1 0 0 1 26.2988 50.7174)" fill="#E01212"/>
<circle r="4.06452" transform="matrix(-1 0 0 1 12.7509 48.5006)" fill="#E01212"/>
<circle r="4.06452" transform="matrix(-1 0 0 1 37.1376 24.1133)" fill="#E01212"/>
<circle r="2.70968" transform="matrix(-1 0 0 1 26.4231 36.0608)" fill="#E01212"/>
<circle cx="-18.973" cy="33.4142" r="33.4144" transform="rotate(-180 -18.973 33.4142)" fill="white"/>
<circle cx="285.989" cy="123.188" r="89.3278" fill="white"/>
<path fill-rule="evenodd" clip-rule="evenodd" d="M361.282 233.901C346.924 233.901 335.219 222.196 335.219 207.838C335.219 193.479 346.924 181.774 361.282 181.774C375.641 181.774 387.346 193.479 387.346 207.838C387.346 222.196 375.641 233.901 361.282 233.901Z" fill="#6FCF97"/>
<path fill-rule="evenodd" clip-rule="evenodd" d="M358.317 203.312C357.224 203.312 356.444 202.376 356.444 201.44C356.444 200.347 357.38 199.567 358.317 199.567C359.409 199.567 360.189 200.503 360.189 201.44C360.189 202.532 359.409 203.312 358.317 203.312Z" fill="#333333"/>
<path fill-rule="evenodd" clip-rule="evenodd" d="M352.386 201.595C351.294 201.595 350.514 200.658 350.514 199.722C350.514 198.629 351.45 197.849 352.386 197.849C353.479 197.849 354.259 198.786 354.259 199.722C354.415 200.814 353.479 201.595 352.386 201.595Z" fill="#333333"/>
<path d="M358.784 206.59C357.38 208.15 355.351 209.399 352.541 208.618C349.732 207.682 348.484 205.497 348.484 203.468" fill="white"/>
<path d="M-25.1182 115.338C-24.2016 121.192 -18.2958 128.131 -5.63966 128.131C7.01646 128.131 17.3486 121.058 17.3486 109.082C17.3486 97.1067 5.18318 101.46 -7.47293 101.46C-20.1291 101.46 -26.0348 109.483 -25.1182 115.338Z" fill="#D5CDFF"/>
<path d="M-9.91095 114.087C-9.3637 117.611 -5.83786 121.787 1.71803 121.787C9.27392 121.787 15.4424 117.53 15.4424 110.323C15.4424 103.115 8.17943 105.735 0.623538 105.735C-6.93235 105.735 -10.4582 110.564 -9.91095 114.087Z" fill="#B6ABF2"/>
<ellipse rx="1.52919" ry="1.86901" transform="matrix(-1 0 0 1 9.28136 109.694)" fill="black"/>
<ellipse rx="1.52919" ry="1.86901" transform="matrix(-1 0 0 1 5.20324 109.694)" fill="black"/>
<path d="M327.264 77.2531C327.901 81.651 333.137 87.2801 339.527 87.7099C346.188 88.1579 355.452 85.3642 355.452 78.3933C355.452 71.4225 348.322 66.8286 339.527 66.8286C330.732 66.8286 326.627 72.8553 327.264 77.2531Z" fill="#F6C383"/>
<path d="M333 78.3643C333.448 81.4651 336.337 85.1401 342.526 85.1401C348.715 85.1401 352.836 82.8601 352.836 79.1682C352.836 75.4763 347.819 71.0142 341.629 71.0142C335.44 71.0142 332.552 75.2634 333 78.3643Z" fill="#FFA74D"/>
<ellipse rx="1.04637" ry="1.30796" transform="matrix(-1 0 0 1 336.618 75.4613)" fill="black"/>
<ellipse rx="1.04637" ry="1.30796" transform="matrix(-1 0 0 1 332.432 74.9378)" fill="black"/>
</svg>
