<svg width="151" height="53" viewBox="0 0 151 53" fill="none" xmlns="http://www.w3.org/2000/svg">
<path fill-rule="evenodd" clip-rule="evenodd" d="M149.314 11.3564L146.254 15.1396H144.325L146.572 11.3564H149.314ZM141.811 33.0781H150.875V35.1348H139.526V16.8154H150.875V18.8721H141.811V24.75H150.406V26.7812H141.811V33.0781ZM61.3125 16.8154V35.1348H59.0273V33.1351H59.0515V18.1351H59.0273V16.8154H61.3125ZM53.3515 24.7373V26.7939H48.9727V35.1348H46.6875V16.8154H48.9727V24.7373H53.3515ZM83.412 35.1348H81.0126L79.1718 29.8916H71.8846L70.0438 35.1348H67.6444L74.3983 16.8154H76.6581L83.412 35.1348ZM75.6298 19.7734H75.4266L72.5575 27.9492H78.4989L75.6298 19.7734ZM92.0291 27.8857H96.5359L100.459 35.1348H103.137L98.8972 27.5303C101.195 26.8066 102.579 24.8262 102.579 22.2744C102.579 18.9736 100.268 16.8154 96.739 16.8154H89.7439V35.1348H92.0291V27.8857ZM92.0291 18.8467H96.4343C98.7957 18.8467 100.218 20.1543 100.218 22.3506C100.218 24.5977 98.8845 25.8545 96.5359 25.8545H92.0291V18.8467ZM112.135 16.8154V35.1348H109.85V16.8154H112.135ZM126.973 35.1348V18.8721H132.876V16.8154H118.785V18.8721H124.688V35.1348H126.973Z" fill="white"/>
<path d="M50.9839 41.4772H50.437V43.7867C50.437 44.5485 50.9814 45.0856 51.8628 45.0856C52.749 45.0856 53.291 44.5485 53.291 43.7867V41.4772H52.7441V43.7428C52.7441 44.2457 52.4243 44.5997 51.8628 44.5997C51.3037 44.5997 50.9839 44.2457 50.9839 43.7428V41.4772ZM54.8546 45.0001V42.4415H54.8937L56.7027 45.0001H57.1959V41.4772H56.6637V44.0406H56.6246L54.8155 41.4772H54.3224V45.0001H54.8546ZM58.779 45.0001V41.4772H58.2321V45.0001H58.779ZM61.4021 45.0001L62.6546 41.4772H62.0735L61.1287 44.3458H61.0872L60.1375 41.4772H59.5418L60.8016 45.0001H61.4021ZM65.6562 44.5289H63.9667V43.4327H65.5658V42.9786H63.9667V41.9484H65.6562V41.4772H63.4198V45.0001H65.6562V44.5289ZM67.144 43.6451H67.9155L68.6333 45.0001H69.2656L68.4746 43.5597C68.9043 43.4156 69.1582 43.0299 69.1582 42.5538C69.1582 41.8971 68.7017 41.4772 67.9912 41.4772H66.5972V45.0001H67.144V43.6451ZM67.144 41.9362H67.9155C68.3379 41.9362 68.5967 42.173 68.5967 42.566C68.5967 42.9689 68.3525 43.1959 67.9302 43.1959H67.144V41.9362ZM69.921 44.0602C69.9601 44.6852 70.485 45.0856 71.2662 45.0856C72.1012 45.0856 72.6236 44.6656 72.6236 43.9991C72.6236 43.4718 72.3258 43.1813 71.6031 43.0079L71.2149 42.9127C70.756 42.8004 70.5704 42.6539 70.5704 42.3976C70.5704 42.068 70.8585 41.8556 71.2906 41.8556C71.7008 41.8556 71.984 42.0607 72.0353 42.3951H72.5675C72.5357 41.8068 72.0133 41.3917 71.2979 41.3917C70.5289 41.3917 70.0162 41.8068 70.0162 42.4269C70.0162 42.9396 70.3067 43.2423 70.9439 43.3961L71.398 43.506C71.8644 43.6183 72.0694 43.7892 72.0694 44.0651C72.0694 44.3873 71.7472 44.6193 71.3077 44.6193C70.8365 44.6193 70.5094 44.402 70.463 44.0602H69.921ZM74.0407 45.0001V41.4772H73.4938V45.0001H74.0407ZM76.5149 45.0001V41.9484H77.6209V41.4772H74.8597V41.9484H75.9681V45.0001H76.5149ZM78.7816 41.0426C78.9599 41.0426 79.1063 40.8986 79.1063 40.7203C79.1063 40.5421 78.9599 40.3981 78.7816 40.3981C78.6034 40.3981 78.4569 40.5421 78.4569 40.7203C78.4569 40.8986 78.6034 41.0426 78.7816 41.0426ZM79.8827 41.0426C80.0609 41.0426 80.2074 40.8986 80.2074 40.7203C80.2074 40.5421 80.0609 40.3981 79.8827 40.3981C79.7045 40.3981 79.558 40.5421 79.558 40.7203C79.558 40.8986 79.7045 41.0426 79.8827 41.0426ZM80.3173 45.0001H80.8983L79.6264 41.4772H79.038L77.766 45.0001H78.3275L78.6522 44.048H79.995L80.3173 45.0001ZM79.3041 42.0997H79.3456L79.8559 43.6085H78.7914L79.3041 42.0997ZM82.6987 45.0001V41.9484H83.8047V41.4772H81.0435V41.9484H82.1519V45.0001H82.6987ZM84.4601 44.0602C84.4991 44.6852 85.024 45.0856 85.8053 45.0856C86.6402 45.0856 87.1627 44.6656 87.1627 43.9991C87.1627 43.4718 86.8648 43.1813 86.1422 43.0079L85.754 42.9127C85.295 42.8004 85.1095 42.6539 85.1095 42.3976C85.1095 42.068 85.3976 41.8556 85.8297 41.8556C86.2398 41.8556 86.523 42.0607 86.5743 42.3951H87.1065C87.0748 41.8068 86.5523 41.3917 85.837 41.3917C85.068 41.3917 84.5553 41.8068 84.5553 42.4269C84.5553 42.9396 84.8458 43.2423 85.483 43.3961L85.9371 43.506C86.4034 43.6183 86.6085 43.7892 86.6085 44.0651C86.6085 44.3873 86.2862 44.6193 85.8468 44.6193C85.3756 44.6193 85.0484 44.402 85.0021 44.0602H84.4601ZM91.5974 45.0001V41.4772H90.9577L89.8347 44.2335H89.7932L88.6726 41.4772H88.0329V45.0001H88.5407V42.4196H88.5749L89.6076 44.9366H90.0227L91.0554 42.4196H91.0896V45.0001H91.5974ZM94.8675 44.5289H93.178V43.4327H94.7771V42.9786H93.178V41.9484H94.8675V41.4772H92.6312V45.0001H94.8675V44.5289ZM95.8085 41.4772V45.0001H97.0805C98.1303 45.0001 98.7382 44.3507 98.7382 43.2301C98.7382 42.1217 98.1254 41.4772 97.0805 41.4772H95.8085ZM96.3554 41.9484H97.0194C97.7494 41.9484 98.1815 42.4244 98.1815 43.2374C98.1815 44.0577 97.7567 44.5289 97.0194 44.5289H96.3554V41.9484ZM100.177 45.0001V41.4772H99.6304V45.0001H100.177ZM101.113 45.0001H103.76V44.5289H101.809V44.4874L103.713 41.8507V41.4772H101.172V41.9484H103.027V41.9899L101.113 44.6266V45.0001ZM105.243 45.0001V41.4772H104.696V45.0001H105.243ZM106.809 45.0001V42.4415H106.848L108.657 45.0001H109.15V41.4772H108.618V44.0406H108.579L106.77 41.4772H106.277V45.0001H106.809ZM113.151 45.0001C113.903 45.0001 114.355 44.6241 114.355 44.004C114.355 43.5426 114.038 43.2057 113.562 43.1544V43.1129C113.908 43.0543 114.179 42.7247 114.179 42.3561C114.179 41.8141 113.781 41.4772 113.12 41.4772H111.704V45.0001H113.151ZM112.25 41.924H112.993C113.398 41.924 113.635 42.1168 113.635 42.4513C113.635 42.7955 113.383 42.9762 112.9 42.9762H112.25V41.924ZM112.25 44.5533V43.3937H113.01C113.525 43.3937 113.796 43.589 113.796 43.9698C113.796 44.3507 113.535 44.5533 113.042 44.5533H112.25ZM117.444 44.5289H115.755V43.4327H117.354V42.9786H115.755V41.9484H117.444V41.4772H115.208V45.0001H117.444V44.5289ZM118.932 43.6451H119.704L120.422 45.0001H121.054L120.263 43.5597C120.693 43.4156 120.946 43.0299 120.946 42.5538C120.946 41.8971 120.49 41.4772 119.779 41.4772H118.385V45.0001H118.932V43.6451ZM118.932 41.9362H119.704C120.126 41.9362 120.385 42.173 120.385 42.566C120.385 42.9689 120.141 43.1959 119.718 43.1959H118.932V41.9362ZM124.073 44.524H122.422V41.4772H121.875V45.0001H124.073V44.524ZM125.463 45.0001V41.4772H124.916V45.0001H125.463ZM127.029 45.0001V42.4415H127.068L128.877 45.0001H129.37V41.4772H128.838V44.0406H128.799L126.99 41.4772H126.497V45.0001H127.029Z" fill="white"/>
<path fill-rule="evenodd" clip-rule="evenodd" d="M44 6.59983C39.3321 2.49166 33.207 0 26.5 0C11.8645 0 0 11.8645 0 26.5C0 41.1355 11.8645 53 26.5 53C33.207 53 39.3321 50.5083 44 46.4002V42.1847C39.6975 46.9819 33.4512 49.9999 26.5001 49.9999C13.5214 49.9999 3.00007 39.4786 3.00007 26.4999C3.00007 13.5212 13.5214 2.99992 26.5001 2.99992C33.4512 2.99992 39.6975 6.01796 44 10.8152V6.59983Z" fill="white"/>
<path fill-rule="evenodd" clip-rule="evenodd" d="M39.0469 19.2501C37.4556 17.8496 35.3675 17.0001 33.081 17.0001C28.0916 17.0001 24.0469 21.0448 24.0469 26.0342C24.0469 31.0236 28.0916 35.0683 33.081 35.0683C35.3675 35.0683 37.4556 34.2189 39.0469 32.8183V29.6076C37.8221 31.6406 35.5932 33.0002 33.0468 33.0002C29.1808 33.0002 26.0468 29.8662 26.0468 26.0002C26.0468 22.1342 29.1808 19.0002 33.0468 19.0002C35.5932 19.0002 37.8221 20.3599 39.0469 22.3928V19.2501Z" fill="white"/>
</svg>
