<svg width="181" height="57" viewBox="0 0 181 57" fill="none" xmlns="http://www.w3.org/2000/svg">
<path d="M74.1635 22.2593C76.0922 22.9448 77.2053 23.0211 79.4314 23.0211C85.7377 23.0211 89.7441 19.516 89.7441 13.5726C89.7441 8.92446 87.2216 2.67649 79.4314 2.67649H74.1635V22.2593ZM74.1635 36.4321C74.1635 41.8421 75.4244 43.3657 78.9862 43.3657V44.6616H63.7021V43.3657C66.6699 43.3657 68.5246 42.3749 68.5246 36.584V9.22948C68.5246 3.89546 67.2635 2.29559 63.7021 2.29559V1.00001H79.2082C90.931 1.00001 95.6796 7.40053 95.6796 13.4202C95.6796 20.6591 90.3376 24.6976 80.692 24.6976C78.8374 24.6976 77.2797 24.6212 74.1635 24.2404" fill="white"/>
<path d="M110.962 26.9074C111.185 20.9641 107.253 18.5257 103.914 18.5257C99.5376 18.5257 96.9401 21.8787 96.643 26.9074H110.962ZM96.643 28.203C96.4954 40.3188 103.543 43.3661 107.105 43.3661C110.741 43.3661 112.595 42.0714 116.379 37.727V39.7088C113.189 43.9001 110.147 45.4996 105.547 45.4996C97.3109 45.4996 91.376 39.6329 91.376 31.4794C91.376 23.3264 97.1633 16.9256 104.582 16.9256C110.666 16.9256 116.305 21.9546 115.934 28.203" fill="white"/>
<path d="M144.423 38.7935C144.423 42.2989 145.166 43.3657 148.874 43.3657V44.6616H134.852V43.3657C138.413 43.3657 139.378 42.528 139.378 40.0135V25.9166C139.378 21.5734 136.336 19.7448 133.517 19.7448C130.92 19.7448 128.62 21.4208 126.023 25.0023V38.1848C126.023 42.2989 126.542 43.3657 130.475 43.3657V44.6616H116.601V43.3657C120.088 43.3657 120.979 43.0607 120.979 38.1848V23.0211C120.979 19.7448 120.162 19.0589 116.601 19.0589V17.7636L124.762 16.9252H126.023V22.3355C129.139 18.6779 132.182 16.9252 135.52 16.9252C139.898 16.9252 144.423 20.1257 144.423 26.6024" fill="white"/>
<path d="M176.548 38.7935C176.548 42.2989 177.29 43.3657 181 43.3657V44.6616H166.978V43.3657C170.539 43.3657 171.503 42.528 171.503 40.0135V25.9166C171.503 21.5734 168.461 19.7448 165.642 19.7448C163.045 19.7448 160.745 21.4208 158.148 25.0023V38.1848C158.148 42.2989 158.668 43.3657 162.6 43.3657V44.6616H148.726V43.3657C152.212 43.3657 153.103 43.0607 153.103 38.1848V23.0211C153.103 19.7448 152.287 19.0589 148.726 19.0589V17.7636L156.887 16.9252H158.148V22.3355C161.264 18.6779 164.307 16.9252 167.645 16.9252C172.022 16.9252 176.548 20.1257 176.548 26.6024" fill="white"/>
<path d="M65.2092 52.4104C65.2092 53.6201 65.529 54.5453 66.7832 54.5453C67.9363 54.5453 68.5425 53.75 68.5425 52.3666V49.964C68.5425 49.7826 68.5086 49.6359 68.4917 49.497C68.4498 49.1855 68.1634 49.0645 67.7681 49.0221V48.7969H69.7545V49.0221C69.3504 49.0645 69.0725 49.1855 69.0306 49.497C69.0136 49.6359 68.9801 49.7826 68.9801 49.964V52.4014C68.9801 54.2596 67.827 54.952 66.7413 54.952C64.9482 54.952 64.3929 54.0177 64.3929 52.4541V49.8779C64.3929 49.0736 64.4266 49.1173 63.6689 49.0221V48.7969H65.9331V49.0221C65.1757 49.1173 65.2092 49.0736 65.2092 49.8779" fill="white"/>
<path d="M74.5198 54.8477C73.4874 53.5943 72.4157 52.2804 71.3572 51V53.9482C71.3572 54.0872 71.3833 54.2003 71.3961 54.3072C71.4288 54.5479 71.6495 54.6417 72.0781 54.674V54.8477H70.4868V54.674C70.7987 54.6417 71.013 54.5479 71.0452 54.3072C71.0584 54.2003 71.0845 54.0872 71.0845 53.9482V50.8056C70.9025 50.5663 70.7013 50.3527 70.3311 50.3527V50.1789H71.513C72.4806 51.386 73.4874 52.6136 74.4551 53.8208H74.4679V51.0797C74.4679 50.9395 74.4418 50.8262 74.429 50.7194C74.3964 50.4788 74.1756 50.3862 73.7471 50.3527V50.1789H75.3386V50.3527C75.0333 50.3862 74.8119 50.4788 74.7799 50.7194C74.7667 50.8262 74.7407 50.9395 74.7407 51.0797V54.8477" fill="white"/>
<path d="M77.8522 54.0138C77.8522 54.634 77.8265 54.6006 78.4109 54.674V54.8477H76.6641V54.674C77.2485 54.6006 77.2222 54.634 77.2222 54.0138V51.0128C77.2222 50.3925 77.2485 50.426 76.6641 50.3527V50.1789H78.4109V50.3527C77.8265 50.426 77.8522 50.3925 77.8522 51.0128" fill="white"/>
<path d="M81.1772 50.3527C80.8206 50.3527 80.5601 50.4595 80.7744 51.0991C81.0278 51.8866 81.405 53.0332 81.7425 54.0473C82.1581 53.0268 82.554 51.9999 82.9569 50.9794C83.1192 50.5598 82.9501 50.3527 82.5085 50.3527V50.1789H83.9115V50.3527C83.7229 50.3527 83.5086 50.4195 83.3726 50.7529C82.8267 52.1196 82.2749 53.481 81.7296 54.8477H81.3979C81.0021 53.6946 80.5601 52.4066 80.1643 51.2728C79.9244 50.5598 79.7229 50.3527 79.4111 50.3527V50.1789H81.1772" fill="white"/>
<path d="M84.9111 54.674C85.4955 54.6006 85.4699 54.634 85.4699 54.0138V51.0128C85.4699 50.3925 85.4955 50.426 84.9111 50.3527V50.1789H87.8141V51.2535H87.6454C87.5805 50.7594 87.4503 50.3926 86.9826 50.3926H86.0999V52.2998H86.6452C87.0545 52.2998 87.2296 52.1337 87.2425 51.7193H87.4112V53.14H87.2425C87.2296 52.7475 87.0801 52.5134 86.6452 52.5134H86.0999V54.0215C86.0999 54.5877 86.3533 54.634 86.9377 54.634C87.8789 54.634 87.834 54.3613 88.1323 53.647H88.301L88.106 54.8477H84.9111" fill="white"/>
<path d="M90.4836 52.5673H91.0226C91.5878 52.5673 91.8476 52.1273 91.8476 51.3732C91.8476 50.6461 91.4576 50.3926 90.9834 50.3926H90.4836V52.5673ZM89.2949 50.1789H91.1849C91.8405 50.1789 92.4969 50.5329 92.4969 51.3127C92.4969 51.9999 92.0875 52.4734 91.5878 52.6742L92.2242 53.6676C92.5488 54.1541 92.9126 54.6212 93.1397 54.7614V54.8477H92.4712C92.0875 54.8477 91.8797 54.1206 91.0938 52.7797H90.4836V54.0138C90.4836 54.634 90.4574 54.6006 91.0418 54.674V54.8477H89.2949V54.674C89.8794 54.6006 89.8537 54.634 89.8537 54.0138V51.0128C89.8537 50.3925 89.8794 50.426 89.2949 50.3527" fill="white"/>
<path d="M96.3554 51.1721C96.3028 50.7063 96.0558 50.3318 95.5368 50.3318C95.1596 50.3318 94.8222 50.5326 94.8222 51.0255C94.8222 51.4926 95.277 51.7731 95.9269 52.2737C96.6146 52.8 96.8353 53.1398 96.8353 53.6943C96.8353 54.4871 96.0437 54.9272 95.2635 54.9272C94.8484 54.9272 94.4911 54.8474 94.1537 54.7149C94.1274 54.7007 94.1074 54.6737 94.1074 54.6209V53.661H94.2769C94.348 54.4009 94.8222 54.6942 95.3226 54.6942C95.7838 54.6942 96.1597 54.334 96.1597 53.8475C96.1597 53.4139 95.9333 53.0599 94.9588 52.3998C94.6079 52.1592 94.1729 51.8991 94.1729 51.1721C94.1729 50.5725 94.8222 50.0989 95.5689 50.0989C95.848 50.0989 96.2188 50.1323 96.4779 50.225C96.5171 50.2391 96.5235 50.2649 96.5235 50.2984V51.1721" fill="white"/>
<path d="M99.1933 54.0138C99.1933 54.634 99.167 54.6006 99.7508 54.674V54.8477H98.0039V54.674C98.589 54.6006 98.5626 54.634 98.5626 54.0138V51.0128C98.5626 50.3925 98.589 50.426 98.0039 50.3527V50.1789H99.7508V50.3527C99.167 50.426 99.1933 50.3925 99.1933 51.0128" fill="white"/>
<path d="M102.96 54.0138C102.96 54.634 102.934 54.6006 103.519 54.674V54.8477H101.77V54.674C102.356 54.6006 102.329 54.634 102.329 54.0138V50.3926H101.746C101.18 50.3926 101.05 50.7594 100.836 51.1994H100.673L100.849 50.1789H104.441L104.616 51.1994H104.453C104.239 50.7594 104.109 50.3926 103.544 50.3926H102.96" fill="white"/>
<path d="M106.505 54.674C107.089 54.6006 107.064 54.634 107.064 54.0138V52.9869L106.063 50.9523C105.849 50.5186 105.667 50.3527 105.369 50.3527V50.1789H107.024V50.3527C106.532 50.3527 106.577 50.6062 106.738 50.9523L107.525 52.6266L108.421 50.9523C108.642 50.5458 108.434 50.3527 108.05 50.3527V50.1789H109.388V50.3527C109.207 50.3527 109.032 50.4389 108.856 50.7594L107.772 52.7797C107.707 52.9135 107.693 53.1001 107.693 53.2674V54.0138C107.693 54.634 107.668 54.6006 108.252 54.674V54.8477H106.505" fill="white"/>
<path d="M115.291 51.5636C115.291 50.6641 114.761 50.6293 114.627 50.6293C113.717 50.6293 113.12 52.3061 113.12 53.4309C113.12 53.88 113.196 54.6919 113.819 54.6919C114.779 54.6919 115.291 53.0667 115.291 51.5636ZM112.346 53.2494C112.346 52.1169 113.296 50.4222 114.702 50.4222C115.823 50.4222 116.065 51.2008 116.065 51.978C116.065 52.929 115.325 54.952 113.717 54.952C112.64 54.952 112.346 54.0614 112.346 53.2494Z" fill="white"/>
<path d="M120.3 50.7075L120.098 50.8889H118.995C118.583 52.9453 117.909 55.6864 117.43 57.0002H117.051L118.255 50.8889H117.456L117.531 50.5262H118.322C118.768 48.6846 120.249 48.4941 120.603 48.4941C120.796 48.4941 121.2 48.5289 121.327 48.6498L121.225 49.2199L121.015 49.3242C120.897 49.0912 120.628 48.8222 120.274 48.8222C119.77 48.8222 119.391 49.1775 119.188 50.1104L119.097 50.5262H120.333" fill="white"/>
<path d="M125.435 53.768C125.435 54.571 125.4 54.5285 126.158 54.6238V54.8477H123.894V54.6238C124.651 54.5285 124.618 54.571 124.618 53.768V49.8779C124.618 49.0736 124.651 49.1173 123.894 49.0221V48.7969H126.098C127.496 48.7969 128.186 49.3669 128.186 50.4054C128.186 51.6498 127.092 52.3242 125.804 52.2457V52.0732C126.857 52.0899 127.344 51.4427 127.344 50.4917C127.344 49.5226 126.891 49.0736 125.947 49.0736H125.435" fill="white"/>
<path d="M129.347 54.674C129.932 54.6006 129.905 54.634 129.905 54.0138V51.0128C129.905 50.3925 129.932 50.426 129.347 50.3527V50.1789H132.25V51.2535H132.08C132.015 50.7594 131.886 50.3926 131.419 50.3926H130.535V52.2998H131.081C131.49 52.2998 131.666 52.1337 131.678 51.7193H131.847V53.14H131.678C131.666 52.7475 131.516 52.5134 131.081 52.5134H130.535V54.0215C130.535 54.5877 130.789 54.634 131.373 54.634C132.315 54.634 132.27 54.3613 132.568 53.647H132.737L132.542 54.8477H129.347" fill="white"/>
<path d="M137.893 54.8477C136.86 53.5943 135.789 52.2804 134.73 51V53.9482C134.73 54.0872 134.756 54.2003 134.769 54.3072C134.802 54.5479 135.022 54.6417 135.45 54.674V54.8477H133.861V54.674C134.171 54.6417 134.385 54.5479 134.418 54.3072C134.432 54.2003 134.457 54.0872 134.457 53.9482V50.8056C134.275 50.5663 134.075 50.3527 133.704 50.3527V50.1789H134.885C135.854 51.386 136.86 52.6136 137.827 53.8208H137.841V51.0797C137.841 50.9395 137.815 50.8262 137.802 50.7194C137.77 50.4788 137.549 50.3862 137.12 50.3527V50.1789H138.711V50.3527C138.407 50.3862 138.185 50.4788 138.153 50.7194C138.14 50.8262 138.113 50.9395 138.113 51.0797V54.8477" fill="white"/>
<path d="M143.712 54.8477C142.68 53.5943 141.608 52.2804 140.55 51V53.9482C140.55 54.0872 140.576 54.2003 140.588 54.3072C140.621 54.5479 140.842 54.6417 141.27 54.674V54.8477H139.68V54.674C139.99 54.6417 140.205 54.5479 140.238 54.3072C140.252 54.2003 140.277 54.0872 140.277 53.9482V50.8056C140.095 50.5663 139.894 50.3527 139.523 50.3527V50.1789H140.705C141.674 51.386 142.68 52.6136 143.647 53.8208H143.661V51.0797C143.661 50.9395 143.634 50.8262 143.622 50.7194C143.589 50.4788 143.369 50.3862 142.939 50.3527V50.1789H144.531V50.3527C144.226 50.3862 144.004 50.4788 143.972 50.7194C143.959 50.8262 143.933 50.9395 143.933 51.0797V54.8477" fill="white"/>
<path d="M147.94 51.1721C147.889 50.7063 147.642 50.3318 147.122 50.3318C146.746 50.3318 146.407 50.5326 146.407 51.0255C146.407 51.4926 146.862 51.7731 147.511 52.2737C148.2 52.8 148.421 53.1398 148.421 53.6943C148.421 54.4871 147.63 54.9272 146.85 54.9272C146.434 54.9272 146.077 54.8474 145.738 54.7149C145.713 54.7007 145.693 54.6737 145.693 54.6209V53.661H145.863C145.934 54.4009 146.407 54.6942 146.908 54.6942C147.368 54.6942 147.746 54.334 147.746 53.8475C147.746 53.4139 147.519 53.0599 146.544 52.3998C146.193 52.1592 145.759 51.8991 145.759 51.1721C145.759 50.5725 146.407 50.0989 147.154 50.0989C147.434 50.0989 147.805 50.1323 148.064 50.225C148.103 50.2391 148.109 50.2649 148.109 50.2984V51.1721" fill="white"/>
<path d="M150.557 54.674C151.142 54.6006 151.116 54.634 151.116 54.0138V52.9869L150.116 50.9523C149.902 50.5186 149.72 50.3527 149.421 50.3527V50.1789H151.077V50.3527C150.583 50.3527 150.628 50.6062 150.791 50.9523L151.577 52.6266L152.473 50.9523C152.693 50.5458 152.487 50.3527 152.103 50.3527V50.1789H153.441V50.3527C153.259 50.3527 153.083 50.4389 152.909 50.7594L151.824 52.7797C151.759 52.9135 151.746 53.1001 151.746 53.2674V54.0138C151.746 54.634 151.72 54.6006 152.304 54.674V54.8477H150.557" fill="white"/>
<path d="M154.505 54.674C155.091 54.6006 155.064 54.634 155.064 54.0138V51.0128C155.064 50.3925 155.091 50.426 154.505 50.3527V50.1789H156.253V50.3527C155.668 50.426 155.694 50.3925 155.694 51.0128V54.1206C155.694 54.5877 155.948 54.634 156.525 54.634C157.467 54.634 157.428 54.3613 157.727 53.647H157.89L157.694 54.8477H154.505" fill="white"/>
<path d="M160.156 50.3527C159.799 50.3527 159.539 50.4595 159.753 51.0991C160.008 51.8866 160.384 53.0332 160.722 54.0473C161.136 53.0268 161.534 51.9999 161.935 50.9794C162.098 50.5598 161.93 50.3527 161.487 50.3527V50.1789H162.891V50.3527C162.703 50.3527 162.487 50.4195 162.352 50.7529C161.805 52.1196 161.254 53.481 160.708 54.8477H160.377C159.981 53.6946 159.539 52.4066 159.143 51.2728C158.902 50.5598 158.701 50.3527 158.39 50.3527V50.1789H160.156" fill="white"/>
<path d="M165.541 53.0473L164.852 50.879H164.839L164.066 53.0473H165.541ZM163.968 53.3009L163.671 54.194C163.585 54.4539 163.709 54.674 163.995 54.674V54.8477H162.813V54.674C162.989 54.674 163.177 54.5607 163.28 54.3407C163.56 53.7538 164.319 51.5726 164.858 50.0992H165.223C165.664 51.4401 166.327 53.4939 166.547 54.0872C166.69 54.4616 166.794 54.674 167.073 54.674V54.8477H165.56V54.674C165.97 54.674 166.008 54.4539 165.904 54.1605L165.625 53.3009" fill="white"/>
<path d="M172.073 54.8477C171.041 53.5943 169.969 52.2804 168.911 51V53.9482C168.911 54.0872 168.936 54.2003 168.95 54.3072C168.982 54.5479 169.203 54.6417 169.632 54.674V54.8477H168.04V54.674C168.352 54.6417 168.566 54.5479 168.599 54.3072C168.612 54.2003 168.638 54.0872 168.638 53.9482V50.8056C168.456 50.5663 168.254 50.3527 167.885 50.3527V50.1789H169.067C170.034 51.386 171.041 52.6136 172.009 53.8208H172.021V51.0797C172.021 50.9395 171.996 50.8262 171.982 50.7194C171.95 50.4788 171.729 50.3862 171.3 50.3527V50.1789H172.892V50.3527C172.586 50.3862 172.365 50.4788 172.333 50.7194C172.32 50.8262 172.294 50.9395 172.294 51.0797V54.8477" fill="white"/>
<path d="M175.145 54.0138C175.145 54.634 175.119 54.6006 175.703 54.674V54.8477H173.957V54.674C174.541 54.6006 174.516 54.634 174.516 54.0138V51.0128C174.516 50.3925 174.541 50.426 173.957 50.3527V50.1789H175.703V50.3527C175.119 50.426 175.145 50.3925 175.145 51.0128" fill="white"/>
<path d="M179.432 53.0473L178.744 50.879H178.73L177.958 53.0473H179.432ZM177.861 53.3009L177.561 54.194C177.477 54.4539 177.6 54.674 177.887 54.674V54.8477H176.704V54.674C176.879 54.674 177.067 54.5607 177.172 54.3407C177.451 53.7538 178.212 51.5726 178.75 50.0992H179.114C179.556 51.4401 180.218 53.4939 180.439 54.0872C180.582 54.4616 180.685 54.674 180.964 54.674V54.8477H179.452V54.674C179.86 54.674 179.899 54.4539 179.795 54.1605L179.517 53.3009" fill="white"/>
<path d="M1.01562 15.6484L47.5725 15.6422" stroke="white" stroke-width="0.3" stroke-miterlimit="3.8636"/>
<path fill-rule="evenodd" clip-rule="evenodd" d="M10.737 46.4531C7.6289 43.8048 5.41513 40.6919 3.62402 36.8262L3.71701 36.8674L24.2778 16.9036L44.5304 36.9137C42.6531 40.5374 40.0327 43.5963 37.3429 46.1224L24.2935 32.3762L10.737 46.4531ZM13.0848 31.2099C10.8397 31.2099 9.01998 33.0116 9.01998 35.2328C9.01998 37.4539 10.8397 39.2529 13.0848 39.2529C15.3298 39.2529 17.1498 37.4539 17.1498 35.2328C17.1498 33.0116 15.3298 31.2099 13.0848 31.2099ZM20.1955 25.574C20.1955 23.3529 22.0155 21.5526 24.2603 21.5526C26.5053 21.5526 28.325 23.3529 28.325 25.574C28.325 27.7955 26.5053 29.5945 24.2603 29.5945C22.0155 29.5945 20.1955 27.7955 20.1955 25.574ZM34.8046 31.2099C32.5592 31.2099 30.7392 33.0116 30.7392 35.2328C30.7392 37.4539 32.5592 39.2529 34.8046 39.2529C37.0493 39.2529 38.8693 37.4539 38.8693 35.2328C38.8693 33.0116 37.0493 31.2099 34.8046 31.2099Z" fill="white"/>
<mask id="path-31-inside-1" fill="white">
<path d="M35.9099 4.62761H37.177C38.1057 4.40983 38.4444 3.8568 39.3966 3.8568C40.082 3.8568 40.4047 4.32418 40.9081 4.32418C41.3332 4.32418 41.9867 3.82586 42.7027 3.82586C43.4351 3.82586 43.7971 4.27759 44.2774 4.48766C44.7025 4.67457 45.2611 4.66461 45.8515 4.66461C45.8356 5.10092 45.8515 5.35989 45.8515 5.72567C45.8515 6.0995 46.3395 5.95145 46.3395 6.55921C46.3395 7.19776 45.7093 7.07303 45.7093 7.33006L45.6861 9.70491C45.7178 10.0009 46.3001 10.0398 46.3001 10.4912C46.3001 11.1611 45.6516 10.929 45.6939 11.457C45.7253 11.8462 45.6939 12.6718 45.6939 12.6718C44.4425 12.6718 36.3932 12.7474 35.9991 12.7319C36.023 11.8521 36.1561 11.9045 36.1856 11.4804C36.2093 11.1378 35.4616 10.9275 35.4616 10.3513C35.4616 9.9539 35.9099 9.97748 35.949 9.60365V7.23642C35.9258 6.92502 35.2489 6.76922 35.2721 6.32563C35.3003 5.79444 35.9021 5.86236 35.9021 5.50754C35.9021 5.35212 35.9177 4.77561 35.9099 4.62761Z"/>
</mask>
<path d="M35.9099 4.62761H37.177C38.1057 4.40983 38.4444 3.8568 39.3966 3.8568C40.082 3.8568 40.4047 4.32418 40.9081 4.32418C41.3332 4.32418 41.9867 3.82586 42.7027 3.82586C43.4351 3.82586 43.7971 4.27759 44.2774 4.48766C44.7025 4.67457 45.2611 4.66461 45.8515 4.66461C45.8356 5.10092 45.8515 5.35989 45.8515 5.72567C45.8515 6.0995 46.3395 5.95145 46.3395 6.55921C46.3395 7.19776 45.7093 7.07303 45.7093 7.33006L45.6861 9.70491C45.7178 10.0009 46.3001 10.0398 46.3001 10.4912C46.3001 11.1611 45.6516 10.929 45.6939 11.457C45.7253 11.8462 45.6939 12.6718 45.6939 12.6718C44.4425 12.6718 36.3932 12.7474 35.9991 12.7319C36.023 11.8521 36.1561 11.9045 36.1856 11.4804C36.2093 11.1378 35.4616 10.9275 35.4616 10.3513C35.4616 9.9539 35.9099 9.97748 35.949 9.60365V7.23642C35.9258 6.92502 35.2489 6.76922 35.2721 6.32563C35.3003 5.79444 35.9021 5.86236 35.9021 5.50754C35.9021 5.35212 35.9177 4.77561 35.9099 4.62761Z" fill="white"/>
<path d="M37.177 4.62761L37.2121 4.77749L37.1948 4.78156H37.177V4.62761ZM44.2774 4.48766L44.3391 4.34662L44.3394 4.34674L44.2774 4.48766ZM45.8515 4.66461V4.51066H46.0112L46.0053 4.67023L45.8515 4.66461ZM45.7093 7.33006H45.8632L45.8632 7.33156L45.7093 7.33006ZM45.6861 9.70491L45.532 9.7214L45.5322 9.70341L45.6861 9.70491ZM45.6939 11.457L45.5405 11.4694L45.5405 11.4693L45.6939 11.457ZM45.6939 12.6718L45.8478 12.6776L45.8422 12.8257H45.6939V12.6718ZM35.9991 12.7319L35.993 12.8857L35.8411 12.8797L35.8452 12.7277L35.9991 12.7319ZM36.1856 11.4804L36.3391 11.4911L36.3391 11.4911L36.1856 11.4804ZM35.949 9.60365H36.1038L36.1021 9.61967L35.949 9.60365ZM35.949 7.23642L36.1029 7.22497V7.23642H35.949ZM35.2721 6.32563L35.1183 6.3176L35.1183 6.31746L35.2721 6.32563ZM35.9099 4.47366H37.177V4.78156H35.9099V4.47366ZM37.1418 4.47773C37.5828 4.37432 37.8788 4.19375 38.2072 4.02381C38.5365 3.85341 38.885 3.70286 39.3966 3.70286V4.01075C38.956 4.01075 38.659 4.13671 38.3487 4.29727C38.0375 4.45829 37.6999 4.66312 37.2121 4.77749L37.1418 4.47773ZM39.3966 3.70286C39.7776 3.70286 40.057 3.8343 40.2905 3.95333C40.5315 4.07612 40.7014 4.17023 40.9081 4.17023V4.47813C40.6114 4.47813 40.3683 4.33855 40.1507 4.22765C39.9257 4.113 39.7011 4.01075 39.3966 4.01075V3.70286ZM40.9081 4.17023C40.9875 4.17023 41.0879 4.14637 41.2158 4.10116C41.3435 4.05605 41.4806 3.99661 41.6382 3.93244C41.9449 3.80761 42.3119 3.67191 42.7027 3.67191V3.97981C42.3775 3.97981 42.0598 4.09327 41.7543 4.21761C41.606 4.27801 41.4552 4.34315 41.3184 4.39147C41.1819 4.4397 41.0412 4.47813 40.9081 4.47813V4.17023ZM42.7027 3.67191C43.1046 3.67191 43.4049 3.79709 43.6614 3.94452C43.7864 4.01642 43.9058 4.09663 44.0144 4.16577C44.1259 4.23672 44.2304 4.29905 44.3391 4.34662L44.2157 4.62871C44.0843 4.57123 43.9635 4.49832 43.8491 4.42549C43.7318 4.35085 43.6249 4.27873 43.5079 4.21144C43.2801 4.0805 43.0332 3.97981 42.7027 3.97981V3.67191ZM44.3394 4.34674C44.5293 4.43026 44.7558 4.47249 45.0145 4.49275C45.2736 4.51303 45.5535 4.51066 45.8515 4.51066V4.81855C45.5591 4.81855 45.2645 4.82116 44.9904 4.7997C44.716 4.77822 44.4506 4.73198 44.2155 4.62859L44.3394 4.34674ZM46.0053 4.67023C45.9895 5.10361 46.0054 5.35037 46.0054 5.72567H45.6975C45.6975 5.36942 45.6816 5.09822 45.6976 4.65899L46.0053 4.67023ZM46.0054 5.72567C46.0054 5.77849 46.02 5.8017 46.0394 5.82215C46.071 5.85549 46.1076 5.87509 46.184 5.92873C46.2517 5.97629 46.3336 6.04155 46.3958 6.14682C46.4585 6.25287 46.4935 6.38603 46.4935 6.55921H46.1856C46.1856 6.42852 46.1596 6.35227 46.1307 6.30346C46.1014 6.25388 46.0613 6.21883 46.007 6.1807C45.9614 6.14866 45.876 6.09719 45.8161 6.03416C45.744 5.95824 45.6975 5.85977 45.6975 5.72567H46.0054ZM46.4935 6.55921C46.4935 6.74575 46.4469 6.89046 46.366 7.00281C46.2867 7.11309 46.1836 7.17909 46.0946 7.2247C46.0506 7.24725 46.0067 7.26642 45.9714 7.28218C45.9337 7.29898 45.9066 7.31157 45.8853 7.32399C45.8638 7.33647 45.8584 7.34318 45.8584 7.34311C45.859 7.34241 45.8606 7.34004 45.8619 7.33633C45.8625 7.33461 45.8628 7.33305 45.863 7.33179C45.8632 7.33055 45.8632 7.32992 45.8632 7.33006H45.5553C45.5553 7.18319 45.6542 7.10227 45.7302 7.05796C45.768 7.03595 45.8098 7.01709 45.846 7.00097C45.8845 6.98379 45.9194 6.96854 45.9542 6.95071C46.0227 6.91556 46.0773 6.87695 46.1161 6.82299C46.1534 6.7711 46.1856 6.69194 46.1856 6.55921H46.4935ZM45.8632 7.33156L45.84 9.70641L45.5322 9.70341L45.5553 7.32856L45.8632 7.33156ZM45.8392 9.68853C45.8413 9.70814 45.852 9.73362 45.8975 9.77395C45.9472 9.818 46.0078 9.85469 46.0924 9.91305C46.2457 10.0188 46.454 10.1818 46.454 10.4912H46.1461C46.1461 10.3492 46.0633 10.267 45.9176 10.1665C45.8526 10.1217 45.7617 10.065 45.6933 10.0044C45.6207 9.94006 45.5468 9.84968 45.533 9.72129L45.8392 9.68853ZM46.454 10.4912C46.454 10.6853 46.4063 10.8304 46.3229 10.9424C46.2425 11.0503 46.1382 11.1138 46.0589 11.1602C45.9704 11.2119 45.9211 11.2394 45.8869 11.2787C45.863 11.3061 45.8396 11.348 45.8474 11.4447L45.5405 11.4693C45.5271 11.302 45.5689 11.1749 45.6547 11.0765C45.7302 10.9898 45.835 10.9344 45.9034 10.8944C45.9809 10.8491 46.0361 10.812 46.076 10.7585C46.1128 10.7091 46.1461 10.6319 46.1461 10.4912H46.454ZM45.8474 11.4447C45.8637 11.6476 45.8635 11.9581 45.8596 12.2127C45.8577 12.3411 45.8547 12.4572 45.8522 12.5412C45.851 12.5832 45.8499 12.6172 45.8491 12.6408C45.8487 12.6525 45.8484 12.6617 45.8481 12.6679C45.848 12.6711 45.8479 12.6735 45.8479 12.6751C45.8478 12.6759 45.8478 12.6765 45.8478 12.6769C45.8478 12.6771 45.8478 12.6773 45.8478 12.6774C45.8478 12.6775 45.8478 12.6775 45.8478 12.6775C45.8478 12.6776 45.8478 12.6776 45.8478 12.6776C45.8478 12.6776 45.8478 12.6776 45.6939 12.6718C45.5401 12.6659 45.5401 12.6659 45.5401 12.6659C45.5401 12.6659 45.5401 12.6659 45.5401 12.6659C45.5401 12.6659 45.5401 12.6658 45.5401 12.6658C45.5401 12.6657 45.5401 12.6656 45.5401 12.6654C45.5401 12.665 45.5402 12.6644 45.5402 12.6637C45.5402 12.6621 45.5403 12.6599 45.5404 12.6568C45.5407 12.6508 45.541 12.6418 45.5414 12.6303C45.5422 12.6072 45.5433 12.5736 45.5445 12.5322C45.5469 12.4492 45.5498 12.3346 45.5518 12.208C45.5557 11.9525 45.5555 11.6557 45.5405 11.4694L45.8474 11.4447ZM45.6939 12.8257C44.45 12.8257 36.3909 12.9014 35.993 12.8857L36.0052 12.5781C36.3955 12.5935 44.4351 12.5178 45.6939 12.5178V12.8257ZM35.8452 12.7277C35.8574 12.279 35.8977 12.0598 35.9415 11.8956C35.9848 11.7332 36.0186 11.6625 36.032 11.4698L36.3391 11.4911C36.3231 11.7224 36.2756 11.8375 36.239 11.9749C36.2029 12.1105 36.1647 12.3049 36.153 12.7361L35.8452 12.7277ZM36.032 11.4698C36.0337 11.4454 36.0238 11.4077 35.9662 11.3414C35.9073 11.2736 35.8284 11.2079 35.7289 11.1173C35.5453 10.9502 35.3077 10.7127 35.3077 10.3513H35.6156C35.6156 10.5661 35.7518 10.7219 35.9361 10.8896C36.0206 10.9665 36.1241 11.0536 36.1987 11.1396C36.2747 11.2271 36.3493 11.3442 36.3391 11.4911L36.032 11.4698ZM35.3077 10.3513C35.3077 10.2193 35.346 10.115 35.4071 10.0297C35.4645 9.94964 35.539 9.89134 35.5964 9.84689C35.721 9.75045 35.7841 9.70009 35.7959 9.58764L36.1021 9.61967C36.0748 9.88103 35.8942 10.0058 35.7849 10.0904C35.7254 10.1364 35.6853 10.1701 35.6574 10.209C35.6333 10.2428 35.6156 10.2846 35.6156 10.3513H35.3077ZM35.795 9.60365V7.23642H36.1029V9.60365H35.795ZM35.7955 7.24784C35.7939 7.22625 35.7798 7.19155 35.7222 7.13482C35.6639 7.07742 35.5899 7.02401 35.4979 6.95152C35.3353 6.82342 35.1021 6.62784 35.1183 6.3176L35.4258 6.33366C35.4188 6.46702 35.5126 6.57113 35.6884 6.70967C35.7656 6.7705 35.8638 6.84216 35.9382 6.91541C36.0133 6.98934 36.0925 7.0909 36.1025 7.225L35.7955 7.24784ZM35.1183 6.31746C35.1271 6.15223 35.182 6.02556 35.2632 5.92617C35.3412 5.83081 35.4383 5.76721 35.5176 5.71896C35.6053 5.66551 35.6614 5.63533 35.7039 5.59659C35.7368 5.56655 35.7481 5.54308 35.7481 5.50754H36.056C36.056 5.64941 35.9921 5.75051 35.9113 5.82413C35.8401 5.88904 35.7439 5.94161 35.6777 5.98193C35.603 6.02745 35.5444 6.06865 35.5016 6.12103C35.4621 6.1694 35.4311 6.23343 35.4258 6.3338L35.1183 6.31746ZM35.7481 5.50754C35.7481 5.33906 35.7638 4.77934 35.7562 4.63575L36.0636 4.61947C36.0717 4.77189 36.056 5.36518 36.056 5.50754H35.7481Z" fill="#FB8973" mask="url(#path-31-inside-1)"/>
<path d="M35.9099 4.62761H37.177C38.1057 4.40983 38.4444 3.8568 39.3966 3.8568C40.082 3.8568 40.4047 4.32418 40.9081 4.32418C41.3332 4.32418 41.9867 3.82586 42.7027 3.82586C43.4351 3.82586 43.7971 4.27759 44.2774 4.48766C44.7025 4.67457 45.2611 4.66461 45.8515 4.66461C45.8356 5.10092 45.8515 5.35989 45.8515 5.72567C45.8515 6.0995 46.3395 5.95145 46.3395 6.55921C46.3395 7.19776 45.7093 7.07303 45.7093 7.33006L45.6861 9.70491C45.7178 10.0009 46.3001 10.0398 46.3001 10.4912C46.3001 11.1611 45.6516 10.929 45.6939 11.457C45.7253 11.8462 45.6939 12.6718 45.6939 12.6718C44.4425 12.6718 36.3932 12.7474 35.9991 12.7319C36.023 11.8521 36.1561 11.9045 36.1856 11.4804C36.2093 11.1378 35.4616 10.9275 35.4616 10.3513C35.4616 9.9539 35.9099 9.97748 35.949 9.60365V7.23642C35.9258 6.92502 35.2489 6.76922 35.2721 6.32563C35.3003 5.79444 35.9021 5.86236 35.9021 5.50754C35.9021 5.35212 35.9177 4.77561 35.9099 4.62761V4.62761Z" stroke="#FB8973" stroke-width="0.1" stroke-miterlimit="3.8636"/>
<path d="M36.9414 4.66697C36.9414 4.66697 36.9574 9.96199 36.9414 11.208C36.9414 11.208 44.4506 11.2235 44.7811 11.1923C44.7811 9.78284 44.7736 4.62768 44.7736 4.62768" stroke="#FB8973" stroke-width="0.1" stroke-miterlimit="3.8636"/>
<path d="M40.8691 4.33978V11.2235" stroke="#FB8973" stroke-width="0.1" stroke-miterlimit="3.8636"/>
<path d="M41.6309 10.5992C41.4099 10.5311 41.2177 10.4796 41.0706 10.4597C41.0718 10.5427 41.0712 10.6985 41.0658 10.9899L41.1533 10.9892L41.5911 10.9851C41.9525 10.9816 42.4322 10.9765 42.9061 10.9701C42.7678 10.9491 42.6291 10.9191 42.4915 10.8763L42.4915 10.8763C42.3465 10.8311 42.2006 10.7833 42.0586 10.7367L42.0494 10.7337C41.9043 10.6861 41.7635 10.64 41.6309 10.5992Z" stroke="#FB8973" stroke-width="0.1"/>
<path d="M40.9873 10.3746C41.3178 10.39 41.9246 10.6191 42.5144 10.8028C43.2775 11.0403 44.0872 10.8739 44.6864 10.9974C44.8754 11.0364 40.9873 11.0676 40.9873 11.0676C41.0027 10.2963 40.9873 10.3746 40.9873 10.3746Z" stroke="#FB8973" stroke-width="0.1" stroke-miterlimit="3.8636"/>
<path d="M40.8666 11.1589C40.7599 11.1589 40.6665 11.1899 40.6017 11.2362C40.5368 11.2825 40.5057 11.3395 40.5057 11.3943C40.5057 11.449 40.5367 11.5059 40.6016 11.5521C40.6664 11.5982 40.7599 11.6291 40.8666 11.6291C40.9737 11.6291 41.0671 11.5982 41.1318 11.5521C41.1966 11.5059 41.2276 11.4491 41.2276 11.3943C41.2276 11.3394 41.1966 11.2824 41.1317 11.2361C41.067 11.19 40.9736 11.1589 40.8666 11.1589Z" stroke="#FB8973" stroke-width="0.1"/>
<path d="M40.4287 11.3943C40.4287 11.2219 40.6248 11.082 40.8666 11.082C41.109 11.082 41.3045 11.2219 41.3045 11.3943C41.3045 11.5666 41.109 11.7061 40.8666 11.7061C40.6248 11.7061 40.4287 11.5666 40.4287 11.3943Z" stroke="#FB8973" stroke-width="0.1" stroke-miterlimit="3.8636"/>
<path d="M38.7322 10.9701C39.2061 10.9765 39.686 10.9816 40.0473 10.9851L40.4851 10.9892L40.5726 10.9899C40.5671 10.6985 40.5665 10.5427 40.5677 10.4597C40.4207 10.4797 40.2285 10.5311 40.0075 10.5992C39.8749 10.64 39.7341 10.6861 39.589 10.7337L39.5798 10.7367C39.4378 10.7833 39.2919 10.8311 39.147 10.8763L39.147 10.8763C39.0093 10.9191 38.8705 10.9491 38.7322 10.9701Z" stroke="#FB8973" stroke-width="0.1"/>
<path d="M40.6511 10.3746C40.3207 10.39 39.7139 10.6191 39.1241 10.8028C38.3607 11.0403 37.5509 10.8739 36.952 10.9974C36.7631 11.0364 40.6511 11.0676 40.6511 11.0676C40.6355 10.2963 40.6511 10.3746 40.6511 10.3746Z" stroke="#FB8973" stroke-width="0.1" stroke-miterlimit="3.8636"/>
<mask id="path-42-inside-2" fill="white">
<path d="M14.8513 13.3643C14.9772 13.8704 15.3471 14.2053 15.9533 14.2053C17.0788 14.2053 18.1651 13.3486 18.8183 12.8661C19.3301 12.4922 19.8573 12.0952 19.8573 11.2774L19.763 11.5887C19.763 11.5887 20.6448 10.6857 22.8169 11.4019C23.4205 11.6009 26.0051 13.0915 26.564 13.3331C27.0443 13.5435 28.7273 14.7834 31.3577 14.3053C31.3577 14.3053 35.3736 13.7379 34.4764 9.49057C33.8352 6.45484 34.0341 6.23936 34.2781 5.26582C34.1839 5.21922 31.8223 4.67415 31.8853 8.03807C30.8616 8.1471 29.5549 8.94106 30.4051 11.0284C30.7516 10.4985 31.2158 9.93805 31.8535 9.93805C32.2549 9.93805 32.6777 10.5303 32.7037 10.9659C32.7667 12.0251 31.7276 12.4922 30.437 12.274C29.7824 12.1637 29.1797 11.419 28.2775 10.7484C28.4351 10.6706 28.5788 10.125 28.5788 9.90681C28.5788 9.36959 28.1302 9.12064 27.8236 8.94108C27.8865 8.75451 28.0119 8.50516 28.0119 8.31818C28.0119 7.89005 27.4216 7.92127 27.194 7.7578C27.2879 7.62519 27.2879 7.70343 27.2879 7.50847C27.2879 6.88532 27.3825 6.54272 26.1546 6.57427C26.257 5.95882 26.1308 5.56179 25.7138 5.39028L24.8007 5.26582C24.2341 5.15707 24.7994 4.96309 24.276 4.44549C23.8097 3.9831 23.0415 4.44549 23.0415 4.44549C23.0415 4.01723 22.754 3.67714 22.2502 3.67714C21.9827 3.67714 21.6523 3.70065 21.4633 3.80198L21.0856 4.11341C20.6132 4.11341 20.4951 3.67714 19.9519 3.67714C19.409 3.67714 19.1885 4.11342 18.9758 4.39368C18.6058 4.21447 18.5586 3.89536 18.0628 3.89536C17.7717 3.89536 17.6853 4.21444 17.559 4.36244C17.2364 4.72856 17.2592 5.1078 16.7555 5.29478L16.5683 4.95626C16.5622 4.9351 16.5566 4.91357 16.5516 4.892C15.8114 5.25812 14.142 9.16687 14.142 9.96862C14.142 10.7321 14.7884 10.3975 14.7884 11.2153C14.7884 11.6978 14.0957 12.0485 14.0957 12.461C14.0957 12.9828 14.6859 13.2395 15.1975 13.2395"/>
</mask>
<path d="M14.8513 13.3643C14.9772 13.8704 15.3471 14.2053 15.9533 14.2053C17.0788 14.2053 18.1651 13.3486 18.8183 12.8661C19.3301 12.4922 19.8573 12.0952 19.8573 11.2774L19.763 11.5887C19.763 11.5887 20.6448 10.6857 22.8169 11.4019C23.4205 11.6009 26.0051 13.0915 26.564 13.3331C27.0443 13.5435 28.7273 14.7834 31.3577 14.3053C31.3577 14.3053 35.3736 13.7379 34.4764 9.49057C33.8352 6.45484 34.0341 6.23936 34.2781 5.26582C34.1839 5.21922 31.8223 4.67415 31.8853 8.03807C30.8616 8.1471 29.5549 8.94106 30.4051 11.0284C30.7516 10.4985 31.2158 9.93805 31.8535 9.93805C32.2549 9.93805 32.6777 10.5303 32.7037 10.9659C32.7667 12.0251 31.7276 12.4922 30.437 12.274C29.7824 12.1637 29.1797 11.419 28.2775 10.7484C28.4351 10.6706 28.5788 10.125 28.5788 9.90681C28.5788 9.36959 28.1302 9.12064 27.8236 8.94108C27.8865 8.75451 28.0119 8.50516 28.0119 8.31818C28.0119 7.89005 27.4216 7.92127 27.194 7.7578C27.2879 7.62519 27.2879 7.70343 27.2879 7.50847C27.2879 6.88532 27.3825 6.54272 26.1546 6.57427C26.257 5.95882 26.1308 5.56179 25.7138 5.39028L24.8007 5.26582C24.2341 5.15707 24.7994 4.96309 24.276 4.44549C23.8097 3.9831 23.0415 4.44549 23.0415 4.44549C23.0415 4.01723 22.754 3.67714 22.2502 3.67714C21.9827 3.67714 21.6523 3.70065 21.4633 3.80198L21.0856 4.11341C20.6132 4.11341 20.4951 3.67714 19.9519 3.67714C19.409 3.67714 19.1885 4.11342 18.9758 4.39368C18.6058 4.21447 18.5586 3.89536 18.0628 3.89536C17.7717 3.89536 17.6853 4.21444 17.559 4.36244C17.2364 4.72856 17.2592 5.1078 16.7555 5.29478L16.5683 4.95626C16.5622 4.9351 16.5566 4.91357 16.5516 4.892C15.8114 5.25812 14.142 9.16687 14.142 9.96862C14.142 10.7321 14.7884 10.3975 14.7884 11.2153C14.7884 11.6978 14.0957 12.0485 14.0957 12.461C14.0957 12.9828 14.6859 13.2395 15.1975 13.2395" fill="white"/>
<path d="M18.8183 12.8661L18.7268 12.7423L18.7275 12.7418L18.8183 12.8661ZM19.8573 11.2774L19.71 11.2327L20.0113 11.2774H19.8573ZM19.763 11.5887L19.8731 11.6963L19.6156 11.5441L19.763 11.5887ZM22.8169 11.4019L22.8651 11.2557L22.8651 11.2557L22.8169 11.4019ZM26.564 13.3331L26.6251 13.1918L26.6258 13.1921L26.564 13.3331ZM31.3577 14.3053L31.3302 14.1538L31.3362 14.1529L31.3577 14.3053ZM34.4764 9.49057L34.3258 9.52239L34.3258 9.52239L34.4764 9.49057ZM34.2781 5.26582L34.3463 5.12782L34.4576 5.18283L34.4275 5.30325L34.2781 5.26582ZM31.8853 8.03807L32.0392 8.03519L32.0418 8.17622L31.9016 8.19116L31.8853 8.03807ZM30.4051 11.0284L30.5339 11.1126L30.3732 11.3583L30.2625 11.0864L30.4051 11.0284ZM32.7037 10.9659L32.8574 10.9568L32.8574 10.9568L32.7037 10.9659ZM30.437 12.274L30.4626 12.1222L30.4627 12.1222L30.437 12.274ZM28.2775 10.7484L28.1856 10.872L27.9837 10.7219L28.2093 10.6104L28.2775 10.7484ZM27.8236 8.94108L27.7458 9.07393L27.6377 9.01061L27.6777 8.89187L27.8236 8.94108ZM27.194 7.7578L27.1042 7.88285L26.98 7.79363L27.0684 7.66881L27.194 7.7578ZM26.1546 6.57427L26.1585 6.72817L25.9721 6.73296L26.0027 6.54899L26.1546 6.57427ZM25.7138 5.39028L25.7346 5.23774L25.7541 5.2404L25.7724 5.2479L25.7138 5.39028ZM24.8007 5.26582L24.7799 5.41858L24.7717 5.41701L24.8007 5.26582ZM24.276 4.44549L24.1678 4.55495L24.1676 4.55481L24.276 4.44549ZM23.0415 4.44549L23.1209 4.57739L22.8876 4.71785V4.44549H23.0415ZM21.4633 3.80198L21.3654 3.6832L21.3771 3.67351L21.3906 3.66631L21.4633 3.80198ZM21.0856 4.11341L21.1836 4.23218L21.1409 4.26735H21.0856V4.11341ZM18.9758 4.39368L19.0985 4.48673L19.0222 4.58721L18.9087 4.53223L18.9758 4.39368ZM17.559 4.36244L17.6761 4.46238L17.6745 4.46421L17.559 4.36244ZM16.7555 5.29478L16.8091 5.4391L16.6849 5.4852L16.6208 5.3693L16.7555 5.29478ZM16.5683 4.95626L16.4335 5.03078L16.4251 5.01552L16.4203 4.99877L16.5683 4.95626ZM16.5516 4.892L16.4833 4.75401L16.6571 4.66804L16.7014 4.85681L16.5516 4.892ZM15.0007 13.3272C15.057 13.5534 15.1652 13.732 15.3183 13.8543C15.4709 13.9762 15.6795 14.0514 15.9533 14.0514V14.3593C15.6209 14.3593 15.3415 14.2669 15.1261 14.0949C14.9112 13.9232 14.7715 13.6813 14.7019 13.4015L15.0007 13.3272ZM15.9533 14.0514C16.4786 14.0514 17.0046 13.8508 17.4882 13.5821C17.9713 13.3135 18.3969 12.9859 18.7268 12.7423L18.9098 12.9899C18.5865 13.2287 18.1424 13.5707 17.6377 13.8512C17.1335 14.1314 16.5536 14.3593 15.9533 14.3593V14.0514ZM18.7275 12.7418C19.2433 12.3649 19.7034 12.0096 19.7034 11.2774H20.0113C20.0113 12.1808 19.4169 12.6194 18.9091 12.9904L18.7275 12.7418ZM20.0046 11.322L19.9103 11.6334L19.6156 11.5441L19.71 11.2327L20.0046 11.322ZM19.763 11.5887C19.6528 11.4812 19.6529 11.4811 19.653 11.481C19.6531 11.481 19.6531 11.4809 19.6532 11.4808C19.6534 11.4807 19.6535 11.4805 19.6537 11.4803C19.654 11.48 19.6544 11.4796 19.6549 11.4791C19.6558 11.4782 19.6569 11.4771 19.6583 11.4758C19.661 11.4732 19.6646 11.4697 19.6691 11.4656C19.6782 11.4572 19.6909 11.4459 19.7074 11.4324C19.7404 11.4053 19.7885 11.369 19.8526 11.3286C19.9809 11.2478 20.1728 11.1508 20.4343 11.0784C20.9591 10.9331 21.7538 10.8893 22.8651 11.2557L22.7687 11.5481C21.708 11.1984 20.9757 11.248 20.5165 11.3751C20.2861 11.4389 20.1217 11.523 20.0168 11.5891C19.9642 11.6222 19.9265 11.6508 19.9028 11.6703C19.891 11.68 19.8826 11.6875 19.8777 11.692C19.8753 11.6943 19.8736 11.6958 19.8729 11.6966C19.8725 11.6969 19.8723 11.6971 19.8724 11.6971C19.8724 11.697 19.8725 11.697 19.8726 11.6968C19.8726 11.6968 19.8727 11.6967 19.8728 11.6966C19.8729 11.6966 19.8729 11.6965 19.873 11.6965C19.873 11.6964 19.8731 11.6963 19.763 11.5887ZM22.8651 11.2557C23.0293 11.3098 23.3148 11.4462 23.6485 11.6165C23.9861 11.7889 24.3846 12.0022 24.7804 12.2161C25.5784 12.6473 26.3539 13.0745 26.6251 13.1918L26.5029 13.4744C26.2153 13.3501 25.419 12.9112 24.6341 12.487C24.2384 12.2732 23.8426 12.0614 23.5085 11.8908C23.1702 11.7181 22.9063 11.5935 22.7687 11.5481L22.8651 11.2557ZM26.6258 13.1921C27.134 13.4148 28.7589 14.6212 31.3302 14.1539L31.3852 14.4568C28.6957 14.9456 26.9546 13.6723 26.5022 13.4741L26.6258 13.1921ZM31.3577 14.3053C31.3362 14.1529 31.3361 14.1529 31.3361 14.1529C31.3361 14.1529 31.336 14.1529 31.336 14.1529C31.336 14.1529 31.3361 14.1529 31.3363 14.1529C31.3365 14.1528 31.337 14.1528 31.3378 14.1527C31.3393 14.1524 31.3417 14.1521 31.345 14.1515C31.3517 14.1505 31.362 14.1488 31.3756 14.1464C31.4029 14.1415 31.4435 14.1337 31.4954 14.1223C31.5991 14.0995 31.7474 14.062 31.9229 14.0041C32.2749 13.888 32.7323 13.6911 33.1608 13.3678C33.5884 13.0452 33.9859 12.598 34.2239 11.9794C34.4619 11.3611 34.545 10.5601 34.3258 9.52239L34.627 9.45876C34.8564 10.5447 34.774 11.4074 34.5113 12.09C34.2487 12.7723 33.8104 13.2634 33.3462 13.6136C32.8829 13.9631 32.3924 14.1735 32.0194 14.2965C31.8325 14.3582 31.674 14.3982 31.5616 14.423C31.5054 14.4354 31.4607 14.444 31.4296 14.4495C31.414 14.4523 31.4018 14.4543 31.3934 14.4556C31.3891 14.4563 31.3858 14.4568 31.3834 14.4572C31.3823 14.4573 31.3813 14.4575 31.3806 14.4576C31.3803 14.4576 31.38 14.4577 31.3798 14.4577C31.3796 14.4577 31.3795 14.4577 31.3795 14.4577C31.3793 14.4578 31.3792 14.4578 31.3577 14.3053ZM34.3258 9.52239C34.0051 8.00407 33.8913 7.17743 33.8914 6.60485C33.8915 6.02577 34.0094 5.7048 34.1288 5.2284L34.4275 5.30325C34.3029 5.80038 34.1993 6.07392 34.1993 6.6049C34.1992 7.14237 34.3065 7.94134 34.627 9.45876L34.3258 9.52239ZM34.2099 5.40383C34.2204 5.40902 34.2205 5.4075 34.197 5.40149C34.1788 5.39685 34.1525 5.39105 34.1192 5.38525C34.0527 5.37367 33.9607 5.36255 33.8523 5.36018C33.6345 5.35544 33.3576 5.38611 33.088 5.51241C32.8211 5.63745 32.5546 5.85914 32.3566 6.24893C32.1572 6.64128 32.0237 7.2111 32.0392 8.03519L31.7313 8.04096C31.7153 7.18309 31.8534 6.55957 32.0821 6.10947C32.312 5.65682 32.63 5.38695 32.9574 5.23359C33.2821 5.08149 33.6093 5.04692 33.859 5.05236C33.9842 5.05509 34.0917 5.06792 34.1721 5.08192C34.2122 5.08892 34.2463 5.09632 34.2731 5.10315C34.2944 5.1086 34.3241 5.1168 34.3463 5.12782L34.2099 5.40383ZM31.9016 8.19116C31.4156 8.24291 30.8805 8.45617 30.5664 8.88266C30.2594 9.29965 30.1359 9.9594 30.5476 10.9703L30.2625 11.0864C29.8241 10.01 29.9289 9.22915 30.3185 8.70008C30.7011 8.1805 31.3312 7.94227 31.869 7.88499L31.9016 8.19116ZM30.2762 10.9441C30.4519 10.6754 30.664 10.3885 30.9195 10.168C31.1763 9.94634 31.4861 9.78411 31.8535 9.78411V10.092C31.5832 10.092 31.342 10.21 31.1207 10.4011C30.898 10.5932 30.7047 10.8515 30.5339 11.1126L30.2762 10.9441ZM31.8535 9.78411C32.1256 9.78411 32.3713 9.97826 32.5404 10.1935C32.7135 10.4138 32.8421 10.6999 32.8574 10.9568L32.5501 10.9751C32.5394 10.7964 32.4435 10.5685 32.2983 10.3838C32.1492 10.194 31.9828 10.092 31.8535 10.092V9.78411ZM32.8574 10.9568C32.8926 11.5491 32.6143 11.9857 32.1508 12.2346C31.6976 12.478 31.0773 12.5384 30.4114 12.4258L30.4627 12.1222C31.0873 12.2278 31.6319 12.1637 32.0052 11.9633C32.3681 11.7684 32.5778 11.4419 32.5501 10.9751L32.8574 10.9568ZM30.4114 12.4259C30.04 12.3632 29.6978 12.1242 29.3523 11.8402C28.9954 11.5469 28.6341 11.2053 28.1856 10.872L28.3693 10.6249C28.823 10.9621 29.2142 11.3282 29.5478 11.6024C29.8929 11.886 30.1794 12.0745 30.4626 12.1222L30.4114 12.4259ZM28.2093 10.6104C28.2027 10.6137 28.2221 10.6032 28.2558 10.5412C28.2853 10.4871 28.3146 10.4146 28.3407 10.3332C28.3939 10.1675 28.4249 9.99358 28.4249 9.90681H28.7328C28.7328 10.0382 28.6919 10.2462 28.6338 10.4273C28.6043 10.5193 28.5681 10.6114 28.5263 10.6883C28.4887 10.7574 28.431 10.8443 28.3457 10.8865L28.2093 10.6104ZM28.4249 9.90681C28.4249 9.47126 28.0698 9.26367 27.7458 9.07393L27.9014 8.80823C28.1906 8.9776 28.7328 9.26793 28.7328 9.90681H28.4249ZM27.6777 8.89187C27.6948 8.84118 27.7158 8.78729 27.7362 8.73513C27.7572 8.68179 27.7778 8.62966 27.7965 8.5777C27.8351 8.47026 27.8579 8.3829 27.8579 8.31818H28.1658C28.1658 8.44043 28.126 8.57124 28.0862 8.68187C28.0657 8.73894 28.0432 8.79581 28.0229 8.84754C28.0021 8.90045 27.9838 8.94769 27.9695 8.99029L27.6777 8.89187ZM27.8579 8.31818C27.8579 8.25165 27.837 8.21209 27.8064 8.18098C27.7707 8.14475 27.7144 8.11302 27.6341 8.08285C27.552 8.05198 27.4688 8.03074 27.3727 8.00132C27.286 7.97476 27.1839 7.9401 27.1042 7.88285L27.2838 7.63275C27.3179 7.65724 27.3749 7.67998 27.4629 7.70692C27.5415 7.73099 27.6486 7.75936 27.7425 7.79463C27.8382 7.83061 27.9437 7.88156 28.0258 7.965C28.113 8.05356 28.1658 8.17064 28.1658 8.31818H27.8579ZM27.0684 7.66881C27.0966 7.62904 27.1186 7.60394 27.135 7.58609C27.1443 7.57597 27.146 7.57434 27.1484 7.5715C27.1494 7.57033 27.1455 7.57462 27.1412 7.58243C27.131 7.60107 27.1319 7.61506 27.1329 7.60085C27.1339 7.58511 27.134 7.55989 27.134 7.50847H27.4419C27.4419 7.55454 27.442 7.59265 27.4401 7.62121C27.4381 7.65131 27.4331 7.69058 27.4111 7.73061C27.3937 7.76237 27.3663 7.78948 27.3616 7.79454C27.3516 7.80541 27.3384 7.82026 27.3196 7.84679L27.0684 7.66881ZM27.134 7.50847C27.134 7.34268 27.1397 7.21889 27.1302 7.10844C27.121 7.00223 27.099 6.93807 27.0623 6.89301C27.0265 6.84902 26.9595 6.80228 26.8154 6.76938C26.67 6.73617 26.4606 6.72041 26.1585 6.72817L26.1506 6.42037C26.4626 6.41236 26.7018 6.42759 26.884 6.46921C27.0676 6.51115 27.2071 6.58309 27.3012 6.6987C27.3944 6.81324 27.4255 6.9496 27.4369 7.0819C27.448 7.20997 27.4419 7.36269 27.4419 7.50847H27.134ZM26.0027 6.54899C26.0519 6.25357 26.0424 6.03029 25.9841 5.86776C25.9285 5.71281 25.8252 5.60254 25.6552 5.53265L25.7724 5.2479C26.0195 5.34953 26.1877 5.52352 26.2739 5.76383C26.3574 5.99655 26.3597 6.27952 26.3064 6.59955L26.0027 6.54899ZM25.693 5.54281L24.7799 5.41836L24.8215 5.11328L25.7346 5.23774L25.693 5.54281ZM24.7717 5.41701C24.6291 5.38964 24.5081 5.35021 24.4353 5.26349C24.3561 5.16903 24.3663 5.05444 24.3683 5.00282C24.3709 4.93928 24.3728 4.88765 24.3524 4.82337C24.3321 4.75948 24.2851 4.67097 24.1678 4.55495L24.3843 4.33603C24.5286 4.47881 24.6072 4.60865 24.6458 4.7301C24.6843 4.85117 24.6785 4.95188 24.676 5.01513C24.673 5.0903 24.6807 5.07695 24.6712 5.06562C24.6682 5.06203 24.6891 5.08763 24.8298 5.11463L24.7717 5.41701ZM24.1676 4.55481C23.9898 4.37855 23.7479 4.36913 23.5185 4.4221C23.4062 4.44803 23.3056 4.48731 23.2326 4.52057C23.1964 4.53708 23.1675 4.55184 23.1481 4.56223C23.1384 4.56742 23.1311 4.5715 23.1265 4.57414C23.1242 4.57546 23.1226 4.57642 23.1216 4.57697C23.1211 4.57725 23.1208 4.57743 23.1207 4.5775C23.1207 4.57753 23.1206 4.57754 23.1207 4.57752C23.1207 4.57752 23.1207 4.5775 23.1207 4.57748C23.1208 4.57747 23.1208 4.57744 23.1208 4.57744C23.1209 4.57741 23.1209 4.57739 23.0415 4.44549C22.9621 4.3136 22.9622 4.31357 22.9622 4.31354C22.9622 4.31352 22.9623 4.31349 22.9623 4.31346C22.9624 4.31341 22.9625 4.31336 22.9626 4.31329C22.9628 4.31316 22.9631 4.313 22.9634 4.31282C22.964 4.31245 22.9648 4.31197 22.9658 4.31139C22.9678 4.31022 22.9705 4.30864 22.974 4.30669C22.9808 4.30278 22.9905 4.29738 23.0027 4.29082C23.0272 4.27774 23.062 4.25998 23.105 4.24037C23.1906 4.20138 23.3112 4.15396 23.4492 4.12209C23.7205 4.05946 24.0958 4.05005 24.3844 4.33617L24.1676 4.55481ZM22.8876 4.44549C22.8876 4.26589 22.8277 4.11414 22.7244 4.00809C22.6222 3.903 22.466 3.83109 22.2502 3.83109V3.5232C22.5382 3.5232 22.7777 3.62133 22.9451 3.79334C23.1116 3.9644 23.1955 4.19682 23.1955 4.44549H22.8876ZM22.2502 3.83109C22.1203 3.83109 21.9781 3.83684 21.8476 3.85417C21.7141 3.87189 21.6061 3.90011 21.5361 3.93765L21.3906 3.66631C21.5095 3.60252 21.6612 3.56832 21.807 3.54895C21.9558 3.5292 22.1127 3.5232 22.2502 3.5232V3.83109ZM21.5613 3.92076L21.1836 4.23218L20.9877 3.99463L21.3654 3.6832L21.5613 3.92076ZM21.0856 4.26735C20.7946 4.26735 20.6096 4.12771 20.4573 4.02157C20.3056 3.91581 20.1736 3.83109 19.9519 3.83109V3.5232C20.2735 3.5232 20.4721 3.6566 20.6333 3.76898C20.794 3.88097 20.9042 3.95946 21.0856 3.95946V4.26735ZM19.9519 3.83109C19.5048 3.83109 19.3367 4.17279 19.0985 4.48673L18.8532 4.30062C19.0403 4.05405 19.3133 3.5232 19.9519 3.5232V3.83109ZM18.9087 4.53223C18.7001 4.4312 18.5655 4.27861 18.4667 4.19454C18.3682 4.11073 18.2666 4.04931 18.0628 4.04931V3.74141C18.3547 3.74141 18.5246 3.83954 18.6663 3.96008C18.8076 4.08038 18.8815 4.17695 19.0429 4.25513L18.9087 4.53223ZM18.0628 4.04931C17.9863 4.04931 17.932 4.08612 17.8722 4.16583C17.8411 4.20723 17.8137 4.25338 17.7821 4.30617C17.7529 4.35479 17.7174 4.4139 17.6761 4.46236L17.4419 4.26251C17.4637 4.23697 17.4863 4.2007 17.518 4.14786C17.5472 4.0992 17.5833 4.03784 17.626 3.98097C17.7137 3.86414 17.8482 3.74141 18.0628 3.74141V4.04931ZM17.6745 4.46421C17.5255 4.6333 17.4693 4.78661 17.3575 4.97453C17.2475 5.15928 17.1029 5.33005 16.8091 5.4391L16.7019 5.15045C16.9119 5.07252 17.0077 4.96018 17.0929 4.81705C17.1762 4.67707 17.2699 4.4577 17.4435 4.26067L17.6745 4.46421ZM16.6208 5.3693L16.4335 5.03078L16.703 4.88174L16.8902 5.22026L16.6208 5.3693ZM16.4203 4.99877C16.4134 4.97482 16.4073 4.9508 16.4017 4.92719L16.7014 4.85681C16.706 4.87633 16.7109 4.89539 16.7162 4.91374L16.4203 4.99877ZM16.6198 5.02999C16.5585 5.06032 16.4688 5.13931 16.355 5.2794C16.2447 5.41538 16.1228 5.59473 15.9945 5.80666C15.7381 6.23016 15.4629 6.77226 15.2094 7.33059C14.9561 7.88857 14.7262 8.45932 14.5599 8.93906C14.4767 9.17902 14.4101 9.39458 14.3644 9.57342C14.3178 9.7556 14.296 9.88874 14.296 9.96862H13.9881C13.9881 9.84806 14.0184 9.68366 14.066 9.4972C14.1145 9.30739 14.1841 9.08318 14.269 8.83823C14.4388 8.34815 14.6725 7.76851 14.929 7.20332C15.1855 6.63847 15.4663 6.08462 15.7311 5.64721C15.8634 5.42868 15.9934 5.23633 16.116 5.08534C16.2352 4.93845 16.3596 4.81521 16.4833 4.75401L16.6198 5.02999ZM14.296 9.96862C14.296 10.1367 14.3311 10.2265 14.3702 10.2837C14.4124 10.3456 14.4688 10.3857 14.5539 10.4458C14.6342 10.5024 14.7387 10.5763 14.8174 10.7004C14.8976 10.8269 14.9423 10.9901 14.9423 11.2153H14.6344C14.6344 11.0315 14.5983 10.9299 14.5574 10.8653C14.5148 10.7982 14.4577 10.7547 14.3764 10.6974C14.3 10.6434 14.1948 10.5729 14.1159 10.4573C14.0337 10.3369 13.9881 10.1823 13.9881 9.96862H14.296ZM14.9423 11.2153C14.9423 11.3738 14.8852 11.5141 14.8118 11.6353C14.7391 11.7552 14.6441 11.8664 14.5583 11.9653C14.4689 12.0684 14.3904 12.157 14.3324 12.245C14.2748 12.3323 14.2497 12.4013 14.2497 12.461H13.9418C13.9418 12.3144 14.0032 12.1849 14.0754 12.0754C14.1473 11.9665 14.242 11.86 14.3258 11.7635C14.4131 11.6629 14.4913 11.5701 14.5485 11.4757C14.6049 11.3825 14.6344 11.298 14.6344 11.2153H14.9423ZM14.2497 12.461C14.2497 12.6538 14.3554 12.8047 14.5351 12.9146C14.7178 13.0264 14.9641 13.0855 15.1975 13.0855V13.3934C14.9193 13.3934 14.6147 13.3243 14.3744 13.1772C14.1311 13.0284 13.9418 12.79 13.9418 12.461H14.2497Z" fill="#FB8973" mask="url(#path-42-inside-2)"/>
<path d="M14.8513 13.3643C14.9772 13.8704 15.3471 14.2053 15.9533 14.2053C17.0788 14.2053 18.1651 13.3486 18.8183 12.8661C19.3301 12.4922 19.8573 12.0952 19.8573 11.2774L19.763 11.5887C19.763 11.5887 20.6448 10.6857 22.8169 11.4019C23.4205 11.6009 26.0051 13.0915 26.564 13.3331C27.0443 13.5435 28.7273 14.7834 31.3577 14.3053C31.3577 14.3053 35.3736 13.7379 34.4764 9.49057C33.8352 6.45484 34.0341 6.23936 34.2781 5.26582C34.1839 5.21922 31.8223 4.67415 31.8853 8.03807C30.8616 8.1471 29.5549 8.94106 30.4051 11.0284C30.7516 10.4985 31.2158 9.93805 31.8535 9.93805C32.2549 9.93805 32.6777 10.5303 32.7037 10.9659C32.7667 12.0251 31.7276 12.4922 30.437 12.274C29.7824 12.1637 29.1797 11.419 28.2775 10.7484C28.4351 10.6706 28.5788 10.125 28.5788 9.90681C28.5788 9.36959 28.1302 9.12064 27.8236 8.94108C27.8865 8.75451 28.0119 8.50516 28.0119 8.31818C28.0119 7.89005 27.4216 7.92127 27.194 7.7578C27.2879 7.62519 27.2879 7.70343 27.2879 7.50847C27.2879 6.88532 27.3825 6.54271 26.1546 6.57427C26.257 5.95882 26.1308 5.56179 25.7138 5.39028L24.8007 5.26582C24.2341 5.15707 24.7994 4.96309 24.276 4.44549C23.8097 3.9831 23.0415 4.44549 23.0415 4.44549C23.0415 4.01723 22.754 3.67714 22.2502 3.67714C21.9827 3.67714 21.6523 3.70065 21.4633 3.80198L21.0856 4.11341C20.6132 4.11341 20.4951 3.67714 19.9519 3.67714C19.409 3.67714 19.1885 4.11342 18.9758 4.39368C18.6058 4.21447 18.5586 3.89536 18.0628 3.89536C17.7717 3.89536 17.6853 4.21444 17.559 4.36244C17.2364 4.72856 17.2592 5.1078 16.7555 5.29478L16.5683 4.95626C16.5622 4.9351 16.5566 4.91357 16.5516 4.892C15.8114 5.25812 14.142 9.16687 14.142 9.96862C14.142 10.7321 14.7884 10.3975 14.7884 11.2153C14.7884 11.6978 14.0957 12.0485 14.0957 12.461C14.0957 12.9828 14.6859 13.2395 15.1975 13.2395L14.8513 13.3643V13.3643Z" stroke="#FB8973" stroke-width="0.1" stroke-miterlimit="3.8636"/>
<path d="M16.1888 11.3116H16.4988C16.6142 11.2122 16.7481 11.1162 16.8724 11.0271C16.9369 10.9808 16.9988 10.9364 17.0543 10.8943C17.1416 10.828 17.2137 10.7672 17.2635 10.7106C17.3134 10.6539 17.3316 10.6118 17.3325 10.5811C17.3318 10.5796 17.3288 10.5721 17.3164 10.558C17.2996 10.5387 17.2729 10.5157 17.2368 10.4898C17.1649 10.4384 17.0667 10.3837 16.9655 10.3329C16.865 10.2824 16.7641 10.2371 16.6881 10.2044C16.6502 10.1881 16.6186 10.1749 16.5966 10.1659L16.5772 10.158C16.5223 10.1624 16.422 10.1923 16.3326 10.2584C16.2383 10.3279 16.1639 10.4315 16.1639 10.5788C16.1639 10.6927 16.1734 10.7638 16.1843 10.8142C16.1898 10.8396 16.1959 10.8607 16.2021 10.8808C16.2033 10.8849 16.2046 10.8891 16.2059 10.8934C16.2109 10.9093 16.2162 10.9265 16.2206 10.9435C16.2424 11.029 16.2411 11.1167 16.1888 11.3116Z" stroke="#FB8973" stroke-width="0.1"/>
<path d="M19.582 8.64616C20.0071 8.43615 19.8101 7.89893 20.4949 7.89893C21.1011 7.89893 21.3294 8.33473 21.8804 8.33473C22.2504 8.33473 22.5101 7.9609 23.0137 7.9609C23.4623 7.9609 24.0528 8.58408 23.9585 9.33145C23.9585 9.33145 25.5326 8.8019 25.4696 10.5462C26.7289 10.1103 26.6033 11.1772 26.7289 11.6987C26.8551 12.1973 27.674 11.7922 27.5477 12.851" stroke="#FB8973" stroke-width="0.1" stroke-miterlimit="3.8636"/>
<mask id="path-47-inside-3" fill="white">
<path d="M2.778 4.6699H4.04507C4.97388 4.45178 5.31248 3.89872 6.26513 3.89872C6.94988 3.89872 7.27248 4.36609 7.77625 4.36609C8.20102 4.36609 8.85471 3.86777 9.5708 3.86777C10.3029 3.86777 10.665 4.3195 11.1452 4.52957C11.5703 4.71648 12.1291 4.70686 12.7196 4.70686C12.7036 5.14282 12.7196 5.4018 12.7196 5.76792C12.7196 6.14175 13.2074 5.99372 13.2074 6.60078C13.2074 7.2394 12.5778 7.1149 12.5778 7.37159L12.5542 9.74724C12.5856 10.0428 13.1682 10.0817 13.1682 10.5334C13.1682 11.2032 12.5194 10.9713 12.562 11.4989C12.5934 11.8885 12.562 12.7137 12.562 12.7137C11.3103 12.7137 3.43109 12.7217 3.03766 12.706C3.0615 11.8261 3.02421 11.9464 3.05332 11.5223C3.07682 11.1797 2.32912 10.9697 2.32912 10.3931C2.32912 9.99614 2.778 10.0193 2.81717 9.6459V7.27833C2.79367 6.96721 2.11675 6.81114 2.14025 6.3672C2.16841 5.8367 2.77017 5.9046 2.77017 5.54971C2.77017 5.394 2.78583 4.81783 2.778 4.6699Z"/>
</mask>
<path d="M2.778 4.6699H4.04507C4.97388 4.45178 5.31248 3.89872 6.26513 3.89872C6.94988 3.89872 7.27248 4.36609 7.77625 4.36609C8.20102 4.36609 8.85471 3.86777 9.5708 3.86777C10.3029 3.86777 10.665 4.3195 11.1452 4.52957C11.5703 4.71648 12.1291 4.70686 12.7196 4.70686C12.7036 5.14282 12.7196 5.4018 12.7196 5.76792C12.7196 6.14175 13.2074 5.99372 13.2074 6.60078C13.2074 7.2394 12.5778 7.1149 12.5778 7.37159L12.5542 9.74724C12.5856 10.0428 13.1682 10.0817 13.1682 10.5334C13.1682 11.2032 12.5194 10.9713 12.562 11.4989C12.5934 11.8885 12.562 12.7137 12.562 12.7137C11.3103 12.7137 3.43109 12.7217 3.03766 12.706C3.0615 11.8261 3.02421 11.9464 3.05332 11.5223C3.07682 11.1797 2.32912 10.9697 2.32912 10.3931C2.32912 9.99614 2.778 10.0193 2.81717 9.6459V7.27833C2.79367 6.96721 2.11675 6.81114 2.14025 6.3672C2.16841 5.8367 2.77017 5.9046 2.77017 5.54971C2.77017 5.394 2.78583 4.81783 2.778 4.6699Z" fill="white"/>
<path d="M4.04507 4.6699L4.08026 4.81977L4.0629 4.82385H4.04507V4.6699ZM11.1452 4.52957L11.2069 4.38853L11.2072 4.38865L11.1452 4.52957ZM12.7196 4.70686V4.55291H12.8793L12.8734 4.7125L12.7196 4.70686ZM12.5778 7.37159H12.7317L12.7317 7.37311L12.5778 7.37159ZM12.5542 9.74724L12.4001 9.76358L12.4003 9.74571L12.5542 9.74724ZM12.562 11.4989L12.7155 11.4865L12.7155 11.4866L12.562 11.4989ZM12.562 12.7137L12.7159 12.7196L12.7103 12.8677H12.562V12.7137ZM3.03766 12.706L3.0315 12.8598L2.87965 12.8537L2.88377 12.7018L3.03766 12.706ZM3.05332 11.5223L3.20691 11.5329L3.20691 11.5329L3.05332 11.5223ZM2.81717 9.6459H2.97196L2.97027 9.66196L2.81717 9.6459ZM2.81717 7.27833L2.97111 7.2667V7.27833H2.81717ZM2.14025 6.3672L1.98651 6.35906L1.98651 6.35904L2.14025 6.3672ZM2.778 4.51595H4.04507V4.82385H2.778V4.51595ZM4.00987 4.52003C4.45091 4.41646 4.74693 4.23579 5.0754 4.06579C5.40476 3.89533 5.75328 3.74477 6.26513 3.74477V4.05266C5.82433 4.05266 5.52722 4.17864 5.21692 4.33923C4.90572 4.5003 4.56803 4.70522 4.08026 4.81977L4.00987 4.52003ZM6.26513 3.74477C6.64579 3.74477 6.925 3.87623 7.15847 3.99525C7.39931 4.11801 7.56934 4.21214 7.77625 4.21214V4.52004C7.47939 4.52004 7.23624 4.38048 7.01864 4.26956C6.79369 4.15489 6.56922 4.05266 6.26513 4.05266V3.74477ZM7.77625 4.21214C7.85554 4.21214 7.95592 4.18828 8.08385 4.14308C8.21152 4.09796 8.34858 4.03852 8.50623 3.97435C8.81286 3.84952 9.17993 3.71382 9.5708 3.71382V4.02172C9.24557 4.02172 8.92775 4.13518 8.62232 4.25952C8.47395 4.31992 8.32318 4.38506 8.18644 4.43338C8.04996 4.48161 7.90935 4.52004 7.77625 4.52004V4.21214ZM9.5708 3.71382C9.97255 3.71382 10.2728 3.839 10.5292 3.98644C10.6542 4.05834 10.7736 4.13854 10.8822 4.20768C10.9937 4.27864 11.0982 4.34097 11.2069 4.38853L11.0835 4.67062C10.9521 4.61314 10.8313 4.54023 10.7169 4.4674C10.5996 4.39276 10.4927 4.32064 10.3757 4.25335C10.148 4.1224 9.90113 4.02172 9.5708 4.02172V3.71382ZM11.2072 4.38865C11.3971 4.47218 11.6237 4.51449 11.8824 4.53483C12.1416 4.5552 12.4216 4.55291 12.7196 4.55291V4.8608C12.4271 4.8608 12.1325 4.86333 11.8583 4.84178C11.5838 4.8202 11.3184 4.77388 11.0832 4.6705L11.2072 4.38865ZM12.8734 4.7125C12.8576 5.14553 12.8736 5.39223 12.8736 5.76792H12.5657C12.5657 5.41136 12.5496 5.14012 12.5658 4.70121L12.8734 4.7125ZM12.8736 5.76792C12.8736 5.82077 12.8881 5.84398 12.9075 5.86441C12.9391 5.89771 12.9756 5.91731 13.0519 5.97089C13.1196 6.01839 13.2015 6.08358 13.2637 6.18875C13.3263 6.29471 13.3613 6.42776 13.3613 6.60078H13.0534C13.0534 6.47028 13.0274 6.39418 12.9986 6.34547C12.9694 6.29598 12.9293 6.26099 12.875 6.22289C12.8294 6.19086 12.744 6.13943 12.6842 6.07638C12.6121 6.00046 12.5657 5.90199 12.5657 5.76792H12.8736ZM13.3613 6.60078C13.3613 6.7873 13.3148 6.93201 13.234 7.04437C13.1548 7.15468 13.0518 7.22072 12.9629 7.26637C12.9189 7.28893 12.875 7.30811 12.8397 7.32387C12.8021 7.34068 12.775 7.35326 12.7537 7.36567C12.7323 7.37814 12.7269 7.38484 12.7269 7.38475C12.7275 7.38404 12.7291 7.38166 12.7304 7.37793C12.731 7.3762 12.7313 7.37463 12.7315 7.37336C12.7317 7.37211 12.7317 7.37147 12.7317 7.37159H12.4238C12.4238 7.22479 12.5227 7.14393 12.5986 7.09966C12.6364 7.07767 12.6781 7.05882 12.7142 7.0427C12.7527 7.02553 12.7875 7.01028 12.8223 6.99245C12.8907 6.95731 12.9452 6.91869 12.984 6.86471C13.0213 6.81279 13.0534 6.73357 13.0534 6.60078H13.3613ZM12.7317 7.37311L12.7082 9.74877L12.4003 9.74571L12.4238 7.37006L12.7317 7.37311ZM12.7073 9.73101C12.7094 9.75038 12.7199 9.77572 12.7654 9.816C12.8151 9.86002 12.8757 9.89666 12.9603 9.95504C13.1138 10.0608 13.3221 10.2239 13.3221 10.5334H13.0143C13.0143 10.3912 12.9313 10.309 12.7856 10.2085C12.7207 10.1638 12.6297 10.107 12.5613 10.0465C12.4888 9.98226 12.4147 9.8919 12.4011 9.76347L12.7073 9.73101ZM13.3221 10.5334C13.3221 10.7276 13.2744 10.8726 13.1909 10.9846C13.1105 11.0925 13.0062 11.156 12.9268 11.2024C12.8384 11.2541 12.789 11.2816 12.7549 11.3208C12.731 11.3482 12.7077 11.39 12.7155 11.4865L12.4086 11.5113C12.3951 11.3441 12.4369 11.217 12.5227 11.1185C12.5982 11.0319 12.703 10.9766 12.7714 10.9366C12.849 10.8912 12.9042 10.8541 12.9441 10.8006C12.9809 10.7512 13.0143 10.6741 13.0143 10.5334H13.3221ZM12.7155 11.4866C12.7318 11.6897 12.7316 12.0002 12.7277 12.2548C12.7258 12.3832 12.7228 12.4993 12.7203 12.5832C12.7191 12.6252 12.718 12.6592 12.7172 12.6828C12.7168 12.6945 12.7165 12.7037 12.7162 12.7099C12.7161 12.7131 12.716 12.7155 12.716 12.7171C12.716 12.7179 12.7159 12.7185 12.7159 12.7189C12.7159 12.7191 12.7159 12.7193 12.7159 12.7194C12.7159 12.7195 12.7159 12.7195 12.7159 12.7195C12.7159 12.7196 12.7159 12.7196 12.7159 12.7196C12.7159 12.7196 12.7159 12.7196 12.562 12.7137C12.4082 12.7079 12.4082 12.7079 12.4082 12.7079C12.4082 12.7079 12.4082 12.7079 12.4082 12.7079C12.4082 12.7079 12.4082 12.7078 12.4082 12.7078C12.4082 12.7077 12.4082 12.7076 12.4082 12.7074C12.4082 12.707 12.4083 12.7064 12.4083 12.7057C12.4084 12.7041 12.4084 12.7018 12.4085 12.6988C12.4088 12.6928 12.4091 12.6838 12.4095 12.6723C12.4103 12.6492 12.4114 12.6157 12.4126 12.5742C12.415 12.4913 12.4179 12.3767 12.4199 12.2501C12.4238 11.9946 12.4236 11.6978 12.4086 11.5113L12.7155 11.4866ZM12.562 12.8677C11.3144 12.8677 3.42904 12.8757 3.0315 12.8598L3.04381 12.5521C3.43314 12.5677 11.3062 12.5598 12.562 12.5598V12.8677ZM2.88377 12.7018C2.89561 12.2644 2.89225 12.077 2.8896 11.9463C2.88684 11.8108 2.88476 11.7299 2.89973 11.5118L3.20691 11.5329C3.19277 11.7388 3.19478 11.8098 3.19743 11.9401C3.20018 12.0753 3.20354 12.2676 3.19155 12.7101L2.88377 12.7018ZM2.89973 11.5118C2.90141 11.4874 2.89146 11.4497 2.83386 11.3834C2.77495 11.3156 2.69599 11.2499 2.59643 11.1593C2.41275 10.9922 2.17518 10.7547 2.17518 10.3931H2.48307C2.48307 10.6081 2.61934 10.7639 2.80364 10.9316C2.88807 11.0084 2.99163 11.0955 3.0663 11.1815C3.14228 11.2689 3.21698 11.386 3.20691 11.5329L2.89973 11.5118ZM2.17518 10.3931C2.17518 10.2612 2.21362 10.1569 2.2748 10.0716C2.33225 9.99159 2.4068 9.93331 2.46432 9.88886C2.58919 9.79235 2.65229 9.74201 2.66406 9.62984L2.97027 9.66196C2.94287 9.9232 2.76195 10.048 2.65259 10.1325C2.593 10.1785 2.55288 10.2122 2.52494 10.2512C2.50074 10.2849 2.48307 10.3266 2.48307 10.3931H2.17518ZM2.66322 9.6459V7.27833H2.97111V9.6459H2.66322ZM2.66366 7.28993C2.66203 7.26837 2.64794 7.23367 2.59022 7.17689C2.53182 7.11944 2.45782 7.06603 2.36578 6.99347C2.20309 6.86523 1.97008 6.66947 1.98651 6.35906L2.29398 6.37534C2.28691 6.50887 2.38061 6.61311 2.55638 6.75167C2.63357 6.81251 2.73174 6.8842 2.80614 6.95739C2.88122 7.03125 2.96056 7.13273 2.97068 7.26674L2.66366 7.28993ZM1.98651 6.35904C1.99528 6.19394 2.05016 6.06737 2.13141 5.96808C2.20936 5.87282 2.30654 5.80929 2.38573 5.76109C2.47347 5.7077 2.52951 5.67752 2.57199 5.63879C2.60493 5.60876 2.61622 5.58528 2.61622 5.54971H2.92412C2.92412 5.69158 2.86019 5.7927 2.77942 5.86633C2.70819 5.93126 2.61203 5.9838 2.5458 6.02411C2.47104 6.06961 2.41249 6.11076 2.36969 6.16306C2.33019 6.21134 2.29929 6.27522 2.29398 6.37536L1.98651 6.35904ZM2.61622 5.54971C2.61622 5.38094 2.63187 4.82156 2.62427 4.67804L2.93173 4.66176C2.9398 4.81411 2.92412 5.40707 2.92412 5.54971H2.61622Z" fill="#FB8973" mask="url(#path-47-inside-3)"/>
<path d="M2.778 4.6699H4.04507C4.97388 4.45178 5.31248 3.89872 6.26513 3.89872C6.94988 3.89872 7.27248 4.36609 7.77625 4.36609C8.20102 4.36609 8.85471 3.86777 9.5708 3.86777C10.3029 3.86777 10.665 4.3195 11.1452 4.52957C11.5703 4.71648 12.1291 4.70686 12.7196 4.70686C12.7036 5.14282 12.7196 5.4018 12.7196 5.76792C12.7196 6.14175 13.2074 5.99372 13.2074 6.60078C13.2074 7.2394 12.5778 7.1149 12.5778 7.37159L12.5542 9.74724C12.5856 10.0428 13.1682 10.0817 13.1682 10.5334C13.1682 11.2032 12.5194 10.9713 12.562 11.4989C12.5934 11.8885 12.562 12.7137 12.562 12.7137C11.3103 12.7137 3.43109 12.7217 3.03766 12.706C3.0615 11.8261 3.02421 11.9464 3.05332 11.5223C3.07682 11.1797 2.32912 10.9697 2.32912 10.3931C2.32912 9.99614 2.778 10.0193 2.81717 9.6459V7.27833C2.79367 6.96721 2.11675 6.81114 2.14025 6.3672C2.16841 5.8367 2.77017 5.9046 2.77017 5.54971C2.77017 5.394 2.78583 4.81783 2.778 4.6699V4.6699Z" stroke="#FB8973" stroke-width="0.1" stroke-miterlimit="3.8636"/>
<path d="M3.80859 4.70853C3.80859 4.70853 3.82426 10.0036 3.80859 11.2496C3.80859 11.2496 11.3182 11.2651 11.6486 11.2338C11.6486 9.82441 11.6405 4.66963 11.6405 4.66963" stroke="#FB8973" stroke-width="0.1" stroke-miterlimit="3.8636"/>
<path d="M7.7373 4.38184V11.2656" stroke="#FB8973" stroke-width="0.1" stroke-miterlimit="3.8636"/>
<path d="M7.9379 10.5019C8.08512 10.5219 8.27748 10.5734 8.49855 10.6415C8.63118 10.6823 8.772 10.7285 8.91711 10.776L8.92504 10.7786C9.0674 10.8253 9.21369 10.8732 9.35901 10.9184L7.9379 10.5019ZM7.9379 10.5019C7.93911 10.5849 7.93853 10.7407 7.93301 11.032L8.02054 11.0312L8.4584 11.0272C8.81964 11.0236 9.2992 11.0185 9.77293 11.0122C9.63487 10.9912 9.49635 10.9612 9.35903 10.9184L7.9379 10.5019Z" stroke="#FB8973" stroke-width="0.1"/>
<path d="M7.85449 10.4167C8.18532 10.4324 8.79243 10.6615 9.3819 10.8449C10.145 11.0826 10.9547 10.916 11.5539 11.0396C11.7432 11.0785 7.85449 11.1096 7.85449 11.1096C7.87016 10.3388 7.85449 10.4167 7.85449 10.4167Z" stroke="#FB8973" stroke-width="0.1" stroke-miterlimit="3.8636"/>
<path d="M7.73384 11.2006C7.627 11.2006 7.53357 11.2316 7.46882 11.2778C7.40392 11.3241 7.37287 11.3811 7.37287 11.436C7.37287 11.4907 7.40389 11.5477 7.46881 11.594C7.53356 11.6401 7.627 11.6711 7.73384 11.6711C7.84072 11.6711 7.93408 11.6401 7.99874 11.594C8.06356 11.5477 8.09455 11.4907 8.09455 11.436C8.09455 11.381 8.06353 11.324 7.99873 11.2777C7.93407 11.2316 7.84072 11.2006 7.73384 11.2006Z" stroke="#FB8973" stroke-width="0.1"/>
<path d="M7.2959 11.436C7.2959 11.2635 7.49182 11.1236 7.73384 11.1236C7.97593 11.1236 8.17152 11.2635 8.17152 11.436C8.17152 11.6082 7.97593 11.7481 7.73384 11.7481C7.49182 11.7481 7.2959 11.6082 7.2959 11.436Z" stroke="#FB8973" stroke-width="0.1" stroke-miterlimit="3.8636"/>
<path d="M7.44009 11.032C7.43459 10.7407 7.43401 10.5849 7.43522 10.5019C7.28816 10.5219 7.09591 10.5734 6.87495 10.6415C6.74236 10.6823 6.60157 10.7284 6.45652 10.776L6.44831 10.7787C6.30607 10.8253 6.15992 10.8732 6.01476 10.9184C5.87733 10.9612 5.73872 10.9912 5.60059 11.0122C6.07421 11.0185 6.55361 11.0236 6.91475 11.0272L7.35257 11.0312L7.44009 11.032Z" stroke="#FB8973" stroke-width="0.1"/>
<path d="M7.5186 10.4167C7.18818 10.4324 6.58109 10.6615 5.99189 10.8449C5.22819 11.0826 4.4187 10.916 3.81917 11.0396C3.63028 11.0785 7.5186 11.1096 7.5186 11.1096C7.503 10.3388 7.5186 10.4167 7.5186 10.4167Z" stroke="#FB8973" stroke-width="0.1" stroke-miterlimit="3.8636"/>
<path d="M28.3377 10.5829C27.299 9.4087 26.3827 8.03014 26.2248 7.96127C25.7133 7.74315 24.4935 5.25152 21.2188 5.06461C20.3875 5.01696 17.2558 5.32933 17.1484 6.1523" stroke="#FB8973" stroke-width="0.1" stroke-miterlimit="3.8636"/>
<path d="M19.8781 11.4889C19.8903 11.4084 19.8968 11.3226 19.8968 11.2321C19.8968 11.0986 19.1294 11.1742 18.9471 11.1186C18.8212 11.0796 19.2845 10.8895 19.204 10.8895C19.6763 10.7027 20.8864 10.1557 20.4635 9.73711C20.0542 9.33208 19.8101 8.90389 19.582 8.64679C19.2751 8.30425 18.9126 8.11724 18.3538 8.11724C17.8735 8.11724 17.0955 8.97273 16.7728 9.20666C17.009 8.97273 17.6925 8.36629 17.6925 7.86791C17.6925 6.74678 16.8192 5.77326 16.5908 4.84675" stroke="#FB8973" stroke-width="0.1" stroke-miterlimit="3.8636"/>
<path d="M15.1709 13.1943C16.0364 13.1943 16.5245 13.1323 16.9342 12.9141C17.3824 12.6728 18.1935 12.151 18.3824 11.6994" stroke="#FB8973" stroke-width="0.1" stroke-miterlimit="3.8636"/>
<path d="M1.00486 1.01622H47.5952C47.5952 1.01622 47.5952 24.5227 47.5952 24.9374C47.2801 44.4355 26.0044 54.6841 23.3281 54.5902C20.5448 54.4924 0.941851 44.4639 1.00013 24.836C1.00894 20.2266 1.00486 1.01622 1.00486 1.01622Z" stroke="white" stroke-width="0.5" stroke-miterlimit="3.8636"/>
</svg>
