<svg width="41" height="38" viewBox="0 0 41 38" fill="none" xmlns="http://www.w3.org/2000/svg">
<path d="M40.9805 17.9586C40.9805 17.9003 40.9805 17.8614 40.9805 17.8031C40.9805 15.5094 39.15 13.6627 36.8471 13.585C36.8274 13.585 36.788 13.585 36.7683 13.585C36.7486 13.585 36.729 13.585 36.7093 13.585C36.6896 13.585 36.6896 13.585 36.6699 13.585C36.6306 13.585 36.5715 13.585 36.5321 13.585C36.5125 13.585 36.4928 13.585 36.4731 13.585C34.7803 13.6822 33.0679 14.7318 31.6507 15.6843C29.9186 16.8506 28.3833 18.328 26.5331 19.261C23.3838 20.855 19.585 20.7383 16.1404 19.9219C15.1366 19.6887 14.1327 19.3776 13.1092 19.261C10.0386 18.8917 6.75154 20.2329 4.99974 22.76C3.24794 25.287 2.87396 28.7276 5.47214 31.5267C13.1289 39.7687 26.1985 40.138 34.5441 32.5764C38.8351 28.6887 40.9018 23.4597 41.0002 18.1336C40.9805 18.0558 40.9805 18.017 40.9805 17.9586Z" fill="white" fill-opacity="0.5"/>
<path d="M26.1979 8.43394C26.8278 9.44475 28.1662 10.0085 29.3275 9.69745C29.8196 9.56138 30.2723 9.28924 30.6266 8.93934C31.5714 7.98685 31.7683 6.41233 31.1187 5.26545C30.4495 4.09914 28.5796 3.18553 27.3199 3.98251C25.8633 4.89612 25.2531 6.95661 26.1979 8.43394Z" fill="white"/>
<path d="M0 17.9005C0 14.11 2.63754 11.8357 5.64906 11.1359C8.68026 10.4361 12.0067 11.6413 14.0144 13.9739C14.6836 14.7515 15.2151 15.6262 15.7859 16.4815C17.7739 19.3973 20.4705 22.002 23.8953 22.9351C25.9227 23.4794 28.0485 23.4016 30.1152 23.7126C32.1819 24.0237 34.6817 24.4902 35.8627 26.2008C36.65 27.3476 36.9453 30.1662 35.3312 31.7408C31.5914 35.5896 26.336 38 20.5098 38C9.19203 38.0194 0 29.0971 0 17.9005Z" fill="white" fill-opacity="0.8"/>
<path d="M28.639 36.3477C26.1392 37.4168 23.3836 38 20.4902 38C9.17234 38 0 28.9416 0 17.7645C0 11.7191 2.67691 6.29571 6.92847 2.58295C8.1685 1.59158 9.29044 0.891793 10.6092 0.425268C11.928 -0.0412573 13.4042 -0.177327 14.7033 0.289198C16.0221 0.755723 17.1243 1.92204 17.2621 3.28273C17.4196 4.8767 16.337 6.29571 15.4316 7.61753C14.5262 8.93935 13.7191 10.6499 14.4277 12.0884C14.8411 12.9048 15.6678 13.4491 16.5338 13.8184C17.3999 14.1683 18.3053 14.4016 19.132 14.8098C20.9232 15.6845 22.242 17.4729 22.5175 19.4167C22.6356 20.2331 22.5962 21.0496 22.675 21.866C22.8718 23.8487 23.8757 25.7537 25.3913 27.0755C26.4148 27.9697 27.6745 28.5917 28.6587 29.5248C29.6231 30.4384 30.312 31.6825 30.3711 32.9848C30.4301 34.3067 29.7806 35.6674 28.6193 36.3088L28.639 36.3477Z" fill="white"/>
</svg>
