<svg width="61" height="57" viewBox="0 0 61 57" fill="none" xmlns="http://www.w3.org/2000/svg">
<path d="M60.9705 26.9382C60.9705 26.8507 60.9705 26.7924 60.9705 26.7049C60.9705 23.2643 58.2471 20.4943 54.8208 20.3777C54.7915 20.3777 54.7329 20.3777 54.7036 20.3777C54.6743 20.3777 54.6451 20.3777 54.6158 20.3777C54.5865 20.3777 54.5865 20.3777 54.5572 20.3777C54.4986 20.3777 54.4108 20.3777 54.3522 20.3777C54.3229 20.3777 54.2936 20.3777 54.2644 20.3777C51.7459 20.5235 49.1981 22.098 47.0896 23.5267C44.5126 25.2762 42.2284 27.4922 39.4756 28.8918C34.79 31.2827 29.1381 31.1078 24.0133 29.8831C22.5198 29.5332 21.0263 29.0667 19.5035 28.8918C14.935 28.3378 10.0445 30.3497 7.43817 34.1402C4.83183 37.9307 4.27542 43.0916 8.141 47.2904C19.5327 59.6533 38.9778 60.2073 51.3945 48.8649C57.7785 43.0333 60.8534 35.1899 60.9998 27.2006C60.9705 27.084 60.9705 27.0257 60.9705 26.9382Z" fill="white" fill-opacity="0.5"/>
<path d="M38.9784 12.6508C39.9155 14.1671 41.9068 15.0126 43.6346 14.5461C44.3668 14.342 45.0403 13.9338 45.5674 13.409C46.9731 11.9802 47.2659 9.61843 46.2996 7.89812C45.3039 6.14865 42.5218 4.77823 40.6476 5.9737C38.4805 7.34412 37.5727 10.4349 38.9784 12.6508Z" fill="white"/>
<path d="M0 26.8508C0 21.1651 3.92415 17.7536 8.4047 16.7039C12.9145 15.6542 17.8636 17.462 20.8507 20.961C21.8464 22.1273 22.6371 23.4394 23.4863 24.7223C26.4441 29.096 30.4561 33.0031 35.5516 34.4027C38.5679 35.2191 41.7307 35.1025 44.8055 35.569C47.8804 36.0355 51.5996 36.7353 53.3567 39.3012C54.5281 41.0215 54.9673 45.2494 52.566 47.6112C47.0019 53.3845 39.1829 57 30.5146 57C13.6759 57.0292 0 43.6457 0 26.8508Z" fill="white" fill-opacity="0.8"/>
<path d="M42.6092 54.5216C38.8901 56.1252 34.7902 57 30.4853 57C13.6467 57 0 43.4124 0 26.6467C0 17.5786 3.98272 9.44357 10.3082 3.87442C12.1531 2.38737 13.8224 1.33769 15.7844 0.637902C17.7465 -0.0618859 19.9429 -0.265991 21.8757 0.433797C23.8377 1.13358 25.4777 2.88305 25.6827 4.9241C25.9169 7.31504 24.3063 9.44357 22.9592 11.4263C21.6121 13.409 20.4114 15.9749 21.4657 18.1326C22.0806 19.3572 23.3106 20.1736 24.5991 20.7276C25.8877 21.2525 27.2347 21.6024 28.4647 22.2147C31.1296 23.5268 33.0917 26.2093 33.5017 29.1251C33.6774 30.3497 33.6188 31.5744 33.736 32.799C34.0288 35.7731 35.5223 38.6305 37.7772 40.6133C39.3 41.9545 41.1743 42.8876 42.6385 44.2872C44.0734 45.6576 45.0984 47.5237 45.1863 49.4773C45.2741 51.46 44.3077 53.501 42.5799 54.4632L42.6092 54.5216Z" fill="white"/>
</svg>
