<svg width="172" height="39" viewBox="0 0 172 39" fill="none" xmlns="http://www.w3.org/2000/svg">
<path d="M68.1674 27.3875C69.2602 27.3875 70.3033 27.1718 71.2306 26.8898C72.075 26.7239 72.787 26.3921 73.4989 26.3921C74.6745 26.3921 75.1713 27.1552 75.1713 27.9515C75.1713 28.7976 74.5917 29.2953 73.8301 29.6768C72.3234 30.4731 69.7569 30.8049 68.1177 30.8049C61.6603 30.8049 58.6302 26.475 58.6302 20.0881C58.6302 13.5684 61.6934 9.53711 67.4389 9.53711C73.234 9.53711 75.7011 13.2863 75.7011 19.0761C75.7011 20.9175 74.9891 21.2991 74.0288 21.2991H62.869C62.869 24.7 64.2598 27.3875 68.1674 27.3875ZM71.8101 18.4789C71.7273 15.2771 70.7173 13.0209 67.4389 13.0209C64.5413 13.0209 63.0346 15.3269 62.869 18.4789H71.8101Z" fill="#EB6054"/>
<path d="M79.9399 15.5425C79.9399 13.6015 79.4763 12.5232 79.4763 11.7103C79.4763 10.6652 80.1055 9.73617 81.3639 9.73617C82.4567 9.73617 83.0362 10.2836 83.2514 11.0799L83.5495 12.208C85.3046 10.4495 87.4571 9.52051 89.1294 9.52051C91.2322 9.52051 93.2025 10.2836 94.5768 12.2578C96.2988 10.5822 98.5672 9.52051 100.653 9.52051C104.809 9.52051 107.541 11.9094 107.541 16.8365V28.5155C107.541 29.6934 106.614 30.6224 105.439 30.6224C104.263 30.6224 103.336 29.6934 103.336 28.5155V17.2844C103.336 14.5969 102.326 13.0043 99.9746 13.0043C98.7162 13.0043 97.2094 13.5849 95.5703 14.9785C95.7855 15.8245 95.8186 17.1185 95.8186 17.9646V28.5155C95.8186 29.6934 94.8914 30.6224 93.7158 30.6224C92.5402 30.6224 91.613 29.6934 91.613 28.5155V17.2844C91.613 14.5969 90.6858 13.0043 88.2518 13.0043C86.9438 13.0043 85.3211 13.8836 84.0959 15.0282V28.5155C84.0959 29.6934 83.1686 30.6224 81.9931 30.6224C80.7844 30.6224 79.8903 29.6934 79.8903 28.5155V15.5425H79.9399Z" fill="#EB6054"/>
<path d="M121.218 27.3875C122.311 27.3875 123.354 27.1718 124.281 26.8898C125.126 26.7239 125.838 26.3921 126.549 26.3921C127.725 26.3921 128.222 27.1552 128.222 27.9515C128.222 28.7976 127.626 29.2953 126.881 29.6768C125.374 30.4731 122.807 30.8049 121.168 30.8049C114.711 30.8049 111.681 26.475 111.681 20.0881C111.681 13.5684 114.744 9.53711 120.489 9.53711C126.285 9.53711 128.752 13.2863 128.752 19.0761C128.752 20.9175 128.04 21.2991 127.079 21.2991H115.92C115.936 24.7 117.327 27.3875 121.218 27.3875ZM124.877 18.4789C124.794 15.2771 123.784 13.0209 120.506 13.0209C117.608 13.0209 116.102 15.3269 115.936 18.4789H124.877Z" fill="#EB6054"/>
<path d="M145.773 2.12152C145.773 0.943664 146.65 0.0146484 147.876 0.0146484C149.051 0.0146484 149.978 0.943664 149.978 2.12152V24.7829C149.978 26.757 150.442 27.8519 150.442 28.615C150.442 29.71 149.813 30.639 148.554 30.639C147.429 30.639 146.882 30.0583 146.617 29.2454L146.369 28.1174C144.432 29.9256 142.296 30.8049 140.408 30.8049C135.755 30.8049 132.444 27.1552 132.444 20.171C132.444 13.8172 135.457 9.53705 141.716 9.53705C143.306 9.53705 144.779 10.1177 145.789 10.549V2.12152H145.773ZM145.773 13.9831C144.763 13.4356 143.206 13.0209 141.749 13.0209C138.057 13.0209 136.633 15.8743 136.633 20.171C136.633 24.5008 138.057 27.3542 141.203 27.3542C142.379 27.3542 144.134 26.8068 145.773 25.2971V13.9831Z" fill="#EB6054"/>
<path d="M160.824 31.7667L153.985 12.7219C153.903 12.4731 153.82 12.0418 153.82 11.7929C153.82 10.6648 154.747 9.68604 155.873 9.68604C156.833 9.68604 157.628 10.3164 157.893 11.1625L162.844 26.3751H162.976L167.927 11.1625C168.175 10.3164 169.02 9.68604 169.947 9.68604C171.122 9.68604 172 10.6482 172 11.7929C172 12.0418 171.95 12.4731 171.868 12.7219L165.162 31.5511C163.605 35.9639 161.519 37.9049 158.704 38.7012C158.075 38.9168 157.28 38.9998 156.866 38.9998C155.31 38.9998 154.764 37.8717 154.764 37.0256C154.764 36.0137 155.476 35.3501 156.601 35.1344C158.522 34.6699 159.896 34.0727 160.824 31.7667Z" fill="#EB6054"/>
<path d="M34.4728 15.3269C34.4728 15.2771 34.4728 15.2439 34.4728 15.1942C34.4728 13.2366 32.9329 11.6606 30.9957 11.5942C30.9791 11.5942 30.946 11.5942 30.9295 11.5942C30.9129 11.5942 30.8964 11.5942 30.8798 11.5942C30.8632 11.5942 30.8632 11.5942 30.8467 11.5942C30.8136 11.5942 30.7639 11.5942 30.7308 11.5942C30.7142 11.5942 30.6977 11.5942 30.6811 11.5942C29.2572 11.6772 27.8166 12.573 26.6245 13.3859C25.1674 14.3813 23.8759 15.6421 22.3195 16.4384C19.6703 17.7987 16.4747 17.6992 13.5771 17.0024C12.7327 16.8034 11.8883 16.5379 11.0273 16.4384C8.44429 16.1232 5.67918 17.2679 4.20555 19.4245C2.73193 21.5811 2.41734 24.5175 4.60294 26.9064C11.0438 33.9404 22.0381 34.2556 29.0585 27.8022C32.668 24.4843 34.4066 20.0217 34.4893 15.4762C34.4728 15.4098 34.4728 15.3767 34.4728 15.3269Z" fill="#EB6054"/>
<path d="M22.0381 7.19794C22.568 8.0606 23.6939 8.5417 24.6708 8.27627C25.0847 8.16014 25.4655 7.92788 25.7636 7.62927C26.5583 6.81638 26.7239 5.47263 26.1775 4.49384C25.6146 3.49847 24.0416 2.71876 22.9819 3.39893C21.7567 4.17864 21.2434 5.93714 22.0381 7.19794Z" fill="#EB6054"/>
<path d="M0 15.277C0 12.0421 2.21871 10.1011 4.75202 9.50386C7.30189 8.90664 10.1001 9.93519 11.789 11.9259C12.3519 12.5895 12.799 13.3361 13.2792 14.066C14.9515 16.5544 17.2199 18.7774 20.1009 19.5737C21.8063 20.0382 23.5945 19.9719 25.3331 20.2373C27.0716 20.5027 29.1744 20.9009 30.1679 22.3608C30.8302 23.3395 31.0786 25.745 29.7208 27.0888C26.5749 30.3735 22.154 32.4306 17.253 32.4306C7.73238 32.4472 0 24.8326 0 15.277Z" fill="url(#paint0_linear)"/>
<path d="M24.0913 31.0204C21.9884 31.9329 19.6704 32.4305 17.2364 32.4305C7.71583 32.4305 0 24.6998 0 15.1608C0 10.0015 2.25183 5.37298 5.82826 2.20438C6.87139 1.35831 7.81517 0.761088 8.92453 0.362939C10.0339 -0.0352104 11.2757 -0.151337 12.3685 0.246812C13.4779 0.644961 14.4051 1.64033 14.521 2.8016C14.6534 4.16195 13.7428 5.37298 12.9811 6.50107C12.2195 7.62916 11.5406 9.08904 12.1367 10.3167C12.4844 11.0134 13.1798 11.4779 13.9084 11.7931C14.6369 12.0918 15.3985 12.2908 16.094 12.6392C17.6007 13.3857 18.7101 14.912 18.9419 16.5709C19.0412 17.2677 19.0081 17.9645 19.0743 18.6612C19.2399 20.3534 20.0843 21.9791 21.3593 23.1072C22.2203 23.8703 23.2799 24.4012 24.1078 25.1975C24.9191 25.9772 25.4987 27.0389 25.5483 28.1504C25.598 29.2785 25.0516 30.4398 24.0747 30.9873L24.0913 31.0204Z" fill="url(#paint1_linear)"/>
<path d="M40.1686 3.71394V3.11672C40.2514 1.39141 41.0793 0.445801 43.0165 0.445801H54.1266C55.7989 0.445801 57.1567 1.67343 57.1567 3.43192C57.1567 4.06232 56.8917 4.92498 56.2957 5.73787L45.0696 26.7734H55.6996C56.7924 26.7734 57.7362 27.6361 57.7362 28.7642C57.7362 29.8923 56.7924 30.8047 55.6996 30.8047H42.7019C41.0296 30.8047 39.6719 29.5771 39.6719 27.8186C39.6719 27.1882 39.9368 26.3255 40.5329 25.5126L51.9079 4.46047H44.1921" fill="#EB6054"/>
<path d="M44.1921 3.91294V6.2023C44.1921 7.29721 43.3311 8.24282 42.2052 8.24282C41.0792 8.24282 40.1686 7.29721 40.1686 6.2023V3.71387" fill="#EB6054"/>
<defs>
<linearGradient id="paint0_linear" x1="0.000529842" y1="20.8898" x2="30.717" y2="20.8898" gradientUnits="userSpaceOnUse">
<stop stop-color="#F6C383"/>
<stop offset="0.1591" stop-color="#F6BC80"/>
<stop offset="0.3901" stop-color="#F6A976"/>
<stop offset="0.6647" stop-color="#F58967"/>
<stop offset="0.9536" stop-color="#F46053"/>
</linearGradient>
<linearGradient id="paint1_linear" x1="0.000529842" y1="16.2346" x2="25.5515" y2="16.2346" gradientUnits="userSpaceOnUse">
<stop stop-color="#F6C383"/>
<stop offset="0.1591" stop-color="#F6BC80"/>
<stop offset="0.3901" stop-color="#F6A976"/>
<stop offset="0.6647" stop-color="#F58967"/>
<stop offset="0.9536" stop-color="#F46053"/>
</linearGradient>
</defs>
</svg>
